<?xml version="1.0" encoding="UTF-8" standalone="no"?>
<!-- Created with Inkscape (http://www.inkscape.org/) -->

<svg
   width="242.0265mm"
   height="121.92mm"
   viewBox="0 0 242.0265 121.92"
   version="1.1"
   id="svg1"
   xml:space="preserve"
   inkscape:version="1.3.2 (1:1.3.2+202311252150+091e20ef0f)"
   sodipodi:docname="figure_adaptive.svg"
   xmlns:inkscape="http://www.inkscape.org/namespaces/inkscape"
   xmlns:sodipodi="http://sodipodi.sourceforge.net/DTD/sodipodi-0.dtd"
   xmlns:xlink="http://www.w3.org/1999/xlink"
   xmlns="http://www.w3.org/2000/svg"
   xmlns:svg="http://www.w3.org/2000/svg"><sodipodi:namedview
     id="namedview1"
     pagecolor="#ffffff"
     bordercolor="#666666"
     borderopacity="1.0"
     inkscape:showpageshadow="2"
     inkscape:pageopacity="0.0"
     inkscape:pagecheckerboard="0"
     inkscape:deskcolor="#d1d1d1"
     inkscape:document-units="mm"
     inkscape:zoom="1.6302609"
     inkscape:cx="328.78172"
     inkscape:cy="308.53956"
     inkscape:window-width="3840"
     inkscape:window-height="2012"
     inkscape:window-x="0"
     inkscape:window-y="27"
     inkscape:window-maximized="1"
     inkscape:current-layer="layer1" /><defs
     id="defs1"><style
       type="text/css"
       id="style1">*{stroke-linejoin: round; stroke-linecap: butt}</style><path
       id="m548036fe59"
       d="M 0,0 V 3.5"
       style="stroke:#000000;stroke-width:0.8" /><path
       id="DejaVuSans-30"
       d="m 2034,4250 q -487,0 -733,-480 -245,-479 -245,-1442 0,-959 245,-1439 246,-480 733,-480 491,0 736,480 246,480 246,1439 0,963 -246,1442 -245,480 -736,480 z m 0,500 q 785,0 1199,-621 414,-620 414,-1801 0,-1178 -414,-1799 -414,-620 -1199,-620 -784,0 -1198,620 -414,621 -414,1799 0,1181 414,1801 414,621 1198,621 z"
       transform="scale(0.015625)" /><path
       id="DejaVuSans-32"
       d="M 1228,531 H 3431 V 0 H 469 v 531 q 359,372 979,998 621,627 780,809 303,340 423,576 121,236 121,464 0,372 -261,606 -261,235 -680,235 -297,0 -627,-103 -329,-103 -704,-313 v 638 q 381,153 712,231 332,78 607,78 725,0 1156,-363 431,-362 431,-968 0,-288 -108,-546 -107,-257 -392,-607 -78,-91 -497,-524 Q 1991,1309 1228,531 Z"
       transform="scale(0.015625)" /><path
       id="DejaVuSans-34"
       d="M 2419,4116 825,1625 h 1594 z m -166,550 h 794 V 1625 h 666 V 1100 H 3047 V 0 H 2419 V 1100 H 313 v 609 z"
       transform="scale(0.015625)" /><path
       id="DejaVuSans-36"
       d="m 2113,2584 q -425,0 -674,-291 -248,-290 -248,-796 0,-503 248,-796 249,-292 674,-292 425,0 673,292 248,293 248,796 0,506 -248,796 -248,291 -673,291 z m 1253,1979 v -575 q -238,112 -480,171 -242,60 -480,60 -625,0 -955,-422 -329,-422 -376,-1275 184,272 462,417 279,145 613,145 703,0 1111,-427 408,-426 408,-1160 0,-719 -425,-1154 -425,-434 -1131,-434 -810,0 -1238,620 -428,621 -428,1799 0,1106 525,1764 525,658 1409,658 238,0 480,-47 242,-47 505,-140 z"
       transform="scale(0.015625)" /><path
       id="DejaVuSans-38"
       d="m 2034,2216 q -450,0 -708,-241 -257,-241 -257,-662 0,-422 257,-663 258,-241 708,-241 450,0 709,242 260,243 260,662 0,421 -258,662 -257,241 -711,241 z m -631,268 q -406,100 -633,378 -226,279 -226,679 0,559 398,884 399,325 1092,325 697,0 1094,-325 397,-325 397,-884 0,-400 -227,-679 -226,-278 -629,-378 456,-106 710,-416 255,-309 255,-755 Q 3634,634 3220,271 2806,-91 2034,-91 1263,-91 848,271 434,634 434,1313 q 0,446 256,755 257,310 713,416 z m -231,997 q 0,-362 226,-565 227,-203 636,-203 407,0 636,203 230,203 230,565 0,363 -230,566 -229,203 -636,203 -409,0 -636,-203 -226,-203 -226,-566 z"
       transform="scale(0.015625)" /><path
       id="DejaVuSans-31"
       d="M 794,531 H 1825 V 4091 L 703,3866 v 575 l 1116,225 h 631 V 531 H 3481 V 0 H 794 Z"
       transform="scale(0.015625)" /><path
       id="ma61af9071d"
       d="M 0,0 H -3.5"
       style="stroke:#000000;stroke-width:0.8" /><path
       id="DejaVuSans-2e"
       d="m 684,794 h 660 V 0 H 684 Z"
       transform="scale(0.015625)" /><path
       id="DejaVuSans-33"
       d="m 2597,2516 q 453,-97 707,-404 255,-306 255,-756 0,-690 -475,-1069 -475,-378 -1350,-378 -293,0 -604,58 -311,58 -642,174 v 609 q 262,-153 574,-231 313,-78 654,-78 593,0 904,234 311,234 311,681 0,413 -289,645 -289,233 -804,233 h -544 v 519 h 569 q 465,0 712,186 247,186 247,536 0,359 -255,551 -254,193 -729,193 -260,0 -557,-57 -297,-56 -653,-174 v 562 q 360,100 674,150 314,50 592,50 719,0 1137,-327 419,-326 419,-882 0,-388 -222,-655 -222,-267 -631,-370 z"
       transform="scale(0.015625)" /><path
       id="DejaVuSans-35"
       d="M 691,4666 H 3169 V 4134 H 1269 V 2991 q 137,47 274,70 138,23 276,23 781,0 1237,-428 457,-428 457,-1159 Q 3513,744 3044,326 2575,-91 1722,-91 1428,-91 1123,-41 819,9 494,109 v 635 q 281,-153 581,-228 300,-75 634,-75 541,0 856,284 316,284 316,772 0,487 -316,771 -315,285 -856,285 -253,0 -505,-56 -251,-56 -513,-175 z"
       transform="scale(0.015625)" /><path
       id="DejaVuSans-37"
       d="M 525,4666 H 3525 V 4397 L 1831,0 H 1172 L 2766,4134 H 525 Z"
       transform="scale(0.015625)" /><path
       id="DejaVuSans-46"
       d="M 628,4666 H 3309 V 4134 H 1259 V 2759 H 3109 V 2228 H 1259 V 0 H 628 Z"
       transform="scale(0.015625)" /><path
       id="DejaVuSans-53"
       d="m 3425,4513 v -616 q -359,172 -678,256 -319,85 -616,85 -515,0 -795,-200 -280,-200 -280,-569 0,-310 186,-468 186,-157 705,-254 l 381,-78 q 706,-135 1042,-474 336,-339 336,-907 0,-679 -455,-1029 -454,-350 -1332,-350 -331,0 -705,75 -373,75 -773,222 v 650 q 384,-215 753,-325 369,-109 725,-109 540,0 834,212 294,213 294,607 0,343 -211,537 -211,194 -692,291 l -385,75 q -706,140 -1022,440 -315,300 -315,835 0,619 436,975 436,356 1201,356 329,0 669,-60 341,-59 697,-177 z"
       transform="scale(0.015625)" /><path
       id="DejaVuSans-61"
       d="m 2194,1759 q -697,0 -966,-159 -269,-159 -269,-544 0,-306 202,-486 202,-179 548,-179 479,0 768,339 289,339 289,901 v 128 z m 1147,238 V 0 H 2766 V 531 Q 2569,213 2275,61 1981,-91 1556,-91 q -537,0 -855,302 -317,302 -317,808 0,590 395,890 396,300 1180,300 h 807 v 57 q 0,397 -261,614 -261,217 -733,217 -300,0 -585,-72 -284,-72 -546,-216 v 532 q 315,122 612,182 297,61 578,61 760,0 1135,-394 375,-393 375,-1193 z"
       transform="scale(0.015625)" /><clipPath
       id="p62e98c87c6"><rect
         x="57.599998"
         y="41.472"
         width="357.12"
         height="266.112"
         id="rect65" /></clipPath><linearGradient
       inkscape:collect="always"
       xlink:href="#linearGradient9556"
       id="linearGradient13636"
       gradientUnits="userSpaceOnUse"
       x1="-27.781252"
       y1="6.4820833"
       x2="-14.287086"
       y2="6.4820833"
       gradientTransform="translate(45.809855,80.630938)" /><linearGradient
       inkscape:collect="always"
       id="linearGradient9556"><stop
         style="stop-color:#cc7aa8;stop-opacity:1;"
         offset="0"
         id="stop9552" /><stop
         style="stop-color:#edcfe0;stop-opacity:1;"
         offset="1"
         id="stop9554" /></linearGradient><linearGradient
       inkscape:collect="always"
       xlink:href="#linearGradient9556"
       id="linearGradient13636-9"
       gradientUnits="userSpaceOnUse"
       x1="-27.781252"
       y1="6.4820833"
       x2="-14.287086"
       y2="6.4820833"
       gradientTransform="translate(91.700462,161.83744)" /></defs><g
     inkscape:label="Layer 1"
     inkscape:groupmode="layer"
     id="layer1"
     transform="translate(-18.0286,-66.886604)"><g
       id="figure_1"
       transform="matrix(0.35277778,0,0,0.35277778,97.495105,66.886604)"><g
         id="patch_1"><path
           d="M 0,345.6 H 460.8 V 0 H 0 Z"
           style="fill:#ffffff"
           id="path1" /></g><g
         id="axes_1"><g
           id="patch_2"><path
             d="M 57.6,307.584 H 414.72 V 41.472 H 57.6 Z"
             style="fill:#ffffff"
             id="path2" /></g><g
           id="matplotlib.axis_1"><g
             id="xtick_1"><g
               id="line2d_1"><defs
                 id="defs2"><path
                   id="path3"
                   d="M 0,0 V 3.5"
                   style="stroke:#000000;stroke-width:0.8" /></defs><g
                 id="g2"><use
                   xlink:href="#m548036fe59"
                   x="73.832726"
                   y="307.58401"
                   style="stroke:#000000;stroke-width:0.8"
                   id="use2" /></g></g><g
               id="text_1"><!-- 0 --><g
                 transform="matrix(0.1,0,0,-0.1,70.651477,322.18244)"
                 id="g3"><defs
                   id="defs3"><path
                     id="path4"
                     d="m 2034,4250 q -487,0 -733,-480 -245,-479 -245,-1442 0,-959 245,-1439 246,-480 733,-480 491,0 736,480 246,480 246,1439 0,963 -246,1442 -245,480 -736,480 z m 0,500 q 785,0 1199,-621 414,-620 414,-1801 0,-1178 -414,-1799 -414,-620 -1199,-620 -784,0 -1198,620 -414,621 -414,1799 0,1181 414,1801 414,621 1198,621 z"
                     transform="scale(0.015625)" /></defs><use
                   xlink:href="#DejaVuSans-30"
                   id="use3" /></g></g></g><g
             id="xtick_2"><g
               id="line2d_2"><g
                 id="g4"><use
                   xlink:href="#m548036fe59"
                   x="139.41951"
                   y="307.58401"
                   style="stroke:#000000;stroke-width:0.8"
                   id="use4" /></g></g><g
               id="text_2"><!-- 20 --><g
                 transform="matrix(0.1,0,0,-0.1,133.057,322.18244)"
                 id="g6"><defs
                   id="defs4"><path
                     id="path5"
                     d="M 1228,531 H 3431 V 0 H 469 v 531 q 359,372 979,998 621,627 780,809 303,340 423,576 121,236 121,464 0,372 -261,606 -261,235 -680,235 -297,0 -627,-103 -329,-103 -704,-313 v 638 q 381,153 712,231 332,78 607,78 725,0 1156,-363 431,-362 431,-968 0,-288 -108,-546 -107,-257 -392,-607 -78,-91 -497,-524 Q 1991,1309 1228,531 Z"
                     transform="scale(0.015625)" /></defs><use
                   xlink:href="#DejaVuSans-32"
                   id="use5" /><use
                   xlink:href="#DejaVuSans-30"
                   x="63.623047"
                   id="use6" /></g></g></g><g
             id="xtick_3"><g
               id="line2d_3"><g
                 id="g7"><use
                   xlink:href="#m548036fe59"
                   x="205.00629"
                   y="307.58401"
                   style="stroke:#000000;stroke-width:0.8"
                   id="use7" /></g></g><g
               id="text_3"><!-- 40 --><g
                 transform="matrix(0.1,0,0,-0.1,198.64378,322.18244)"
                 id="g9"><defs
                   id="defs7"><path
                     id="path6"
                     d="M 2419,4116 825,1625 h 1594 z m -166,550 h 794 V 1625 h 666 V 1100 H 3047 V 0 H 2419 V 1100 H 313 v 609 z"
                     transform="scale(0.015625)" /></defs><use
                   xlink:href="#DejaVuSans-34"
                   id="use8" /><use
                   xlink:href="#DejaVuSans-30"
                   x="63.623047"
                   id="use9" /></g></g></g><g
             id="xtick_4"><g
               id="line2d_4"><g
                 id="g10"><use
                   xlink:href="#m548036fe59"
                   x="270.59305"
                   y="307.58401"
                   style="stroke:#000000;stroke-width:0.8"
                   id="use10" /></g></g><g
               id="text_4"><!-- 60 --><g
                 transform="matrix(0.1,0,0,-0.1,264.23056,322.18244)"
                 id="g12"><defs
                   id="defs10"><path
                     id="path7"
                     d="m 2113,2584 q -425,0 -674,-291 -248,-290 -248,-796 0,-503 248,-796 249,-292 674,-292 425,0 673,292 248,293 248,796 0,506 -248,796 -248,291 -673,291 z m 1253,1979 v -575 q -238,112 -480,171 -242,60 -480,60 -625,0 -955,-422 -329,-422 -376,-1275 184,272 462,417 279,145 613,145 703,0 1111,-427 408,-426 408,-1160 0,-719 -425,-1154 -425,-434 -1131,-434 -810,0 -1238,620 -428,621 -428,1799 0,1106 525,1764 525,658 1409,658 238,0 480,-47 242,-47 505,-140 z"
                     transform="scale(0.015625)" /></defs><use
                   xlink:href="#DejaVuSans-36"
                   id="use11" /><use
                   xlink:href="#DejaVuSans-30"
                   x="63.623047"
                   id="use12" /></g></g></g><g
             id="xtick_5"><g
               id="line2d_5"><g
                 id="g13"><use
                   xlink:href="#m548036fe59"
                   x="336.17984"
                   y="307.58401"
                   style="stroke:#000000;stroke-width:0.8"
                   id="use13" /></g></g><g
               id="text_5"><!-- 80 --><g
                 transform="matrix(0.1,0,0,-0.1,329.81734,322.18244)"
                 id="g15"><defs
                   id="defs13"><path
                     id="path8"
                     d="m 2034,2216 q -450,0 -708,-241 -257,-241 -257,-662 0,-422 257,-663 258,-241 708,-241 450,0 709,242 260,243 260,662 0,421 -258,662 -257,241 -711,241 z m -631,268 q -406,100 -633,378 -226,279 -226,679 0,559 398,884 399,325 1092,325 697,0 1094,-325 397,-325 397,-884 0,-400 -227,-679 -226,-278 -629,-378 456,-106 710,-416 255,-309 255,-755 Q 3634,634 3220,271 2806,-91 2034,-91 1263,-91 848,271 434,634 434,1313 q 0,446 256,755 257,310 713,416 z m -231,997 q 0,-362 226,-565 227,-203 636,-203 407,0 636,203 230,203 230,565 0,363 -230,566 -229,203 -636,203 -409,0 -636,-203 -226,-203 -226,-566 z"
                     transform="scale(0.015625)" /></defs><use
                   xlink:href="#DejaVuSans-38"
                   id="use14" /><use
                   xlink:href="#DejaVuSans-30"
                   x="63.623047"
                   id="use15" /></g></g></g><g
             id="xtick_6"><g
               id="line2d_6"><g
                 id="g16"><use
                   xlink:href="#m548036fe59"
                   x="401.7666"
                   y="307.58401"
                   style="stroke:#000000;stroke-width:0.8"
                   id="use16" /></g></g><g
               id="text_6"><!-- 100 --><g
                 transform="matrix(0.1,0,0,-0.1,392.22286,322.18244)"
                 id="g19"><defs
                   id="defs16"><path
                     id="path9"
                     d="M 794,531 H 1825 V 4091 L 703,3866 v 575 l 1116,225 h 631 V 531 H 3481 V 0 H 794 Z"
                     transform="scale(0.015625)" /></defs><use
                   xlink:href="#DejaVuSans-31"
                   id="use17" /><use
                   xlink:href="#DejaVuSans-30"
                   x="63.623047"
                   id="use18" /><use
                   xlink:href="#DejaVuSans-30"
                   x="127.24609"
                   id="use19" /></g></g></g></g><g
           id="matplotlib.axis_2"><g
             id="ytick_1"><g
               id="line2d_7"><defs
                 id="defs19"><path
                   id="path10"
                   d="M 0,0 H -3.5"
                   style="stroke:#000000;stroke-width:0.8" /></defs><g
                 id="g20"><use
                   xlink:href="#ma61af9071d"
                   x="57.599998"
                   y="295.48801"
                   style="stroke:#000000;stroke-width:0.8"
                   id="use20" /></g></g><g
               id="text_7"><!-- 0.0 --><g
                 transform="matrix(0.1,0,0,-0.1,34.696875,299.28722)"
                 id="g23"><defs
                   id="defs20"><path
                     id="path11"
                     d="m 684,794 h 660 V 0 H 684 Z"
                     transform="scale(0.015625)" /></defs><use
                   xlink:href="#DejaVuSans-30"
                   id="use21" /><use
                   xlink:href="#DejaVuSans-2e"
                   x="63.623047"
                   id="use22" /><use
                   xlink:href="#DejaVuSans-30"
                   x="95.410156"
                   id="use23" /></g></g></g><g
             id="ytick_2"><g
               id="line2d_8"><g
                 id="g24"><use
                   xlink:href="#ma61af9071d"
                   x="57.599998"
                   y="264.3717"
                   style="stroke:#000000;stroke-width:0.8"
                   id="use24" /></g></g><g
               id="text_8"><!-- 0.1 --><g
                 transform="matrix(0.1,0,0,-0.1,34.696875,268.17092)"
                 id="g27"><use
                   xlink:href="#DejaVuSans-30"
                   id="use25" /><use
                   xlink:href="#DejaVuSans-2e"
                   x="63.623047"
                   id="use26" /><use
                   xlink:href="#DejaVuSans-31"
                   x="95.410156"
                   id="use27" /></g></g></g><g
             id="ytick_3"><g
               id="line2d_9"><g
                 id="g28"><use
                   xlink:href="#ma61af9071d"
                   x="57.599998"
                   y="233.2554"
                   style="stroke:#000000;stroke-width:0.8"
                   id="use28" /></g></g><g
               id="text_9"><!-- 0.2 --><g
                 transform="matrix(0.1,0,0,-0.1,34.696875,237.05462)"
                 id="g31"><use
                   xlink:href="#DejaVuSans-30"
                   id="use29" /><use
                   xlink:href="#DejaVuSans-2e"
                   x="63.623047"
                   id="use30" /><use
                   xlink:href="#DejaVuSans-32"
                   x="95.410156"
                   id="use31" /></g></g></g><g
             id="ytick_4"><g
               id="line2d_10"><g
                 id="g32"><use
                   xlink:href="#ma61af9071d"
                   x="57.599998"
                   y="202.1391"
                   style="stroke:#000000;stroke-width:0.8"
                   id="use32" /></g></g><g
               id="text_10"><!-- 0.3 --><g
                 transform="matrix(0.1,0,0,-0.1,34.696875,205.93831)"
                 id="g35"><defs
                   id="defs32"><path
                     id="path12"
                     d="m 2597,2516 q 453,-97 707,-404 255,-306 255,-756 0,-690 -475,-1069 -475,-378 -1350,-378 -293,0 -604,58 -311,58 -642,174 v 609 q 262,-153 574,-231 313,-78 654,-78 593,0 904,234 311,234 311,681 0,413 -289,645 -289,233 -804,233 h -544 v 519 h 569 q 465,0 712,186 247,186 247,536 0,359 -255,551 -254,193 -729,193 -260,0 -557,-57 -297,-56 -653,-174 v 562 q 360,100 674,150 314,50 592,50 719,0 1137,-327 419,-326 419,-882 0,-388 -222,-655 -222,-267 -631,-370 z"
                     transform="scale(0.015625)" /></defs><use
                   xlink:href="#DejaVuSans-30"
                   id="use33" /><use
                   xlink:href="#DejaVuSans-2e"
                   x="63.623047"
                   id="use34" /><use
                   xlink:href="#DejaVuSans-33"
                   x="95.410156"
                   id="use35" /></g></g></g><g
             id="ytick_5"><g
               id="line2d_11"><g
                 id="g36"><use
                   xlink:href="#ma61af9071d"
                   x="57.599998"
                   y="171.0228"
                   style="stroke:#000000;stroke-width:0.8"
                   id="use36" /></g></g><g
               id="text_11"><!-- 0.4 --><g
                 transform="matrix(0.1,0,0,-0.1,34.696875,174.82201)"
                 id="g39"><use
                   xlink:href="#DejaVuSans-30"
                   id="use37" /><use
                   xlink:href="#DejaVuSans-2e"
                   x="63.623047"
                   id="use38" /><use
                   xlink:href="#DejaVuSans-34"
                   x="95.410156"
                   id="use39" /></g></g></g><g
             id="ytick_6"><g
               id="line2d_12"><g
                 id="g40"><use
                   xlink:href="#ma61af9071d"
                   x="57.599998"
                   y="139.90649"
                   style="stroke:#000000;stroke-width:0.8"
                   id="use40" /></g></g><g
               id="text_12"><!-- 0.5 --><g
                 transform="matrix(0.1,0,0,-0.1,34.696875,143.70571)"
                 id="g43"><defs
                   id="defs40"><path
                     id="path13"
                     d="M 691,4666 H 3169 V 4134 H 1269 V 2991 q 137,47 274,70 138,23 276,23 781,0 1237,-428 457,-428 457,-1159 Q 3513,744 3044,326 2575,-91 1722,-91 1428,-91 1123,-41 819,9 494,109 v 635 q 281,-153 581,-228 300,-75 634,-75 541,0 856,284 316,284 316,772 0,487 -316,771 -315,285 -856,285 -253,0 -505,-56 -251,-56 -513,-175 z"
                     transform="scale(0.015625)" /></defs><use
                   xlink:href="#DejaVuSans-30"
                   id="use41" /><use
                   xlink:href="#DejaVuSans-2e"
                   x="63.623047"
                   id="use42" /><use
                   xlink:href="#DejaVuSans-35"
                   x="95.410156"
                   id="use43" /></g></g></g><g
             id="ytick_7"><g
               id="line2d_13"><g
                 id="g44"><use
                   xlink:href="#ma61af9071d"
                   x="57.599998"
                   y="108.79019"
                   style="stroke:#000000;stroke-width:0.8"
                   id="use44" /></g></g><g
               id="text_13"><!-- 0.6 --><g
                 transform="matrix(0.1,0,0,-0.1,34.696875,112.58941)"
                 id="g47"><use
                   xlink:href="#DejaVuSans-30"
                   id="use45" /><use
                   xlink:href="#DejaVuSans-2e"
                   x="63.623047"
                   id="use46" /><use
                   xlink:href="#DejaVuSans-36"
                   x="95.410156"
                   id="use47" /></g></g></g><g
             id="ytick_8"><g
               id="line2d_14"><g
                 id="g48"><use
                   xlink:href="#ma61af9071d"
                   x="57.599998"
                   y="77.673889"
                   style="stroke:#000000;stroke-width:0.8"
                   id="use48" /></g></g><g
               id="text_14"><!-- 0.7 --><g
                 transform="matrix(0.1,0,0,-0.1,34.696875,81.473108)"
                 id="g51"><defs
                   id="defs48"><path
                     id="path14"
                     d="M 525,4666 H 3525 V 4397 L 1831,0 H 1172 L 2766,4134 H 525 Z"
                     transform="scale(0.015625)" /></defs><use
                   xlink:href="#DejaVuSans-30"
                   id="use49" /><use
                   xlink:href="#DejaVuSans-2e"
                   x="63.623047"
                   id="use50" /><use
                   xlink:href="#DejaVuSans-37"
                   x="95.410156"
                   id="use51" /></g></g></g><g
             id="ytick_9"><g
               id="line2d_15"><g
                 id="g52"><use
                   xlink:href="#ma61af9071d"
                   x="57.599998"
                   y="46.557587"
                   style="stroke:#000000;stroke-width:0.8"
                   id="use52" /></g></g><g
               id="text_15"><!-- 0.8 --><g
                 transform="matrix(0.1,0,0,-0.1,34.696875,50.356806)"
                 id="g55"><use
                   xlink:href="#DejaVuSans-30"
                   id="use53" /><use
                   xlink:href="#DejaVuSans-2e"
                   x="63.623047"
                   id="use54" /><use
                   xlink:href="#DejaVuSans-38"
                   x="95.410156"
                   id="use55" /></g></g></g></g><g
           id="line2d_16"><path
             d="m 73.832727,244.9718 3.279339,-42.31507 3.279339,-35.14819 3.279339,-28.88381 3.279339,-23.41525 3.279338,-18.653649 3.279339,-14.523152 3.279339,-10.95739 3.279341,-7.897229 3.27934,-5.289073 3.27934,-3.083992 3.27934,-1.236995 3.27933,0.293336 3.27934,1.545149 3.27934,2.553425 3.27934,3.350083 3.27934,3.964185 3.27934,4.421918 3.27934,4.746803 3.27933,4.959775 3.27934,5.079401 3.27934,5.121985 3.27934,5.10175 3.27934,5.031013 3.27934,4.920417 3.27934,4.779 3.27934,4.61449 3.27934,4.43331 3.27933,4.24084 3.27934,4.0416 3.27934,3.8392 3.27934,3.63659 3.27934,3.43611 3.27934,3.23962 3.27934,3.04851 3.27934,2.86387 3.27934,2.68643 3.27933,2.51672 3.27934,2.35505 3.27934,2.20158 3.27934,2.05629 3.27934,1.91915 3.27934,1.78996 3.27934,1.66851 3.27934,1.55453 3.27933,1.44774 3.27934,1.34778 3.27934,1.25434 3.27934,1.1671 3.27934,1.08568 3.27934,1.00978 3.27934,0.93905 3.27934,0.87319 3.27934,0.81188 3.27933,0.75485 3.27934,0.70179 3.27934,0.65245 3.27934,0.60659 3.27934,0.56397 3.27934,0.52435 3.27934,0.48754 3.27934,0.45333 3.27934,0.42155 3.27933,0.39202 3.27934,0.36458 3.27934,0.3391 3.27934,0.31542 3.27934,0.29341 3.27934,0.27295 3.27934,0.25395 3.27934,0.23629 3.27934,0.21988 3.27933,0.20461 3.27934,0.19044 3.27934,0.17725 3.27934,0.165 3.27934,0.15359 3.27934,0.14299 3.27934,0.13313 3.27934,0.12395 3.27934,0.11543 3.27933,0.10749 3.27934,0.1001 3.27934,0.0932 3.27934,0.0868 3.27934,0.0809 3.27934,0.0753 3.27934,0.0702 3.27933,0.0654 3.27934,0.0609 3.27934,0.0568 3.27934,0.0529 3.27934,0.0493 3.27934,0.0459 3.27934,0.0428 3.27934,0.0399 3.27934,0.0372 3.27933,0.0346 3.27934,0.0323 3.27934,0.0301"
             clip-path="url(#p62e98c87c6)"
             style="fill:none;stroke:#1f77b4;stroke-width:1.5;stroke-linecap:square"
             id="path55" /></g><g
           id="line2d_17"><path
             d="m 73.832727,295.488 3.279339,-1.1477 3.279339,-2.08667 3.279339,-2.8428 3.279339,-3.43948 3.279338,-3.89782 3.279339,-4.23685 3.279339,-4.47376 3.279341,-4.62391 3.27934,-4.70104 3.27934,-4.71739 3.27934,-4.68372 3.27933,-4.6095 3.27934,-4.50296 3.27934,-4.37125 3.27934,-4.22048 3.27934,-4.05589 3.27934,-3.88187 3.27934,-3.70208 3.27933,-3.51962 3.27934,-3.33694 3.27934,-3.15607 3.27934,-2.97861 3.27934,-2.80581 3.27934,-2.6386 3.27934,-2.47768 3.27934,-2.32352 3.27934,-2.17643 3.27933,-2.03657 3.27934,-1.904 3.27934,-1.77863 3.27934,-1.66038 3.27934,-1.54905 3.27934,-1.44444 3.27934,-1.34625 3.27934,-1.25427 3.27934,-1.16817 3.27933,-1.08767 3.27934,-1.01248 3.27934,-0.9423 3.27934,-0.87683 3.27934,-0.81582 3.27934,-0.75896 3.27934,-0.70602 3.27934,-0.65673 3.27933,-0.61087 3.27934,-0.56818 3.27934,-0.52849 3.27934,-0.49158 3.27934,-0.45724 3.27934,-0.42532 3.27934,-0.39565 3.27934,-0.36806 3.27934,-0.34242 3.27933,-0.31858 3.27934,-0.29641 3.27934,-0.27581 3.27934,-0.25666 3.27934,-0.23885 3.27934,-0.22229 3.27934,-0.2069 3.27934,-0.19258 3.27934,-0.17927 3.27933,-0.16689 3.27934,-0.15538 3.27934,-0.14466 3.27934,-0.13471 3.27934,-0.12543 3.27934,-0.11681 3.27934,-0.10879 3.27934,-0.10132 3.27934,-0.0944 3.27933,-0.0879 3.27934,-0.0819 3.27934,-0.0763 3.27934,-0.0711 3.27934,-0.0662 3.27934,-0.0617 3.27934,-0.0575 3.27934,-0.0536 3.27934,-0.0499 3.27933,-0.0465 3.27934,-0.0433 3.27934,-0.0404 3.27934,-0.0376 3.27934,-0.0351 3.27934,-0.0327 3.27934,-0.0305 3.27933,-0.0284 3.27934,-0.0265 3.27934,-0.0247 3.27934,-0.023 3.27934,-0.0215 3.27934,-0.02 3.27934,-0.0186 3.27934,-0.0174 3.27934,-0.0162 3.27933,-0.0151 3.27934,-0.0141 3.27934,-0.0131"
             clip-path="url(#p62e98c87c6)"
             style="fill:none;stroke:#ff7f0e;stroke-width:1.5;stroke-linecap:square"
             id="path56" /></g><g
           id="line2d_18"><path
             d="M 57.6,186.35213 H 414.72"
             clip-path="url(#p62e98c87c6)"
             style="fill:none;stroke:#000000;stroke-width:1.5;stroke-linecap:square"
             id="path57" /></g><g
           id="patch_3"><path
             d="M 57.6,307.584 V 41.472"
             style="fill:none;stroke:#000000;stroke-width:0.8;stroke-linecap:square;stroke-linejoin:miter"
             id="path58" /></g><g
           id="patch_4"><path
             d="M 414.72,307.584 V 41.472"
             style="fill:none;stroke:#000000;stroke-width:0.8;stroke-linecap:square;stroke-linejoin:miter"
             id="path59" /></g><g
           id="patch_5"><path
             d="M 57.6,307.584 H 414.72"
             style="fill:none;stroke:#000000;stroke-width:0.8;stroke-linecap:square;stroke-linejoin:miter"
             id="path60" /></g><g
           id="patch_6"><path
             d="M 57.6,41.472 H 414.72"
             style="fill:none;stroke:#000000;stroke-width:0.8;stroke-linecap:square;stroke-linejoin:miter"
             id="path61" /></g><g
           id="legend_1"><g
             id="patch_7"><path
               d="M 369.37156,93.506375 H 407.72 q 2,0 2,-2 V 48.472 q 0,-2 -2,-2 h -38.34844 q -2,0 -2,2 v 43.034375 q 0,2 2,2 z"
               style="opacity:0.8;fill:#ffffff;stroke:#cccccc;stroke-linejoin:miter"
               id="path62" /></g><g
             id="line2d_19"><path
               d="m 371.37156,54.570438 h 10 10"
               style="fill:none;stroke:#1f77b4;stroke-width:1.5;stroke-linecap:square"
               id="path63" /></g><g
             id="text_16"><!-- F --><g
               transform="matrix(0.1,0,0,-0.1,399.37156,58.070438)"
               id="g63"><defs
                 id="defs63"><path
                   id="path15"
                   d="M 628,4666 H 3309 V 4134 H 1259 V 2759 H 3109 V 2228 H 1259 V 0 H 628 Z"
                   transform="scale(0.015625)" /></defs><use
                 xlink:href="#DejaVuSans-46"
                 id="use63" /></g></g><g
             id="line2d_20"><path
               d="m 371.37156,69.248563 h 10 10"
               style="fill:none;stroke:#ff7f0e;stroke-width:1.5;stroke-linecap:square"
               id="path64" /></g><g
             id="text_17"><!-- S --><g
               transform="matrix(0.1,0,0,-0.1,399.37156,72.748563)"
               id="g64"><defs
                 id="defs64"><path
                   id="path16"
                   d="m 3425,4513 v -616 q -359,172 -678,256 -319,85 -616,85 -515,0 -795,-200 -280,-200 -280,-569 0,-310 186,-468 186,-157 705,-254 l 381,-78 q 706,-135 1042,-474 336,-339 336,-907 0,-679 -455,-1029 -454,-350 -1332,-350 -331,0 -705,75 -373,75 -773,222 v 650 q 384,-215 753,-325 369,-109 725,-109 540,0 834,212 294,213 294,607 0,343 -211,537 -211,194 -692,291 l -385,75 q -706,140 -1022,440 -315,300 -315,835 0,619 436,975 436,356 1201,356 329,0 669,-60 341,-59 697,-177 z"
                   transform="scale(0.015625)" /></defs><use
                 xlink:href="#DejaVuSans-53"
                 id="use64" /></g></g><g
             id="line2d_21"><path
               d="m 371.37156,83.926688 h 10 10"
               style="fill:none;stroke:#000000;stroke-width:1.5;stroke-linecap:square"
               id="path65" /></g><g
             id="text_18"><!-- a --><g
               transform="matrix(0.1,0,0,-0.1,399.37156,87.426688)"
               id="g65"><defs
                 id="defs65"><path
                   id="path17"
                   d="m 2194,1759 q -697,0 -966,-159 -269,-159 -269,-544 0,-306 202,-486 202,-179 548,-179 479,0 768,339 289,339 289,901 v 128 z m 1147,238 V 0 H 2766 V 531 Q 2569,213 2275,61 1981,-91 1556,-91 q -537,0 -855,302 -317,302 -317,808 0,590 395,890 396,300 1180,300 h 807 v 57 q 0,397 -261,614 -261,217 -733,217 -300,0 -585,-72 -284,-72 -546,-216 v 532 q 315,122 612,182 297,61 578,61 760,0 1135,-394 375,-393 375,-1193 z"
                   transform="scale(0.015625)" /></defs><use
                 xlink:href="#DejaVuSans-61"
                 id="use65" /></g></g></g></g></g><circle
       style="fill:url(#linearGradient13636);fill-opacity:1;stroke:#000000;stroke-width:0.264999;stroke-linecap:butt;stroke-linejoin:round;stroke-dasharray:none"
       id="path7159-9-9"
       cx="24.775682"
       cy="87.113014"
       r="6.614583" /><circle
       style="fill:url(#linearGradient13636-9);fill-opacity:1;stroke:#000000;stroke-width:0.264999;stroke-linecap:butt;stroke-linejoin:round;stroke-dasharray:none"
       id="path7159-9-9-5"
       cx="70.666283"
       cy="168.31952"
       r="6.614583" /></g></svg>
