<?xml version="1.0" encoding="UTF-8" standalone="no"?>
<!-- Created with Inkscape (http://www.inkscape.org/) -->

<svg
   width="927.10022mm"
   height="271.59943mm"
   viewBox="0 0 927.10022 271.59942"
   version="1.1"
   id="svg1"
   xml:space="preserve"
   inkscape:version="1.3.2 (1:1.3.2+202311252150+091e20ef0f)"
   sodipodi:docname="figure_regression.svg"
   xmlns:inkscape="http://www.inkscape.org/namespaces/inkscape"
   xmlns:sodipodi="http://sodipodi.sourceforge.net/DTD/sodipodi-0.dtd"
   xmlns:xlink="http://www.w3.org/1999/xlink"
   xmlns="http://www.w3.org/2000/svg"
   xmlns:svg="http://www.w3.org/2000/svg"><sodipodi:namedview
     id="namedview1"
     pagecolor="#ffffff"
     bordercolor="#666666"
     borderopacity="1.0"
     inkscape:showpageshadow="2"
     inkscape:pageopacity="0.0"
     inkscape:pagecheckerboard="0"
     inkscape:deskcolor="#d1d1d1"
     inkscape:document-units="mm"
     inkscape:zoom="0.28819215"
     inkscape:cx="1054.8518"
     inkscape:cy="1009.743"
     inkscape:window-width="3840"
     inkscape:window-height="2012"
     inkscape:window-x="0"
     inkscape:window-y="27"
     inkscape:window-maximized="1"
     inkscape:current-layer="layer1"
     showgrid="false" /><defs
     id="defs1"><inkscape:path-effect
       effect="bspline"
       id="path-effect60"
       is_visible="true"
       lpeversion="1.3"
       weight="33.333333"
       steps="2"
       helper_size="0"
       apply_no_weight="true"
       apply_with_weight="true"
       only_selected="false"
       uniform="false" /><inkscape:path-effect
       effect="bspline"
       id="path-effect26"
       is_visible="true"
       lpeversion="1.3"
       weight="33.333333"
       steps="2"
       helper_size="0"
       apply_no_weight="true"
       apply_with_weight="true"
       only_selected="false"
       uniform="false" /><linearGradient
       inkscape:collect="always"
       id="linearGradient6"><stop
         style="stop-color:#0469e4;stop-opacity:1;"
         offset="0"
         id="stop5" /><stop
         style="stop-color:#0469e4;stop-opacity:0.67938036;"
         offset="1"
         id="stop6" /></linearGradient><style
       type="text/css"
       id="style1">*{stroke-linejoin: round; stroke-linecap: butt}</style><path
       id="m14f1a5e5ec"
       d="M 0,0 V 3.5"
       style="stroke:#000000;stroke-width:0.8" /><path
       id="DejaVuSans-30"
       d="m 2034,4250 q -487,0 -733,-480 -245,-479 -245,-1442 0,-959 245,-1439 246,-480 733,-480 491,0 736,480 246,480 246,1439 0,963 -246,1442 -245,480 -736,480 z m 0,500 q 785,0 1199,-621 414,-620 414,-1801 0,-1178 -414,-1799 -414,-620 -1199,-620 -784,0 -1198,620 -414,621 -414,1799 0,1181 414,1801 414,621 1198,621 z"
       transform="scale(0.015625)" /><path
       id="DejaVuSans-32"
       d="M 1228,531 H 3431 V 0 H 469 v 531 q 359,372 979,998 621,627 780,809 303,340 423,576 121,236 121,464 0,372 -261,606 -261,235 -680,235 -297,0 -627,-103 -329,-103 -704,-313 v 638 q 381,153 712,231 332,78 607,78 725,0 1156,-363 431,-362 431,-968 0,-288 -108,-546 -107,-257 -392,-607 -78,-91 -497,-524 Q 1991,1309 1228,531 Z"
       transform="scale(0.015625)" /><path
       id="DejaVuSans-34"
       d="M 2419,4116 825,1625 h 1594 z m -166,550 h 794 V 1625 h 666 V 1100 H 3047 V 0 H 2419 V 1100 H 313 v 609 z"
       transform="scale(0.015625)" /><path
       id="DejaVuSans-36"
       d="m 2113,2584 q -425,0 -674,-291 -248,-290 -248,-796 0,-503 248,-796 249,-292 674,-292 425,0 673,292 248,293 248,796 0,506 -248,796 -248,291 -673,291 z m 1253,1979 v -575 q -238,112 -480,171 -242,60 -480,60 -625,0 -955,-422 -329,-422 -376,-1275 184,272 462,417 279,145 613,145 703,0 1111,-427 408,-426 408,-1160 0,-719 -425,-1154 -425,-434 -1131,-434 -810,0 -1238,620 -428,621 -428,1799 0,1106 525,1764 525,658 1409,658 238,0 480,-47 242,-47 505,-140 z"
       transform="scale(0.015625)" /><path
       id="DejaVuSans-38"
       d="m 2034,2216 q -450,0 -708,-241 -257,-241 -257,-662 0,-422 257,-663 258,-241 708,-241 450,0 709,242 260,243 260,662 0,421 -258,662 -257,241 -711,241 z m -631,268 q -406,100 -633,378 -226,279 -226,679 0,559 398,884 399,325 1092,325 697,0 1094,-325 397,-325 397,-884 0,-400 -227,-679 -226,-278 -629,-378 456,-106 710,-416 255,-309 255,-755 Q 3634,634 3220,271 2806,-91 2034,-91 1263,-91 848,271 434,634 434,1313 q 0,446 256,755 257,310 713,416 z m -231,997 q 0,-362 226,-565 227,-203 636,-203 407,0 636,203 230,203 230,565 0,363 -230,566 -229,203 -636,203 -409,0 -636,-203 -226,-203 -226,-566 z"
       transform="scale(0.015625)" /><path
       id="DejaVuSans-31"
       d="M 794,531 H 1825 V 4091 L 703,3866 v 575 l 1116,225 h 631 V 531 H 3481 V 0 H 794 Z"
       transform="scale(0.015625)" /><path
       id="m1a3d6b96a4"
       d="M 0,0 H -3.5"
       style="stroke:#000000;stroke-width:0.8" /><path
       id="DejaVuSans-2e"
       d="m 684,794 h 660 V 0 H 684 Z"
       transform="scale(0.015625)" /><path
       id="DejaVuSans-35"
       d="M 691,4666 H 3169 V 4134 H 1269 V 2991 q 137,47 274,70 138,23 276,23 781,0 1237,-428 457,-428 457,-1159 Q 3513,744 3044,326 2575,-91 1722,-91 1428,-91 1123,-41 819,9 494,109 v 635 q 281,-153 581,-228 300,-75 634,-75 541,0 856,284 316,284 316,772 0,487 -316,771 -315,285 -856,285 -253,0 -505,-56 -251,-56 -513,-175 z"
       transform="scale(0.015625)" /><path
       id="DejaVuSans-33"
       d="m 2597,2516 q 453,-97 707,-404 255,-306 255,-756 0,-690 -475,-1069 -475,-378 -1350,-378 -293,0 -604,58 -311,58 -642,174 v 609 q 262,-153 574,-231 313,-78 654,-78 593,0 904,234 311,234 311,681 0,413 -289,645 -289,233 -804,233 h -544 v 519 h 569 q 465,0 712,186 247,186 247,536 0,359 -255,551 -254,193 -729,193 -260,0 -557,-57 -297,-56 -653,-174 v 562 q 360,100 674,150 314,50 592,50 719,0 1137,-327 419,-326 419,-882 0,-388 -222,-655 -222,-267 -631,-370 z"
       transform="scale(0.015625)" /><path
       id="DejaVuSans-53"
       d="m 3425,4513 v -616 q -359,172 -678,256 -319,85 -616,85 -515,0 -795,-200 -280,-200 -280,-569 0,-310 186,-468 186,-157 705,-254 l 381,-78 q 706,-135 1042,-474 336,-339 336,-907 0,-679 -455,-1029 -454,-350 -1332,-350 -331,0 -705,75 -373,75 -773,222 v 650 q 384,-215 753,-325 369,-109 725,-109 540,0 834,212 294,213 294,607 0,343 -211,537 -211,194 -692,291 l -385,75 q -706,140 -1022,440 -315,300 -315,835 0,619 436,975 436,356 1201,356 329,0 669,-60 341,-59 697,-177 z"
       transform="scale(0.015625)" /><path
       id="DejaVuSans-6f"
       d="m 1959,3097 q -462,0 -731,-361 -269,-361 -269,-989 0,-628 267,-989 268,-361 733,-361 460,0 728,362 269,363 269,988 0,622 -269,986 -268,364 -728,364 z m 0,487 q 750,0 1178,-488 429,-487 429,-1349 Q 3566,888 3137,398 2709,-91 1959,-91 1206,-91 779,398 353,888 353,1747 q 0,862 426,1349 427,488 1180,488 z"
       transform="scale(0.015625)" /><path
       id="DejaVuSans-75"
       d="m 544,1381 v 2119 h 575 V 1403 q 0,-497 193,-746 194,-248 582,-248 465,0 735,297 271,297 271,810 v 1984 h 575 V 0 H 2900 V 538 Q 2691,219 2414,64 2138,-91 1772,-91 1169,-91 856,284 544,659 544,1381 Z m 1447,2203 z"
       transform="scale(0.015625)" /><path
       id="DejaVuSans-72"
       d="m 2631,2963 q -97,56 -211,82 -114,27 -251,27 -488,0 -749,-317 -261,-317 -261,-911 V 0 H 581 v 3500 h 578 v -544 q 182,319 472,473 291,155 707,155 59,0 131,-8 72,-7 159,-23 z"
       transform="scale(0.015625)" /><path
       id="DejaVuSans-63"
       d="m 3122,3366 v -538 q -244,135 -489,202 -245,67 -495,67 -560,0 -870,-355 -309,-354 -309,-995 0,-641 309,-996 310,-354 870,-354 250,0 495,67 245,67 489,202 V 134 Q 2881,22 2623,-34 2366,-91 2075,-91 1284,-91 818,406 353,903 353,1747 q 0,856 470,1346 471,491 1290,491 265,0 518,-55 253,-54 491,-163 z"
       transform="scale(0.015625)" /><path
       id="DejaVuSans-65"
       d="M 3597,1894 V 1613 H 953 q 38,-594 358,-905 320,-311 892,-311 331,0 642,81 311,81 618,244 V 178 Q 3153,47 2828,-22 2503,-91 2169,-91 1331,-91 842,396 353,884 353,1716 q 0,859 464,1363 464,505 1252,505 706,0 1117,-455 411,-454 411,-1235 z m -575,169 q -6,471 -264,752 -258,282 -683,282 -481,0 -770,-272 -289,-272 -333,-766 z"
       transform="scale(0.015625)" /><path
       id="DejaVuSans-44"
       d="M 1259,4147 V 519 h 763 q 966,0 1414,437 448,438 448,1382 0,937 -448,1373 -448,436 -1414,436 z m -631,519 h 1297 q 1356,0 1990,-564 635,-564 635,-1764 Q 4550,1131 3912,565 3275,0 1925,0 H 628 Z"
       transform="scale(0.015625)" /><path
       id="DejaVuSans-73"
       d="m 2834,3397 v -544 q -243,125 -506,187 -262,63 -544,63 -428,0 -642,-131 -214,-131 -214,-394 0,-200 153,-314 153,-114 616,-217 l 197,-44 q 612,-131 870,-370 258,-239 258,-667 0,-488 -386,-773 Q 2250,-91 1575,-91 1294,-91 989,-36 684,19 347,128 v 594 q 319,-166 628,-249 309,-82 613,-82 406,0 624,139 219,139 219,392 0,234 -158,359 -157,125 -692,241 l -200,47 q -534,112 -772,345 -237,233 -237,639 0,494 350,762 350,269 994,269 318,0 599,-47 282,-46 519,-140 z"
       transform="scale(0.015625)" /><path
       id="DejaVuSans-74"
       d="M 1172,4494 V 3500 H 2356 V 3053 H 1172 V 1153 q 0,-428 117,-550 117,-122 477,-122 h 590 V 0 H 1766 Q 1100,0 847,248 594,497 594,1153 V 3053 H 172 v 447 h 422 v 994 z"
       transform="scale(0.015625)" /><path
       id="DejaVuSans-69"
       d="m 603,3500 h 575 V 0 H 603 Z m 0,1363 h 575 V 4134 H 603 Z"
       transform="scale(0.015625)" /><path
       id="DejaVuSans-6e"
       d="M 3513,2113 V 0 h -575 v 2094 q 0,497 -194,743 -194,247 -581,247 -466,0 -735,-297 -269,-296 -269,-809 V 0 H 581 v 3500 h 578 v -544 q 207,316 486,472 280,156 646,156 603,0 912,-373 310,-373 310,-1098 z"
       transform="scale(0.015625)" /><path
       id="DejaVuSans-61"
       d="m 2194,1759 q -697,0 -966,-159 -269,-159 -269,-544 0,-306 202,-486 202,-179 548,-179 479,0 768,339 289,339 289,901 v 128 z m 1147,238 V 0 H 2766 V 531 Q 2569,213 2275,61 1981,-91 1556,-91 q -537,0 -855,302 -317,302 -317,808 0,590 395,890 396,300 1180,300 h 807 v 57 q 0,397 -261,614 -261,217 -733,217 -300,0 -585,-72 -284,-72 -546,-216 v 532 q 315,122 612,182 297,61 578,61 760,0 1135,-394 375,-393 375,-1193 z"
       transform="scale(0.015625)" /><clipPath
       id="peb403a36d4"><rect
         x="345.60001"
         y="170.20799"
         width="2142.72"
         height="321.22589"
         id="rect186" /></clipPath><clipPath
       id="p72eb04b1db"><rect
         x="345.60001"
         y="555.67908"
         width="2142.72"
         height="321.22589"
         id="rect187" /></clipPath><clipPath
       id="p049c11a768"><rect
         x="345.60001"
         y="941.15015"
         width="2142.72"
         height="321.22589"
         id="rect188" /></clipPath><linearGradient
       inkscape:collect="always"
       xlink:href="#linearGradient9556"
       id="linearGradient13636"
       gradientUnits="userSpaceOnUse"
       x1="-27.781252"
       y1="6.4820833"
       x2="-14.287086"
       y2="6.4820833"
       gradientTransform="matrix(5.5866065,0,0,5.5866065,-270.61178,-29.972066)" /><linearGradient
       inkscape:collect="always"
       id="linearGradient9556"><stop
         style="stop-color:#cc7aa8;stop-opacity:1;"
         offset="0"
         id="stop9552" /><stop
         style="stop-color:#edcfe0;stop-opacity:1;"
         offset="1"
         id="stop9554" /></linearGradient><linearGradient
       inkscape:collect="always"
       xlink:href="#linearGradient6"
       id="linearGradient26"
       gradientUnits="userSpaceOnUse"
       gradientTransform="matrix(5.5866065,0,0,5.5866065,-249.138,140.36808)"
       x1="-27.781252"
       y1="6.4820833"
       x2="-14.287086"
       y2="6.4820833" /><inkscape:path-effect
       effect="bspline"
       id="path-effect60-5"
       is_visible="true"
       lpeversion="1.3"
       weight="33.333333"
       steps="2"
       helper_size="0"
       apply_no_weight="true"
       apply_with_weight="true"
       only_selected="false"
       uniform="false" /></defs><g
     inkscape:label="Layer 1"
     inkscape:groupmode="layer"
     id="layer1"
     transform="translate(431.81021,45.066607)"><g
       id="patch_2"
       transform="matrix(0.35277778,0,0,0.35277778,-382.67509,-101.69)"><path
         d="M 345.6,491.43388 H 2488.32 V 170.208 H 345.6 Z"
         style="fill:#ffffff"
         id="path2" /></g><g
       id="line2d_1"
       transform="matrix(0.35277778,0,0,0.35277778,-382.67509,-101.69)"><defs
         id="defs2"><path
           id="path3"
           d="M 0,0 V 3.5"
           style="stroke:#000000;stroke-width:0.8" /></defs><g
         id="g2"><use
           xlink:href="#m14f1a5e5ec"
           x="442.99637"
           y="491.43387"
           style="stroke:#000000;stroke-width:0.8"
           id="use2" /></g></g><g
       id="line2d_2"
       transform="matrix(0.35277778,0,0,0.35277778,-382.67509,-101.69)"><g
         id="g4"><use
           xlink:href="#m14f1a5e5ec"
           x="832.9718"
           y="491.43387"
           style="stroke:#000000;stroke-width:0.8"
           id="use4" /></g></g><g
       id="line2d_3"
       transform="matrix(0.35277778,0,0,0.35277778,-382.67509,-101.69)"><g
         id="g8"><use
           xlink:href="#m14f1a5e5ec"
           x="1222.9473"
           y="491.43387"
           style="stroke:#000000;stroke-width:0.8"
           id="use8" /></g></g><g
       id="line2d_4"
       transform="matrix(0.35277778,0,0,0.35277778,-382.67509,-101.69)"><g
         id="g12"><use
           xlink:href="#m14f1a5e5ec"
           x="1612.9226"
           y="491.43387"
           style="stroke:#000000;stroke-width:0.8"
           id="use12" /></g></g><g
       id="line2d_5"
       transform="matrix(0.35277778,0,0,0.35277778,-382.67509,-101.69)"><g
         id="g16"><use
           xlink:href="#m14f1a5e5ec"
           x="2002.8981"
           y="491.43387"
           style="stroke:#000000;stroke-width:0.8"
           id="use16" /></g></g><g
       id="line2d_6"
       transform="matrix(0.35277778,0,0,0.35277778,-382.67509,-101.69)"><g
         id="g20"><use
           xlink:href="#m14f1a5e5ec"
           x="2392.8735"
           y="491.43387"
           style="stroke:#000000;stroke-width:0.8"
           id="use20" /></g></g><g
       id="line2d_7"
       transform="matrix(0.35277778,0,0,0.35277778,-382.67509,-101.69)"><defs
         id="defs24"><path
           id="path10"
           d="M 0,0 H -3.5"
           style="stroke:#000000;stroke-width:0.8" /></defs><g
         id="g25"><use
           xlink:href="#m1a3d6b96a4"
           x="345.60001"
           y="478.55591"
           style="stroke:#000000;stroke-width:0.8"
           id="use25" /></g></g><g
       id="line2d_8"
       transform="matrix(0.35277778,0,0,0.35277778,-382.67509,-101.69)"><g
         id="g31"><use
           xlink:href="#m1a3d6b96a4"
           x="345.60001"
           y="413.35291"
           style="stroke:#000000;stroke-width:0.8"
           id="use31" /></g></g><g
       id="line2d_9"
       transform="matrix(0.35277778,0,0,0.35277778,-382.67509,-101.69)"><g
         id="g37"><use
           xlink:href="#m1a3d6b96a4"
           x="345.60001"
           y="348.1499"
           style="stroke:#000000;stroke-width:0.8"
           id="use37" /></g></g><g
       id="line2d_10"
       transform="matrix(0.35277778,0,0,0.35277778,-382.67509,-101.69)"><g
         id="g43"><use
           xlink:href="#m1a3d6b96a4"
           x="345.60001"
           y="282.94693"
           style="stroke:#000000;stroke-width:0.8"
           id="use43" /></g></g><g
       id="line2d_11"
       transform="matrix(0.35277778,0,0,0.35277778,-382.67509,-101.69)"><g
         id="g49"><use
           xlink:href="#m1a3d6b96a4"
           x="345.60001"
           y="217.74393"
           style="stroke:#000000;stroke-width:0.8"
           id="use49" /></g></g><g
       id="line2d_12"
       transform="matrix(0.35277778,0,0,0.35277778,-382.67509,-101.69)"
       style="stroke-width:8.65417;stroke-dasharray:none"><path
         d="m 442.99636,184.80918 1.94988,15.93628 1.94988,34.78555 1.94988,21.85985 1.94987,-7.27967 1.94988,32.66017 1.94988,23.95514 1.94987,26.04393 1.94988,19.5898 1.94988,-1.05652 1.94987,10.93615 1.94988,29.22135 1.94988,10.1887 1.94988,-7.45107 1.94987,34.24499 1.94988,7.65847 3.89975,12.92405 1.94988,1.54755 1.94988,7.3704 1.94988,-1.73035 1.94987,8.23238 1.94988,2.79372 1.94988,2.1922 1.94987,1.63777 1.94988,-3.96252 1.94988,5.15447 1.94988,1.47615 1.94987,-1.07839 1.94988,3.13865 1.94988,-1.55581 1.94988,-1.04391 1.94987,2.07541 1.94988,-3.49609 1.94988,2.03269 1.94987,-2.29296 1.94988,-0.84803 1.94988,2.50153 1.94987,-1.08236 1.94988,-1.27368 1.94988,-0.50503 1.94988,4.08369 1.94987,-0.69966 1.94988,-3.04738 1.94988,5.2119 1.94987,-5.95482 1.94988,5.99221 1.94988,-3.62932 1.94988,-1.26604 1.94987,4.94745 1.94988,-3.01382 1.94988,-2.47624 1.94988,4.63717 1.94987,1.01318 1.94988,-4.65014 1.94988,2.56866 1.94987,1.83037 1.94988,-0.47284 1.94988,-0.88278 1.94988,-0.30997 1.94987,0.87227 1.94988,1.19398 1.94988,-1.83923 1.94987,-0.56241 1.94988,1.53891 1.94988,-1.9683 1.94988,0.93093 1.94987,1.4948 1.94988,-1.64351 1.94988,1.72977 1.94987,-2.43417 1.94988,-0.55924 1.94988,2.26657 1.94988,-0.52682 1.94987,-0.10944 1.94988,-1.12558 1.94988,1.44658 1.94987,0.39089 1.94988,0.71511 1.94988,-2.29152 1.94988,2.31984 1.94987,-1.53009 1.94988,-0.37413 1.94988,-0.61597 1.94987,2.50541 1.94988,-2.59007 1.94988,0.0281 1.94988,1.16698 1.94987,1.36372 1.94988,-2.30564 1.94988,1.58109 1.94987,-0.21219 1.94988,-0.85084 1.94988,-0.15914 1.94988,1.18037 1.94987,-1.36786 1.94988,0.36732 1.94988,1.79739 1.94987,-1.93513 1.94988,0.0154 1.94988,1.62401 1.94988,-0.91491 1.94987,-0.61352 1.94988,1.59023 1.94988,-0.83533 1.94987,-0.31127 1.94988,1.45893 1.94988,-1.7596 1.94988,1.14693 1.94987,-0.7422 1.94988,1.3386 1.94988,-2.02608 1.94987,1.83664 1.94988,-2.73791 1.94988,1.31879 1.94988,-0.43233 1.94987,2.1148 1.94988,-1.63932 1.94988,1.15115 1.94987,0.19712 1.94988,-1.69924 1.94988,1.74851 1.94988,0.30595 1.94987,-1.41131 1.94988,1.40778 1.94988,0.0293 1.94987,-0.64855 1.94988,-2.837 1.94988,3.45402 1.94988,-1.39765 1.94987,0.91566 1.94988,-1.54519 1.94988,1.91172 1.94987,-0.30337 1.94988,0.42913 1.94988,-2.14679 1.94988,2.21379 1.94987,-0.30921 3.89976,-1.56635 1.94987,1.58656 1.94988,0.0396 1.94988,-0.35773 1.94988,-0.77325 1.94987,1.34619 1.94988,0.0397 1.94988,-1.91472 1.94987,1.87565 1.94988,-2.03457 1.94988,2.05135 1.94988,-0.24198 1.94987,-0.84002 1.94988,0.64292 1.94988,-1.35211 1.94987,1.40253 1.94988,-0.72099 1.94988,1.1413 7.79951,-0.0589 1.94988,-0.23482 1.94987,-1.08105 1.94988,1.34175 1.94988,-1.8197 3.89975,1.68051 1.94988,-1.47303 1.94988,1.06462 1.94987,-1.11711 1.94988,1.56705 1.94988,-0.74484 1.94987,-0.86518 1.94988,0.0908 1.94988,1.61071 1.94988,-1.07312 1.94987,-0.43135 1.94988,0.56484 1.94988,0.87852 1.94987,0.0222 1.94988,-1.46494 1.94988,0.53151 1.94987,-0.0922 1.94988,0.38269 1.94988,-0.47207 1.94988,-0.14425 1.94987,0.38157 1.94988,0.79157 5.84963,-0.0324 1.94988,-2.85799 1.94988,3.03952 1.94987,-1.28323 1.94988,0.63645 1.94988,-0.21201 1.94987,0.65338 1.94988,0.18593 1.94988,-0.50824 1.94988,0.41014 1.94987,-0.97731 1.94988,0.81412 1.94988,-0.3955 3.89975,0.6563 1.94988,-3.72428 1.94988,3.56916 1.94987,-0.37546 1.94988,-1.89736 1.94988,2.51003 1.94987,-0.25863 1.94988,-1.14517 1.94988,0.818 1.94988,0.52153 1.94987,-1.30836 1.94988,0.94752 1.94988,-0.13605 1.94987,0.3224 1.94988,-0.49017 1.94988,0.78194 1.94988,-0.22012 1.94987,-0.0907 1.94988,-2.251 1.94988,1.55699 1.94988,0.33453 1.94987,-0.31958 1.94988,0.42017 1.94988,-1.52435 1.94987,1.1714 1.94988,-0.25581 1.94988,0.88206 1.94988,0.2892 1.94987,-0.42024 1.94988,0.36107 1.94988,-0.82638 1.94987,0.008 1.94988,0.25317 1.94988,0.64875 1.94988,-0.0994 1.94987,0.10468 1.94988,-0.69053 1.94988,0.66084 1.94987,-0.009 1.94988,-0.1758 1.94988,-0.6572 1.94988,0.42427 1.94987,-0.0215 1.94988,0.43842 1.94988,-0.0215 1.94987,-0.44438 1.94988,0.50933 1.94988,-0.0134 1.94987,-0.22287 1.94988,0.20772 1.94988,-0.79 1.94988,0.69346 1.94987,-0.56125 1.94988,0.44034 1.94988,0.0393 1.94987,-0.51517 1.94988,-1.2937 1.94988,1.69549 1.94988,0.0849 1.94987,0.22479 1.94988,-0.58189 5.84963,0.0722 1.94988,-1.48395 1.94988,1.261 1.94987,-3.81296 1.94988,4.62576 1.94988,-0.15445 1.94988,-0.48394 1.94987,0.60833 1.94988,-0.52309 1.94988,-0.86984 1.94987,1.05988 1.94988,0.0403 1.94988,-0.10261 1.94988,-0.49035 1.94987,-1.57276 1.94988,1.82704 1.94988,-2.13843 1.94987,2.18616 1.94988,0.49439 1.94985,0.10101 1.9499,-0.59986 1.9499,-2.74651 1.9499,3.14802 1.9498,-0.22275 1.9499,0.37839 1.9499,-0.28546 3.8997,0.26673 1.9499,-0.77473 1.9499,0.86416 1.9499,-1.07831 1.9499,0.63569 1.9498,0.30182 1.9499,-0.4182 1.9499,0.14221 1.9499,0.25465 1.9498,-0.39175 1.9499,-1.21256 1.9499,1.44711 3.8997,0.27903 1.9499,-0.25736 1.9499,-2.68238 1.9499,0.83777 1.9499,2.1596 3.8997,-0.13983 1.9499,0.17095 1.9499,-1.18737 1.9498,1.17042 1.9499,-0.37112 1.9499,0.26609 1.9499,-3.4927 1.9499,3.07026 1.9498,0.37269 1.9499,0.0899 1.9499,-0.46247 1.9499,0.41186 1.9498,0.13444 1.9499,-0.65888 3.8998,0.24087 1.9498,-0.15584 1.9499,0.33263 1.9499,0.14524 1.9499,-0.30728 3.8997,-0.22857 1.9499,-1.58353 1.9499,1.64377 1.9499,-4.71305 1.9498,5.25733 1.9499,-0.62468 1.9499,0.56011 1.9499,-0.73269 1.9498,0.71401 1.9499,-0.2468 1.9499,-3.58994 1.9499,2.97776 1.9499,0.75676 1.9498,-0.35854 1.9499,0.45065 1.9499,0.12742 1.9499,-0.24566 1.9498,-4.92731 1.9499,3.89616 1.9499,0.88412 1.9499,0.3891 1.9499,-0.60658 3.8997,0.61515 3.8998,-0.0324 1.9498,-0.20449 1.9499,-3.7356 1.9499,3.75692 1.9499,0.22711 1.9498,-0.0292 1.9499,-1.71686 1.9499,1.09276 1.9499,0.44652 1.9499,0.10055 1.9498,-0.47412 1.9499,0.52716 1.9499,-0.41606 1.9499,0.25596 1.9498,-0.21156 1.9499,0.40909 1.9499,-0.29608 1.9499,0.24882 1.9498,-6.64538 1.9499,6.69855 1.9499,-0.19594 1.9499,0.23192 1.9499,-0.15864 1.9498,0.16024 1.9499,-2.4408 1.9499,1.97921 1.9499,0.0734 1.9498,-1.09784 1.9499,1.4295 1.9499,0.0481 1.9499,-0.30358 1.9499,0.24748 1.9498,-0.23366 1.9499,0.24818 1.9499,4.1e-4 1.9499,-0.4418 1.9498,-0.26728 1.9499,0.3521 1.9499,0.009 1.9499,-0.58743 3.8997,0.80202 1.9499,0.0632 1.9499,-0.80967 1.9499,0.77806 5.8496,-0.11784 1.9499,-0.7462 1.9498,0.77732 1.9499,0.17627 1.9499,0.0633 1.9499,-4.63694 1.9498,3.96735 1.9499,-5.8501 1.9499,5.68952 1.9499,0.84442 1.9499,-0.399 1.9498,0.19416 1.9499,-0.0566 1.9499,-0.20368 1.9499,-2.04631 1.9498,2.38258 1.9499,-0.81756 1.9499,0.74858 1.9499,-0.24359 1.9499,0.32651 3.8997,-0.16192 1.9499,-2.12481 1.9499,1.69129 1.9498,-3.29118 1.9499,3.47377 1.9499,0.30336 1.9499,-0.46331 1.9498,0.13675 1.9499,0.48011 1.9499,0.0666 3.8998,-0.25505 1.9498,-0.75637 1.9499,0.87528 1.9499,0.17317 5.8496,-0.2608 1.9499,0.25425 1.9499,-0.39655 1.9498,0.39914 1.9499,-0.17383 1.9499,0.16343 1.9499,-0.94095 1.9499,0.78483 1.9498,-1.22182 1.9499,1.27789 1.9499,-3.79467 1.9499,3.81974 1.9498,-0.0651 1.9499,-0.87317 1.9499,0.93018 1.9499,-4.1077 1.9499,3.82434 1.9498,0.39706 1.9499,-1.06508 1.9499,-4.53328 1.9499,5.27416 1.9498,-3.72546 1.9499,3.42832 1.9499,-0.20199 1.9499,-2.31716 1.9498,2.22815 1.9499,0.72 7.7995,-0.13547 1.9499,0.20154 1.9499,-0.38887 1.9499,-0.0181 3.8997,0.27677 1.9499,-0.31023 5.8496,0.53935 3.8998,-0.0761 1.9499,-6.21673 1.9498,6.24049 1.9499,-3.11973 1.9499,-2.38673 1.9499,5.35242 1.9498,0.19908 1.9499,-0.37413 1.9499,0.15253 1.9499,-0.1645 1.9499,0.42893 1.9498,-0.27352 1.9499,0.28441 5.8496,-0.21929 1.9499,-2.54372 1.9499,2.72352 1.9499,-0.44965 3.8997,0.37381 1.9499,-0.319 1.9499,0.41041 3.8997,0.014 1.9499,-0.96972 1.9499,-4.18939 1.9499,5.17324 3.8997,-0.1478 1.9499,0.0851 1.9499,-0.55028 1.9499,0.60666 1.9498,-0.955 3.8998,0.93105 1.9499,-0.22517 5.8496,0.26257 1.9499,-0.37459 1.9498,-0.005 1.9499,0.24218 1.9499,0.0566 1.9499,-0.23116 1.9499,-6.57611 1.9498,6.62656 1.9499,-1.39736 1.9499,1.17956 1.9499,-4.24422 1.9498,4.6785 5.8497,-0.28336 1.9498,0.28337 1.9499,-0.10812 1.9499,-0.23225 1.9499,-4.04266 1.9499,4.42478 1.9498,-0.24473 1.9499,0.24329 1.9499,0.0134 1.9499,-0.33598 1.9498,0.34712 1.9499,-0.34338 1.9499,0.28099 7.7995,0.0749 1.9499,-0.16437 1.9499,-2.5363 1.9498,2.71057 1.9499,-0.0449 1.9499,-0.19557 1.9499,-1.0763 1.9498,1.06738 1.9499,-1.95489 1.9499,2.13666 5.8496,-0.2584 1.9499,0.26323 1.9499,-7.19435 1.9499,7.27301 1.9498,-0.005 1.9499,-0.42154 1.9499,0.37095 1.9499,-4.08724 1.9498,3.99842 1.9499,-0.96486 1.9499,0.97389 1.9499,-1.0301 1.9499,1.06999 1.9498,-3.94027 1.9499,3.62747 1.9499,-1.9282 1.9499,2.17734 1.9498,-0.14493 1.9499,0.19862 1.9499,-0.44303 1.9499,0.47392 1.9499,-0.15852 3.8997,0.0782 1.9499,-2.86575 1.9499,2.97932 3.8997,-0.1488 1.9499,-0.74915 1.9499,0.91865 1.9498,-0.11944 5.8497,0.13876 1.9499,-2.23741 1.9498,2.15789 1.9499,-2.98954 1.9499,1.25697 1.9499,1.75136 1.9498,-1.22027 1.9499,-0.10161 1.9499,1.24785 1.9499,-0.0472 1.9498,-5.04545 1.9499,4.63541 1.9499,0.4237 1.9499,-0.038 1.9499,-6.18122 1.9498,6.07154 1.9499,0.14211 1.9499,-6.08025 1.9499,4.77143 1.9498,0.95264 1.9499,0.0435 1.9499,-0.14721 1.9499,0.33755 1.9499,-0.58775 1.9498,0.24489 1.9499,0.10662 1.9499,0.3713 1.9499,-0.28906 1.9498,0.31859 1.9499,0.001 1.9499,-0.16209 3.8997,0.25064 1.9499,-1.83414 1.9499,1.45459 1.9499,-0.44028 1.9499,0.27425 1.9498,-4.52228 1.9499,3.39059 1.9499,1.65327 1.9499,0.0247 1.9498,-0.57995 1.9499,0.56511 3.8998,-0.0177 1.9498,-0.32448 1.9499,0.30166 1.9499,-0.41128 1.9499,-3.87986 1.9499,4.23615 1.9498,-0.23564 1.9499,0.22798 1.9499,0.023 1.9499,-0.30268 1.9498,-5.6067 1.9499,5.70372 1.9499,-0.19671 1.9499,-1.03509 1.9499,0.9425 1.9498,0.44299 1.9499,-0.10383 1.9499,0.0636 1.9499,-0.13615 1.9498,-2.49826 1.9499,2.71237 1.9499,-0.18069 1.9499,-4.74806 1.9498,0.76628 1.9499,3.80547 1.9499,0.39084 1.9499,-0.62438 1.9499,0.64059 1.9498,-0.42221 1.9499,0.35429 1.9499,-0.025 1.9499,0.0954 1.9498,-0.64781 1.9499,0.62074 1.9499,-3.69594 1.9499,3.50024 1.9498,-0.41126 1.9499,0.2183 1.9499,0.4044 1.9499,-1.03057 1.9499,0.8287 1.9498,0.16438 1.9499,-0.0258 1.9499,-0.2876 1.9499,0.34709 1.9498,-6.06669 1.9499,6.05468 1.9499,-4.23779 1.9499,3.59058 1.9499,-2.94195 1.9498,3.57419 1.9499,-0.0302 1.9499,-0.33801 1.9499,-1.15781 1.9498,0.92122 1.9499,0.49349 1.9499,-0.77543 1.9499,0.46288 1.9498,0.18122 1.9499,-0.18009 1.9499,-2.38222 1.9499,0.99496 1.9499,1.31825 1.9498,0.2569 1.9499,-0.56018 1.9499,0.78253 1.9499,-0.3832 3.8997,0.38367 1.9499,-0.37659 1.9499,0.17174 1.9498,0.29472 1.9499,-0.1116 1.9499,0.0857 1.9499,-1.04559 1.9499,1.04387 1.9498,-0.14231 1.9499,-1.29773 1.9499,0.0755 1.9499,1.34628 1.9498,-0.29924 1.9499,-1.40779 1.9499,1.72837 1.9499,0.0457 3.8997,-0.45375 1.9499,-1.10886 1.9499,1.49982 1.9499,0.0489 1.9498,-0.16476 1.9499,0.12732 1.9499,-0.4247 1.9499,0.46936 1.9498,-0.25057 1.9499,-0.38261 1.9499,0.63933 1.9499,-0.24827 1.9499,0.22373 1.9498,0.0104 1.9499,-5.79112 1.9499,5.47154 1.9499,0.15152 1.9498,-0.1195 1.9499,-0.008 1.9499,0.29562 1.9499,-1.34636 1.9498,1.13886 1.9499,-0.0739 1.9499,0.25154 1.9499,-4.0729 1.9499,4.13723 1.9498,-0.24822 5.8497,-0.12136 1.9498,0.31179 1.9499,-1.37995 1.9499,-2.39204 1.9499,3.84482 1.9499,-0.004 1.9498,-4.65566 1.9499,4.46338 3.8998,0.007 1.9498,-3.84695 1.9499,3.7549 1.9499,0.20336 1.9499,-0.005 1.9498,-1.82945 1.9499,1.82053 1.9499,-0.4154 1.9499,0.39837 5.8496,0.0594 1.9499,-0.52719 1.9499,0.48784 1.9498,-5.65248 1.9499,3.09908 1.9499,2.34048 1.9499,0.13418 1.9498,-0.87324 1.9499,-2.3419 1.9499,3.30714 5.8496,-0.0109 1.9499,-0.45721 1.9499,0.45444 3.8997,-0.0401 1.9499,-0.14531 1.9499,0.19165 1.9499,-0.19544 1.9499,-0.46376 1.9498,-1.19277 1.9499,-2.21257 1.9499,3.9193 1.9499,0.17829 1.9498,-0.33664 3.8998,0.005 1.9499,0.35247 1.9498,-0.32612 1.9499,0.1427 1.9499,0.002 1.9499,-0.28035 1.9499,0.25192 1.9498,-2.44861 1.9499,2.68317 7.7995,-0.0477 3.8998,0.048 5.8496,-0.003 1.9499,-3.20205 1.9499,3.18136 1.9498,-2.66643 1.9499,2.71406 1.9499,-0.31917 1.9499,0.32379 1.9498,-0.19942 1.9499,-1.27866 1.9499,1.4581 1.9499,-0.0739 1.9499,0.0797 1.9498,-0.24524 1.9499,0.22868 5.8496,-0.22891 3.8998,0.26378 1.9499,-6.34556 1.9498,6.26753 1.9499,-0.56739 1.9499,0.68351 1.9499,-7.26823 1.9499,6.98601 1.9498,0.2447 1.9499,-4.51731 1.9499,4.42934 1.9499,-0.1129 1.9498,0.11624 1.9499,-0.2694 1.9499,0.23002 1.9499,-0.0232 1.9498,-0.61178 1.9499,0.58346 1.9499,0.14441 1.9499,-0.0704 1.9499,0.11765 1.9498,-0.22812 1.9499,-4.36479 1.9499,1.04097 1.9499,3.40876 1.9498,-1.80828 1.9499,1.0136 1.9499,0.84658 1.9499,-2.31147 1.9499,2.28112 1.9498,-0.0552 1.9499,-4.74716 1.9499,3.40652 1.9499,1.10804 1.9498,0.10445 1.9499,-0.28735 1.9499,0.41978 1.9499,0.0575 3.8997,-0.25633 1.9499,0.28538 1.9499,-0.43214 1.9499,0.29869 1.9498,0.13836 1.9499,-2.01498 1.9499,2.07394 1.9499,-0.24016 5.8496,0.22776 1.9499,-1.39256 1.9499,-3.08227 1.9498,3.32578 1.9499,-3.30259 1.9499,-2.39039 1.9499,6.57762 1.9498,-6.03191 1.9499,5.99642 1.9499,-0.63377 1.9499,0.3921 3.8997,-0.53514 1.9499,0.47517 1.9499,0.075 3.8997,-0.3128 1.9499,0.69071 1.9499,-0.36764 1.9499,0.20982 1.9498,-0.31716 1.9499,0.59117 1.9499,-0.0622 1.9499,0.0593 1.9498,-6.88776 1.9499,5.76499 1.9499,1.05888 1.9499,-0.0485 1.9499,-2.419 1.9498,2.21223 1.9499,0.27499 1.9499,-0.11755 1.9499,0.16609 1.9498,-0.17998 3.8998,0.0905 1.9499,-0.79576 1.9499,0.41241 1.9498,-0.29574 1.9499,0.56834 1.9499,-0.14945 1.9499,-0.96526 1.9498,1.14171 1.9499,0.0217 1.9499,0.13466 5.8496,-0.0207 1.9499,-5.07118 1.9499,-0.73051 1.9499,5.73346 1.9498,0.0641 1.9499,-0.23446 1.9499,0.1907 1.9499,0.0419 1.9498,-0.28169 3.8998,-0.003 1.9499,0.3056 1.9498,-1.54979 1.9499,0.1615 1.9499,1.06708 1.9499,0.34136 1.9499,-0.25815 1.9498,-1.17691 1.9499,-5.77437 1.9499,7.07372 1.9499,-6.73611 1.9498,6.55723 1.9499,0.19939 1.9499,-0.15134 1.9499,-0.4536 1.9499,0.49091 1.9498,-0.23296 1.9499,-0.0762 1.9499,0.41245 1.9499,-0.0601 1.9498,0.12387 1.9499,-6.60102 1.9499,6.54464 1.9499,-0.28813 1.9498,0.30099 3.8998,0.11227 7.7995,-0.005 1.9499,-0.77179 1.9499,-2.31563 1.9498,-1.46476 1.9499,4.50891 1.9499,-0.10144 1.9499,-1.1974 1.9498,1.30242 1.9499,-0.38997 1.9499,0.0764 1.9499,-0.13475 1.9499,-1.20404 1.9498,0.32612 1.9499,0.78137 1.9499,0.17508 1.9499,0.37442 1.9498,-6.73054 1.9499,6.5085 1.9499,-0.0951 5.8496,0.32366 1.9499,-5.18383 1.9499,4.93848 1.9499,0.0374 1.9498,-0.20231 v 0"
         clip-path="url(#peb403a36d4)"
         style="fill:none;stroke:#1f77b4;stroke-width:8.65417;stroke-linecap:square;stroke-dasharray:none"
         id="path54" /></g><g
       id="patch_3"
       transform="matrix(0.35277778,0,0,0.35277778,-382.67509,-101.69)"><path
         d="M 345.6,491.43388 V 170.208"
         style="fill:none;stroke:#000000;stroke-width:0.8;stroke-linecap:square;stroke-linejoin:miter"
         id="path55" /></g><g
       id="patch_4"
       transform="matrix(0.35277778,0,0,0.35277778,-382.67509,-101.69)"><path
         d="M 2488.32,491.43388 V 170.208"
         style="fill:none;stroke:#000000;stroke-width:0.8;stroke-linecap:square;stroke-linejoin:miter"
         id="path56" /></g><g
       id="patch_5"
       transform="matrix(0.35277778,0,0,0.35277778,-382.67509,-101.69)"><path
         d="M 345.6,491.43388 H 2488.32"
         style="fill:none;stroke:#000000;stroke-width:0.8;stroke-linecap:square;stroke-linejoin:miter"
         id="path57" /></g><g
       id="patch_6"
       transform="matrix(0.35277778,0,0,0.35277778,-382.67509,-101.69)"><path
         d="M 345.6,170.208 H 2488.32"
         style="fill:none;stroke:#000000;stroke-width:0.8;stroke-linecap:square;stroke-linejoin:miter"
         id="path58" /></g><g
       id="axes_2"
       transform="matrix(0.35277778,0,0,0.35277778,89.8779,231.71883)"><g
         id="patch_7"><path
           d="M 345.6,876.90494 H 2488.32 V 555.67906 H 345.6 Z"
           style="fill:#ffffff"
           id="path59" /></g><g
         id="matplotlib.axis_3"><g
           id="xtick_7"><g
             id="line2d_13"><g
               id="g59"><use
                 xlink:href="#m14f1a5e5ec"
                 x="442.99637"
                 y="876.90497"
                 style="stroke:#000000;stroke-width:0.8"
                 id="use59" /></g></g><g
             id="text_12"><!-- 0 --><g
               transform="matrix(0.1,0,0,-0.1,439.81511,891.50338)"
               id="g60"><use
                 xlink:href="#DejaVuSans-30"
                 id="use60" /></g></g></g><g
           id="xtick_8"><g
             id="line2d_14"><g
               id="g61"><use
                 xlink:href="#m14f1a5e5ec"
                 x="836.51703"
                 y="876.90497"
                 style="stroke:#000000;stroke-width:0.8"
                 id="use61" /></g></g><g
             id="text_13"><!-- 20 --><g
               transform="matrix(0.1,0,0,-0.1,830.15453,891.50338)"
               id="g63"><use
                 xlink:href="#DejaVuSans-32"
                 id="use62" /><use
                 xlink:href="#DejaVuSans-30"
                 x="63.623047"
                 id="use63" /></g></g></g><g
           id="xtick_9"><g
             id="line2d_15"><g
               id="g64"><use
                 xlink:href="#m14f1a5e5ec"
                 x="1230.0377"
                 y="876.90497"
                 style="stroke:#000000;stroke-width:0.8"
                 id="use64" /></g></g><g
             id="text_14"><!-- 40 --><g
               transform="matrix(0.1,0,0,-0.1,1223.6752,891.50338)"
               id="g66"><use
                 xlink:href="#DejaVuSans-34"
                 id="use65" /><use
                 xlink:href="#DejaVuSans-30"
                 x="63.623047"
                 id="use66" /></g></g></g><g
           id="xtick_10"><g
             id="line2d_16"><g
               id="g67"><use
                 xlink:href="#m14f1a5e5ec"
                 x="1623.5583"
                 y="876.90497"
                 style="stroke:#000000;stroke-width:0.8"
                 id="use67" /></g></g><g
             id="text_15"><!-- 60 --><g
               transform="matrix(0.1,0,0,-0.1,1617.1958,891.50338)"
               id="g69"><use
                 xlink:href="#DejaVuSans-36"
                 id="use68" /><use
                 xlink:href="#DejaVuSans-30"
                 x="63.623047"
                 id="use69" /></g></g></g><g
           id="xtick_11"><g
             id="line2d_17"><g
               id="g70"><use
                 xlink:href="#m14f1a5e5ec"
                 x="2017.079"
                 y="876.90497"
                 style="stroke:#000000;stroke-width:0.8"
                 id="use70" /></g></g><g
             id="text_16"><!-- 80 --><g
               transform="matrix(0.1,0,0,-0.1,2010.7165,891.50338)"
               id="g72"><use
                 xlink:href="#DejaVuSans-38"
                 id="use71" /><use
                 xlink:href="#DejaVuSans-30"
                 x="63.623047"
                 id="use72" /></g></g></g><g
           id="xtick_12"><g
             id="line2d_18"><g
               id="g73"><use
                 xlink:href="#m14f1a5e5ec"
                 x="2410.5996"
                 y="876.90497"
                 style="stroke:#000000;stroke-width:0.8"
                 id="use73" /></g></g><g
             id="text_17"><!-- 100 --><g
               transform="matrix(0.1,0,0,-0.1,2401.0559,891.50338)"
               id="g76"><use
                 xlink:href="#DejaVuSans-31"
                 id="use74" /><use
                 xlink:href="#DejaVuSans-30"
                 x="63.623047"
                 id="use75" /><use
                 xlink:href="#DejaVuSans-30"
                 x="127.24609"
                 id="use76" /></g></g></g></g><g
         id="matplotlib.axis_4"><g
           id="ytick_6"><g
             id="line2d_19"><g
               id="g77"><use
                 xlink:href="#m1a3d6b96a4"
                 x="345.60001"
                 y="871.99963"
                 style="stroke:#000000;stroke-width:0.8"
                 id="use77" /></g></g><g
             id="text_18"><!-- 0.0 --><g
               transform="matrix(0.1,0,0,-0.1,322.69687,875.79886)"
               id="g80"><use
                 xlink:href="#DejaVuSans-30"
                 id="use78" /><use
                 xlink:href="#DejaVuSans-2e"
                 x="63.623047"
                 id="use79" /><use
                 xlink:href="#DejaVuSans-30"
                 x="95.410156"
                 id="use80" /></g></g></g><g
           id="ytick_7"><g
             id="line2d_20"><g
               id="g81"><use
                 xlink:href="#m1a3d6b96a4"
                 x="345.60001"
                 y="831.56891"
                 style="stroke:#000000;stroke-width:0.8"
                 id="use81" /></g></g><g
             id="text_19"><!-- 0.5 --><g
               transform="matrix(0.1,0,0,-0.1,322.69687,835.36814)"
               id="g84"><use
                 xlink:href="#DejaVuSans-30"
                 id="use82" /><use
                 xlink:href="#DejaVuSans-2e"
                 x="63.623047"
                 id="use83" /><use
                 xlink:href="#DejaVuSans-35"
                 x="95.410156"
                 id="use84" /></g></g></g><g
           id="ytick_8"><g
             id="line2d_21"><g
               id="g85"><use
                 xlink:href="#m1a3d6b96a4"
                 x="345.60001"
                 y="791.13818"
                 style="stroke:#000000;stroke-width:0.8"
                 id="use85" /></g></g><g
             id="text_20"><!-- 1.0 --><g
               transform="matrix(0.1,0,0,-0.1,322.69687,794.93741)"
               id="g88"><use
                 xlink:href="#DejaVuSans-31"
                 id="use86" /><use
                 xlink:href="#DejaVuSans-2e"
                 x="63.623047"
                 id="use87" /><use
                 xlink:href="#DejaVuSans-30"
                 x="95.410156"
                 id="use88" /></g></g></g><g
           id="ytick_9"><g
             id="line2d_22"><g
               id="g89"><use
                 xlink:href="#m1a3d6b96a4"
                 x="345.60001"
                 y="750.70746"
                 style="stroke:#000000;stroke-width:0.8"
                 id="use89" /></g></g><g
             id="text_21"><!-- 1.5 --><g
               transform="matrix(0.1,0,0,-0.1,322.69687,754.50668)"
               id="g92"><use
                 xlink:href="#DejaVuSans-31"
                 id="use90" /><use
                 xlink:href="#DejaVuSans-2e"
                 x="63.623047"
                 id="use91" /><use
                 xlink:href="#DejaVuSans-35"
                 x="95.410156"
                 id="use92" /></g></g></g><g
           id="ytick_10"><g
             id="line2d_23"><g
               id="g93"><use
                 xlink:href="#m1a3d6b96a4"
                 x="345.60001"
                 y="710.27673"
                 style="stroke:#000000;stroke-width:0.8"
                 id="use93" /></g></g><g
             id="text_22"><!-- 2.0 --><g
               transform="matrix(0.1,0,0,-0.1,322.69687,714.07596)"
               id="g96"><use
                 xlink:href="#DejaVuSans-32"
                 id="use94" /><use
                 xlink:href="#DejaVuSans-2e"
                 x="63.623047"
                 id="use95" /><use
                 xlink:href="#DejaVuSans-30"
                 x="95.410156"
                 id="use96" /></g></g></g><g
           id="ytick_11"><g
             id="line2d_24"><g
               id="g97"><use
                 xlink:href="#m1a3d6b96a4"
                 x="345.60001"
                 y="669.84601"
                 style="stroke:#000000;stroke-width:0.8"
                 id="use97" /></g></g><g
             id="text_23"><!-- 2.5 --><g
               transform="matrix(0.1,0,0,-0.1,322.69687,673.64523)"
               id="g100"><use
                 xlink:href="#DejaVuSans-32"
                 id="use98" /><use
                 xlink:href="#DejaVuSans-2e"
                 x="63.623047"
                 id="use99" /><use
                 xlink:href="#DejaVuSans-35"
                 x="95.410156"
                 id="use100" /></g></g></g><g
           id="ytick_12"><g
             id="line2d_25"><g
               id="g101"><use
                 xlink:href="#m1a3d6b96a4"
                 x="345.60001"
                 y="629.41528"
                 style="stroke:#000000;stroke-width:0.8"
                 id="use101" /></g></g><g
             id="text_24"><!-- 3.0 --><g
               transform="matrix(0.1,0,0,-0.1,322.69687,633.2145)"
               id="g104"><defs
                 id="defs101"><path
                   id="path13"
                   d="m 2597,2516 q 453,-97 707,-404 255,-306 255,-756 0,-690 -475,-1069 -475,-378 -1350,-378 -293,0 -604,58 -311,58 -642,174 v 609 q 262,-153 574,-231 313,-78 654,-78 593,0 904,234 311,234 311,681 0,413 -289,645 -289,233 -804,233 h -544 v 519 h 569 q 465,0 712,186 247,186 247,536 0,359 -255,551 -254,193 -729,193 -260,0 -557,-57 -297,-56 -653,-174 v 562 q 360,100 674,150 314,50 592,50 719,0 1137,-327 419,-326 419,-882 0,-388 -222,-655 -222,-267 -631,-370 z"
                   transform="scale(0.015625)" /></defs><use
                 xlink:href="#DejaVuSans-33"
                 id="use102" /><use
                 xlink:href="#DejaVuSans-2e"
                 x="63.623047"
                 id="use103" /><use
                 xlink:href="#DejaVuSans-30"
                 x="95.410156"
                 id="use104" /></g></g></g><g
           id="ytick_13"><g
             id="line2d_26"><g
               id="g105"><use
                 xlink:href="#m1a3d6b96a4"
                 x="345.60001"
                 y="588.98456"
                 style="stroke:#000000;stroke-width:0.8"
                 id="use105" /></g></g><g
             id="text_25"><!-- 3.5 --><g
               transform="matrix(0.1,0,0,-0.1,322.69687,592.78378)"
               id="g108"><use
                 xlink:href="#DejaVuSans-33"
                 id="use106" /><use
                 xlink:href="#DejaVuSans-2e"
                 x="63.623047"
                 id="use107" /><use
                 xlink:href="#DejaVuSans-35"
                 x="95.410156"
                 id="use108" /></g></g></g></g><g
         id="line2d_27"><path
           d="m 442.99636,862.30376 19.67604,-9.39805 19.67603,-9.10939 19.67603,-8.82958 19.67604,-8.55837 19.67603,-8.29549 19.67603,-8.04069 19.67604,-7.79371 19.67603,-7.55432 19.67603,-7.32227 19.67603,-7.09737 19.67604,-6.87936 19.67603,-6.66805 19.67603,-6.46325 19.67604,-6.26471 19.67603,-6.07229 19.67603,-5.88577 19.67604,-5.70499 19.67603,-5.52975 19.67603,-5.35989 19.67603,-5.19526 19.67604,-5.03568 19.67603,-4.88101 19.67603,-4.73107 19.67604,-4.58577 19.67603,-4.4449 19.67603,-4.30836 19.67604,-4.17604 19.67603,-4.04777 19.67601,-3.92344 19.6761,-3.80293 19.676,-3.68613 19.676,-3.57289 19.6761,-3.46314 19.676,-3.35676 19.676,-3.25366 19.6761,-3.15371 19.676,-3.05686 19.676,-2.96295 19.6761,-2.87196 19.676,-2.78373 19.676,-2.69823 19.6761,-2.61536 19.676,-2.53501 19.676,-2.45715 19.6761,-2.38168 19.676,-2.30851 19.676,-2.2376 19.6761,-2.16887 19.676,-2.10227 19.676,-2.03768 19.6761,-1.9751 19.676,-1.91443 19.676,-1.85563 19.676,-1.79862 19.6761,-1.74339 19.676,-1.68983 19.676,-1.63794 19.6761,-1.58761 19.676,-1.53886 19.676,-1.49159 19.6761,-1.44576 19.676,-1.40136 19.676,-1.35831 19.6761,-1.3166 19.676,-1.27614 19.676,-1.23695 19.6761,-1.19896 19.676,-1.16213 19.676,-1.12644 19.6761,-1.09184 19.676,-1.0583 19.676,-1.02579 19.6761,-0.99428 19.676,-0.96376 19.676,-0.93413 19.6761,-0.90545 19.676,-0.87764 19.676,-0.85068 19.6761,-0.82455 19.676,-0.79923 19.676,-0.77468 19.6761,-0.75088 19.676,-0.72781 19.676,-0.70545 19.6761,-0.68379 19.676,-0.66279 19.676,-0.64243 19.6761,-0.62268 19.676,-0.60357 19.676,-0.58503 19.6761,-0.56707 19.676,-0.54964 19.676,-0.53276 19.6761,-0.5164 19.676,-0.50054 19.676,-0.48515 19.6761,-0.47025 19.676,-0.45581 19.676,-0.44182"
           clip-path="url(#p72eb04b1db)"
           style="fill:none;stroke:#1f77b4;stroke-width:1.5;stroke-linecap:square"
           id="path108" /></g><g
         id="line2d_28"><path
           d="m 442.99636,856.8046 19.67604,-12.94173 19.67603,-11.02257 19.67603,-9.38801 19.67604,-7.99584 19.67603,-6.81012 19.67603,-5.80023 19.67604,-4.9401 19.67603,-4.20751 19.67603,-3.58358 19.67603,-3.05217 19.67604,-2.59954 19.67603,-2.21406 19.67603,-1.88572 19.67604,-1.60608 19.67603,-1.36793 19.67603,-1.16506 19.67604,-0.99229 19.67603,-0.84515 19.67603,-0.71981 19.67603,-0.61308 19.67604,-0.52216 19.67603,-0.44472 19.67603,-0.37879 19.67604,-0.3226 19.67603,-0.27477 19.67603,-0.23402 19.67604,-0.19931 19.67603,-0.16976 19.67601,-0.14459 19.6761,-0.12315 19.676,-0.10488 19.676,-0.0893 19.6761,-0.0761 19.676,-0.0648 19.676,-0.0552 19.6761,-0.047 19.676,-0.04 19.676,-0.0341 19.6761,-0.029 19.676,-0.0247 19.676,-0.0211 19.6761,-0.0179 19.676,-0.0153 19.676,-0.013 19.6761,-0.0111 19.676,-0.009 19.676,-0.008 19.6761,-0.007 19.676,-0.006 19.676,-0.005 19.6761,-0.004 19.676,-0.004 19.676,-0.003 19.676,-0.003 19.6761,-0.002 19.676,-0.002 19.676,-0.002 19.6761,-10e-4 19.676,-10e-4 19.676,-10e-4 19.6761,-8.5e-4 19.676,-7.2e-4 19.676,-6.1e-4 19.6761,-5.3e-4 19.676,-4.4e-4 19.676,-3.8e-4 19.6761,-3.3e-4 19.676,-2.8e-4 19.676,-2.3e-4 19.6761,-2e-4 19.676,-1.8e-4 19.676,-1.4e-4 19.6761,-1.3e-4 19.676,-10e-5 19.676,-9e-5 19.6761,-8e-5 19.676,-7e-5 19.676,-5e-5 19.6761,-5e-5 19.676,-4e-5 19.676,-3e-5 19.6761,-3e-5 19.676,-3e-5 19.676,-2e-5 19.6761,-2e-5 19.676,-10e-6 19.676,-1e-5 19.6761,-10e-6 19.676,-10e-6 19.676,-10e-6 19.6761,-1e-5 19.676,-10e-6 19.676,-10e-6 h 19.6761 19.676 19.676 19.6761 19.676 19.676"
           clip-path="url(#p72eb04b1db)"
           style="fill:none;stroke:#ff7f0e;stroke-width:1.5;stroke-linecap:square"
           id="path109" /></g><g
         id="patch_8"><path
           d="M 345.6,876.90494 V 555.67906"
           style="fill:none;stroke:#000000;stroke-width:0.8;stroke-linecap:square;stroke-linejoin:miter"
           id="path110" /></g><g
         id="patch_9"><path
           d="M 2488.32,876.90494 V 555.67906"
           style="fill:none;stroke:#000000;stroke-width:0.8;stroke-linecap:square;stroke-linejoin:miter"
           id="path111" /></g><g
         id="patch_10"><path
           d="M 345.6,876.90494 H 2488.32"
           style="fill:none;stroke:#000000;stroke-width:0.8;stroke-linecap:square;stroke-linejoin:miter"
           id="path112" /></g><g
         id="patch_11"><path
           d="M 345.6,555.67906 H 2488.32"
           style="fill:none;stroke:#000000;stroke-width:0.8;stroke-linecap:square;stroke-linejoin:miter"
           id="path113" /></g><g
         id="text_26"><!-- Source --><g
           transform="matrix(0.12,0,0,-0.12,1396.3547,549.67906)"
           id="g118"><defs
             id="defs113"><path
               id="path14"
               d="m 3425,4513 v -616 q -359,172 -678,256 -319,85 -616,85 -515,0 -795,-200 -280,-200 -280,-569 0,-310 186,-468 186,-157 705,-254 l 381,-78 q 706,-135 1042,-474 336,-339 336,-907 0,-679 -455,-1029 -454,-350 -1332,-350 -331,0 -705,75 -373,75 -773,222 v 650 q 384,-215 753,-325 369,-109 725,-109 540,0 834,212 294,213 294,607 0,343 -211,537 -211,194 -692,291 l -385,75 q -706,140 -1022,440 -315,300 -315,835 0,619 436,975 436,356 1201,356 329,0 669,-60 341,-59 697,-177 z"
               transform="scale(0.015625)" /><path
               id="path15"
               d="m 1959,3097 q -462,0 -731,-361 -269,-361 -269,-989 0,-628 267,-989 268,-361 733,-361 460,0 728,362 269,363 269,988 0,622 -269,986 -268,364 -728,364 z m 0,487 q 750,0 1178,-488 429,-487 429,-1349 Q 3566,888 3137,398 2709,-91 1959,-91 1206,-91 779,398 353,888 353,1747 q 0,862 426,1349 427,488 1180,488 z"
               transform="scale(0.015625)" /><path
               id="path16"
               d="m 544,1381 v 2119 h 575 V 1403 q 0,-497 193,-746 194,-248 582,-248 465,0 735,297 271,297 271,810 v 1984 h 575 V 0 H 2900 V 538 Q 2691,219 2414,64 2138,-91 1772,-91 1169,-91 856,284 544,659 544,1381 Z m 1447,2203 z"
               transform="scale(0.015625)" /><path
               id="path17"
               d="m 2631,2963 q -97,56 -211,82 -114,27 -251,27 -488,0 -749,-317 -261,-317 -261,-911 V 0 H 581 v 3500 h 578 v -544 q 182,319 472,473 291,155 707,155 59,0 131,-8 72,-7 159,-23 z"
               transform="scale(0.015625)" /><path
               id="path18"
               d="m 3122,3366 v -538 q -244,135 -489,202 -245,67 -495,67 -560,0 -870,-355 -309,-354 -309,-995 0,-641 309,-996 310,-354 870,-354 250,0 495,67 245,67 489,202 V 134 Q 2881,22 2623,-34 2366,-91 2075,-91 1284,-91 818,406 353,903 353,1747 q 0,856 470,1346 471,491 1290,491 265,0 518,-55 253,-54 491,-163 z"
               transform="scale(0.015625)" /><path
               id="path19"
               d="M 3597,1894 V 1613 H 953 q 38,-594 358,-905 320,-311 892,-311 331,0 642,81 311,81 618,244 V 178 Q 3153,47 2828,-22 2503,-91 2169,-91 1331,-91 842,396 353,884 353,1716 q 0,859 464,1363 464,505 1252,505 706,0 1117,-455 411,-454 411,-1235 z m -575,169 q -6,471 -264,752 -258,282 -683,282 -481,0 -770,-272 -289,-272 -333,-766 z"
               transform="scale(0.015625)" /></defs><use
             xlink:href="#DejaVuSans-53"
             id="use113" /><use
             xlink:href="#DejaVuSans-6f"
             x="63.476562"
             id="use114" /><use
             xlink:href="#DejaVuSans-75"
             x="124.6582"
             id="use115" /><use
             xlink:href="#DejaVuSans-72"
             x="188.03711"
             id="use116" /><use
             xlink:href="#DejaVuSans-63"
             x="226.90039"
             id="use117" /><use
             xlink:href="#DejaVuSans-65"
             x="281.88086"
             id="use118" /></g></g></g><text
       xml:space="preserve"
       style="font-size:19.7556px;line-height:1.25;font-family:Sans;-inkscape-font-specification:Sans;stroke-width:0.264583"
       x="-300.83411"
       y="-30.664698"
       id="text27"><tspan
         sodipodi:role="line"
         id="tspan27"
         style="font-size:19.7556px;stroke-width:0.264583"
         x="-300.83411"
         y="-30.664698">B</tspan></text><g
       id="g55"
       transform="translate(21.166674)"><circle
         style="fill:url(#linearGradient26);fill-opacity:1;stroke:#000000;stroke-width:1.48044;stroke-linecap:butt;stroke-linejoin:round;stroke-dasharray:none"
         id="path7159-9-9-1"
         cx="-366.64761"
         cy="176.58093"
         r="36.953072" /><text
         xml:space="preserve"
         style="font-size:19.7556px;line-height:1.25;font-family:Sans;-inkscape-font-specification:Sans;stroke-width:0.264583"
         x="-453.13123"
         y="-30.664698"
         id="text26"><tspan
           sodipodi:role="line"
           id="tspan26"
           style="font-size:19.7556px;stroke-width:0.264583"
           x="-453.13123"
           y="-30.664698">A</tspan></text><g
         id="g5"><circle
           style="fill:url(#linearGradient13636);fill-opacity:1;stroke:#000000;stroke-width:1.48044;stroke-linecap:butt;stroke-linejoin:round;stroke-dasharray:none"
           id="path7159-9-9"
           cx="-388.1214"
           cy="6.2407775"
           r="36.953072" /><text
           xml:space="preserve"
           style="font-size:14.1111px;line-height:1.25;font-family:Sans;-inkscape-font-specification:Sans;stroke-width:0.264583"
           x="-412.44376"
           y="11.377411"
           id="text1"><tspan
             sodipodi:role="line"
             id="tspan1"
             style="font-size:14.1111px;stroke-width:0.264583"
             x="-412.44376"
             y="11.377411">Source</tspan></text></g><text
         xml:space="preserve"
         style="font-size:14.1111px;line-height:1.25;font-family:Sans;-inkscape-font-specification:Sans;stroke-width:0.264583"
         x="-383.38733"
         y="181.62454"
         id="text2"><tspan
           sodipodi:role="line"
           id="tspan2"
           style="font-size:14.1111px;stroke-width:0.264583"
           x="-383.38733"
           y="181.62454">Dest</tspan></text><path
         sodipodi:type="star"
         style="fill:#ffffff;fill-opacity:1;stroke:#000000;stroke-width:0.665001;stroke-linecap:butt;stroke-linejoin:round;stroke-dasharray:none;stroke-dashoffset:0"
         id="path17903-7"
         inkscape:flatsided="true"
         sodipodi:sides="3"
         sodipodi:cx="92.505905"
         sodipodi:cy="83.462257"
         sodipodi:r1="1.8990406"
         sodipodi:r2="0.94952029"
         sodipodi:arg1="0.52359878"
         sodipodi:arg2="1.5707963"
         inkscape:rounded="0"
         inkscape:randomized="0"
         d="m 94.150523,84.411778 -3.289235,0 1.644617,-2.848561 z"
         inkscape:transform-center-x="-0.53785787"
         inkscape:transform-center-y="-1.5558555"
         transform="matrix(4.2582505,-0.56644945,0.56644945,4.2582505,-811.95705,-168.06909)" /><path
         style="fill:none;stroke:#000000;stroke-width:3.065;stroke-linecap:butt;stroke-linejoin:miter;stroke-dasharray:none;stroke-opacity:1"
         d="m -372.60605,125.8719 c -4.1894,-27.527061 -8.3788,-55.054126 -12.5682,-82.581187"
         id="path26"
         inkscape:path-effect="#path-effect26"
         inkscape:original-d="m -372.60605,125.8719 c -4.1894,-27.527061 -8.3788,-55.054126 -12.5682,-82.581187" /></g><text
       xml:space="preserve"
       style="font-size:7.05556px;line-height:1.25;font-family:Sans;-inkscape-font-specification:Sans;stroke-width:0.264583"
       x="-228.72319"
       y="81.411308"
       id="text29"><tspan
         sodipodi:role="line"
         id="tspan29"
         style="stroke-width:0.264583"
         x="-228.72319"
         y="81.411308">0</tspan></text><text
       xml:space="preserve"
       style="font-size:7.05556px;line-height:1.25;font-family:Sans;-inkscape-font-specification:Sans;stroke-width:0.264583"
       x="-95.669861"
       y="81.411308"
       id="text30"><tspan
         sodipodi:role="line"
         id="tspan30"
         style="stroke-width:0.264583"
         x="-95.669861"
         y="81.411308">200</tspan></text><text
       xml:space="preserve"
       style="font-size:7.05556px;line-height:1.25;font-family:Sans;-inkscape-font-specification:Sans;stroke-width:0.264583"
       x="41.928471"
       y="81.411308"
       id="text31"><tspan
         sodipodi:role="line"
         id="tspan31"
         style="stroke-width:0.264583"
         x="41.928471"
         y="81.411308">400</tspan></text><text
       xml:space="preserve"
       style="font-size:7.05556px;line-height:1.25;font-family:Sans;-inkscape-font-specification:Sans;stroke-width:0.264583"
       x="179.58188"
       y="81.411308"
       id="text32"><tspan
         sodipodi:role="line"
         id="tspan32"
         style="stroke-width:0.264583"
         x="179.58188"
         y="81.411308">600</tspan></text><text
       xml:space="preserve"
       style="font-size:7.05556px;line-height:1.25;font-family:Sans;-inkscape-font-specification:Sans;stroke-width:0.264583"
       x="317.13644"
       y="81.411308"
       id="text33"><tspan
         sodipodi:role="line"
         id="tspan33"
         style="stroke-width:0.264583"
         x="317.13644"
         y="81.411308">800</tspan></text><text
       xml:space="preserve"
       style="font-size:7.05556px;line-height:1.25;font-family:Sans;-inkscape-font-specification:Sans;stroke-width:0.264583"
       x="452.69736"
       y="81.411308"
       id="text34"><tspan
         sodipodi:role="line"
         id="tspan34"
         style="stroke-width:0.264583"
         x="452.69736"
         y="81.411308">1000</tspan></text><text
       xml:space="preserve"
       style="font-size:11.2889px;line-height:1.25;font-family:Sans;-inkscape-font-specification:Sans;stroke-width:0.264583"
       x="100.14289"
       y="85.60244"
       id="text35"><tspan
         sodipodi:role="line"
         id="tspan35"
         style="font-size:11.2889px;stroke-width:0.264583"
         x="100.14289"
         y="85.60244">Epoch</tspan></text><text
       xml:space="preserve"
       style="font-size:7.05556px;line-height:1.25;font-family:Sans;-inkscape-font-specification:Sans;stroke-width:0.264583"
       x="-284.36478"
       y="-22.527361"
       id="text36"><tspan
         sodipodi:role="line"
         id="tspan36"
         style="stroke-width:0.264583"
         x="-284.36478"
         y="-22.527361">0.020</tspan></text><text
       xml:space="preserve"
       style="font-size:7.05556px;line-height:1.25;font-family:Sans;-inkscape-font-specification:Sans;stroke-width:0.264583"
       x="-284.21664"
       y="0.35442403"
       id="text37"><tspan
         sodipodi:role="line"
         id="tspan37"
         style="stroke-width:0.264583"
         x="-284.21664"
         y="0.35442403">0.015</tspan></text><text
       xml:space="preserve"
       style="font-size:7.05556px;line-height:1.25;font-family:Sans;-inkscape-font-specification:Sans;stroke-width:0.264583"
       x="-284.36478"
       y="23.728199"
       id="text38"><tspan
         sodipodi:role="line"
         id="tspan38"
         style="stroke-width:0.264583"
         x="-284.36478"
         y="23.728199">0.010</tspan></text><text
       xml:space="preserve"
       style="font-size:7.05556px;line-height:1.25;font-family:Sans;-inkscape-font-specification:Sans;stroke-width:0.264583"
       x="-284.21664"
       y="46.546577"
       id="text39"><tspan
         sodipodi:role="line"
         id="tspan39"
         style="stroke-width:0.264583"
         x="-284.21664"
         y="46.546577">0.005</tspan></text><text
       xml:space="preserve"
       style="font-size:7.05556px;line-height:1.25;font-family:Sans;-inkscape-font-specification:Sans;stroke-width:0.264583"
       x="-284.36478"
       y="69.666069"
       id="text40"><tspan
         sodipodi:role="line"
         id="tspan40"
         style="stroke-width:0.264583"
         x="-284.36478"
         y="69.666069">0.000</tspan></text><g
       id="line2d_29"
       transform="matrix(0.35277778,0,0,0.35277778,-382.67509,-233.45325)"><g
         id="g119"><use
           xlink:href="#m14f1a5e5ec"
           x="442.99637"
           y="1262.376"
           style="stroke:#000000;stroke-width:0.8"
           id="use119" /></g></g><g
       id="line2d_30"
       transform="matrix(0.35277778,0,0,0.35277778,-382.67509,-233.45325)"><g
         id="g121"><use
           xlink:href="#m14f1a5e5ec"
           x="836.51703"
           y="1262.376"
           style="stroke:#000000;stroke-width:0.8"
           id="use121" /></g></g><g
       id="line2d_31"
       transform="matrix(0.35277778,0,0,0.35277778,-382.67509,-233.45325)"><g
         id="g124"><use
           xlink:href="#m14f1a5e5ec"
           x="1230.0377"
           y="1262.376"
           style="stroke:#000000;stroke-width:0.8"
           id="use124" /></g></g><g
       id="line2d_32"
       transform="matrix(0.35277778,0,0,0.35277778,-382.67509,-233.45325)"><g
         id="g127"><use
           xlink:href="#m14f1a5e5ec"
           x="1623.5583"
           y="1262.376"
           style="stroke:#000000;stroke-width:0.8"
           id="use127" /></g></g><g
       id="line2d_33"
       transform="matrix(0.35277778,0,0,0.35277778,-382.67509,-233.45325)"><g
         id="g130"><use
           xlink:href="#m14f1a5e5ec"
           x="2017.079"
           y="1262.376"
           style="stroke:#000000;stroke-width:0.8"
           id="use130" /></g></g><g
       id="line2d_34"
       transform="matrix(0.35277778,0,0,0.35277778,-382.67509,-233.45325)"><g
         id="g133"><use
           xlink:href="#m14f1a5e5ec"
           x="2410.5996"
           y="1262.376"
           style="stroke:#000000;stroke-width:0.8"
           id="use133" /></g></g><g
       id="line2d_35"
       transform="matrix(0.35277778,0,0,0.35277778,-382.67509,-233.45325)"><g
         id="g137"><use
           xlink:href="#m1a3d6b96a4"
           x="345.60001"
           y="1253.1978"
           style="stroke:#000000;stroke-width:0.8"
           id="use137" /></g></g><g
       id="line2d_36"
       transform="matrix(0.35277778,0,0,0.35277778,-382.67509,-233.45325)"><g
         id="g142"><use
           xlink:href="#m1a3d6b96a4"
           x="345.60001"
           y="1204.6903"
           style="stroke:#000000;stroke-width:0.8"
           id="use142" /></g></g><g
       id="line2d_37"
       transform="matrix(0.35277778,0,0,0.35277778,-382.67509,-233.45325)"><g
         id="g147"><use
           xlink:href="#m1a3d6b96a4"
           x="345.60001"
           y="1156.1829"
           style="stroke:#000000;stroke-width:0.8"
           id="use147" /></g></g><g
       id="line2d_38"
       transform="matrix(0.35277778,0,0,0.35277778,-382.67509,-233.45325)"><g
         id="g152"><use
           xlink:href="#m1a3d6b96a4"
           x="345.60001"
           y="1107.6754"
           style="stroke:#000000;stroke-width:0.8"
           id="use152" /></g></g><g
       id="line2d_39"
       transform="matrix(0.35277778,0,0,0.35277778,-382.67509,-233.45325)"><g
         id="g157"><use
           xlink:href="#m1a3d6b96a4"
           x="345.60001"
           y="1059.168"
           style="stroke:#000000;stroke-width:0.8"
           id="use157" /></g></g><g
       id="line2d_40"
       transform="matrix(0.35277778,0,0,0.35277778,-382.67509,-233.45325)"><g
         id="g162"><use
           xlink:href="#m1a3d6b96a4"
           x="345.60001"
           y="1010.6605"
           style="stroke:#000000;stroke-width:0.8"
           id="use162" /></g></g><g
       id="line2d_41"
       transform="matrix(0.35277778,0,0,0.35277778,-382.67509,-233.45325)"><g
         id="g167"><use
           xlink:href="#m1a3d6b96a4"
           x="345.60001"
           y="962.15295"
           style="stroke:#000000;stroke-width:0.8"
           id="use167" /></g></g><g
       id="line2d_42"
       transform="matrix(0.35277778,0,0,0.35277778,-382.67509,-233.45325)"
       style="stroke-width:8.65417;stroke-dasharray:none"><path
         d="m 442.99636,1247.7748 19.67604,-7.3073 19.67603,-8.979 19.67603,-10.4327 19.67604,-11.6683 19.67603,-12.6893 19.67603,-13.5031 19.67604,-14.1199 19.67603,-14.5523 19.67603,-14.8147 19.67603,-14.2673 19.67604,-13.1129 19.67603,-12.052 19.67603,-11.0769 19.67604,-10.1806 19.67603,-9.357 19.67603,-8.5999 19.67604,-7.9041 19.67603,-7.2646 19.67603,-6.6768 19.67603,-6.1366 19.67604,-5.6401 19.67603,-5.1838 19.67603,-4.7644 19.67604,-4.3788 19.67603,-4.0246 19.67603,-3.699 19.67604,-3.3997 19.67603,-3.12463 19.67601,-2.87181 19.6761,-2.63947 19.676,-2.42592 19.676,-2.22964 19.6761,-2.04924 19.676,-1.88343 19.676,-1.73106 19.6761,-1.59098 19.676,-1.46226 19.676,-1.34395 19.6761,-1.23521 19.676,-1.13529 19.676,-1.04343 19.6761,-0.959 19.676,-0.8814 19.676,-0.81011 19.6761,-0.74456 19.676,-0.68431 19.676,-0.62893 19.6761,-0.57806 19.676,-0.53129 19.676,-0.48831 19.6761,-0.44881 19.676,-0.4125 19.676,-0.37911 19.676,-0.34842 19.6761,-0.32024 19.676,-0.29433 19.676,-0.27054 19.6761,-0.24865 19.676,-0.22852 19.676,-0.21002 19.6761,-0.19305 19.676,-0.17741 19.676,-0.16307 19.6761,-0.14988 19.676,-0.13774 19.676,-0.12661 19.6761,-0.11635 19.676,-0.10694 19.676,-0.0983 19.6761,-0.0903 19.676,-0.083 19.676,-0.0763 19.6761,-0.0701 19.676,-0.0645 19.676,-0.0592 19.6761,-0.0544 19.676,-0.0501 19.676,-0.046 19.6761,-0.0423 19.676,-0.0389 19.676,-0.0357 19.6761,-0.0328 19.676,-0.0302 19.676,-0.0277 19.6761,-0.0255 19.676,-0.0234 19.676,-0.0215 19.6761,-0.0198 19.676,-0.0182 19.676,-0.0167 19.6761,-0.0154 19.676,-0.0141 19.676,-0.013 19.6761,-0.0119 19.676,-0.011 19.676,-0.0101 19.6761,-0.009 19.676,-0.009 19.676,-0.008"
         clip-path="url(#p049c11a768)"
         style="fill:none;stroke:#1f77b4;stroke-width:8.65417;stroke-linecap:square;stroke-dasharray:none"
         id="path171" /></g><path
       d="m 442.99636,1238.5381 19.67604,-14.0562 19.67603,-13.4584 19.67603,-12.8701 19.67604,-12.2944 19.67603,-11.7338 19.67603,-11.1897 19.67604,-10.6634 19.67603,-10.1557 19.67603,-9.6672 19.67603,-9.1896 19.67604,-8.7157 19.67603,-8.2663 19.67603,-7.84 19.67604,-7.4358 19.67603,-7.0524 19.67603,-6.6887 19.67604,-6.3438 19.67603,-6.0168 19.67603,-5.7064 19.67603,-5.4123 19.67604,-5.1331 19.67603,-4.8685 19.67603,-4.6174 19.67604,-4.3793 19.67603,-4.1536 19.67603,-3.9393 19.67604,-3.7362 19.67603,-3.5436 19.67601,-3.3609 19.6761,-3.1875 19.676,-3.0232 19.676,-2.8673 19.6761,-2.7195 19.676,-2.5792 19.676,-2.44623 19.6761,-2.3201 19.676,-2.20046 19.676,-2.087 19.6761,-1.9794 19.676,-1.87733 19.676,-1.78053 19.6761,-1.6887 19.676,-1.60162 19.676,-1.51905 19.6761,-1.44071 19.676,-1.36645 19.676,-1.29598 19.6761,-1.22914 19.676,-1.16576 19.676,-1.10565 19.6761,-1.04863 19.676,-0.99457 19.676,-0.94328 19.676,-0.89464 19.6761,-0.84853 19.676,-0.80476 19.676,-0.76327 19.6761,-0.72391 19.676,-0.68659 19.676,-0.65117 19.6761,-0.61761 19.676,-0.58577 19.676,-0.55556 19.6761,-0.5269 19.676,-0.49973 19.676,-0.47397 19.6761,-0.44953 19.676,-0.42635 19.676,-0.40437 19.6761,-0.38353 19.676,-0.36375 19.676,-0.34498 19.6761,-0.32721 19.676,-0.31032 19.676,-0.29433 19.6761,-0.27915 19.676,-0.26476 19.676,-0.2511 19.6761,-0.23816 19.676,-0.22586 19.676,-0.21422 19.6761,-0.20317 19.676,-0.1927 19.676,-0.18276 19.6761,-0.17333 19.676,-0.1644 19.676,-0.15592 19.6761,-0.14789 19.676,-0.14026 19.676,-0.13302 19.6761,-0.12618 19.676,-0.11967 19.676,-0.11348 19.6761,-0.10764 19.676,-0.10209 19.676,-0.0968 19.6761,-0.0918 19.676,-0.0871 19.676,-0.0826"
       clip-path="url(#p049c11a768)"
       style="fill:none;stroke:#ff7f0e;stroke-width:8.65417;stroke-linecap:square;stroke-dasharray:8.65417, 17.3083;stroke-dashoffset:0"
       id="path172"
       transform="matrix(0.35277778,0,0,0.35277778,-382.67509,-233.45325)" /><g
       id="patch_13"
       transform="matrix(0.35277778,0,0,0.35277778,-382.67509,-233.45325)"><path
         d="M 345.6,1262.376 V 941.15012"
         style="fill:none;stroke:#000000;stroke-width:0.8;stroke-linecap:square;stroke-linejoin:miter"
         id="path173" /></g><g
       id="patch_14"
       transform="matrix(0.35277778,0,0,0.35277778,-382.67509,-233.45325)"><path
         d="M 2488.32,1262.376 V 941.15012"
         style="fill:none;stroke:#000000;stroke-width:0.8;stroke-linecap:square;stroke-linejoin:miter"
         id="path174" /></g><g
       id="patch_15"
       transform="matrix(0.35277778,0,0,0.35277778,-382.67509,-233.45325)"><path
         d="M 345.6,1262.376 H 2488.32"
         style="fill:none;stroke:#000000;stroke-width:0.8;stroke-linecap:square;stroke-linejoin:miter"
         id="path175" /></g><g
       id="patch_16"
       transform="matrix(0.35277778,0,0,0.35277778,-382.67509,-233.45325)"><path
         d="M 345.6,941.15012 H 2488.32"
         style="fill:none;stroke:#000000;stroke-width:0.8;stroke-linecap:square;stroke-linejoin:miter"
         id="path176" /></g><text
       xml:space="preserve"
       style="font-size:19.7556px;line-height:1.25;font-family:Sans;-inkscape-font-specification:Sans;stroke-width:0.264583"
       x="-300.00452"
       y="92.369896"
       id="text28"><tspan
         sodipodi:role="line"
         id="tspan28"
         style="font-size:19.7556px;stroke-width:0.264583"
         x="-300.00452"
         y="92.369896">C</tspan></text><text
       xml:space="preserve"
       style="font-size:7.05556px;line-height:1.25;font-family:Sans;-inkscape-font-specification:Sans;stroke-width:0.264583"
       x="-279.87582"
       y="108.00031"
       id="text41"><tspan
         sodipodi:role="line"
         id="tspan41"
         style="stroke-width:0.264583"
         x="-279.87582"
         y="108.00031">0.30</tspan></text><text
       xml:space="preserve"
       style="font-size:7.05556px;line-height:1.25;font-family:Sans;-inkscape-font-specification:Sans;stroke-width:0.264583"
       x="-279.87582"
       y="142.63585"
       id="text42"><tspan
         sodipodi:role="line"
         id="tspan42"
         style="stroke-width:0.264583"
         x="-279.87582"
         y="142.63585">0.20</tspan></text><text
       xml:space="preserve"
       style="font-size:7.05556px;line-height:1.25;font-family:Sans;-inkscape-font-specification:Sans;stroke-width:0.264583"
       x="-279.72766"
       y="125.10986"
       id="text43"><tspan
         sodipodi:role="line"
         id="tspan43"
         style="stroke-width:0.264583"
         x="-279.72766"
         y="125.10986">0.25</tspan></text><text
       xml:space="preserve"
       style="font-size:7.05556px;line-height:1.25;font-family:Sans;-inkscape-font-specification:Sans;stroke-width:0.264583"
       x="-279.72766"
       y="159.69542"
       id="text44"><tspan
         sodipodi:role="line"
         id="tspan44"
         style="stroke-width:0.264583"
         x="-279.72766"
         y="159.69542">0.15</tspan></text><text
       xml:space="preserve"
       style="font-size:7.05556px;line-height:1.25;font-family:Sans;-inkscape-font-specification:Sans;stroke-width:0.264583"
       x="-279.87582"
       y="176.8093"
       id="text45"><tspan
         sodipodi:role="line"
         id="tspan45"
         style="stroke-width:0.264583"
         x="-279.87582"
         y="176.8093">0.10</tspan></text><text
       xml:space="preserve"
       style="font-size:7.05556px;line-height:1.25;font-family:Sans;-inkscape-font-specification:Sans;stroke-width:0.264583"
       x="-279.72766"
       y="193.99438"
       id="text46"><tspan
         sodipodi:role="line"
         id="tspan46"
         style="stroke-width:0.264583"
         x="-279.72766"
         y="193.99438">0.05</tspan></text><text
       xml:space="preserve"
       style="font-size:7.05556px;line-height:1.25;font-family:Sans;-inkscape-font-specification:Sans;stroke-width:0.264583"
       x="-279.87582"
       y="210.74055"
       id="text47"><tspan
         sodipodi:role="line"
         id="tspan47"
         style="stroke-width:0.264583"
         x="-279.87582"
         y="210.74055">0.00</tspan></text><text
       xml:space="preserve"
       style="font-size:7.05556px;line-height:1.25;font-family:Sans;-inkscape-font-specification:Sans;stroke-width:0.264583"
       x="-228.70119"
       y="221.0863"
       id="text48"><tspan
         sodipodi:role="line"
         id="tspan48"
         style="stroke-width:0.264583"
         x="-228.70119"
         y="221.0863">0</tspan></text><text
       xml:space="preserve"
       style="font-size:7.05556px;line-height:1.25;font-family:Sans;-inkscape-font-specification:Sans;stroke-width:0.264583"
       x="-92.095253"
       y="221.0863"
       id="text49"><tspan
         sodipodi:role="line"
         id="tspan49"
         style="stroke-width:0.264583"
         x="-92.095253"
         y="221.0863">20</tspan></text><text
       xml:space="preserve"
       style="font-size:7.05556px;line-height:1.25;font-family:Sans;-inkscape-font-specification:Sans;stroke-width:0.264583"
       x="46.770344"
       y="221.0863"
       id="text50"><tspan
         sodipodi:role="line"
         id="tspan50"
         style="stroke-width:0.264583"
         x="46.770344"
         y="221.0863">40</tspan></text><text
       xml:space="preserve"
       style="font-size:7.05556px;line-height:1.25;font-family:Sans;-inkscape-font-specification:Sans;stroke-width:0.264583"
       x="185.41174"
       y="221.0863"
       id="text51"><tspan
         sodipodi:role="line"
         id="tspan51"
         style="stroke-width:0.264583"
         x="185.41174"
         y="221.0863">60</tspan></text><text
       xml:space="preserve"
       style="font-size:7.05556px;line-height:1.25;font-family:Sans;-inkscape-font-specification:Sans;stroke-width:0.264583"
       x="324.14944"
       y="221.0863"
       id="text52"><tspan
         sodipodi:role="line"
         id="tspan52"
         style="stroke-width:0.264583"
         x="324.14944"
         y="221.0863">80</tspan></text><text
       xml:space="preserve"
       style="font-size:7.05556px;line-height:1.25;font-family:Sans;-inkscape-font-specification:Sans;stroke-width:0.264583"
       x="461.03265"
       y="221.0863"
       id="text53"><tspan
         sodipodi:role="line"
         id="tspan53"
         style="stroke-width:0.264583"
         x="461.03265"
         y="221.0863">100</tspan></text><text
       xml:space="preserve"
       style="font-size:11.2889px;line-height:1.25;font-family:Sans;-inkscape-font-specification:Sans;stroke-width:0.264583"
       x="88.10434"
       y="224.18463"
       id="text54"><tspan
         sodipodi:role="line"
         id="tspan54"
         style="font-size:11.2889px;stroke-width:0.264583"
         x="88.10434"
         y="224.18463">Euler Step</tspan></text><text
       xml:space="preserve"
       style="font-size:11.2889px;line-height:1.25;font-family:Sans;-inkscape-font-specification:Sans;stroke-width:0.264583"
       x="-47.941166"
       y="-286.58527"
       id="text55"
       transform="rotate(-90)"><tspan
         sodipodi:role="line"
         id="tspan55"
         style="font-size:11.2889px;stroke-width:0.264583"
         x="-47.941166"
         y="-286.58527">MSE Loss</tspan></text><text
       xml:space="preserve"
       style="font-size:11.2889px;line-height:1.25;font-family:Sans;-inkscape-font-specification:Sans;stroke-width:0.264583"
       x="-160.96942"
       y="-286.58527"
       id="text56"
       transform="rotate(-90)"><tspan
         sodipodi:role="line"
         id="tspan56"
         style="font-size:11.2889px;stroke-width:0.264583"
         x="-160.96942"
         y="-286.58527">U</tspan></text><g
       id="g62"
       transform="translate(-88.035929,-39.446282)"><rect
         style="fill:#ffffff;stroke:#868686;stroke-width:0.690778;stroke-linejoin:round;stroke-dasharray:none;stroke-dashoffset:0;stroke-opacity:1"
         id="rect61"
         width="79.925499"
         height="34.150764"
         x="499.94482"
         y="150.82675"
         rx="3.7333276" /><path
         style="fill:none;stroke:#1f77b4;stroke-width:3.065;stroke-linecap:butt;stroke-linejoin:miter;stroke-dasharray:none;stroke-opacity:1"
         d="m 394.11185,129.46119 c 5.27172,0 10.54343,0 15.81513,0"
         id="path60"
         inkscape:path-effect="#path-effect60"
         inkscape:original-d="m 394.11185,129.46119 c 5.27172,0 10.54343,0 15.81513,0"
         transform="translate(109.91743,30.572602)" /><path
         style="fill:none;stroke:#ff7f0e;stroke-width:3.065;stroke-linecap:butt;stroke-linejoin:miter;stroke-dasharray:3.065, 6.13;stroke-dashoffset:0;stroke-opacity:1"
         d="m 394.11185,129.46119 c 5.27172,0 10.54343,0 15.81513,0"
         id="path60-2"
         inkscape:path-effect="#path-effect60-5"
         inkscape:original-d="m 394.11185,129.46119 c 5.27172,0 10.54343,0 15.81513,0"
         transform="translate(109.91743,43.995155)" /><text
         xml:space="preserve"
         style="font-size:11.2889px;line-height:1.25;font-family:Sans;-inkscape-font-specification:Sans;stroke-width:0.264583"
         x="528.57953"
         y="163.77562"
         id="text60"><tspan
           sodipodi:role="line"
           id="tspan60"
           style="font-size:11.2889px;stroke-width:0.264583"
           x="528.57953"
           y="163.77562">Original</tspan><tspan
           sodipodi:role="line"
           style="font-size:11.2889px;stroke-width:0.264583"
           x="528.57953"
           y="177.88675"
           id="tspan61">Learned</tspan></text></g></g></svg>
