<?xml version="1.0" encoding="utf-8" standalone="no"?>
<!DOCTYPE svg PUBLIC "-//W3C//DTD SVG 1.1//EN"
  "http://www.w3.org/Graphics/SVG/1.1/DTD/svg11.dtd">
<svg xmlns:xlink="http://www.w3.org/1999/xlink" width="2764.8pt" height="1418.4pt" viewBox="0 0 2764.8 1418.4" xmlns="http://www.w3.org/2000/svg" version="1.1">
 <metadata>
  <rdf:RDF xmlns:dc="http://purl.org/dc/elements/1.1/" xmlns:cc="http://creativecommons.org/ns#" xmlns:rdf="http://www.w3.org/1999/02/22-rdf-syntax-ns#">
   <cc:Work>
    <dc:type rdf:resource="http://purl.org/dc/dcmitype/StillImage"/>
    <dc:date>2024-05-02T18:14:59.444607</dc:date>
    <dc:format>image/svg+xml</dc:format>
    <dc:creator>
     <cc:Agent>
      <dc:title>Matplotlib v3.7.4, https://matplotlib.org/</dc:title>
     </cc:Agent>
    </dc:creator>
   </cc:Work>
  </rdf:RDF>
 </metadata>
 <defs>
  <style type="text/css">*{stroke-linejoin: round; stroke-linecap: butt}</style>
 </defs>
 <g id="figure_1">
  <g id="patch_1">
   <path d="M 0 1418.4 
L 2764.8 1418.4 
L 2764.8 0 
L 0 0 
z
" style="fill: #ffffff"/>
  </g>
  <g id="axes_1">
   <g id="patch_2">
    <path d="M 345.6 1262.376 
L 1319.563636 1262.376 
L 1319.563636 170.208 
L 345.6 170.208 
z
" style="fill: #ffffff"/>
   </g>
   <g id="PolyCollection_1">
    <defs>
     <path id="mad7b7e116d" d="M 389.871074 -689.794554 
L 389.871074 -714.258808 
L 407.579504 -396.373594 
L 425.287934 -331.381157 
L 442.996364 -306.161952 
L 460.704793 -286.015837 
L 478.413223 -276.588641 
L 496.121653 -261.725351 
L 513.830083 -260.344738 
L 531.538512 -249.957966 
L 549.246942 -244.517381 
L 566.955372 -242.26385 
L 584.663802 -238.063034 
L 602.372231 -238.838924 
L 620.080661 -234.200486 
L 637.789091 -236.571204 
L 655.497521 -229.60764 
L 673.20595 -230.145629 
L 690.91438 -227.198712 
L 708.62281 -226.218739 
L 726.33124 -227.680691 
L 744.039669 -223.705455 
L 761.748099 -222.546556 
L 779.456529 -225.536757 
L 797.164959 -218.677194 
L 814.873388 -221.252303 
L 832.581818 -220.982044 
L 850.290248 -221.773599 
L 867.998678 -220.572855 
L 885.707107 -220.825579 
L 903.415537 -216.561789 
L 921.123967 -217.240547 
L 938.832397 -216.590315 
L 956.540826 -217.190588 
L 974.249256 -214.958729 
L 991.957686 -215.214441 
L 1009.666116 -216.135239 
L 1027.374545 -212.418004 
L 1045.082975 -213.293335 
L 1062.791405 -212.309398 
L 1080.499835 -215.025356 
L 1098.208264 -214.674214 
L 1115.916694 -213.33938 
L 1133.625124 -212.888766 
L 1151.333554 -216.643175 
L 1169.041983 -211.806087 
L 1186.750413 -213.43585 
L 1204.458843 -211.350704 
L 1222.167273 -217.560567 
L 1239.875702 -212.418387 
L 1257.584132 -214.358388 
L 1275.292562 -216.759822 
L 1275.292562 -206.714674 
L 1275.292562 -206.714674 
L 1257.584132 -206.360123 
L 1239.875702 -207.845456 
L 1222.167273 -208.878877 
L 1204.458843 -207.202551 
L 1186.750413 -209.438756 
L 1169.041983 -205.668 
L 1151.333554 -211.033942 
L 1133.625124 -210.903323 
L 1115.916694 -207.919893 
L 1098.208264 -208.002597 
L 1080.499835 -208.162708 
L 1062.791405 -209.094339 
L 1045.082975 -211.160751 
L 1027.374545 -210.623705 
L 1009.666116 -210.625007 
L 991.957686 -210.452792 
L 974.249256 -209.561397 
L 956.540826 -212.64996 
L 938.832397 -209.866256 
L 921.123967 -211.606534 
L 903.415537 -212.924949 
L 885.707107 -212.480393 
L 867.998678 -214.395701 
L 850.290248 -214.668372 
L 832.581818 -215.641087 
L 814.873388 -215.870676 
L 797.164959 -214.238963 
L 779.456529 -217.411938 
L 761.748099 -218.489849 
L 744.039669 -221.021313 
L 726.33124 -222.897513 
L 708.62281 -222.440874 
L 690.91438 -224.135864 
L 673.20595 -226.229198 
L 655.497521 -224.722707 
L 637.789091 -227.917595 
L 620.080661 -231.953348 
L 602.372231 -235.749783 
L 584.663802 -234.686118 
L 566.955372 -238.592367 
L 549.246942 -240.955829 
L 531.538512 -246.413734 
L 513.830083 -251.288091 
L 496.121653 -256.512597 
L 478.413223 -264.228459 
L 460.704793 -275.392374 
L 442.996364 -290.713439 
L 425.287934 -317.194293 
L 407.579504 -374.898722 
L 389.871074 -689.794554 
z
" style="stroke: #1f77b4; stroke-opacity: 0.5"/>
    </defs>
    <g clip-path="url(#p4dd017bd1d)">
     <use xlink:href="#mad7b7e116d" x="0" y="1418.4" style="fill: #1f77b4; fill-opacity: 0.5; stroke: #1f77b4; stroke-opacity: 0.5"/>
    </g>
   </g>
   <g id="PolyCollection_2">
    <defs>
     <path id="m7f6b41e214" d="M 389.871074 -1155.336276 
L 389.871074 -1198.548 
L 407.579504 -794.799348 
L 425.287934 -668.609593 
L 442.996364 -594.236759 
L 460.704793 -547.570994 
L 478.413223 -509.865222 
L 496.121653 -479.810722 
L 513.830083 -456.316166 
L 531.538512 -438.220446 
L 549.246942 -419.971017 
L 566.955372 -408.833268 
L 584.663802 -399.623104 
L 602.372231 -390.051622 
L 620.080661 -381.847044 
L 637.789091 -375.377421 
L 655.497521 -369.316665 
L 673.20595 -363.734072 
L 690.91438 -359.863267 
L 708.62281 -353.143236 
L 726.33124 -350.39643 
L 744.039669 -347.783104 
L 761.748099 -340.823412 
L 779.456529 -339.477063 
L 797.164959 -334.962841 
L 814.873388 -330.476683 
L 832.581818 -327.170087 
L 850.290248 -325.543211 
L 867.998678 -322.099321 
L 885.707107 -320.642969 
L 903.415537 -318.306235 
L 921.123967 -316.294449 
L 938.832397 -312.282508 
L 956.540826 -309.491196 
L 974.249256 -306.189445 
L 991.957686 -306.49909 
L 1009.666116 -305.715883 
L 1027.374545 -302.834234 
L 1045.082975 -300.751722 
L 1062.791405 -297.555731 
L 1080.499835 -296.727345 
L 1098.208264 -296.827236 
L 1115.916694 -292.605197 
L 1133.625124 -293.108978 
L 1151.333554 -291.451511 
L 1169.041983 -288.627278 
L 1186.750413 -290.50272 
L 1204.458843 -286.975117 
L 1222.167273 -286.822357 
L 1239.875702 -284.879724 
L 1257.584132 -283.421133 
L 1275.292562 -283.012825 
L 1275.292562 -275.078029 
L 1275.292562 -275.078029 
L 1257.584132 -275.058917 
L 1239.875702 -276.403947 
L 1222.167273 -276.997558 
L 1204.458843 -275.133169 
L 1186.750413 -280.035517 
L 1169.041983 -280.011843 
L 1151.333554 -281.189607 
L 1133.625124 -281.80747 
L 1115.916694 -283.922184 
L 1098.208264 -283.799689 
L 1080.499835 -286.291213 
L 1062.791405 -286.745296 
L 1045.082975 -288.230948 
L 1027.374545 -289.894244 
L 1009.666116 -291.173666 
L 991.957686 -291.605143 
L 974.249256 -293.73887 
L 956.540826 -297.062946 
L 938.832397 -297.906642 
L 921.123967 -297.755641 
L 903.415537 -302.118745 
L 885.707107 -303.932085 
L 867.998678 -305.870655 
L 850.290248 -308.548968 
L 832.581818 -308.650869 
L 814.873388 -312.777203 
L 797.164959 -315.378597 
L 779.456529 -320.200909 
L 761.748099 -321.842102 
L 744.039669 -325.183676 
L 726.33124 -329.844405 
L 708.62281 -334.508464 
L 690.91438 -338.945536 
L 673.20595 -344.780173 
L 655.497521 -349.171965 
L 637.789091 -354.551823 
L 620.080661 -360.854504 
L 602.372231 -370.658927 
L 584.663802 -378.610284 
L 566.955372 -387.977986 
L 549.246942 -397.659981 
L 531.538512 -412.323246 
L 513.830083 -427.099273 
L 496.121653 -446.674182 
L 478.413223 -469.092051 
L 460.704793 -504.734001 
L 442.996364 -552.650001 
L 425.287934 -635.309537 
L 407.579504 -768.820844 
L 389.871074 -1155.336276 
z
" style="stroke: #2ca02c; stroke-opacity: 0.5"/>
    </defs>
    <g clip-path="url(#p4dd017bd1d)">
     <use xlink:href="#m7f6b41e214" x="0" y="1418.4" style="fill: #2ca02c; fill-opacity: 0.5; stroke: #2ca02c; stroke-opacity: 0.5"/>
    </g>
   </g>
   <g id="matplotlib.axis_1">
    <g id="xtick_1">
     <g id="line2d_1">
      <defs>
       <path id="mb50cfc40f4" d="M 0 0 
L 0 3.5 
" style="stroke: #000000; stroke-width: 0.8"/>
      </defs>
      <g>
       <use xlink:href="#mb50cfc40f4" x="389.871074" y="1262.376" style="stroke: #000000; stroke-width: 0.8"/>
      </g>
     </g>
     <g id="text_1">
      <!-- 0 -->
      <g transform="translate(386.689824 1276.974437) scale(0.1 -0.1)">
       <defs>
        <path id="DejaVuSans-30" d="M 2034 4250 
Q 1547 4250 1301 3770 
Q 1056 3291 1056 2328 
Q 1056 1369 1301 889 
Q 1547 409 2034 409 
Q 2525 409 2770 889 
Q 3016 1369 3016 2328 
Q 3016 3291 2770 3770 
Q 2525 4250 2034 4250 
z
M 2034 4750 
Q 2819 4750 3233 4129 
Q 3647 3509 3647 2328 
Q 3647 1150 3233 529 
Q 2819 -91 2034 -91 
Q 1250 -91 836 529 
Q 422 1150 422 2328 
Q 422 3509 836 4129 
Q 1250 4750 2034 4750 
z
" transform="scale(0.015625)"/>
       </defs>
       <use xlink:href="#DejaVuSans-30"/>
      </g>
     </g>
    </g>
    <g id="xtick_2">
     <g id="line2d_2">
      <g>
       <use xlink:href="#mb50cfc40f4" x="566.955372" y="1262.376" style="stroke: #000000; stroke-width: 0.8"/>
      </g>
     </g>
     <g id="text_2">
      <!-- 10 -->
      <g transform="translate(560.592872 1276.974437) scale(0.1 -0.1)">
       <defs>
        <path id="DejaVuSans-31" d="M 794 531 
L 1825 531 
L 1825 4091 
L 703 3866 
L 703 4441 
L 1819 4666 
L 2450 4666 
L 2450 531 
L 3481 531 
L 3481 0 
L 794 0 
L 794 531 
z
" transform="scale(0.015625)"/>
       </defs>
       <use xlink:href="#DejaVuSans-31"/>
       <use xlink:href="#DejaVuSans-30" x="63.623047"/>
      </g>
     </g>
    </g>
    <g id="xtick_3">
     <g id="line2d_3">
      <g>
       <use xlink:href="#mb50cfc40f4" x="744.039669" y="1262.376" style="stroke: #000000; stroke-width: 0.8"/>
      </g>
     </g>
     <g id="text_3">
      <!-- 20 -->
      <g transform="translate(737.677169 1276.974437) scale(0.1 -0.1)">
       <defs>
        <path id="DejaVuSans-32" d="M 1228 531 
L 3431 531 
L 3431 0 
L 469 0 
L 469 531 
Q 828 903 1448 1529 
Q 2069 2156 2228 2338 
Q 2531 2678 2651 2914 
Q 2772 3150 2772 3378 
Q 2772 3750 2511 3984 
Q 2250 4219 1831 4219 
Q 1534 4219 1204 4116 
Q 875 4013 500 3803 
L 500 4441 
Q 881 4594 1212 4672 
Q 1544 4750 1819 4750 
Q 2544 4750 2975 4387 
Q 3406 4025 3406 3419 
Q 3406 3131 3298 2873 
Q 3191 2616 2906 2266 
Q 2828 2175 2409 1742 
Q 1991 1309 1228 531 
z
" transform="scale(0.015625)"/>
       </defs>
       <use xlink:href="#DejaVuSans-32"/>
       <use xlink:href="#DejaVuSans-30" x="63.623047"/>
      </g>
     </g>
    </g>
    <g id="xtick_4">
     <g id="line2d_4">
      <g>
       <use xlink:href="#mb50cfc40f4" x="921.123967" y="1262.376" style="stroke: #000000; stroke-width: 0.8"/>
      </g>
     </g>
     <g id="text_4">
      <!-- 30 -->
      <g transform="translate(914.761467 1276.974437) scale(0.1 -0.1)">
       <defs>
        <path id="DejaVuSans-33" d="M 2597 2516 
Q 3050 2419 3304 2112 
Q 3559 1806 3559 1356 
Q 3559 666 3084 287 
Q 2609 -91 1734 -91 
Q 1441 -91 1130 -33 
Q 819 25 488 141 
L 488 750 
Q 750 597 1062 519 
Q 1375 441 1716 441 
Q 2309 441 2620 675 
Q 2931 909 2931 1356 
Q 2931 1769 2642 2001 
Q 2353 2234 1838 2234 
L 1294 2234 
L 1294 2753 
L 1863 2753 
Q 2328 2753 2575 2939 
Q 2822 3125 2822 3475 
Q 2822 3834 2567 4026 
Q 2313 4219 1838 4219 
Q 1578 4219 1281 4162 
Q 984 4106 628 3988 
L 628 4550 
Q 988 4650 1302 4700 
Q 1616 4750 1894 4750 
Q 2613 4750 3031 4423 
Q 3450 4097 3450 3541 
Q 3450 3153 3228 2886 
Q 3006 2619 2597 2516 
z
" transform="scale(0.015625)"/>
       </defs>
       <use xlink:href="#DejaVuSans-33"/>
       <use xlink:href="#DejaVuSans-30" x="63.623047"/>
      </g>
     </g>
    </g>
    <g id="xtick_5">
     <g id="line2d_5">
      <g>
       <use xlink:href="#mb50cfc40f4" x="1098.208264" y="1262.376" style="stroke: #000000; stroke-width: 0.8"/>
      </g>
     </g>
     <g id="text_5">
      <!-- 40 -->
      <g transform="translate(1091.845764 1276.974437) scale(0.1 -0.1)">
       <defs>
        <path id="DejaVuSans-34" d="M 2419 4116 
L 825 1625 
L 2419 1625 
L 2419 4116 
z
M 2253 4666 
L 3047 4666 
L 3047 1625 
L 3713 1625 
L 3713 1100 
L 3047 1100 
L 3047 0 
L 2419 0 
L 2419 1100 
L 313 1100 
L 313 1709 
L 2253 4666 
z
" transform="scale(0.015625)"/>
       </defs>
       <use xlink:href="#DejaVuSans-34"/>
       <use xlink:href="#DejaVuSans-30" x="63.623047"/>
      </g>
     </g>
    </g>
    <g id="xtick_6">
     <g id="line2d_6">
      <g>
       <use xlink:href="#mb50cfc40f4" x="1275.292562" y="1262.376" style="stroke: #000000; stroke-width: 0.8"/>
      </g>
     </g>
     <g id="text_6">
      <!-- 50 -->
      <g transform="translate(1268.930062 1276.974437) scale(0.1 -0.1)">
       <defs>
        <path id="DejaVuSans-35" d="M 691 4666 
L 3169 4666 
L 3169 4134 
L 1269 4134 
L 1269 2991 
Q 1406 3038 1543 3061 
Q 1681 3084 1819 3084 
Q 2600 3084 3056 2656 
Q 3513 2228 3513 1497 
Q 3513 744 3044 326 
Q 2575 -91 1722 -91 
Q 1428 -91 1123 -41 
Q 819 9 494 109 
L 494 744 
Q 775 591 1075 516 
Q 1375 441 1709 441 
Q 2250 441 2565 725 
Q 2881 1009 2881 1497 
Q 2881 1984 2565 2268 
Q 2250 2553 1709 2553 
Q 1456 2553 1204 2497 
Q 953 2441 691 2322 
L 691 4666 
z
" transform="scale(0.015625)"/>
       </defs>
       <use xlink:href="#DejaVuSans-35"/>
       <use xlink:href="#DejaVuSans-30" x="63.623047"/>
      </g>
     </g>
    </g>
    <g id="text_7">
     <!-- Epoch -->
     <g transform="translate(817.270881 1290.652562) scale(0.1 -0.1)">
      <defs>
       <path id="DejaVuSans-45" d="M 628 4666 
L 3578 4666 
L 3578 4134 
L 1259 4134 
L 1259 2753 
L 3481 2753 
L 3481 2222 
L 1259 2222 
L 1259 531 
L 3634 531 
L 3634 0 
L 628 0 
L 628 4666 
z
" transform="scale(0.015625)"/>
       <path id="DejaVuSans-70" d="M 1159 525 
L 1159 -1331 
L 581 -1331 
L 581 3500 
L 1159 3500 
L 1159 2969 
Q 1341 3281 1617 3432 
Q 1894 3584 2278 3584 
Q 2916 3584 3314 3078 
Q 3713 2572 3713 1747 
Q 3713 922 3314 415 
Q 2916 -91 2278 -91 
Q 1894 -91 1617 61 
Q 1341 213 1159 525 
z
M 3116 1747 
Q 3116 2381 2855 2742 
Q 2594 3103 2138 3103 
Q 1681 3103 1420 2742 
Q 1159 2381 1159 1747 
Q 1159 1113 1420 752 
Q 1681 391 2138 391 
Q 2594 391 2855 752 
Q 3116 1113 3116 1747 
z
" transform="scale(0.015625)"/>
       <path id="DejaVuSans-6f" d="M 1959 3097 
Q 1497 3097 1228 2736 
Q 959 2375 959 1747 
Q 959 1119 1226 758 
Q 1494 397 1959 397 
Q 2419 397 2687 759 
Q 2956 1122 2956 1747 
Q 2956 2369 2687 2733 
Q 2419 3097 1959 3097 
z
M 1959 3584 
Q 2709 3584 3137 3096 
Q 3566 2609 3566 1747 
Q 3566 888 3137 398 
Q 2709 -91 1959 -91 
Q 1206 -91 779 398 
Q 353 888 353 1747 
Q 353 2609 779 3096 
Q 1206 3584 1959 3584 
z
" transform="scale(0.015625)"/>
       <path id="DejaVuSans-63" d="M 3122 3366 
L 3122 2828 
Q 2878 2963 2633 3030 
Q 2388 3097 2138 3097 
Q 1578 3097 1268 2742 
Q 959 2388 959 1747 
Q 959 1106 1268 751 
Q 1578 397 2138 397 
Q 2388 397 2633 464 
Q 2878 531 3122 666 
L 3122 134 
Q 2881 22 2623 -34 
Q 2366 -91 2075 -91 
Q 1284 -91 818 406 
Q 353 903 353 1747 
Q 353 2603 823 3093 
Q 1294 3584 2113 3584 
Q 2378 3584 2631 3529 
Q 2884 3475 3122 3366 
z
" transform="scale(0.015625)"/>
       <path id="DejaVuSans-68" d="M 3513 2113 
L 3513 0 
L 2938 0 
L 2938 2094 
Q 2938 2591 2744 2837 
Q 2550 3084 2163 3084 
Q 1697 3084 1428 2787 
Q 1159 2491 1159 1978 
L 1159 0 
L 581 0 
L 581 4863 
L 1159 4863 
L 1159 2956 
Q 1366 3272 1645 3428 
Q 1925 3584 2291 3584 
Q 2894 3584 3203 3211 
Q 3513 2838 3513 2113 
z
" transform="scale(0.015625)"/>
      </defs>
      <use xlink:href="#DejaVuSans-45"/>
      <use xlink:href="#DejaVuSans-70" x="63.183594"/>
      <use xlink:href="#DejaVuSans-6f" x="126.660156"/>
      <use xlink:href="#DejaVuSans-63" x="187.841797"/>
      <use xlink:href="#DejaVuSans-68" x="242.822266"/>
     </g>
    </g>
   </g>
   <g id="matplotlib.axis_2">
    <g id="ytick_1">
     <g id="line2d_7">
      <defs>
       <path id="mf0c38abd06" d="M 0 0 
L -3.5 0 
" style="stroke: #000000; stroke-width: 0.8"/>
      </defs>
      <g>
       <use xlink:href="#mf0c38abd06" x="345.6" y="1238.952934" style="stroke: #000000; stroke-width: 0.8"/>
      </g>
     </g>
     <g id="text_8">
      <!-- 0.0 -->
      <g transform="translate(322.696875 1242.752152) scale(0.1 -0.1)">
       <defs>
        <path id="DejaVuSans-2e" d="M 684 794 
L 1344 794 
L 1344 0 
L 684 0 
L 684 794 
z
" transform="scale(0.015625)"/>
       </defs>
       <use xlink:href="#DejaVuSans-30"/>
       <use xlink:href="#DejaVuSans-2e" x="63.623047"/>
       <use xlink:href="#DejaVuSans-30" x="95.410156"/>
      </g>
     </g>
    </g>
    <g id="ytick_2">
     <g id="line2d_8">
      <g>
       <use xlink:href="#mf0c38abd06" x="345.6" y="1097.856042" style="stroke: #000000; stroke-width: 0.8"/>
      </g>
     </g>
     <g id="text_9">
      <!-- 0.2 -->
      <g transform="translate(322.696875 1101.655261) scale(0.1 -0.1)">
       <use xlink:href="#DejaVuSans-30"/>
       <use xlink:href="#DejaVuSans-2e" x="63.623047"/>
       <use xlink:href="#DejaVuSans-32" x="95.410156"/>
      </g>
     </g>
    </g>
    <g id="ytick_3">
     <g id="line2d_9">
      <g>
       <use xlink:href="#mf0c38abd06" x="345.6" y="956.75915" style="stroke: #000000; stroke-width: 0.8"/>
      </g>
     </g>
     <g id="text_10">
      <!-- 0.4 -->
      <g transform="translate(322.696875 960.558369) scale(0.1 -0.1)">
       <use xlink:href="#DejaVuSans-30"/>
       <use xlink:href="#DejaVuSans-2e" x="63.623047"/>
       <use xlink:href="#DejaVuSans-34" x="95.410156"/>
      </g>
     </g>
    </g>
    <g id="ytick_4">
     <g id="line2d_10">
      <g>
       <use xlink:href="#mf0c38abd06" x="345.6" y="815.662258" style="stroke: #000000; stroke-width: 0.8"/>
      </g>
     </g>
     <g id="text_11">
      <!-- 0.6 -->
      <g transform="translate(322.696875 819.461477) scale(0.1 -0.1)">
       <defs>
        <path id="DejaVuSans-36" d="M 2113 2584 
Q 1688 2584 1439 2293 
Q 1191 2003 1191 1497 
Q 1191 994 1439 701 
Q 1688 409 2113 409 
Q 2538 409 2786 701 
Q 3034 994 3034 1497 
Q 3034 2003 2786 2293 
Q 2538 2584 2113 2584 
z
M 3366 4563 
L 3366 3988 
Q 3128 4100 2886 4159 
Q 2644 4219 2406 4219 
Q 1781 4219 1451 3797 
Q 1122 3375 1075 2522 
Q 1259 2794 1537 2939 
Q 1816 3084 2150 3084 
Q 2853 3084 3261 2657 
Q 3669 2231 3669 1497 
Q 3669 778 3244 343 
Q 2819 -91 2113 -91 
Q 1303 -91 875 529 
Q 447 1150 447 2328 
Q 447 3434 972 4092 
Q 1497 4750 2381 4750 
Q 2619 4750 2861 4703 
Q 3103 4656 3366 4563 
z
" transform="scale(0.015625)"/>
       </defs>
       <use xlink:href="#DejaVuSans-30"/>
       <use xlink:href="#DejaVuSans-2e" x="63.623047"/>
       <use xlink:href="#DejaVuSans-36" x="95.410156"/>
      </g>
     </g>
    </g>
    <g id="ytick_5">
     <g id="line2d_11">
      <g>
       <use xlink:href="#mf0c38abd06" x="345.6" y="674.565366" style="stroke: #000000; stroke-width: 0.8"/>
      </g>
     </g>
     <g id="text_12">
      <!-- 0.8 -->
      <g transform="translate(322.696875 678.364585) scale(0.1 -0.1)">
       <defs>
        <path id="DejaVuSans-38" d="M 2034 2216 
Q 1584 2216 1326 1975 
Q 1069 1734 1069 1313 
Q 1069 891 1326 650 
Q 1584 409 2034 409 
Q 2484 409 2743 651 
Q 3003 894 3003 1313 
Q 3003 1734 2745 1975 
Q 2488 2216 2034 2216 
z
M 1403 2484 
Q 997 2584 770 2862 
Q 544 3141 544 3541 
Q 544 4100 942 4425 
Q 1341 4750 2034 4750 
Q 2731 4750 3128 4425 
Q 3525 4100 3525 3541 
Q 3525 3141 3298 2862 
Q 3072 2584 2669 2484 
Q 3125 2378 3379 2068 
Q 3634 1759 3634 1313 
Q 3634 634 3220 271 
Q 2806 -91 2034 -91 
Q 1263 -91 848 271 
Q 434 634 434 1313 
Q 434 1759 690 2068 
Q 947 2378 1403 2484 
z
M 1172 3481 
Q 1172 3119 1398 2916 
Q 1625 2713 2034 2713 
Q 2441 2713 2670 2916 
Q 2900 3119 2900 3481 
Q 2900 3844 2670 4047 
Q 2441 4250 2034 4250 
Q 1625 4250 1398 4047 
Q 1172 3844 1172 3481 
z
" transform="scale(0.015625)"/>
       </defs>
       <use xlink:href="#DejaVuSans-30"/>
       <use xlink:href="#DejaVuSans-2e" x="63.623047"/>
       <use xlink:href="#DejaVuSans-38" x="95.410156"/>
      </g>
     </g>
    </g>
    <g id="ytick_6">
     <g id="line2d_12">
      <g>
       <use xlink:href="#mf0c38abd06" x="345.6" y="533.468474" style="stroke: #000000; stroke-width: 0.8"/>
      </g>
     </g>
     <g id="text_13">
      <!-- 1.0 -->
      <g transform="translate(322.696875 537.267693) scale(0.1 -0.1)">
       <use xlink:href="#DejaVuSans-31"/>
       <use xlink:href="#DejaVuSans-2e" x="63.623047"/>
       <use xlink:href="#DejaVuSans-30" x="95.410156"/>
      </g>
     </g>
    </g>
    <g id="ytick_7">
     <g id="line2d_13">
      <g>
       <use xlink:href="#mf0c38abd06" x="345.6" y="392.371582" style="stroke: #000000; stroke-width: 0.8"/>
      </g>
     </g>
     <g id="text_14">
      <!-- 1.2 -->
      <g transform="translate(322.696875 396.170801) scale(0.1 -0.1)">
       <use xlink:href="#DejaVuSans-31"/>
       <use xlink:href="#DejaVuSans-2e" x="63.623047"/>
       <use xlink:href="#DejaVuSans-32" x="95.410156"/>
      </g>
     </g>
    </g>
    <g id="ytick_8">
     <g id="line2d_14">
      <g>
       <use xlink:href="#mf0c38abd06" x="345.6" y="251.27469" style="stroke: #000000; stroke-width: 0.8"/>
      </g>
     </g>
     <g id="text_15">
      <!-- 1.4 -->
      <g transform="translate(322.696875 255.073909) scale(0.1 -0.1)">
       <use xlink:href="#DejaVuSans-31"/>
       <use xlink:href="#DejaVuSans-2e" x="63.623047"/>
       <use xlink:href="#DejaVuSans-34" x="95.410156"/>
      </g>
     </g>
    </g>
    <g id="text_16">
     <!-- MSE -->
     <g transform="translate(316.617188 726.939656) rotate(-90) scale(0.1 -0.1)">
      <defs>
       <path id="DejaVuSans-4d" d="M 628 4666 
L 1569 4666 
L 2759 1491 
L 3956 4666 
L 4897 4666 
L 4897 0 
L 4281 0 
L 4281 4097 
L 3078 897 
L 2444 897 
L 1241 4097 
L 1241 0 
L 628 0 
L 628 4666 
z
" transform="scale(0.015625)"/>
       <path id="DejaVuSans-53" d="M 3425 4513 
L 3425 3897 
Q 3066 4069 2747 4153 
Q 2428 4238 2131 4238 
Q 1616 4238 1336 4038 
Q 1056 3838 1056 3469 
Q 1056 3159 1242 3001 
Q 1428 2844 1947 2747 
L 2328 2669 
Q 3034 2534 3370 2195 
Q 3706 1856 3706 1288 
Q 3706 609 3251 259 
Q 2797 -91 1919 -91 
Q 1588 -91 1214 -16 
Q 841 59 441 206 
L 441 856 
Q 825 641 1194 531 
Q 1563 422 1919 422 
Q 2459 422 2753 634 
Q 3047 847 3047 1241 
Q 3047 1584 2836 1778 
Q 2625 1972 2144 2069 
L 1759 2144 
Q 1053 2284 737 2584 
Q 422 2884 422 3419 
Q 422 4038 858 4394 
Q 1294 4750 2059 4750 
Q 2388 4750 2728 4690 
Q 3069 4631 3425 4513 
z
" transform="scale(0.015625)"/>
      </defs>
      <use xlink:href="#DejaVuSans-4d"/>
      <use xlink:href="#DejaVuSans-53" x="86.279297"/>
      <use xlink:href="#DejaVuSans-45" x="149.755859"/>
     </g>
    </g>
   </g>
   <g id="line2d_15">
    <path d="M 389.871074 716.713645 
L 407.579504 1033.274377 
L 425.287934 1093.91477 
L 442.996364 1121.177904 
L 460.704793 1138.608711 
L 478.413223 1149.428227 
L 496.121653 1159.332955 
L 513.830083 1162.938775 
L 531.538512 1170.14504 
L 549.246942 1175.065696 
L 566.955372 1177.900876 
L 584.663802 1181.520272 
L 602.372231 1181.365141 
L 620.080661 1185.231307 
L 637.789091 1187.366213 
L 655.497521 1190.354661 
L 673.20595 1190.898213 
L 690.91438 1192.486795 
L 708.62281 1194.18527 
L 726.33124 1193.77767 
L 744.039669 1196.16202 
L 761.748099 1197.358783 
L 779.456529 1197.753203 
L 797.164959 1201.135376 
L 814.873388 1199.646201 
L 832.581818 1200.08532 
L 850.290248 1200.95642 
L 867.998678 1201.439778 
L 885.707107 1202.835491 
L 903.415537 1203.750677 
L 921.123967 1203.412131 
L 938.832397 1205.40023 
L 956.540826 1203.501618 
L 974.249256 1205.526465 
L 991.957686 1205.843614 
L 1009.666116 1205.056058 
L 1027.374545 1206.840911 
L 1045.082975 1206.415566 
L 1062.791405 1207.913912 
L 1080.499835 1207.059726 
L 1098.208264 1206.552703 
L 1115.916694 1207.494043 
L 1133.625124 1206.210141 
L 1151.333554 1205.300655 
L 1169.041983 1209.547545 
L 1186.750413 1207.139699 
L 1204.458843 1209.121701 
L 1222.167273 1205.582247 
L 1239.875702 1208.212396 
L 1257.584132 1208.360844 
L 1275.292562 1207.30379 
" clip-path="url(#p4dd017bd1d)" style="fill: none; stroke: #1f77b4; stroke-width: 1.5; stroke-linecap: square"/>
   </g>
   <g id="line2d_16">
    <path d="M 389.871074 239.506555 
L 407.579504 633.235225 
L 425.287934 770.034951 
L 442.996364 846.226594 
L 460.704793 892.291193 
L 478.413223 926.742384 
L 496.121653 952.392548 
L 513.830083 972.961603 
L 531.538512 989.891826 
L 549.246942 1005.863538 
L 566.955372 1016.647958 
L 584.663802 1026.621341 
L 602.372231 1036.061502 
L 620.080661 1045.064474 
L 637.789091 1052.227706 
L 655.497521 1058.0109 
L 673.20595 1063.115621 
L 690.91438 1068.594765 
L 708.62281 1074.409075 
L 726.33124 1078.656482 
L 744.039669 1082.550567 
L 761.748099 1086.913061 
L 779.456529 1089.83224 
L 797.164959 1094.058005 
L 814.873388 1096.92829 
L 832.581818 1100.762688 
L 850.290248 1102.31099 
L 867.998678 1105.724191 
L 885.707107 1107.129892 
L 903.415537 1109.730805 
L 921.123967 1111.937427 
L 938.832397 1114.01071 
L 956.540826 1115.922962 
L 974.249256 1118.44028 
L 991.957686 1119.66428 
L 1009.666116 1121.461141 
L 1027.374545 1122.599223 
L 1045.082975 1125.347685 
L 1062.791405 1126.237509 
L 1080.499835 1127.481041 
L 1098.208264 1129.251428 
L 1115.916694 1131.063213 
L 1133.625124 1131.800932 
L 1151.333554 1133.563239 
L 1169.041983 1134.233685 
L 1186.750413 1134.310135 
L 1204.458843 1137.13427 
L 1222.167273 1137.664981 
L 1239.875702 1138.240726 
L 1257.584132 1140.555442 
L 1275.292562 1140.152444 
" clip-path="url(#p4dd017bd1d)" style="fill: none; stroke: #2ca02c; stroke-width: 1.5; stroke-linecap: square"/>
   </g>
   <g id="patch_3">
    <path d="M 345.6 1262.376 
L 345.6 170.208 
" style="fill: none; stroke: #000000; stroke-width: 0.8; stroke-linejoin: miter; stroke-linecap: square"/>
   </g>
   <g id="patch_4">
    <path d="M 1319.563636 1262.376 
L 1319.563636 170.208 
" style="fill: none; stroke: #000000; stroke-width: 0.8; stroke-linejoin: miter; stroke-linecap: square"/>
   </g>
   <g id="patch_5">
    <path d="M 345.6 1262.376 
L 1319.563636 1262.376 
" style="fill: none; stroke: #000000; stroke-width: 0.8; stroke-linejoin: miter; stroke-linecap: square"/>
   </g>
   <g id="patch_6">
    <path d="M 345.6 170.208 
L 1319.563636 170.208 
" style="fill: none; stroke: #000000; stroke-width: 0.8; stroke-linejoin: miter; stroke-linecap: square"/>
   </g>
   <g id="legend_1">
    <g id="patch_7">
     <path d="M 1258.652699 207.56425 
L 1312.563636 207.56425 
Q 1314.563636 207.56425 1314.563636 205.56425 
L 1314.563636 177.208 
Q 1314.563636 175.208 1312.563636 175.208 
L 1258.652699 175.208 
Q 1256.652699 175.208 1256.652699 177.208 
L 1256.652699 205.56425 
Q 1256.652699 207.56425 1258.652699 207.56425 
z
" style="fill: #ffffff; opacity: 0.8; stroke: #cccccc; stroke-linejoin: miter"/>
    </g>
    <g id="line2d_17">
     <path d="M 1260.652699 183.306438 
L 1270.652699 183.306438 
L 1280.652699 183.306438 
" style="fill: none; stroke: #1f77b4; stroke-width: 1.5; stroke-linecap: square"/>
    </g>
    <g id="text_17">
     <!-- RNN -->
     <g transform="translate(1288.652699 186.806438) scale(0.1 -0.1)">
      <defs>
       <path id="DejaVuSans-52" d="M 2841 2188 
Q 3044 2119 3236 1894 
Q 3428 1669 3622 1275 
L 4263 0 
L 3584 0 
L 2988 1197 
Q 2756 1666 2539 1819 
Q 2322 1972 1947 1972 
L 1259 1972 
L 1259 0 
L 628 0 
L 628 4666 
L 2053 4666 
Q 2853 4666 3247 4331 
Q 3641 3997 3641 3322 
Q 3641 2881 3436 2590 
Q 3231 2300 2841 2188 
z
M 1259 4147 
L 1259 2491 
L 2053 2491 
Q 2509 2491 2742 2702 
Q 2975 2913 2975 3322 
Q 2975 3731 2742 3939 
Q 2509 4147 2053 4147 
L 1259 4147 
z
" transform="scale(0.015625)"/>
       <path id="DejaVuSans-4e" d="M 628 4666 
L 1478 4666 
L 3547 763 
L 3547 4666 
L 4159 4666 
L 4159 0 
L 3309 0 
L 1241 3903 
L 1241 0 
L 628 0 
L 628 4666 
z
" transform="scale(0.015625)"/>
      </defs>
      <use xlink:href="#DejaVuSans-52"/>
      <use xlink:href="#DejaVuSans-4e" x="69.482422"/>
      <use xlink:href="#DejaVuSans-4e" x="144.287109"/>
     </g>
    </g>
    <g id="line2d_18">
     <path d="M 1260.652699 197.984563 
L 1270.652699 197.984563 
L 1280.652699 197.984563 
" style="fill: none; stroke: #2ca02c; stroke-width: 1.5; stroke-linecap: square"/>
    </g>
    <g id="text_18">
     <!-- SNS -->
     <g transform="translate(1288.652699 201.484563) scale(0.1 -0.1)">
      <use xlink:href="#DejaVuSans-53"/>
      <use xlink:href="#DejaVuSans-4e" x="63.476562"/>
      <use xlink:href="#DejaVuSans-53" x="138.28125"/>
     </g>
    </g>
   </g>
  </g>
  <g id="axes_2">
   <g id="patch_8">
    <path d="M 1514.356364 1262.376 
L 2488.32 1262.376 
L 2488.32 170.208 
L 1514.356364 170.208 
z
" style="fill: #ffffff"/>
   </g>
   <g id="PolyCollection_3">
    <defs>
     <path id="m290e9a565c" d="M 1558.627438 -681.827949 
L 1558.627438 -711.431959 
L 1576.335868 -1046.276648 
L 1594.044298 -1098.476717 
L 1611.752727 -1126.346365 
L 1629.461157 -1138.395246 
L 1647.169587 -1149.40069 
L 1664.878017 -1156.295837 
L 1682.586446 -1159.524853 
L 1700.294876 -1165.009949 
L 1718.003306 -1168.965141 
L 1735.711736 -1171.475031 
L 1753.420165 -1174.81685 
L 1771.128595 -1173.928519 
L 1788.837025 -1176.064745 
L 1806.545455 -1179.575771 
L 1824.253884 -1182.882339 
L 1841.962314 -1182.649681 
L 1859.670744 -1183.523912 
L 1877.379174 -1185.455681 
L 1895.087603 -1184.891661 
L 1912.796033 -1185.779993 
L 1930.504463 -1187.352199 
L 1948.212893 -1188.896204 
L 1965.921322 -1191.5753 
L 1983.629752 -1190.031295 
L 2001.338182 -1190.658768 
L 2019.046612 -1191.469547 
L 2036.755041 -1190.412009 
L 2054.463471 -1193.337863 
L 2072.171901 -1192.653989 
L 2089.880331 -1193.930085 
L 2107.58876 -1195.847753 
L 2125.29719 -1192.484783 
L 2143.00562 -1195.770201 
L 2160.71405 -1194.677411 
L 2178.422479 -1194.289648 
L 2196.130909 -1195.671497 
L 2213.839339 -1194.261447 
L 2231.547769 -1196.052211 
L 2249.256198 -1196.538678 
L 2266.964628 -1196.806588 
L 2284.673058 -1197.504563 
L 2302.381488 -1194.07814 
L 2320.089917 -1194.113391 
L 2337.798347 -1198.477497 
L 2355.506777 -1195.079276 
L 2373.215207 -1197.624417 
L 2390.923636 -1195.678547 
L 2408.632066 -1196.411774 
L 2426.340496 -1198.548 
L 2444.048926 -1197.652618 
L 2444.048926 -1190.024245 
L 2444.048926 -1190.024245 
L 2426.340496 -1191.716305 
L 2408.632066 -1193.655125 
L 2390.923636 -1188.635345 
L 2373.215207 -1192.597587 
L 2355.506777 -1192.773843 
L 2337.798347 -1194.064039 
L 2320.089917 -1189.396772 
L 2302.381488 -1192.597587 
L 2284.673058 -1192.195723 
L 2266.964628 -1191.081783 
L 2249.256198 -1190.961928 
L 2231.547769 -1193.295562 
L 2213.839339 -1192.40018 
L 2196.130909 -1192.562336 
L 2178.422479 -1190.285104 
L 2160.71405 -1190.200501 
L 2143.00562 -1190.644667 
L 2125.29719 -1189.417923 
L 2107.58876 -1189.516627 
L 2089.880331 -1189.495476 
L 2072.171901 -1188.748149 
L 2054.463471 -1186.964435 
L 2036.755041 -1186.435666 
L 2019.046612 -1184.708354 
L 2001.338182 -1185.942149 
L 1983.629752 -1184.659003 
L 1965.921322 -1188.48024 
L 1948.212893 -1181.570992 
L 1930.504463 -1183.890525 
L 1912.796033 -1183.277153 
L 1895.087603 -1179.625122 
L 1877.379174 -1181.444088 
L 1859.670744 -1180.026987 
L 1841.962314 -1178.313776 
L 1824.253884 -1178.602836 
L 1806.545455 -1172.28581 
L 1788.837025 -1173.949669 
L 1771.128595 -1169.268302 
L 1753.420165 -1170.678352 
L 1735.711736 -1168.126161 
L 1718.003306 -1165.418864 
L 1700.294876 -1160.088873 
L 1682.586446 -1152.855314 
L 1664.878017 -1149.66155 
L 1647.169587 -1135.391839 
L 1629.461157 -1128.094827 
L 1611.752727 -1109.200151 
L 1594.044298 -1088.380755 
L 1576.335868 -1024.498418 
L 1558.627438 -681.827949 
z
" style="stroke: #1f77b4; stroke-opacity: 0.5"/>
    </defs>
    <g clip-path="url(#pa77613ff5b)">
     <use xlink:href="#m290e9a565c" x="0" y="1418.4" style="fill: #1f77b4; fill-opacity: 0.5; stroke: #1f77b4; stroke-opacity: 0.5"/>
    </g>
   </g>
   <g id="PolyCollection_4">
    <defs>
     <path id="m49e3f947a1" d="M 1558.627438 -930.138698 
L 1558.627438 -1024.063698 
L 1576.335868 -1092.114858 
L 1594.044298 -1121.418781 
L 1611.752727 -1139.627865 
L 1629.461157 -1153.432892 
L 1647.169587 -1159.996632 
L 1664.878017 -1168.338934 
L 1682.586446 -1167.280266 
L 1700.294876 -1167.703733 
L 1718.003306 -1169.143521 
L 1735.711736 -1176.427155 
L 1753.420165 -1179.476118 
L 1771.128595 -1176.088381 
L 1788.837025 -1177.993983 
L 1806.545455 -1179.941932 
L 1824.253884 -1180.534786 
L 1841.962314 -1180.915906 
L 1859.670744 -1181.339373 
L 1877.379174 -1181.88988 
L 1895.087603 -1180.831213 
L 1912.796033 -1185.065884 
L 1930.504463 -1179.179691 
L 1948.212893 -1187.183219 
L 1965.921322 -1188.538314 
L 1983.629752 -1185.150577 
L 2001.338182 -1182.990895 
L 2019.046612 -1183.583749 
L 2036.755041 -1183.795482 
L 2054.463471 -1183.372015 
L 2072.171901 -1188.030153 
L 2089.880331 -1183.456709 
L 2107.58876 -1185.616391 
L 2125.29719 -1187.987807 
L 2143.00562 -1185.23527 
L 2160.71405 -1184.85415 
L 2178.422479 -1185.912818 
L 2196.130909 -1183.583749 
L 2213.839339 -1184.60007 
L 2231.547769 -1185.404657 
L 2249.256198 -1186.209245 
L 2266.964628 -1184.811803 
L 2284.673058 -1188.030153 
L 2302.381488 -1183.837829 
L 2320.089917 -1186.886792 
L 2337.798347 -1185.404657 
L 2355.506777 -1187.606686 
L 2373.215207 -1184.684763 
L 2390.923636 -1188.919434 
L 2408.632066 -1188.0725 
L 2426.340496 -1188.707701 
L 2444.048926 -1187.776073 
L 2444.048926 -1177.824596 
L 2444.048926 -1177.824596 
L 2426.340496 -1164.104263 
L 2408.632066 -1180.111319 
L 2390.923636 -1176.723582 
L 2373.215207 -1175.622568 
L 2355.506777 -1164.019569 
L 2337.798347 -1176.257768 
L 2320.089917 -1167.87312 
L 2302.381488 -1142.083974 
L 2284.673058 -1180.407746 
L 2266.964628 -1176.469502 
L 2249.256198 -1179.899585 
L 2231.547769 -1177.612863 
L 2213.839339 -1180.450092 
L 2196.130909 -1176.638889 
L 2178.422479 -1165.671091 
L 2160.71405 -1170.413922 
L 2143.00562 -1174.30982 
L 2125.29719 -1177.062356 
L 2107.58876 -1177.358783 
L 2089.880331 -1176.765929 
L 2072.171901 -1179.179691 
L 2054.463471 -1171.260857 
L 2036.755041 -1177.866943 
L 2019.046612 -1175.410834 
L 2001.338182 -1162.537435 
L 1983.629752 -1180.026625 
L 1965.921322 -1173.420539 
L 1948.212893 -1176.554195 
L 1930.504463 -1164.824157 
L 1912.796033 -1169.651682 
L 1895.087603 -1176.088381 
L 1877.379174 -1173.462885 
L 1859.670744 -1159.869592 
L 1841.962314 -1159.784899 
L 1824.253884 -1165.332317 
L 1806.545455 -1167.153226 
L 1788.837025 -1164.866504 
L 1771.128595 -1143.693149 
L 1753.420165 -1158.133377 
L 1735.711736 -1159.911939 
L 1718.003306 -1142.507442 
L 1700.294876 -1153.644626 
L 1682.586446 -1153.814013 
L 1664.878017 -1157.83695 
L 1647.169587 -1147.207926 
L 1629.461157 -1122.308062 
L 1611.752727 -1121.926941 
L 1594.044298 -1075.853722 
L 1576.335868 -1036.555977 
L 1558.627438 -930.138698 
z
" style="stroke: #ff7f0e; stroke-opacity: 0.5"/>
    </defs>
    <g clip-path="url(#pa77613ff5b)">
     <use xlink:href="#m49e3f947a1" x="0" y="1418.4" style="fill: #ff7f0e; fill-opacity: 0.5; stroke: #ff7f0e; stroke-opacity: 0.5"/>
    </g>
   </g>
   <g id="PolyCollection_5">
    <defs>
     <path id="mbc1b357b93" d="M 1558.627438 -205.668 
L 1558.627438 -260.159401 
L 1576.335868 -658.801824 
L 1594.044298 -786.5947 
L 1611.752727 -862.138155 
L 1629.461157 -910.002319 
L 1647.169587 -943.159656 
L 1664.878017 -965.931971 
L 1682.586446 -985.531673 
L 1700.294876 -1000.760218 
L 1718.003306 -1014.353105 
L 1735.711736 -1024.160006 
L 1753.420165 -1032.796565 
L 1771.128595 -1039.663511 
L 1788.837025 -1048.800638 
L 1806.545455 -1055.519529 
L 1824.253884 -1063.190204 
L 1841.962314 -1063.881128 
L 1859.670744 -1071.678707 
L 1877.379174 -1072.700994 
L 1895.087603 -1079.370533 
L 1912.796033 -1083.262272 
L 1930.504463 -1085.067137 
L 1948.212893 -1088.22565 
L 1965.921322 -1092.512203 
L 1983.629752 -1095.346405 
L 2001.338182 -1100.52834 
L 2019.046612 -1100.260431 
L 2036.755041 -1100.260431 
L 2054.463471 -1103.447145 
L 2072.171901 -1105.696175 
L 2089.880331 -1109.284754 
L 2107.58876 -1109.848774 
L 2125.29719 -1110.666603 
L 2143.00562 -1113.662961 
L 2160.71405 -1114.783951 
L 2178.422479 -1116.504212 
L 2196.130909 -1115.911991 
L 2213.839339 -1117.893112 
L 2231.547769 -1120.099841 
L 2249.256198 -1119.909484 
L 2266.964628 -1122.370022 
L 2284.673058 -1122.221967 
L 2302.381488 -1125.401631 
L 2320.089917 -1124.922214 
L 2337.798347 -1126.825782 
L 2355.506777 -1126.311114 
L 2373.215207 -1131.619954 
L 2390.923636 -1127.967923 
L 2408.632066 -1129.413225 
L 2426.340496 -1130.019546 
L 2444.048926 -1130.780974 
L 2444.048926 -1120.417103 
L 2444.048926 -1120.417103 
L 2426.340496 -1122.102113 
L 2408.632066 -1120.318399 
L 2390.923636 -1118.753243 
L 2373.215207 -1119.028203 
L 2355.506777 -1115.911991 
L 2337.798347 -1117.216288 
L 2320.089917 -1114.621795 
L 2302.381488 -1115.073011 
L 2284.673058 -1113.627709 
L 2266.964628 -1109.820573 
L 2249.256198 -1111.463282 
L 2231.547769 -1108.741884 
L 2213.839339 -1105.55517 
L 2196.130909 -1102.572914 
L 2178.422479 -1101.099411 
L 2160.71405 -1099.097139 
L 2143.00562 -1099.745762 
L 2125.29719 -1097.637737 
L 2107.58876 -1095.48036 
L 2089.880331 -1090.601585 
L 2072.171901 -1088.423057 
L 2054.463471 -1087.823786 
L 2036.755041 -1085.398499 
L 2019.046612 -1080.364618 
L 2001.338182 -1081.323453 
L 1983.629752 -1078.059186 
L 1965.921322 -1073.807884 
L 1948.212893 -1068.858606 
L 1930.504463 -1067.131295 
L 1912.796033 -1059.136308 
L 1895.087603 -1057.162238 
L 1877.379174 -1054.130629 
L 1859.670744 -1048.236618 
L 1841.962314 -1042.98418 
L 1824.253884 -1041.052411 
L 1806.545455 -1033.247781 
L 1788.837025 -1027.33967 
L 1771.128595 -1020.218915 
L 1753.420165 -1011.4343 
L 1735.711736 -1002.015163 
L 1718.003306 -987.872357 
L 1700.294876 -973.243083 
L 1682.586446 -955.603351 
L 1664.878017 -933.077795 
L 1647.169587 -904.192911 
L 1629.461157 -864.034673 
L 1611.752727 -822.325379 
L 1594.044298 -748.664342 
L 1576.335868 -631.066131 
L 1558.627438 -205.668 
z
" style="stroke: #2ca02c; stroke-opacity: 0.5"/>
    </defs>
    <g clip-path="url(#pa77613ff5b)">
     <use xlink:href="#mbc1b357b93" x="0" y="1418.4" style="fill: #2ca02c; fill-opacity: 0.5; stroke: #2ca02c; stroke-opacity: 0.5"/>
    </g>
   </g>
   <g id="PolyCollection_6">
    <defs>
     <path id="me1fe33a409" d="M 1558.627438 -528.861288 
L 1558.627438 -587.723213 
L 1576.335868 -740.383097 
L 1594.044298 -837.526447 
L 1611.752727 -887.961377 
L 1629.461157 -940.725375 
L 1647.169587 -966.429827 
L 1664.878017 -991.964893 
L 1682.586446 -988.365423 
L 1700.294876 -1018.008118 
L 1718.003306 -1010.639791 
L 1735.711736 -1043.45849 
L 1753.420165 -1040.028407 
L 1771.128595 -1059.423199 
L 1788.837025 -1058.491572 
L 1806.545455 -1066.960914 
L 1824.253884 -1070.09457 
L 1841.962314 -1083.306743 
L 1859.670744 -1068.993556 
L 1877.379174 -1075.091482 
L 1895.087603 -1080.723594 
L 1912.796033 -1084.196024 
L 1930.504463 -1088.049574 
L 1948.212893 -1096.264836 
L 1965.921322 -1100.372467 
L 1983.629752 -1106.004579 
L 2001.338182 -1099.017372 
L 2019.046612 -1092.199552 
L 2036.755041 -1107.105593 
L 2054.463471 -1116.040749 
L 2072.171901 -1113.245866 
L 2089.880331 -1117.353497 
L 2107.58876 -1108.503035 
L 2125.29719 -1117.014723 
L 2143.00562 -1123.74785 
L 2160.71405 -1117.099416 
L 2178.422479 -1120.021339 
L 2196.130909 -1124.00193 
L 2213.839339 -1118.412164 
L 2231.547769 -1119.428485 
L 2249.256198 -1128.575374 
L 2266.964628 -1120.063686 
L 2284.673058 -1125.314678 
L 2302.381488 -1113.542293 
L 2320.089917 -1130.099856 
L 2337.798347 -1125.272331 
L 2355.506777 -1133.699326 
L 2373.215207 -1126.712119 
L 2390.923636 -1129.591695 
L 2408.632066 -1129.337615 
L 2426.340496 -1125.738145 
L 2444.048926 -1130.650363 
L 2444.048926 -1101.219401 
L 2444.048926 -1101.219401 
L 2426.340496 -1108.799462 
L 2408.632066 -1108.121914 
L 2390.923636 -1100.880627 
L 2373.215207 -1110.705063 
L 2355.506777 -1104.268364 
L 2337.798347 -1086.059279 
L 2320.089917 -1109.307622 
L 2302.381488 -1076.65831 
L 2284.673058 -1086.016932 
L 2266.964628 -1106.639779 
L 2249.256198 -1107.444367 
L 2231.547769 -1104.607137 
L 2213.839339 -1091.098537 
L 2196.130909 -1101.092361 
L 2178.422479 -1093.25822 
L 2160.71405 -1091.394964 
L 2143.00562 -1085.847546 
L 2125.29719 -1069.586409 
L 2107.58876 -1079.368499 
L 2089.880331 -1074.244547 
L 2072.171901 -1093.25822 
L 2054.463471 -1087.0756 
L 2036.755041 -1050.953858 
L 2019.046612 -1083.814904 
L 2001.338182 -1063.065016 
L 1983.629752 -1067.892541 
L 1965.921322 -1055.188529 
L 1948.212893 -1078.309831 
L 1930.504463 -1078.013404 
L 1912.796033 -1066.664487 
L 1895.087603 -1074.286894 
L 1877.379174 -1066.87622 
L 1859.670744 -1049.132949 
L 1841.962314 -1050.106924 
L 1824.253884 -1057.348211 
L 1806.545455 -1048.158975 
L 1788.837025 -1003.017384 
L 1771.128595 -1017.881078 
L 1753.420165 -996.538337 
L 1735.711736 -1018.643319 
L 1718.003306 -1000.053114 
L 1700.294876 -985.739927 
L 1682.586446 -966.514521 
L 1664.878017 -906.636275 
L 1647.169587 -910.320439 
L 1629.461157 -888.850657 
L 1611.752727 -817.15768 
L 1594.044298 -780.866551 
L 1576.335868 -715.313846 
L 1558.627438 -528.861288 
z
" style="stroke: #d62728; stroke-opacity: 0.5"/>
    </defs>
    <g clip-path="url(#pa77613ff5b)">
     <use xlink:href="#me1fe33a409" x="0" y="1418.4" style="fill: #d62728; fill-opacity: 0.5; stroke: #d62728; stroke-opacity: 0.5"/>
    </g>
   </g>
   <g id="matplotlib.axis_3">
    <g id="xtick_7">
     <g id="line2d_19">
      <g>
       <use xlink:href="#mb50cfc40f4" x="1558.627438" y="1262.376" style="stroke: #000000; stroke-width: 0.8"/>
      </g>
     </g>
     <g id="text_19">
      <!-- 0 -->
      <g transform="translate(1555.446188 1276.974437) scale(0.1 -0.1)">
       <use xlink:href="#DejaVuSans-30"/>
      </g>
     </g>
    </g>
    <g id="xtick_8">
     <g id="line2d_20">
      <g>
       <use xlink:href="#mb50cfc40f4" x="1735.711736" y="1262.376" style="stroke: #000000; stroke-width: 0.8"/>
      </g>
     </g>
     <g id="text_20">
      <!-- 10 -->
      <g transform="translate(1729.349236 1276.974437) scale(0.1 -0.1)">
       <use xlink:href="#DejaVuSans-31"/>
       <use xlink:href="#DejaVuSans-30" x="63.623047"/>
      </g>
     </g>
    </g>
    <g id="xtick_9">
     <g id="line2d_21">
      <g>
       <use xlink:href="#mb50cfc40f4" x="1912.796033" y="1262.376" style="stroke: #000000; stroke-width: 0.8"/>
      </g>
     </g>
     <g id="text_21">
      <!-- 20 -->
      <g transform="translate(1906.433533 1276.974437) scale(0.1 -0.1)">
       <use xlink:href="#DejaVuSans-32"/>
       <use xlink:href="#DejaVuSans-30" x="63.623047"/>
      </g>
     </g>
    </g>
    <g id="xtick_10">
     <g id="line2d_22">
      <g>
       <use xlink:href="#mb50cfc40f4" x="2089.880331" y="1262.376" style="stroke: #000000; stroke-width: 0.8"/>
      </g>
     </g>
     <g id="text_22">
      <!-- 30 -->
      <g transform="translate(2083.517831 1276.974437) scale(0.1 -0.1)">
       <use xlink:href="#DejaVuSans-33"/>
       <use xlink:href="#DejaVuSans-30" x="63.623047"/>
      </g>
     </g>
    </g>
    <g id="xtick_11">
     <g id="line2d_23">
      <g>
       <use xlink:href="#mb50cfc40f4" x="2266.964628" y="1262.376" style="stroke: #000000; stroke-width: 0.8"/>
      </g>
     </g>
     <g id="text_23">
      <!-- 40 -->
      <g transform="translate(2260.602128 1276.974437) scale(0.1 -0.1)">
       <use xlink:href="#DejaVuSans-34"/>
       <use xlink:href="#DejaVuSans-30" x="63.623047"/>
      </g>
     </g>
    </g>
    <g id="xtick_12">
     <g id="line2d_24">
      <g>
       <use xlink:href="#mb50cfc40f4" x="2444.048926" y="1262.376" style="stroke: #000000; stroke-width: 0.8"/>
      </g>
     </g>
     <g id="text_24">
      <!-- 50 -->
      <g transform="translate(2437.686426 1276.974437) scale(0.1 -0.1)">
       <use xlink:href="#DejaVuSans-35"/>
       <use xlink:href="#DejaVuSans-30" x="63.623047"/>
      </g>
     </g>
    </g>
    <g id="text_25">
     <!-- Epoch -->
     <g transform="translate(1986.027244 1290.652562) scale(0.1 -0.1)">
      <use xlink:href="#DejaVuSans-45"/>
      <use xlink:href="#DejaVuSans-70" x="63.183594"/>
      <use xlink:href="#DejaVuSans-6f" x="126.660156"/>
      <use xlink:href="#DejaVuSans-63" x="187.841797"/>
      <use xlink:href="#DejaVuSans-68" x="242.822266"/>
     </g>
    </g>
   </g>
   <g id="matplotlib.axis_4">
    <g id="ytick_9">
     <g id="line2d_25">
      <g>
       <use xlink:href="#mf0c38abd06" x="1514.356364" y="1255.371927" style="stroke: #000000; stroke-width: 0.8"/>
      </g>
     </g>
     <g id="text_26">
      <!-- 50 -->
      <g transform="translate(1494.631364 1259.171145) scale(0.1 -0.1)">
       <use xlink:href="#DejaVuSans-35"/>
       <use xlink:href="#DejaVuSans-30" x="63.623047"/>
      </g>
     </g>
    </g>
    <g id="ytick_10">
     <g id="line2d_26">
      <g>
       <use xlink:href="#mf0c38abd06" x="1514.356364" y="1043.977158" style="stroke: #000000; stroke-width: 0.8"/>
      </g>
     </g>
     <g id="text_27">
      <!-- 60 -->
      <g transform="translate(1494.631364 1047.776376) scale(0.1 -0.1)">
       <use xlink:href="#DejaVuSans-36"/>
       <use xlink:href="#DejaVuSans-30" x="63.623047"/>
      </g>
     </g>
    </g>
    <g id="ytick_11">
     <g id="line2d_27">
      <g>
       <use xlink:href="#mf0c38abd06" x="1514.356364" y="832.582389" style="stroke: #000000; stroke-width: 0.8"/>
      </g>
     </g>
     <g id="text_28">
      <!-- 70 -->
      <g transform="translate(1494.631364 836.381608) scale(0.1 -0.1)">
       <defs>
        <path id="DejaVuSans-37" d="M 525 4666 
L 3525 4666 
L 3525 4397 
L 1831 0 
L 1172 0 
L 2766 4134 
L 525 4134 
L 525 4666 
z
" transform="scale(0.015625)"/>
       </defs>
       <use xlink:href="#DejaVuSans-37"/>
       <use xlink:href="#DejaVuSans-30" x="63.623047"/>
      </g>
     </g>
    </g>
    <g id="ytick_12">
     <g id="line2d_28">
      <g>
       <use xlink:href="#mf0c38abd06" x="1514.356364" y="621.18762" style="stroke: #000000; stroke-width: 0.8"/>
      </g>
     </g>
     <g id="text_29">
      <!-- 80 -->
      <g transform="translate(1494.631364 624.986839) scale(0.1 -0.1)">
       <use xlink:href="#DejaVuSans-38"/>
       <use xlink:href="#DejaVuSans-30" x="63.623047"/>
      </g>
     </g>
    </g>
    <g id="ytick_13">
     <g id="line2d_29">
      <g>
       <use xlink:href="#mf0c38abd06" x="1514.356364" y="409.792851" style="stroke: #000000; stroke-width: 0.8"/>
      </g>
     </g>
     <g id="text_30">
      <!-- 90 -->
      <g transform="translate(1494.631364 413.59207) scale(0.1 -0.1)">
       <defs>
        <path id="DejaVuSans-39" d="M 703 97 
L 703 672 
Q 941 559 1184 500 
Q 1428 441 1663 441 
Q 2288 441 2617 861 
Q 2947 1281 2994 2138 
Q 2813 1869 2534 1725 
Q 2256 1581 1919 1581 
Q 1219 1581 811 2004 
Q 403 2428 403 3163 
Q 403 3881 828 4315 
Q 1253 4750 1959 4750 
Q 2769 4750 3195 4129 
Q 3622 3509 3622 2328 
Q 3622 1225 3098 567 
Q 2575 -91 1691 -91 
Q 1453 -91 1209 -44 
Q 966 3 703 97 
z
M 1959 2075 
Q 2384 2075 2632 2365 
Q 2881 2656 2881 3163 
Q 2881 3666 2632 3958 
Q 2384 4250 1959 4250 
Q 1534 4250 1286 3958 
Q 1038 3666 1038 3163 
Q 1038 2656 1286 2365 
Q 1534 2075 1959 2075 
z
" transform="scale(0.015625)"/>
       </defs>
       <use xlink:href="#DejaVuSans-39"/>
       <use xlink:href="#DejaVuSans-30" x="63.623047"/>
      </g>
     </g>
    </g>
    <g id="ytick_14">
     <g id="line2d_30">
      <g>
       <use xlink:href="#mf0c38abd06" x="1514.356364" y="198.398082" style="stroke: #000000; stroke-width: 0.8"/>
      </g>
     </g>
     <g id="text_31">
      <!-- 100 -->
      <g transform="translate(1488.268864 202.197301) scale(0.1 -0.1)">
       <use xlink:href="#DejaVuSans-31"/>
       <use xlink:href="#DejaVuSans-30" x="63.623047"/>
       <use xlink:href="#DejaVuSans-30" x="127.246094"/>
      </g>
     </g>
    </g>
    <g id="text_32">
     <!-- % Accuracy -->
     <g transform="translate(1482.189176 745.459969) rotate(-90) scale(0.1 -0.1)">
      <defs>
       <path id="DejaVuSans-25" d="M 4653 2053 
Q 4381 2053 4226 1822 
Q 4072 1591 4072 1178 
Q 4072 772 4226 539 
Q 4381 306 4653 306 
Q 4919 306 5073 539 
Q 5228 772 5228 1178 
Q 5228 1588 5073 1820 
Q 4919 2053 4653 2053 
z
M 4653 2450 
Q 5147 2450 5437 2106 
Q 5728 1763 5728 1178 
Q 5728 594 5436 251 
Q 5144 -91 4653 -91 
Q 4153 -91 3862 251 
Q 3572 594 3572 1178 
Q 3572 1766 3864 2108 
Q 4156 2450 4653 2450 
z
M 1428 4353 
Q 1159 4353 1004 4120 
Q 850 3888 850 3481 
Q 850 3069 1003 2837 
Q 1156 2606 1428 2606 
Q 1700 2606 1854 2837 
Q 2009 3069 2009 3481 
Q 2009 3884 1853 4118 
Q 1697 4353 1428 4353 
z
M 4250 4750 
L 4750 4750 
L 1831 -91 
L 1331 -91 
L 4250 4750 
z
M 1428 4750 
Q 1922 4750 2215 4408 
Q 2509 4066 2509 3481 
Q 2509 2891 2217 2550 
Q 1925 2209 1428 2209 
Q 931 2209 642 2551 
Q 353 2894 353 3481 
Q 353 4063 643 4406 
Q 934 4750 1428 4750 
z
" transform="scale(0.015625)"/>
       <path id="DejaVuSans-20" transform="scale(0.015625)"/>
       <path id="DejaVuSans-41" d="M 2188 4044 
L 1331 1722 
L 3047 1722 
L 2188 4044 
z
M 1831 4666 
L 2547 4666 
L 4325 0 
L 3669 0 
L 3244 1197 
L 1141 1197 
L 716 0 
L 50 0 
L 1831 4666 
z
" transform="scale(0.015625)"/>
       <path id="DejaVuSans-75" d="M 544 1381 
L 544 3500 
L 1119 3500 
L 1119 1403 
Q 1119 906 1312 657 
Q 1506 409 1894 409 
Q 2359 409 2629 706 
Q 2900 1003 2900 1516 
L 2900 3500 
L 3475 3500 
L 3475 0 
L 2900 0 
L 2900 538 
Q 2691 219 2414 64 
Q 2138 -91 1772 -91 
Q 1169 -91 856 284 
Q 544 659 544 1381 
z
M 1991 3584 
L 1991 3584 
z
" transform="scale(0.015625)"/>
       <path id="DejaVuSans-72" d="M 2631 2963 
Q 2534 3019 2420 3045 
Q 2306 3072 2169 3072 
Q 1681 3072 1420 2755 
Q 1159 2438 1159 1844 
L 1159 0 
L 581 0 
L 581 3500 
L 1159 3500 
L 1159 2956 
Q 1341 3275 1631 3429 
Q 1922 3584 2338 3584 
Q 2397 3584 2469 3576 
Q 2541 3569 2628 3553 
L 2631 2963 
z
" transform="scale(0.015625)"/>
       <path id="DejaVuSans-61" d="M 2194 1759 
Q 1497 1759 1228 1600 
Q 959 1441 959 1056 
Q 959 750 1161 570 
Q 1363 391 1709 391 
Q 2188 391 2477 730 
Q 2766 1069 2766 1631 
L 2766 1759 
L 2194 1759 
z
M 3341 1997 
L 3341 0 
L 2766 0 
L 2766 531 
Q 2569 213 2275 61 
Q 1981 -91 1556 -91 
Q 1019 -91 701 211 
Q 384 513 384 1019 
Q 384 1609 779 1909 
Q 1175 2209 1959 2209 
L 2766 2209 
L 2766 2266 
Q 2766 2663 2505 2880 
Q 2244 3097 1772 3097 
Q 1472 3097 1187 3025 
Q 903 2953 641 2809 
L 641 3341 
Q 956 3463 1253 3523 
Q 1550 3584 1831 3584 
Q 2591 3584 2966 3190 
Q 3341 2797 3341 1997 
z
" transform="scale(0.015625)"/>
       <path id="DejaVuSans-79" d="M 2059 -325 
Q 1816 -950 1584 -1140 
Q 1353 -1331 966 -1331 
L 506 -1331 
L 506 -850 
L 844 -850 
Q 1081 -850 1212 -737 
Q 1344 -625 1503 -206 
L 1606 56 
L 191 3500 
L 800 3500 
L 1894 763 
L 2988 3500 
L 3597 3500 
L 2059 -325 
z
" transform="scale(0.015625)"/>
      </defs>
      <use xlink:href="#DejaVuSans-25"/>
      <use xlink:href="#DejaVuSans-20" x="95.019531"/>
      <use xlink:href="#DejaVuSans-41" x="126.806641"/>
      <use xlink:href="#DejaVuSans-63" x="193.464844"/>
      <use xlink:href="#DejaVuSans-63" x="248.445312"/>
      <use xlink:href="#DejaVuSans-75" x="303.425781"/>
      <use xlink:href="#DejaVuSans-72" x="366.804688"/>
      <use xlink:href="#DejaVuSans-61" x="407.917969"/>
      <use xlink:href="#DejaVuSans-63" x="469.197266"/>
      <use xlink:href="#DejaVuSans-79" x="524.177734"/>
     </g>
    </g>
   </g>
   <g id="line2d_31">
    <path d="M 1558.627438 721.512712 
L 1576.335868 381.866801 
L 1594.044298 324.512997 
L 1611.752727 299.343596 
L 1629.461157 284.629719 
L 1647.169587 274.498507 
L 1664.878017 265.38253 
L 1682.586446 261.667047 
L 1700.294876 255.970443 
L 1718.003306 251.592236 
L 1735.711736 249.117598 
L 1753.420165 245.698225 
L 1771.128595 246.494904 
L 1788.837025 243.336391 
L 1806.545455 241.432823 
L 1824.253884 238.168556 
L 1841.962314 238.041651 
L 1859.670744 236.843108 
L 1877.379174 235.017093 
L 1895.087603 235.616364 
L 1912.796033 233.621143 
L 1930.504463 232.873816 
L 1948.212893 232.14764 
L 1965.921322 228.989127 
L 1983.629752 230.906796 
L 2001.338182 230.039615 
L 2019.046612 229.320489 
L 2036.755041 229.588399 
L 2054.463471 227.832886 
L 2072.171901 227.487423 
L 2089.880331 227.205413 
L 2107.58876 225.753061 
L 2125.29719 227.487423 
L 2143.00562 225.471051 
L 2160.71405 225.731911 
L 2178.422479 226.331182 
L 2196.130909 224.498116 
L 2213.839339 225.217242 
L 2231.547769 223.532232 
L 2249.256198 224.293659 
L 2266.964628 225.040986 
L 2284.673058 223.849493 
L 2302.381488 224.942282 
L 2320.089917 225.71076 
L 2337.798347 222.319588 
L 2355.506777 224.526317 
L 2373.215207 223.095116 
L 2390.923636 226.049172 
L 2408.632066 223.271372 
L 2426.340496 223.20792 
L 2444.048926 223.934096 
" clip-path="url(#pa77613ff5b)" style="fill: none; stroke: #1f77b4; stroke-width: 1.5; stroke-linecap: square"/>
   </g>
   <g id="line2d_32">
    <path d="M 1558.627438 435.116183 
L 1576.335868 343.901372 
L 1594.044298 314.766837 
L 1611.752727 284.743021 
L 1629.461157 278.009894 
L 1647.169587 264.120173 
L 1664.878017 255.820219 
L 1682.586446 257.47174 
L 1700.294876 258.361021 
L 1718.003306 258.233981 
L 1735.711736 250.950347 
L 1753.420165 249.764639 
L 1771.128595 254.380431 
L 1788.837025 248.155464 
L 1806.545455 243.370286 
L 1824.253884 244.767728 
L 1841.962314 246.885063 
L 1859.670744 248.960052 
L 1877.379174 240.067243 
L 1895.087603 239.432042 
L 1912.796033 239.98255 
L 1930.504463 245.529968 
L 1948.212893 236.086652 
L 1965.921322 237.27236 
L 1983.629752 236.256039 
L 2001.338182 243.45498 
L 2019.046612 237.568787 
L 2036.755041 237.187667 
L 2054.463471 240.914177 
L 2072.171901 234.773904 
L 2089.880331 238.542762 
L 2107.58876 236.256039 
L 2125.29719 236.89124 
L 2143.00562 239.135615 
L 2160.71405 238.373375 
L 2178.422479 240.448363 
L 2196.130909 238.288681 
L 2213.839339 235.027985 
L 2231.547769 236.213693 
L 2249.256198 235.409105 
L 2266.964628 237.568787 
L 2284.673058 234.604518 
L 2302.381488 247.223837 
L 2320.089917 239.220309 
L 2337.798347 236.721853 
L 2355.506777 239.305002 
L 2373.215207 238.034601 
L 2390.923636 236.594813 
L 2408.632066 234.350437 
L 2426.340496 240.998871 
L 2444.048926 235.663185 
" clip-path="url(#pa77613ff5b)" style="fill: none; stroke: #ff7f0e; stroke-width: 1.5; stroke-linecap: square"/>
   </g>
   <g id="line2d_33">
    <path d="M 1558.627438 1186.20895 
L 1576.335868 776.807842 
L 1594.044298 648.218288 
L 1611.752727 575.642989 
L 1629.461157 530.775183 
L 1647.169587 497.526192 
L 1664.878017 471.954927 
L 1682.586446 452.129617 
L 1700.294876 434.715493 
L 1718.003306 419.613852 
L 1735.711736 408.347549 
L 1753.420165 398.357341 
L 1771.128595 389.135611 
L 1788.837025 380.893866 
L 1806.545455 374.01282 
L 1824.253884 366.976668 
L 1841.962314 364.685336 
L 1859.670744 358.1004 
L 1877.379174 353.877299 
L 1895.087603 349.548444 
L 1912.796033 345.973966 
L 1930.504463 341.828417 
L 1948.212893 338.521849 
L 1965.921322 334.475004 
L 1983.629752 331.760657 
L 2001.338182 326.888932 
L 2019.046612 327.149792 
L 2036.755041 324.280339 
L 2054.463471 321.996057 
L 2072.171901 319.669474 
L 2089.880331 317.723604 
L 2107.58876 315.129111 
L 2125.29719 313.733161 
L 2143.00562 311.512332 
L 2160.71405 310.976513 
L 2178.422479 308.579427 
L 2196.130909 308.727482 
L 2213.839339 305.117753 
L 2231.547769 304.236471 
L 2249.256198 302.685416 
L 2266.964628 301.190762 
L 2284.673058 300.062722 
L 2302.381488 297.714988 
L 2320.089917 297.200319 
L 2337.798347 296.241485 
L 2355.506777 296.396591 
L 2373.215207 293.844399 
L 2390.923636 293.86555 
L 2408.632066 293.090022 
L 2426.340496 291.0666 
L 2444.048926 292.4555 
" clip-path="url(#pa77613ff5b)" style="fill: none; stroke: #2ca02c; stroke-width: 1.5; stroke-linecap: square"/>
   </g>
   <g id="line2d_34">
    <path d="M 1558.627438 866.078635 
L 1576.335868 688.9847 
L 1594.044298 601.36936 
L 1611.752727 556.227769 
L 1629.461157 505.623452 
L 1647.169587 480.977668 
L 1664.878017 462.218076 
L 1682.586446 439.64728 
L 1700.294876 420.506568 
L 1718.003306 413.307628 
L 1735.711736 387.814909 
L 1753.420165 396.834758 
L 1771.128595 375.44967 
L 1788.837025 387.984296 
L 1806.545455 362.491577 
L 1824.253884 353.598769 
L 1841.962314 354.953863 
L 1859.670744 359.400268 
L 1877.379174 347.627883 
L 1895.087603 340.471289 
L 1912.796033 345.044733 
L 1930.504463 335.347337 
L 1948.212893 332.213681 
L 1965.921322 341.148836 
L 1983.629752 329.207064 
L 2001.338182 332.425414 
L 2019.046612 329.207064 
L 2036.755041 334.54275 
L 2054.463471 322.092817 
L 2072.171901 315.020917 
L 2089.880331 323.871379 
L 2107.58876 323.659646 
L 2125.29719 325.480554 
L 2143.00562 311.12502 
L 2160.71405 313.284702 
L 2178.422479 307.949017 
L 2196.130909 306.636269 
L 2213.839339 314.428063 
L 2231.547769 306.085762 
L 2249.256198 300.326609 
L 2266.964628 305.492908 
L 2284.673058 310.7439 
L 2302.381488 317.8158 
L 2320.089917 299.098555 
L 2337.798347 312.734195 
L 2355.506777 297.447033 
L 2373.215207 300.665383 
L 2390.923636 300.750076 
L 2408.632066 296.981219 
L 2426.340496 300.072529 
L 2444.048926 303.460266 
" clip-path="url(#pa77613ff5b)" style="fill: none; stroke: #d62728; stroke-width: 1.5; stroke-linecap: square"/>
   </g>
   <g id="patch_9">
    <path d="M 1514.356364 1262.376 
L 1514.356364 170.208 
" style="fill: none; stroke: #000000; stroke-width: 0.8; stroke-linejoin: miter; stroke-linecap: square"/>
   </g>
   <g id="patch_10">
    <path d="M 2488.32 1262.376 
L 2488.32 170.208 
" style="fill: none; stroke: #000000; stroke-width: 0.8; stroke-linejoin: miter; stroke-linecap: square"/>
   </g>
   <g id="patch_11">
    <path d="M 1514.356364 1262.376 
L 2488.32 1262.376 
" style="fill: none; stroke: #000000; stroke-width: 0.8; stroke-linejoin: miter; stroke-linecap: square"/>
   </g>
   <g id="patch_12">
    <path d="M 1514.356364 170.208 
L 2488.32 170.208 
" style="fill: none; stroke: #000000; stroke-width: 0.8; stroke-linejoin: miter; stroke-linecap: square"/>
   </g>
   <g id="legend_2">
    <g id="patch_13">
     <path d="M 1521.356364 236.9205 
L 1666.731364 236.9205 
Q 1668.731364 236.9205 1668.731364 234.9205 
L 1668.731364 177.208 
Q 1668.731364 175.208 1666.731364 175.208 
L 1521.356364 175.208 
Q 1519.356364 175.208 1519.356364 177.208 
L 1519.356364 234.9205 
Q 1519.356364 236.9205 1521.356364 236.9205 
z
" style="fill: #ffffff; opacity: 0.8; stroke: #cccccc; stroke-linejoin: miter"/>
    </g>
    <g id="line2d_35">
     <path d="M 1523.356364 183.306437 
L 1533.356364 183.306437 
L 1543.356364 183.306437 
" style="fill: none; stroke: #1f77b4; stroke-width: 1.5; stroke-linecap: square"/>
    </g>
    <g id="text_33">
     <!-- RNN Training Accuracy -->
     <g transform="translate(1551.356364 186.806437) scale(0.1 -0.1)">
      <defs>
       <path id="DejaVuSans-54" d="M -19 4666 
L 3928 4666 
L 3928 4134 
L 2272 4134 
L 2272 0 
L 1638 0 
L 1638 4134 
L -19 4134 
L -19 4666 
z
" transform="scale(0.015625)"/>
       <path id="DejaVuSans-69" d="M 603 3500 
L 1178 3500 
L 1178 0 
L 603 0 
L 603 3500 
z
M 603 4863 
L 1178 4863 
L 1178 4134 
L 603 4134 
L 603 4863 
z
" transform="scale(0.015625)"/>
       <path id="DejaVuSans-6e" d="M 3513 2113 
L 3513 0 
L 2938 0 
L 2938 2094 
Q 2938 2591 2744 2837 
Q 2550 3084 2163 3084 
Q 1697 3084 1428 2787 
Q 1159 2491 1159 1978 
L 1159 0 
L 581 0 
L 581 3500 
L 1159 3500 
L 1159 2956 
Q 1366 3272 1645 3428 
Q 1925 3584 2291 3584 
Q 2894 3584 3203 3211 
Q 3513 2838 3513 2113 
z
" transform="scale(0.015625)"/>
       <path id="DejaVuSans-67" d="M 2906 1791 
Q 2906 2416 2648 2759 
Q 2391 3103 1925 3103 
Q 1463 3103 1205 2759 
Q 947 2416 947 1791 
Q 947 1169 1205 825 
Q 1463 481 1925 481 
Q 2391 481 2648 825 
Q 2906 1169 2906 1791 
z
M 3481 434 
Q 3481 -459 3084 -895 
Q 2688 -1331 1869 -1331 
Q 1566 -1331 1297 -1286 
Q 1028 -1241 775 -1147 
L 775 -588 
Q 1028 -725 1275 -790 
Q 1522 -856 1778 -856 
Q 2344 -856 2625 -561 
Q 2906 -266 2906 331 
L 2906 616 
Q 2728 306 2450 153 
Q 2172 0 1784 0 
Q 1141 0 747 490 
Q 353 981 353 1791 
Q 353 2603 747 3093 
Q 1141 3584 1784 3584 
Q 2172 3584 2450 3431 
Q 2728 3278 2906 2969 
L 2906 3500 
L 3481 3500 
L 3481 434 
z
" transform="scale(0.015625)"/>
      </defs>
      <use xlink:href="#DejaVuSans-52"/>
      <use xlink:href="#DejaVuSans-4e" x="69.482422"/>
      <use xlink:href="#DejaVuSans-4e" x="144.287109"/>
      <use xlink:href="#DejaVuSans-20" x="219.091797"/>
      <use xlink:href="#DejaVuSans-54" x="250.878906"/>
      <use xlink:href="#DejaVuSans-72" x="297.212891"/>
      <use xlink:href="#DejaVuSans-61" x="338.326172"/>
      <use xlink:href="#DejaVuSans-69" x="399.605469"/>
      <use xlink:href="#DejaVuSans-6e" x="427.388672"/>
      <use xlink:href="#DejaVuSans-69" x="490.767578"/>
      <use xlink:href="#DejaVuSans-6e" x="518.550781"/>
      <use xlink:href="#DejaVuSans-67" x="581.929688"/>
      <use xlink:href="#DejaVuSans-20" x="645.40625"/>
      <use xlink:href="#DejaVuSans-41" x="677.193359"/>
      <use xlink:href="#DejaVuSans-63" x="743.851562"/>
      <use xlink:href="#DejaVuSans-63" x="798.832031"/>
      <use xlink:href="#DejaVuSans-75" x="853.8125"/>
      <use xlink:href="#DejaVuSans-72" x="917.191406"/>
      <use xlink:href="#DejaVuSans-61" x="958.304688"/>
      <use xlink:href="#DejaVuSans-63" x="1019.583984"/>
      <use xlink:href="#DejaVuSans-79" x="1074.564453"/>
     </g>
    </g>
    <g id="line2d_36">
     <path d="M 1523.356364 197.984562 
L 1533.356364 197.984562 
L 1543.356364 197.984562 
" style="fill: none; stroke: #ff7f0e; stroke-width: 1.5; stroke-linecap: square"/>
    </g>
    <g id="text_34">
     <!-- RNN Test Accuracy -->
     <g transform="translate(1551.356364 201.484562) scale(0.1 -0.1)">
      <defs>
       <path id="DejaVuSans-65" d="M 3597 1894 
L 3597 1613 
L 953 1613 
Q 991 1019 1311 708 
Q 1631 397 2203 397 
Q 2534 397 2845 478 
Q 3156 559 3463 722 
L 3463 178 
Q 3153 47 2828 -22 
Q 2503 -91 2169 -91 
Q 1331 -91 842 396 
Q 353 884 353 1716 
Q 353 2575 817 3079 
Q 1281 3584 2069 3584 
Q 2775 3584 3186 3129 
Q 3597 2675 3597 1894 
z
M 3022 2063 
Q 3016 2534 2758 2815 
Q 2500 3097 2075 3097 
Q 1594 3097 1305 2825 
Q 1016 2553 972 2059 
L 3022 2063 
z
" transform="scale(0.015625)"/>
       <path id="DejaVuSans-73" d="M 2834 3397 
L 2834 2853 
Q 2591 2978 2328 3040 
Q 2066 3103 1784 3103 
Q 1356 3103 1142 2972 
Q 928 2841 928 2578 
Q 928 2378 1081 2264 
Q 1234 2150 1697 2047 
L 1894 2003 
Q 2506 1872 2764 1633 
Q 3022 1394 3022 966 
Q 3022 478 2636 193 
Q 2250 -91 1575 -91 
Q 1294 -91 989 -36 
Q 684 19 347 128 
L 347 722 
Q 666 556 975 473 
Q 1284 391 1588 391 
Q 1994 391 2212 530 
Q 2431 669 2431 922 
Q 2431 1156 2273 1281 
Q 2116 1406 1581 1522 
L 1381 1569 
Q 847 1681 609 1914 
Q 372 2147 372 2553 
Q 372 3047 722 3315 
Q 1072 3584 1716 3584 
Q 2034 3584 2315 3537 
Q 2597 3491 2834 3397 
z
" transform="scale(0.015625)"/>
       <path id="DejaVuSans-74" d="M 1172 4494 
L 1172 3500 
L 2356 3500 
L 2356 3053 
L 1172 3053 
L 1172 1153 
Q 1172 725 1289 603 
Q 1406 481 1766 481 
L 2356 481 
L 2356 0 
L 1766 0 
Q 1100 0 847 248 
Q 594 497 594 1153 
L 594 3053 
L 172 3053 
L 172 3500 
L 594 3500 
L 594 4494 
L 1172 4494 
z
" transform="scale(0.015625)"/>
      </defs>
      <use xlink:href="#DejaVuSans-52"/>
      <use xlink:href="#DejaVuSans-4e" x="69.482422"/>
      <use xlink:href="#DejaVuSans-4e" x="144.287109"/>
      <use xlink:href="#DejaVuSans-20" x="219.091797"/>
      <use xlink:href="#DejaVuSans-54" x="250.878906"/>
      <use xlink:href="#DejaVuSans-65" x="294.962891"/>
      <use xlink:href="#DejaVuSans-73" x="356.486328"/>
      <use xlink:href="#DejaVuSans-74" x="408.585938"/>
      <use xlink:href="#DejaVuSans-20" x="447.794922"/>
      <use xlink:href="#DejaVuSans-41" x="479.582031"/>
      <use xlink:href="#DejaVuSans-63" x="546.240234"/>
      <use xlink:href="#DejaVuSans-63" x="601.220703"/>
      <use xlink:href="#DejaVuSans-75" x="656.201172"/>
      <use xlink:href="#DejaVuSans-72" x="719.580078"/>
      <use xlink:href="#DejaVuSans-61" x="760.693359"/>
      <use xlink:href="#DejaVuSans-63" x="821.972656"/>
      <use xlink:href="#DejaVuSans-79" x="876.953125"/>
     </g>
    </g>
    <g id="line2d_37">
     <path d="M 1523.356364 212.662687 
L 1533.356364 212.662687 
L 1543.356364 212.662687 
" style="fill: none; stroke: #2ca02c; stroke-width: 1.5; stroke-linecap: square"/>
    </g>
    <g id="text_35">
     <!-- SNS Training Accuracy -->
     <g transform="translate(1551.356364 216.162687) scale(0.1 -0.1)">
      <use xlink:href="#DejaVuSans-53"/>
      <use xlink:href="#DejaVuSans-4e" x="63.476562"/>
      <use xlink:href="#DejaVuSans-53" x="138.28125"/>
      <use xlink:href="#DejaVuSans-20" x="201.757812"/>
      <use xlink:href="#DejaVuSans-54" x="233.544922"/>
      <use xlink:href="#DejaVuSans-72" x="279.878906"/>
      <use xlink:href="#DejaVuSans-61" x="320.992188"/>
      <use xlink:href="#DejaVuSans-69" x="382.271484"/>
      <use xlink:href="#DejaVuSans-6e" x="410.054688"/>
      <use xlink:href="#DejaVuSans-69" x="473.433594"/>
      <use xlink:href="#DejaVuSans-6e" x="501.216797"/>
      <use xlink:href="#DejaVuSans-67" x="564.595703"/>
      <use xlink:href="#DejaVuSans-20" x="628.072266"/>
      <use xlink:href="#DejaVuSans-41" x="659.859375"/>
      <use xlink:href="#DejaVuSans-63" x="726.517578"/>
      <use xlink:href="#DejaVuSans-63" x="781.498047"/>
      <use xlink:href="#DejaVuSans-75" x="836.478516"/>
      <use xlink:href="#DejaVuSans-72" x="899.857422"/>
      <use xlink:href="#DejaVuSans-61" x="940.970703"/>
      <use xlink:href="#DejaVuSans-63" x="1002.25"/>
      <use xlink:href="#DejaVuSans-79" x="1057.230469"/>
     </g>
    </g>
    <g id="line2d_38">
     <path d="M 1523.356364 227.340812 
L 1533.356364 227.340812 
L 1543.356364 227.340812 
" style="fill: none; stroke: #d62728; stroke-width: 1.5; stroke-linecap: square"/>
    </g>
    <g id="text_36">
     <!-- SNS Test Accuracy -->
     <g transform="translate(1551.356364 230.840812) scale(0.1 -0.1)">
      <use xlink:href="#DejaVuSans-53"/>
      <use xlink:href="#DejaVuSans-4e" x="63.476562"/>
      <use xlink:href="#DejaVuSans-53" x="138.28125"/>
      <use xlink:href="#DejaVuSans-20" x="201.757812"/>
      <use xlink:href="#DejaVuSans-54" x="233.544922"/>
      <use xlink:href="#DejaVuSans-65" x="277.628906"/>
      <use xlink:href="#DejaVuSans-73" x="339.152344"/>
      <use xlink:href="#DejaVuSans-74" x="391.251953"/>
      <use xlink:href="#DejaVuSans-20" x="430.460938"/>
      <use xlink:href="#DejaVuSans-41" x="462.248047"/>
      <use xlink:href="#DejaVuSans-63" x="528.90625"/>
      <use xlink:href="#DejaVuSans-63" x="583.886719"/>
      <use xlink:href="#DejaVuSans-75" x="638.867188"/>
      <use xlink:href="#DejaVuSans-72" x="702.246094"/>
      <use xlink:href="#DejaVuSans-61" x="743.359375"/>
      <use xlink:href="#DejaVuSans-63" x="804.638672"/>
      <use xlink:href="#DejaVuSans-79" x="859.619141"/>
     </g>
    </g>
   </g>
  </g>
 </g>
 <defs>
  <clipPath id="p4dd017bd1d">
   <rect x="345.6" y="170.208" width="973.963636" height="1092.168"/>
  </clipPath>
  <clipPath id="pa77613ff5b">
   <rect x="1514.356364" y="170.208" width="973.963636" height="1092.168"/>
  </clipPath>
 </defs>
</svg>
