<?xml version="1.0" encoding="utf-8" standalone="no"?>
<!DOCTYPE svg PUBLIC "-//W3C//DTD SVG 1.1//EN"
  "http://www.w3.org/Graphics/SVG/1.1/DTD/svg11.dtd">
<svg xmlns:xlink="http://www.w3.org/1999/xlink" width="743.04pt" height="345.6pt" viewBox="0 0 743.04 345.6" xmlns="http://www.w3.org/2000/svg" version="1.1">
 <metadata>
  <rdf:RDF xmlns:dc="http://purl.org/dc/elements/1.1/" xmlns:cc="http://creativecommons.org/ns#" xmlns:rdf="http://www.w3.org/1999/02/22-rdf-syntax-ns#">
   <cc:Work>
    <dc:type rdf:resource="http://purl.org/dc/dcmitype/StillImage"/>
    <dc:date>2024-02-16T15:00:23.840946</dc:date>
    <dc:format>image/svg+xml</dc:format>
    <dc:creator>
     <cc:Agent>
      <dc:title>Matplotlib v3.7.1, https://matplotlib.org/</dc:title>
     </cc:Agent>
    </dc:creator>
   </cc:Work>
  </rdf:RDF>
 </metadata>
 <defs>
  <style type="text/css">*{stroke-linejoin: round; stroke-linecap: butt}</style>
 </defs>
 <g id="figure_1">
  <g id="patch_1">
   <path d="M 0 345.6 
L 743.04 345.6 
L 743.04 0 
L 0 0 
z
" style="fill: #ffffff"/>
  </g>
  <g id="axes_1">
   <g id="patch_2">
    <path d="M 92.88 307.584 
L 354.632727 307.584 
L 354.632727 41.472 
L 92.88 41.472 
z
" style="fill: #ffffff"/>
   </g>
   <g id="matplotlib.axis_1">
    <g id="xtick_1">
     <g id="line2d_1">
      <defs>
       <path id="m899123c81c" d="M 0 0 
L 0 3.5 
" style="stroke: #000000; stroke-width: 0.8"/>
      </defs>
      <g>
       <use xlink:href="#m899123c81c" x="104.777851" y="307.584" style="stroke: #000000; stroke-width: 0.8"/>
      </g>
     </g>
     <g id="text_1">
      <!-- 0 -->
      <g transform="translate(101.596601 322.182437) scale(0.1 -0.1)">
       <defs>
        <path id="DejaVuSans-30" d="M 2034 4250 
Q 1547 4250 1301 3770 
Q 1056 3291 1056 2328 
Q 1056 1369 1301 889 
Q 1547 409 2034 409 
Q 2525 409 2770 889 
Q 3016 1369 3016 2328 
Q 3016 3291 2770 3770 
Q 2525 4250 2034 4250 
z
M 2034 4750 
Q 2819 4750 3233 4129 
Q 3647 3509 3647 2328 
Q 3647 1150 3233 529 
Q 2819 -91 2034 -91 
Q 1250 -91 836 529 
Q 422 1150 422 2328 
Q 422 3509 836 4129 
Q 1250 4750 2034 4750 
z
" transform="scale(0.015625)"/>
       </defs>
       <use xlink:href="#DejaVuSans-30"/>
      </g>
     </g>
    </g>
    <g id="xtick_2">
     <g id="line2d_2">
      <g>
       <use xlink:href="#m899123c81c" x="144.437355" y="307.584" style="stroke: #000000; stroke-width: 0.8"/>
      </g>
     </g>
     <g id="text_2">
      <!-- 200 -->
      <g transform="translate(134.893605 322.182437) scale(0.1 -0.1)">
       <defs>
        <path id="DejaVuSans-32" d="M 1228 531 
L 3431 531 
L 3431 0 
L 469 0 
L 469 531 
Q 828 903 1448 1529 
Q 2069 2156 2228 2338 
Q 2531 2678 2651 2914 
Q 2772 3150 2772 3378 
Q 2772 3750 2511 3984 
Q 2250 4219 1831 4219 
Q 1534 4219 1204 4116 
Q 875 4013 500 3803 
L 500 4441 
Q 881 4594 1212 4672 
Q 1544 4750 1819 4750 
Q 2544 4750 2975 4387 
Q 3406 4025 3406 3419 
Q 3406 3131 3298 2873 
Q 3191 2616 2906 2266 
Q 2828 2175 2409 1742 
Q 1991 1309 1228 531 
z
" transform="scale(0.015625)"/>
       </defs>
       <use xlink:href="#DejaVuSans-32"/>
       <use xlink:href="#DejaVuSans-30" x="63.623047"/>
       <use xlink:href="#DejaVuSans-30" x="127.246094"/>
      </g>
     </g>
    </g>
    <g id="xtick_3">
     <g id="line2d_3">
      <g>
       <use xlink:href="#m899123c81c" x="184.09686" y="307.584" style="stroke: #000000; stroke-width: 0.8"/>
      </g>
     </g>
     <g id="text_3">
      <!-- 400 -->
      <g transform="translate(174.55311 322.182437) scale(0.1 -0.1)">
       <defs>
        <path id="DejaVuSans-34" d="M 2419 4116 
L 825 1625 
L 2419 1625 
L 2419 4116 
z
M 2253 4666 
L 3047 4666 
L 3047 1625 
L 3713 1625 
L 3713 1100 
L 3047 1100 
L 3047 0 
L 2419 0 
L 2419 1100 
L 313 1100 
L 313 1709 
L 2253 4666 
z
" transform="scale(0.015625)"/>
       </defs>
       <use xlink:href="#DejaVuSans-34"/>
       <use xlink:href="#DejaVuSans-30" x="63.623047"/>
       <use xlink:href="#DejaVuSans-30" x="127.246094"/>
      </g>
     </g>
    </g>
    <g id="xtick_4">
     <g id="line2d_4">
      <g>
       <use xlink:href="#m899123c81c" x="223.756364" y="307.584" style="stroke: #000000; stroke-width: 0.8"/>
      </g>
     </g>
     <g id="text_4">
      <!-- 600 -->
      <g transform="translate(214.212614 322.182437) scale(0.1 -0.1)">
       <defs>
        <path id="DejaVuSans-36" d="M 2113 2584 
Q 1688 2584 1439 2293 
Q 1191 2003 1191 1497 
Q 1191 994 1439 701 
Q 1688 409 2113 409 
Q 2538 409 2786 701 
Q 3034 994 3034 1497 
Q 3034 2003 2786 2293 
Q 2538 2584 2113 2584 
z
M 3366 4563 
L 3366 3988 
Q 3128 4100 2886 4159 
Q 2644 4219 2406 4219 
Q 1781 4219 1451 3797 
Q 1122 3375 1075 2522 
Q 1259 2794 1537 2939 
Q 1816 3084 2150 3084 
Q 2853 3084 3261 2657 
Q 3669 2231 3669 1497 
Q 3669 778 3244 343 
Q 2819 -91 2113 -91 
Q 1303 -91 875 529 
Q 447 1150 447 2328 
Q 447 3434 972 4092 
Q 1497 4750 2381 4750 
Q 2619 4750 2861 4703 
Q 3103 4656 3366 4563 
z
" transform="scale(0.015625)"/>
       </defs>
       <use xlink:href="#DejaVuSans-36"/>
       <use xlink:href="#DejaVuSans-30" x="63.623047"/>
       <use xlink:href="#DejaVuSans-30" x="127.246094"/>
      </g>
     </g>
    </g>
    <g id="xtick_5">
     <g id="line2d_5">
      <g>
       <use xlink:href="#m899123c81c" x="263.415868" y="307.584" style="stroke: #000000; stroke-width: 0.8"/>
      </g>
     </g>
     <g id="text_5">
      <!-- 800 -->
      <g transform="translate(253.872118 322.182437) scale(0.1 -0.1)">
       <defs>
        <path id="DejaVuSans-38" d="M 2034 2216 
Q 1584 2216 1326 1975 
Q 1069 1734 1069 1313 
Q 1069 891 1326 650 
Q 1584 409 2034 409 
Q 2484 409 2743 651 
Q 3003 894 3003 1313 
Q 3003 1734 2745 1975 
Q 2488 2216 2034 2216 
z
M 1403 2484 
Q 997 2584 770 2862 
Q 544 3141 544 3541 
Q 544 4100 942 4425 
Q 1341 4750 2034 4750 
Q 2731 4750 3128 4425 
Q 3525 4100 3525 3541 
Q 3525 3141 3298 2862 
Q 3072 2584 2669 2484 
Q 3125 2378 3379 2068 
Q 3634 1759 3634 1313 
Q 3634 634 3220 271 
Q 2806 -91 2034 -91 
Q 1263 -91 848 271 
Q 434 634 434 1313 
Q 434 1759 690 2068 
Q 947 2378 1403 2484 
z
M 1172 3481 
Q 1172 3119 1398 2916 
Q 1625 2713 2034 2713 
Q 2441 2713 2670 2916 
Q 2900 3119 2900 3481 
Q 2900 3844 2670 4047 
Q 2441 4250 2034 4250 
Q 1625 4250 1398 4047 
Q 1172 3844 1172 3481 
z
" transform="scale(0.015625)"/>
       </defs>
       <use xlink:href="#DejaVuSans-38"/>
       <use xlink:href="#DejaVuSans-30" x="63.623047"/>
       <use xlink:href="#DejaVuSans-30" x="127.246094"/>
      </g>
     </g>
    </g>
    <g id="xtick_6">
     <g id="line2d_6">
      <g>
       <use xlink:href="#m899123c81c" x="303.075372" y="307.584" style="stroke: #000000; stroke-width: 0.8"/>
      </g>
     </g>
     <g id="text_6">
      <!-- 1000 -->
      <g transform="translate(290.350372 322.182437) scale(0.1 -0.1)">
       <defs>
        <path id="DejaVuSans-31" d="M 794 531 
L 1825 531 
L 1825 4091 
L 703 3866 
L 703 4441 
L 1819 4666 
L 2450 4666 
L 2450 531 
L 3481 531 
L 3481 0 
L 794 0 
L 794 531 
z
" transform="scale(0.015625)"/>
       </defs>
       <use xlink:href="#DejaVuSans-31"/>
       <use xlink:href="#DejaVuSans-30" x="63.623047"/>
       <use xlink:href="#DejaVuSans-30" x="127.246094"/>
       <use xlink:href="#DejaVuSans-30" x="190.869141"/>
      </g>
     </g>
    </g>
    <g id="xtick_7">
     <g id="line2d_7">
      <g>
       <use xlink:href="#m899123c81c" x="342.734876" y="307.584" style="stroke: #000000; stroke-width: 0.8"/>
      </g>
     </g>
     <g id="text_7">
      <!-- 1200 -->
      <g transform="translate(330.009876 322.182437) scale(0.1 -0.1)">
       <use xlink:href="#DejaVuSans-31"/>
       <use xlink:href="#DejaVuSans-32" x="63.623047"/>
       <use xlink:href="#DejaVuSans-30" x="127.246094"/>
       <use xlink:href="#DejaVuSans-30" x="190.869141"/>
      </g>
     </g>
    </g>
   </g>
   <g id="matplotlib.axis_2">
    <g id="ytick_1">
     <g id="line2d_8">
      <defs>
       <path id="me7ab9e7f9c" d="M 0 0 
L -3.5 0 
" style="stroke: #000000; stroke-width: 0.8"/>
      </defs>
      <g>
       <use xlink:href="#me7ab9e7f9c" x="92.88" y="295.488" style="stroke: #000000; stroke-width: 0.8"/>
      </g>
     </g>
     <g id="text_8">
      <!-- 0 -->
      <g transform="translate(79.5175 299.287219) scale(0.1 -0.1)">
       <use xlink:href="#DejaVuSans-30"/>
      </g>
     </g>
    </g>
    <g id="ytick_2">
     <g id="line2d_9">
      <g>
       <use xlink:href="#me7ab9e7f9c" x="92.88" y="247.121804" style="stroke: #000000; stroke-width: 0.8"/>
      </g>
     </g>
     <g id="text_9">
      <!-- 2 -->
      <g transform="translate(79.5175 250.921023) scale(0.1 -0.1)">
       <use xlink:href="#DejaVuSans-32"/>
      </g>
     </g>
    </g>
    <g id="ytick_3">
     <g id="line2d_10">
      <g>
       <use xlink:href="#me7ab9e7f9c" x="92.88" y="198.755609" style="stroke: #000000; stroke-width: 0.8"/>
      </g>
     </g>
     <g id="text_10">
      <!-- 4 -->
      <g transform="translate(79.5175 202.554828) scale(0.1 -0.1)">
       <use xlink:href="#DejaVuSans-34"/>
      </g>
     </g>
    </g>
    <g id="ytick_4">
     <g id="line2d_11">
      <g>
       <use xlink:href="#me7ab9e7f9c" x="92.88" y="150.389413" style="stroke: #000000; stroke-width: 0.8"/>
      </g>
     </g>
     <g id="text_11">
      <!-- 6 -->
      <g transform="translate(79.5175 154.188632) scale(0.1 -0.1)">
       <use xlink:href="#DejaVuSans-36"/>
      </g>
     </g>
    </g>
    <g id="ytick_5">
     <g id="line2d_12">
      <g>
       <use xlink:href="#me7ab9e7f9c" x="92.88" y="102.023218" style="stroke: #000000; stroke-width: 0.8"/>
      </g>
     </g>
     <g id="text_12">
      <!-- 8 -->
      <g transform="translate(79.5175 105.822437) scale(0.1 -0.1)">
       <use xlink:href="#DejaVuSans-38"/>
      </g>
     </g>
    </g>
    <g id="ytick_6">
     <g id="line2d_13">
      <g>
       <use xlink:href="#me7ab9e7f9c" x="92.88" y="53.657022" style="stroke: #000000; stroke-width: 0.8"/>
      </g>
     </g>
     <g id="text_13">
      <!-- 10 -->
      <g transform="translate(73.155 57.456241) scale(0.1 -0.1)">
       <use xlink:href="#DejaVuSans-31"/>
       <use xlink:href="#DejaVuSans-30" x="63.623047"/>
      </g>
     </g>
    </g>
   </g>
   <g id="line2d_14">
    <path d="M 104.777851 295.488 
L 104.976149 239.687027 
L 105.174446 53.568 
L 105.372744 246.191987 
L 105.571041 251.100074 
L 105.769339 249.526199 
L 105.967636 260.658711 
L 106.562529 270.253919 
L 106.760826 277.111231 
L 106.959124 274.405038 
L 107.157421 278.231497 
L 107.355719 277.840222 
L 107.752314 283.677037 
L 107.950612 280.379825 
L 108.148909 280.466553 
L 108.347207 277.779613 
L 108.545504 285.79946 
L 108.743802 286.481657 
L 108.942099 286.306401 
L 109.140397 283.157453 
L 109.338694 283.778985 
L 109.536992 287.269515 
L 109.735289 281.719754 
L 109.933587 285.160209 
L 110.131884 282.616574 
L 110.330182 288.427277 
L 110.726777 283.283265 
L 110.925074 286.489992 
L 111.123372 287.502512 
L 111.321669 285.622646 
L 111.718264 290.912742 
L 111.916562 288.524917 
L 112.11486 282.454917 
L 112.313157 286.23594 
L 112.511455 277.675934 
L 112.709752 290.072632 
L 112.90805 285.714127 
L 113.106347 292.470027 
L 113.304645 290.971862 
L 113.502942 288.041671 
L 113.70124 289.763408 
L 114.097835 289.502258 
L 114.296132 288.476576 
L 114.49443 292.329038 
L 114.692727 291.08343 
L 114.891025 286.611745 
L 115.089322 288.077035 
L 115.485917 288.79129 
L 115.684215 288.514646 
L 115.882512 292.145626 
L 116.08081 288.618547 
L 116.279107 293.255396 
L 116.477405 290.057297 
L 116.675702 289.107057 
L 116.874 290.611469 
L 117.072298 289.116723 
L 117.468893 291.267587 
L 117.66719 290.750494 
L 117.865488 291.620853 
L 118.262083 290.684863 
L 118.46038 291.474526 
L 118.658678 287.5896 
L 118.856975 285.943331 
L 119.055273 288.880048 
L 119.25357 289.265707 
L 119.451868 292.419891 
L 119.650165 290.142148 
L 119.848463 293.87581 
L 120.04676 291.529342 
L 120.245058 291.991871 
L 120.641653 290.116485 
L 121.038248 293.201502 
L 121.236545 292.86215 
L 121.434843 291.588913 
L 121.63314 293.40926 
L 121.831438 291.196105 
L 122.029736 291.038707 
L 122.426331 288.123726 
L 122.624628 292.091533 
L 122.822926 289.871334 
L 123.021223 290.08036 
L 123.219521 289.602377 
L 123.417818 289.921881 
L 123.616116 290.753536 
L 123.814413 290.206608 
L 124.012711 291.924958 
L 124.211008 288.634615 
L 124.607603 294.02176 
L 125.004198 288.149801 
L 125.400793 291.458842 
L 125.599091 291.341048 
L 125.797388 291.739754 
L 125.995686 292.467665 
L 126.392281 282.859711 
L 126.590579 291.697784 
L 126.788876 293.175771 
L 126.987174 289.483179 
L 127.185471 292.85958 
L 127.383769 292.948415 
L 127.582066 292.145319 
L 127.780364 293.113219 
L 128.176959 288.796984 
L 128.375256 291.583913 
L 128.573554 288.023464 
L 128.771851 293.020399 
L 128.970149 292.950399 
L 129.168446 293.646672 
L 129.366744 291.043069 
L 129.565041 291.42753 
L 129.763339 287.870808 
L 129.961636 292.341073 
L 130.159934 291.002037 
L 130.358231 292.230841 
L 130.556529 292.303559 
L 130.754826 291.832517 
L 130.953124 293.020959 
L 131.151421 291.670695 
L 131.349719 292.91679 
L 131.548017 292.480893 
L 131.746314 292.898927 
L 131.944612 292.95537 
L 132.142909 291.017331 
L 132.341207 292.637966 
L 132.539504 290.568773 
L 132.737802 293.087724 
L 132.936099 293.197421 
L 133.134397 294.060705 
L 133.332694 290.505121 
L 133.530992 291.677577 
L 133.729289 290.610032 
L 133.927587 293.518598 
L 134.125884 292.623601 
L 134.324182 289.906038 
L 134.522479 293.697659 
L 134.720777 291.769201 
L 134.919074 291.827894 
L 135.117372 289.004935 
L 135.315669 293.396447 
L 135.513967 292.524103 
L 135.712264 292.666042 
L 135.910562 292.553553 
L 136.10886 288.562946 
L 136.307157 292.307709 
L 136.505455 289.960776 
L 136.90205 294.060213 
L 137.100347 292.840822 
L 137.496942 291.808306 
L 137.69524 293.207212 
L 137.893537 289.521132 
L 138.091835 294.479169 
L 138.290132 294.628164 
L 138.48843 291.243158 
L 138.885025 293.909106 
L 139.083322 291.746842 
L 139.28162 291.70098 
L 139.479917 293.330047 
L 139.678215 290.311915 
L 139.876512 292.291844 
L 140.07481 291.064295 
L 140.273107 293.315142 
L 140.471405 290.447892 
L 140.669702 290.736047 
L 140.868 293.82216 
L 141.066298 292.574548 
L 141.264595 289.08112 
L 141.66119 292.879015 
L 141.859488 289.225425 
L 142.057785 290.208449 
L 142.256083 294.692212 
L 142.45438 287.474686 
L 142.652678 292.271709 
L 142.850975 293.066997 
L 143.24757 290.305832 
L 143.445868 294.355765 
L 143.644165 290.698494 
L 143.842463 294.226895 
L 144.04076 292.181124 
L 144.239058 292.330633 
L 144.437355 293.464261 
L 144.635653 290.368854 
L 145.032248 293.728195 
L 145.230545 291.706554 
L 145.428843 291.383191 
L 145.62714 294.304403 
L 145.825438 289.148459 
L 146.222033 293.372254 
L 146.816926 288.480788 
L 147.015223 292.628943 
L 147.213521 293.491826 
L 147.610116 288.056854 
L 147.808413 292.645987 
L 148.006711 291.906437 
L 148.205008 289.518948 
L 148.403306 293.856971 
L 148.601603 291.113778 
L 148.799901 293.368707 
L 148.998198 291.331662 
L 149.394793 293.480158 
L 149.593091 292.515961 
L 149.791388 293.334032 
L 149.989686 294.696536 
L 150.187983 290.411248 
L 150.386281 292.189368 
L 150.584579 291.367431 
L 150.782876 294.595651 
L 150.981174 292.11176 
L 151.179471 293.181968 
L 151.377769 292.246267 
L 151.576066 291.999494 
L 151.774364 291.557707 
L 151.972661 292.669797 
L 152.170959 291.483457 
L 152.369256 291.618191 
L 152.567554 290.994696 
L 152.765851 293.323174 
L 152.964149 291.529396 
L 153.162446 292.129888 
L 153.360744 289.452197 
L 153.559041 293.403376 
L 153.757339 294.221918 
L 153.955636 288.740383 
L 154.153934 292.415842 
L 154.550529 289.685475 
L 154.748826 292.505139 
L 154.947124 292.250947 
L 155.145421 292.327181 
L 155.343719 290.967408 
L 155.542017 288.327788 
L 155.740314 294.372083 
L 155.938612 293.414504 
L 156.136909 290.784727 
L 156.335207 292.738408 
L 156.533504 289.661294 
L 156.731802 292.580709 
L 156.930099 292.703372 
L 157.128397 290.973064 
L 157.723289 294.045099 
L 157.921587 290.134454 
L 158.119884 292.168388 
L 158.318182 291.422686 
L 158.516479 292.743702 
L 158.913074 293.557915 
L 159.111372 294.316808 
L 159.309669 292.529148 
L 159.507967 294.195437 
L 159.706264 294.276705 
L 159.904562 294.151814 
L 160.301157 292.060408 
L 160.499455 288.978646 
L 160.697752 294.462108 
L 160.89605 294.578745 
L 161.094347 291.776865 
L 161.292645 290.679388 
L 161.490942 290.911362 
L 161.68924 291.852266 
L 161.887537 289.611305 
L 162.085835 292.027648 
L 162.284132 291.941894 
L 162.48243 292.728122 
L 162.680727 293.013443 
L 162.879025 293.855447 
L 163.077322 292.165702 
L 163.27562 293.511619 
L 163.473917 290.905211 
L 163.672215 293.485615 
L 163.870512 292.430505 
L 164.06881 293.020523 
L 164.267107 294.454372 
L 164.465405 290.99835 
L 164.663702 293.266922 
L 164.862 293.261404 
L 165.060298 292.978381 
L 165.258595 294.451014 
L 165.456893 295.046686 
L 165.65519 293.616519 
L 165.853488 290.940782 
L 166.051785 293.532339 
L 166.250083 293.64933 
L 166.44838 293.57758 
L 166.646678 291.277129 
L 166.844975 290.835862 
L 167.043273 294.420978 
L 167.24157 293.327385 
L 167.439868 294.246855 
L 167.638165 292.985455 
L 167.836463 294.079481 
L 168.03476 290.098452 
L 168.233058 293.08558 
L 168.431355 294.012259 
L 168.629653 293.678616 
L 168.82795 291.266035 
L 169.026248 294.769726 
L 169.224545 293.981528 
L 169.422843 293.824192 
L 169.62114 288.923952 
L 169.819438 293.939115 
L 170.017736 291.381146 
L 170.216033 295.178302 
L 170.612628 290.963019 
L 170.810926 290.780693 
L 171.009223 293.534668 
L 171.207521 290.191167 
L 171.405818 292.313558 
L 171.604116 292.68237 
L 172.000711 292.80483 
L 172.199008 294.031835 
L 172.397306 293.762824 
L 172.595603 292.617447 
L 172.992198 295.021848 
L 173.190496 293.260998 
L 173.388793 292.626189 
L 173.587091 293.935621 
L 173.785388 292.778854 
L 174.181983 294.255357 
L 174.380281 292.421264 
L 174.578579 294.262997 
L 174.776876 291.547327 
L 174.975174 295.117028 
L 175.173471 291.978196 
L 175.371769 294.641452 
L 175.570066 293.871787 
L 175.768364 295.077283 
L 175.966661 291.483873 
L 176.164959 290.400379 
L 176.363256 294.116308 
L 176.561554 293.472955 
L 176.759851 287.907728 
L 176.958149 293.534667 
L 177.156446 293.411077 
L 177.354744 294.285687 
L 177.553041 294.225102 
L 177.949636 292.648283 
L 178.346231 294.369758 
L 178.544529 292.933397 
L 179.337719 294.3568 
L 179.536017 294.362969 
L 179.932612 290.889427 
L 180.130909 291.09169 
L 180.329207 291.757878 
L 180.527504 294.861061 
L 180.725802 292.796693 
L 180.924099 293.16366 
L 181.122397 290.565086 
L 181.320694 293.367569 
L 181.518992 294.568522 
L 181.717289 291.237639 
L 182.113884 292.820927 
L 182.312182 294.714364 
L 182.510479 293.102392 
L 182.708777 293.83326 
L 182.907074 292.168406 
L 183.105372 294.191488 
L 183.303669 294.515083 
L 183.501967 292.441104 
L 183.700264 293.487212 
L 183.898562 293.719375 
L 184.09686 290.524583 
L 184.493455 294.759994 
L 184.89005 291.61633 
L 185.088347 293.817165 
L 185.286645 294.56508 
L 185.484942 293.227088 
L 185.68324 294.899128 
L 185.881537 293.410823 
L 186.079835 293.428592 
L 186.278132 290.81747 
L 186.47643 290.91724 
L 186.674727 294.963674 
L 186.873025 293.477316 
L 187.071322 291.042112 
L 187.26962 294.034883 
L 187.467917 292.747556 
L 187.666215 292.278538 
L 187.864512 290.934021 
L 188.06281 293.851031 
L 188.261107 294.718986 
L 188.459405 293.621706 
L 188.657702 293.787201 
L 188.856 291.8299 
L 189.252595 293.552856 
L 189.450893 293.681149 
L 189.64919 293.322246 
L 189.847488 292.56899 
L 190.045785 292.868634 
L 190.244083 292.699667 
L 190.44238 291.367625 
L 190.640678 295.193983 
L 190.838975 289.760781 
L 191.037273 295.021127 
L 191.23557 291.881697 
L 191.433868 293.510655 
L 191.632165 291.255676 
L 192.02876 293.811905 
L 192.227058 294.502206 
L 192.425355 289.043623 
L 192.623653 294.062545 
L 192.82195 293.512012 
L 193.020248 293.664743 
L 193.218545 293.487238 
L 193.416843 290.565458 
L 193.61514 291.093034 
L 193.813438 293.438385 
L 194.011736 293.368652 
L 194.210033 292.31558 
L 194.408331 289.749173 
L 194.804926 294.518365 
L 195.003223 292.846874 
L 195.201521 293.962834 
L 195.399818 292.38323 
L 195.598116 292.765956 
L 195.796413 290.761846 
L 195.994711 291.172955 
L 196.193008 290.834566 
L 196.391306 294.298709 
L 196.787901 292.687873 
L 196.986198 293.044826 
L 197.382793 295.020722 
L 197.977686 292.945831 
L 198.175983 291.811624 
L 198.374281 294.383476 
L 198.572579 294.422412 
L 198.770876 291.474599 
L 199.167471 294.087049 
L 199.365769 292.692527 
L 199.564066 294.207807 
L 199.762364 292.986268 
L 199.960661 293.748897 
L 200.158959 293.757023 
L 200.357256 293.221223 
L 200.555554 293.957107 
L 200.753851 293.840027 
L 200.952149 292.870967 
L 201.348744 295.035555 
L 201.547041 291.945039 
L 201.745339 292.335101 
L 201.943636 294.18969 
L 202.141934 292.546811 
L 202.340231 294.759735 
L 202.736826 292.71168 
L 202.935124 289.781621 
L 203.133421 293.820496 
L 203.331719 290.332341 
L 203.530017 294.745697 
L 203.728314 293.136228 
L 203.926612 294.541211 
L 204.124909 289.249397 
L 204.323207 291.524305 
L 204.521504 290.787246 
L 204.719802 294.672492 
L 204.918099 293.951803 
L 205.116397 292.696916 
L 205.314694 293.437798 
L 205.512992 290.939504 
L 205.711289 291.699657 
L 205.909587 294.943991 
L 206.107884 293.056329 
L 206.306182 292.323086 
L 206.504479 294.34987 
L 206.702777 293.572184 
L 206.901074 293.824436 
L 207.297669 294.785252 
L 207.495967 290.17494 
L 207.694264 294.021382 
L 207.892562 293.179933 
L 208.09086 293.694761 
L 208.289157 289.288324 
L 208.685752 293.82869 
L 208.88405 294.642663 
L 209.082347 292.096728 
L 209.280645 292.268815 
L 209.478942 294.816195 
L 209.67724 293.987629 
L 209.875537 294.816015 
L 210.073835 294.466666 
L 210.272132 293.306426 
L 210.47043 294.6909 
L 210.668727 294.715266 
L 210.867025 294.134148 
L 211.065322 295.049361 
L 211.26362 292.75833 
L 211.461917 291.773739 
L 211.660215 294.310112 
L 211.858512 295.153054 
L 212.453405 290.877694 
L 212.651702 293.827542 
L 212.85 288.032253 
L 213.048298 293.516026 
L 213.246595 290.922786 
L 213.444893 292.549979 
L 213.64319 293.000782 
L 213.841488 293.126782 
L 214.039785 291.428089 
L 214.238083 293.541913 
L 214.43638 292.698927 
L 214.634678 292.709336 
L 214.832975 291.798567 
L 215.031273 292.273519 
L 215.22957 293.77268 
L 215.427868 293.367135 
L 215.626165 294.303344 
L 216.02276 293.093081 
L 216.221058 293.251981 
L 216.419355 293.657022 
L 216.617653 291.765471 
L 216.81595 294.206967 
L 217.014248 293.704327 
L 217.212545 293.532451 
L 217.410843 292.958417 
L 217.60914 290.648134 
L 218.005736 293.644766 
L 218.204033 292.313655 
L 218.600628 293.897727 
L 218.798926 288.880771 
L 218.997223 293.38125 
L 219.195521 293.997308 
L 219.393818 289.812011 
L 219.592116 294.945731 
L 219.790413 293.815158 
L 219.988711 287.696031 
L 220.187008 293.815086 
L 220.385306 292.424259 
L 220.583603 292.376444 
L 220.781901 293.887537 
L 221.376793 292.591622 
L 221.575091 290.58511 
L 221.773388 294.053287 
L 222.169983 292.831595 
L 222.368281 292.999768 
L 222.566579 294.606271 
L 222.764876 294.408206 
L 222.963174 293.277236 
L 223.161471 294.44785 
L 223.359769 289.15327 
L 223.558066 294.728988 
L 223.954661 294.52984 
L 224.152959 294.703765 
L 224.351256 293.694471 
L 224.549554 289.537593 
L 224.747851 293.342446 
L 224.946149 293.470455 
L 225.342744 295.098895 
L 225.541041 293.197301 
L 225.739339 294.098803 
L 226.135934 294.610232 
L 226.334231 292.641457 
L 226.532529 293.634143 
L 226.730826 291.46534 
L 226.929124 294.620164 
L 227.127421 294.615653 
L 227.524017 293.580635 
L 227.722314 293.831581 
L 227.920612 293.557104 
L 228.118909 292.218171 
L 228.317207 292.195802 
L 228.515504 294.365718 
L 228.713802 293.512668 
L 228.912099 293.524364 
L 229.110397 293.726959 
L 229.308694 292.809542 
L 229.506992 294.707481 
L 229.705289 293.149323 
L 229.903587 293.94426 
L 230.101884 290.752503 
L 230.300182 292.290405 
L 230.696777 293.187754 
L 230.895074 294.758821 
L 231.093372 294.528773 
L 231.291669 292.971423 
L 231.489967 293.838554 
L 231.688264 293.606116 
L 231.886562 294.958412 
L 232.08486 294.831463 
L 232.283157 294.880572 
L 232.481455 293.389329 
L 232.679752 293.054848 
L 233.076347 294.725833 
L 233.274645 291.950592 
L 233.472942 292.506267 
L 233.67124 295.296407 
L 234.067835 293.826083 
L 234.266132 291.538424 
L 234.46443 294.078405 
L 234.662727 293.3603 
L 234.861025 294.330698 
L 235.059322 291.577387 
L 235.25762 293.920809 
L 235.455917 293.618312 
L 235.654215 293.998523 
L 235.852512 294.95875 
L 236.05081 293.409664 
L 236.249107 293.150118 
L 236.447405 294.132774 
L 236.645702 293.872913 
L 236.844 292.718651 
L 237.042298 285.66606 
L 237.240595 294.210761 
L 237.438893 292.079186 
L 237.63719 294.239405 
L 237.835488 294.271215 
L 238.033785 292.448457 
L 238.43038 293.876387 
L 238.628678 293.188735 
L 238.826975 292.961888 
L 239.025273 294.601141 
L 239.22357 291.878565 
L 239.421868 293.710522 
L 239.620165 293.815389 
L 239.818463 292.480918 
L 240.01676 295.036646 
L 240.215058 294.056929 
L 240.413355 291.438712 
L 240.611653 294.066329 
L 240.80995 294.715374 
L 241.008248 293.547243 
L 241.206545 294.438155 
L 241.404843 292.146848 
L 241.60314 294.310631 
L 241.801438 294.219483 
L 241.999736 295.279086 
L 242.396331 294.032749 
L 242.594628 295.015555 
L 242.792926 294.871048 
L 243.189521 293.421971 
L 243.387818 294.706118 
L 243.586116 293.445014 
L 243.784413 294.085187 
L 243.982711 295.322561 
L 244.181008 293.428966 
L 244.379306 294.845865 
L 244.577603 294.475548 
L 244.775901 293.634263 
L 244.974198 290.186406 
L 245.172496 294.523371 
L 245.370793 293.642567 
L 245.569091 295.34147 
L 246.362281 292.690569 
L 246.560579 294.51459 
L 246.957174 291.952968 
L 247.353769 293.945858 
L 247.552066 294.315309 
L 247.750364 292.018776 
L 247.948661 293.948156 
L 248.146959 294.582057 
L 248.345256 293.052323 
L 248.543554 294.07393 
L 248.741851 294.278161 
L 248.940149 293.670132 
L 249.138446 292.129045 
L 249.336744 295.316722 
L 249.535041 294.343721 
L 249.733339 292.710436 
L 249.931636 294.890863 
L 250.129934 293.650123 
L 250.328231 288.466775 
L 250.526529 295.189222 
L 250.724826 295.064831 
L 250.923124 290.905781 
L 251.121421 293.378793 
L 251.319719 294.459393 
L 251.518017 291.719904 
L 251.716314 291.391373 
L 251.914612 294.487699 
L 252.112909 294.499242 
L 252.311207 292.684712 
L 252.509504 293.404681 
L 252.707802 293.337234 
L 252.906099 293.941719 
L 253.104397 294.001386 
L 253.500992 293.107136 
L 253.699289 293.65598 
L 253.897587 291.306567 
L 254.095884 294.714738 
L 254.294182 293.892787 
L 254.690777 295.037542 
L 254.889074 294.392447 
L 255.087372 294.70837 
L 255.285669 293.23201 
L 255.483967 293.232597 
L 255.682264 294.571468 
L 256.07886 292.860527 
L 256.277157 294.93359 
L 256.475455 292.607283 
L 256.87205 295.149445 
L 257.070347 292.125921 
L 257.268645 294.581548 
L 257.466942 293.40445 
L 257.66524 293.365439 
L 257.863537 294.462861 
L 258.061835 294.666413 
L 258.260132 292.96235 
L 258.45843 294.66604 
L 258.656727 294.483603 
L 258.855025 293.738681 
L 259.25162 293.42046 
L 259.449917 291.204739 
L 259.648215 293.780405 
L 259.846512 294.235257 
L 260.04481 294.04745 
L 260.243107 292.571923 
L 260.639702 295.252684 
L 260.838 292.442101 
L 261.036298 294.496444 
L 261.234595 294.563288 
L 261.432893 294.822425 
L 261.63119 294.689091 
L 261.829488 292.7347 
L 262.027785 292.987005 
L 262.226083 289.097427 
L 262.42438 294.700278 
L 262.622678 294.699254 
L 262.820975 294.868809 
L 263.019273 294.511584 
L 263.21757 295.177786 
L 263.614165 291.302952 
L 263.812463 294.501548 
L 264.01076 291.747094 
L 264.209058 292.208693 
L 264.605653 294.80514 
L 264.80395 292.295888 
L 265.002248 294.182229 
L 265.398843 292.442584 
L 265.59714 294.414326 
L 265.795438 293.727749 
L 265.993736 293.716735 
L 266.192033 292.321952 
L 266.390331 292.765556 
L 266.588628 292.844802 
L 266.786926 292.391696 
L 266.985223 293.079588 
L 267.183521 294.790762 
L 267.381818 291.350214 
L 267.580116 293.303491 
L 267.778413 293.781005 
L 267.976711 293.255075 
L 268.175008 292.303984 
L 268.373306 292.559603 
L 268.571603 293.699743 
L 268.769901 294.058785 
L 268.968198 293.949258 
L 269.166496 294.886046 
L 269.364793 293.900253 
L 269.563091 294.021552 
L 269.761388 295.099407 
L 269.959686 294.765283 
L 270.157983 289.001923 
L 270.356281 294.209802 
L 270.554579 294.438334 
L 270.752876 293.403429 
L 270.951174 295.016866 
L 271.149471 294.791741 
L 271.347769 293.683475 
L 271.546066 293.561801 
L 271.942661 294.853802 
L 272.140959 293.63875 
L 272.339256 293.144695 
L 272.537554 293.849006 
L 272.735851 292.740015 
L 272.934149 293.467548 
L 273.132446 292.486237 
L 273.330744 292.109798 
L 273.529041 294.595916 
L 273.727339 293.550739 
L 273.925636 294.725915 
L 274.123934 294.646669 
L 274.322231 291.847735 
L 274.520529 294.73761 
L 274.718826 295.013249 
L 274.917124 292.299184 
L 275.115421 294.46354 
L 275.313719 294.737812 
L 275.710314 293.202468 
L 275.908612 295.016705 
L 276.106909 293.546214 
L 276.305207 294.221427 
L 276.503504 293.81605 
L 276.701802 293.95809 
L 276.900099 287.448349 
L 277.098397 295.138056 
L 277.693289 294.384908 
L 278.089884 291.634351 
L 278.288182 293.299455 
L 278.684777 294.429288 
L 278.883074 295.249727 
L 279.081372 293.594814 
L 279.279669 293.737657 
L 279.477967 294.409649 
L 279.676264 292.470326 
L 279.874562 293.471262 
L 280.07286 293.348482 
L 280.271157 293.978324 
L 280.469455 293.303933 
L 280.667752 294.595833 
L 280.86605 293.604275 
L 281.064347 295.193705 
L 281.262645 295.196564 
L 281.460942 293.063219 
L 281.65924 292.843033 
L 282.055835 294.992632 
L 282.254132 291.655828 
L 282.45243 294.611329 
L 282.650727 291.209806 
L 282.849025 294.020444 
L 283.047322 293.936327 
L 283.24562 294.497652 
L 283.443917 292.61064 
L 283.642215 293.688982 
L 283.840512 293.394083 
L 284.03881 293.822678 
L 284.435405 293.717376 
L 284.633702 294.16834 
L 284.832 293.211851 
L 285.030298 291.612707 
L 285.228595 294.49948 
L 285.426893 292.857952 
L 285.62519 293.283432 
L 286.021785 295.258039 
L 286.220083 294.361348 
L 286.41838 294.105441 
L 286.616678 290.98921 
L 286.814975 295.225596 
L 287.013273 293.257707 
L 287.21157 294.286728 
L 287.409868 293.703091 
L 287.608165 292.238725 
L 287.806463 293.984077 
L 288.00476 292.887045 
L 288.203058 293.802379 
L 288.79795 292.454815 
L 288.996248 288.342152 
L 289.194545 291.281789 
L 289.392843 291.082678 
L 289.59114 293.537123 
L 289.789438 294.436513 
L 289.987736 293.969831 
L 290.186033 294.568817 
L 290.384331 291.880244 
L 290.582628 291.978459 
L 290.780926 294.270521 
L 290.979223 292.311428 
L 291.177521 295.162802 
L 291.375818 294.09947 
L 291.772413 294.347069 
L 291.970711 294.943873 
L 292.169008 293.537941 
L 292.367306 294.141379 
L 292.565603 293.612649 
L 292.763901 294.43242 
L 292.962198 294.383809 
L 293.160496 293.101323 
L 293.358793 293.682089 
L 293.557091 294.659637 
L 294.151983 292.861618 
L 294.350281 293.867912 
L 294.548579 293.459667 
L 294.746876 293.532266 
L 294.945174 290.383935 
L 295.143471 293.504822 
L 295.341769 294.674438 
L 295.540066 294.13036 
L 295.738364 295.114206 
L 295.936661 291.115191 
L 296.333256 294.260594 
L 296.531554 294.032007 
L 296.729851 291.715489 
L 296.928149 294.707491 
L 297.126446 293.362069 
L 297.324744 294.784705 
L 297.523041 292.62619 
L 297.721339 294.101534 
L 298.117934 294.306165 
L 298.316231 292.369418 
L 298.514529 294.798024 
L 298.712826 294.220576 
L 298.911124 292.256898 
L 299.109421 292.844431 
L 299.307719 295.043593 
L 299.506017 294.323635 
L 299.704314 295.261229 
L 299.902612 289.573692 
L 300.100909 294.075059 
L 300.299207 294.327948 
L 300.497504 293.715975 
L 300.695802 292.614731 
L 300.894099 294.985585 
L 301.290694 293.687295 
L 301.687289 295.115873 
L 301.885587 294.196055 
L 302.083884 292.005101 
L 302.282182 293.255922 
L 302.678777 292.716915 
L 302.877074 292.809225 
L 303.075372 295.226549 
L 303.471967 292.890957 
L 303.670264 294.914838 
L 303.868562 294.501454 
L 304.06686 292.852342 
L 304.265157 294.68499 
L 304.463455 294.801398 
L 304.86005 292.852952 
L 305.058347 294.19234 
L 305.256645 294.658109 
L 305.454942 293.637398 
L 305.65324 293.643891 
L 305.851537 289.713477 
L 306.049835 294.414391 
L 306.44643 293.805511 
L 306.644727 294.376506 
L 306.843025 292.712161 
L 307.041322 292.126954 
L 307.23962 293.527613 
L 307.437917 293.131564 
L 307.636215 288.693216 
L 307.834512 292.852418 
L 308.03281 294.538919 
L 308.429405 292.762509 
L 308.627702 294.598334 
L 308.826 294.577794 
L 309.024298 293.801886 
L 309.222595 291.649414 
L 309.420893 291.933168 
L 309.61919 293.430952 
L 309.817488 291.981411 
L 310.015785 294.546291 
L 310.214083 289.705866 
L 310.41238 290.403524 
L 310.610678 291.595858 
L 310.808975 290.524767 
L 311.007273 295.008114 
L 311.20557 293.360301 
L 311.403868 293.698155 
L 311.800463 288.622602 
L 311.99876 295.125806 
L 312.197058 292.945418 
L 312.395355 293.096793 
L 312.593653 291.724584 
L 312.79195 293.354647 
L 312.990248 292.961473 
L 313.188545 293.353607 
L 313.386843 293.416798 
L 313.58514 294.075945 
L 313.783438 293.695066 
L 313.981736 294.75331 
L 314.180033 290.434692 
L 314.378331 292.401618 
L 314.576628 292.279423 
L 314.774926 294.619663 
L 314.973223 292.486254 
L 315.171521 294.759992 
L 315.369818 294.37572 
L 315.568116 287.762451 
L 315.766413 293.979805 
L 315.964711 295.075085 
L 316.163008 293.310879 
L 316.361306 293.966379 
L 316.559603 291.933875 
L 316.757901 291.92292 
L 316.956198 294.543481 
L 317.154496 294.236533 
L 317.352793 292.77362 
L 317.551091 295.01011 
L 317.947686 292.98811 
L 318.344281 294.00845 
L 318.740876 291.930436 
L 318.939174 294.810972 
L 319.137471 292.576854 
L 319.335769 293.931101 
L 319.534066 293.020977 
L 319.732364 292.875244 
L 319.930661 293.291982 
L 320.128959 294.914249 
L 320.327256 293.034153 
L 320.723851 294.536734 
L 320.922149 294.604981 
L 321.318744 293.301776 
L 321.517041 294.628619 
L 321.715339 294.441119 
L 321.913636 292.732543 
L 322.111934 292.646634 
L 322.310231 295.186007 
L 322.508529 293.795274 
L 322.706826 293.468324 
L 322.905124 295.040363 
L 323.103421 293.927662 
L 323.301719 294.102868 
L 323.500017 294.038486 
L 323.698314 292.870409 
L 324.094909 294.952622 
L 324.491504 292.671263 
L 324.689802 294.930236 
L 324.888099 291.464512 
L 325.086397 292.742248 
L 325.284694 292.161806 
L 325.482992 293.376308 
L 325.681289 292.112043 
L 325.879587 293.187045 
L 326.077884 293.32354 
L 326.276182 293.182895 
L 326.474479 294.600518 
L 326.672777 293.912283 
L 326.871074 294.212434 
L 327.069372 290.806779 
L 327.267669 292.060246 
L 327.465967 294.499698 
L 327.664264 294.34749 
L 327.862562 294.767905 
L 328.06086 293.09567 
L 328.259157 294.200861 
L 328.457455 293.356662 
L 328.655752 291.323185 
L 328.85405 293.616188 
L 329.052347 293.773185 
L 329.250645 294.38411 
L 329.448942 293.208619 
L 329.64724 294.389425 
L 329.845537 293.208987 
L 330.043835 295.229257 
L 330.242132 293.820866 
L 330.44043 293.987778 
L 330.638727 295.067917 
L 331.035322 292.328822 
L 331.431917 294.680322 
L 331.828512 292.796705 
L 332.02681 291.745857 
L 332.225107 294.672077 
L 332.423405 295.222284 
L 332.621702 294.246942 
L 332.82 294.71995 
L 333.216595 292.542776 
L 333.414893 292.799881 
L 333.61319 293.907565 
L 334.009785 294.611686 
L 334.208083 291.887172 
L 334.40638 293.421874 
L 334.802975 294.228299 
L 335.19957 294.29188 
L 335.397868 293.957076 
L 335.596165 292.735138 
L 335.794463 289.984121 
L 335.99276 294.840258 
L 336.191058 293.104872 
L 336.389355 295.241128 
L 336.587653 292.233941 
L 336.78595 293.840205 
L 336.984248 291.300741 
L 337.182545 294.931733 
L 337.380843 293.432244 
L 337.57914 290.260878 
L 337.975736 294.512534 
L 338.174033 292.644266 
L 338.372331 292.603129 
L 338.570628 294.77797 
L 338.768926 292.631344 
L 338.967223 292.564157 
L 339.165521 290.727967 
L 339.363818 294.160134 
L 339.562116 294.349531 
L 339.760413 293.208137 
L 339.958711 294.841393 
L 340.157008 294.621688 
L 340.355306 294.604717 
L 340.553603 292.133956 
L 340.751901 294.497164 
L 340.950198 294.346585 
L 341.148496 293.230472 
L 341.346793 294.315284 
L 341.545091 292.659788 
L 341.743388 292.400762 
L 341.941686 294.635364 
L 342.139983 294.657523 
L 342.338281 293.984496 
L 342.536579 294.353373 
L 342.734876 293.378736 
L 342.734876 293.378736 
" clip-path="url(#pfc098a726a)" style="fill: none; stroke: #1f77b4; stroke-width: 1.5; stroke-linecap: square"/>
   </g>
   <g id="line2d_15">
    <path d="M 104.777851 295.488 
L 104.976149 294.058421 
L 105.174446 294.41345 
L 105.372744 293.818652 
L 105.571041 294.4312 
L 105.769339 294.04829 
L 105.967636 294.460422 
L 106.364231 293.854126 
L 106.562529 294.150029 
L 106.760826 295.155465 
L 106.959124 292.351376 
L 107.157421 294.014214 
L 107.355719 292.839172 
L 107.554017 294.801052 
L 107.752314 295.056087 
L 107.950612 292.932586 
L 108.148909 294.70753 
L 108.347207 295.210291 
L 108.545504 295.109087 
L 108.743802 292.766297 
L 108.942099 294.738146 
L 109.140397 294.196514 
L 109.338694 294.913457 
L 109.536992 294.825985 
L 109.933587 293.969726 
L 110.131884 295.287514 
L 110.330182 294.81443 
L 110.528479 294.912313 
L 110.726777 294.472014 
L 110.925074 295.059371 
L 111.123372 294.442902 
L 111.321669 292.073647 
L 111.519967 293.965938 
L 111.718264 294.044234 
L 111.916562 295.247348 
L 112.11486 294.698575 
L 112.511455 294.572781 
L 112.709752 295.041424 
L 112.90805 295.096091 
L 113.106347 294.846452 
L 113.304645 295.001088 
L 113.70124 292.777275 
L 113.899537 294.995346 
L 114.097835 292.865984 
L 114.296132 294.558082 
L 114.49443 294.725164 
L 114.891025 292.798881 
L 115.089322 294.235009 
L 115.28762 293.601219 
L 115.485917 294.059431 
L 115.684215 293.283359 
L 115.882512 293.441788 
L 116.08081 292.672308 
L 116.279107 292.569734 
L 116.477405 295.015929 
L 116.874 295.173398 
L 117.072298 293.667001 
L 117.270595 294.420359 
L 117.468893 294.307363 
L 117.66719 288.850974 
L 117.865488 293.843963 
L 118.262083 292.248597 
L 118.46038 295.051981 
L 118.658678 295.06271 
L 118.856975 294.177827 
L 119.055273 294.18014 
L 119.25357 294.766675 
L 119.451868 291.96053 
L 119.650165 294.349572 
L 119.848463 295.199334 
L 120.04676 294.851755 
L 120.245058 294.772272 
L 120.443355 294.068078 
L 120.641653 295.196315 
L 120.83995 294.561136 
L 121.038248 293.415942 
L 121.434843 294.829041 
L 121.63314 294.469411 
L 121.831438 294.807808 
L 122.029736 292.53149 
L 122.228033 294.709516 
L 122.426331 293.388364 
L 122.624628 290.886617 
L 122.822926 294.504377 
L 123.021223 294.968312 
L 123.219521 294.841049 
L 123.616116 294.124971 
L 123.814413 293.631314 
L 124.012711 294.760333 
L 124.409306 294.13798 
L 124.607603 294.295767 
L 125.004198 293.172793 
L 125.202496 291.27163 
L 125.400793 294.673259 
L 125.599091 292.752805 
L 125.797388 293.308755 
L 125.995686 295.014492 
L 126.193983 293.082205 
L 126.392281 293.287228 
L 126.788876 294.349748 
L 127.185471 294.941901 
L 127.383769 293.213271 
L 127.582066 293.299889 
L 127.780364 294.914507 
L 127.978661 295.11889 
L 128.176959 294.526807 
L 128.375256 294.398233 
L 128.771851 294.439406 
L 128.970149 294.313117 
L 129.168446 294.587739 
L 129.366744 295.27044 
L 129.565041 294.354421 
L 129.763339 295.054422 
L 130.159934 293.988473 
L 130.358231 292.681905 
L 130.556529 294.553004 
L 130.953124 293.561678 
L 131.151421 294.794944 
L 131.349719 293.788848 
L 131.548017 294.157984 
L 131.746314 295.216896 
L 131.944612 295.099851 
L 132.142909 294.539599 
L 132.341207 294.465785 
L 132.539504 291.398991 
L 132.737802 294.332166 
L 132.936099 292.209844 
L 133.332694 295.273662 
L 133.530992 295.146334 
L 133.927587 292.113546 
L 134.125884 292.025076 
L 134.324182 294.694243 
L 134.522479 292.815235 
L 134.720777 294.384646 
L 135.117372 293.270921 
L 135.315669 293.161876 
L 135.513967 293.329763 
L 135.712264 293.882425 
L 135.910562 295.145332 
L 136.10886 294.484239 
L 136.307157 293.171792 
L 136.703752 294.829802 
L 137.100347 292.80357 
L 137.496942 295.27523 
L 137.69524 293.906675 
L 137.893537 295.079209 
L 138.290132 294.114752 
L 138.48843 293.941586 
L 138.686727 292.174756 
L 138.885025 295.175252 
L 139.083322 294.729239 
L 139.479917 292.644829 
L 139.678215 294.40611 
L 139.876512 294.254166 
L 140.07481 295.105486 
L 140.273107 295.143091 
L 140.471405 294.495307 
L 140.669702 292.737521 
L 140.868 295.195463 
L 141.066298 294.599548 
L 141.462893 292.517591 
L 141.66119 293.06434 
L 141.859488 294.079755 
L 142.057785 293.47139 
L 142.256083 294.289285 
L 142.652678 293.635564 
L 142.850975 295.252462 
L 143.049273 294.06113 
L 143.24757 294.964596 
L 143.445868 294.956822 
L 143.644165 292.976809 
L 143.842463 294.502067 
L 144.04076 294.764336 
L 144.239058 293.548626 
L 144.437355 293.706252 
L 144.635653 293.233816 
L 144.83395 293.145856 
L 145.032248 293.896082 
L 145.230545 293.745298 
L 145.428843 293.098686 
L 145.62714 294.921627 
L 145.825438 294.95496 
L 146.023736 293.996238 
L 146.222033 292.336876 
L 146.618628 294.600854 
L 146.816926 294.395212 
L 147.015223 293.485337 
L 147.213521 294.664541 
L 147.411818 292.036655 
L 147.808413 293.840669 
L 148.006711 294.018898 
L 148.205008 293.256604 
L 148.403306 295.1763 
L 148.601603 294.963563 
L 148.799901 291.951599 
L 148.998198 295.301453 
L 149.196496 292.017996 
L 149.593091 295.250322 
L 149.791388 294.767036 
L 149.989686 294.724524 
L 150.187983 294.201178 
L 150.386281 294.749508 
L 150.584579 291.87484 
L 150.782876 294.982754 
L 150.981174 294.039374 
L 151.179471 294.821834 
L 151.377769 294.705841 
L 151.576066 294.364493 
L 151.774364 291.801989 
L 151.972661 294.678554 
L 152.170959 294.176072 
L 152.369256 295.166839 
L 152.567554 294.145268 
L 152.964149 294.712362 
L 153.162446 292.568917 
L 153.360744 294.896151 
L 153.559041 294.213867 
L 153.757339 291.576334 
L 153.955636 294.115407 
L 154.153934 294.781984 
L 154.352231 292.998415 
L 154.550529 295.23492 
L 154.748826 294.475037 
L 154.947124 294.350269 
L 155.145421 294.391495 
L 155.343719 294.019983 
L 155.542017 293.195872 
L 155.938612 295.281014 
L 156.731802 294.147845 
L 157.326694 295.278277 
L 157.524992 293.913711 
L 157.723289 293.988216 
L 157.921587 295.074897 
L 158.119884 293.145126 
L 158.318182 293.281102 
L 158.516479 294.636884 
L 158.714777 294.501905 
L 158.913074 292.905621 
L 159.309669 294.968352 
L 159.507967 293.472913 
L 159.706264 294.434407 
L 159.904562 294.075282 
L 160.10286 293.389718 
L 160.301157 294.487005 
L 160.499455 294.551387 
L 160.697752 293.357706 
L 161.094347 294.347018 
L 161.292645 293.929072 
L 161.490942 295.161624 
L 161.887537 294.783399 
L 162.085835 294.112051 
L 162.284132 295.192219 
L 162.48243 293.567063 
L 162.680727 294.283853 
L 162.879025 292.694266 
L 163.077322 294.1921 
L 163.473917 292.770035 
L 163.672215 294.524316 
L 163.870512 294.137341 
L 164.06881 294.576627 
L 164.267107 294.586406 
L 164.465405 294.857216 
L 164.663702 293.949198 
L 164.862 293.989711 
L 165.060298 294.370609 
L 165.258595 293.646488 
L 165.456893 291.828956 
L 165.65519 295.028287 
L 165.853488 289.594426 
L 166.051785 293.786584 
L 166.250083 294.001618 
L 166.646678 295.158764 
L 166.844975 294.673233 
L 167.043273 291.39448 
L 167.24157 294.255747 
L 167.439868 294.599509 
L 167.638165 293.676863 
L 167.836463 293.53611 
L 168.03476 293.570577 
L 168.233058 293.870005 
L 168.431355 293.079353 
L 169.026248 294.876146 
L 169.224545 294.56481 
L 169.422843 293.486671 
L 169.62114 295.296554 
L 169.819438 294.797688 
L 170.017736 294.664501 
L 170.216033 293.28749 
L 170.414331 295.167557 
L 170.612628 293.524362 
L 171.009223 295.011553 
L 171.207521 291.470107 
L 171.405818 294.061924 
L 171.604116 294.821953 
L 171.802413 294.837278 
L 172.000711 292.978611 
L 172.199008 295.094776 
L 172.397306 295.09085 
L 172.595603 291.347148 
L 172.793901 293.959772 
L 172.992198 291.867576 
L 173.190496 294.519247 
L 173.388793 293.282594 
L 173.587091 293.82409 
L 173.983686 293.626527 
L 174.181983 293.634237 
L 174.380281 294.808248 
L 174.578579 293.567619 
L 174.975174 295.1484 
L 175.173471 294.560227 
L 175.371769 292.952469 
L 175.570066 294.097118 
L 175.768364 294.333996 
L 175.966661 294.202564 
L 176.164959 293.665392 
L 176.363256 295.074642 
L 176.561554 294.029395 
L 176.759851 295.185455 
L 176.958149 294.501206 
L 177.156446 294.42581 
L 177.354744 294.623604 
L 177.553041 292.921714 
L 177.751339 294.436631 
L 177.949636 294.429867 
L 178.147934 294.24996 
L 178.346231 294.530688 
L 178.544529 294.251906 
L 178.742826 294.392541 
L 178.941124 294.946906 
L 179.139421 293.942499 
L 179.337719 294.641197 
L 179.536017 293.966937 
L 179.734314 294.06649 
L 179.932612 292.744012 
L 180.130909 294.339064 
L 180.329207 294.436467 
L 180.527504 292.792348 
L 180.725802 294.367164 
L 180.924099 293.442397 
L 181.122397 294.712679 
L 181.518992 291.229103 
L 181.717289 294.374489 
L 181.915587 294.651072 
L 182.113884 295.298131 
L 182.708777 293.329238 
L 183.303669 295.040872 
L 183.501967 292.110793 
L 183.700264 291.107254 
L 183.898562 293.211685 
L 184.09686 294.115721 
L 184.295157 292.829744 
L 184.493455 294.263422 
L 184.691752 294.777019 
L 184.89005 294.95886 
L 185.088347 293.695309 
L 185.484942 293.365407 
L 185.68324 294.623888 
L 185.881537 294.78274 
L 186.47643 294.319552 
L 186.674727 294.742461 
L 186.873025 294.074379 
L 187.071322 292.277561 
L 187.26962 294.750688 
L 187.467917 293.801405 
L 187.666215 294.232604 
L 187.864512 294.335072 
L 188.06281 292.194614 
L 188.261107 294.195815 
L 188.459405 294.672677 
L 188.657702 293.089543 
L 188.856 294.143587 
L 189.054298 294.130628 
L 189.450893 294.560728 
L 189.64919 294.330825 
L 189.847488 295.053254 
L 190.045785 294.353816 
L 190.244083 293.149784 
L 190.44238 294.634303 
L 190.640678 294.065103 
L 190.838975 294.96138 
L 191.037273 293.506818 
L 191.23557 294.581142 
L 191.433868 293.233276 
L 191.830463 294.151976 
L 192.02876 294.5743 
L 192.227058 293.421444 
L 192.425355 291.359953 
L 192.623653 294.188394 
L 192.82195 293.961982 
L 193.020248 292.535276 
L 193.218545 294.705761 
L 193.416843 294.013657 
L 193.61514 294.740677 
L 193.813438 294.916914 
L 194.011736 294.680597 
L 194.210033 295.338542 
L 194.408331 290.428412 
L 194.606628 294.633939 
L 194.804926 291.185188 
L 195.003223 292.491372 
L 195.201521 295.172041 
L 195.399818 294.180093 
L 195.598116 294.371845 
L 195.796413 294.197379 
L 195.994711 294.814231 
L 196.193008 294.530798 
L 196.391306 293.522126 
L 196.589603 294.690125 
L 196.787901 292.882838 
L 196.986198 294.162024 
L 197.184496 292.377286 
L 197.382793 294.573333 
L 197.581091 294.736437 
L 197.779388 294.634246 
L 197.977686 292.940013 
L 198.175983 293.435116 
L 198.374281 295.039409 
L 198.572579 292.991361 
L 198.770876 294.704065 
L 198.969174 294.230679 
L 199.167471 292.825158 
L 199.365769 293.225939 
L 199.564066 294.423569 
L 199.762364 294.698106 
L 199.960661 294.014104 
L 200.158959 294.672911 
L 200.357256 294.629597 
L 200.555554 294.327455 
L 200.753851 292.755336 
L 200.952149 295.142432 
L 201.150446 293.319418 
L 201.348744 293.942477 
L 201.547041 293.298656 
L 201.745339 293.667195 
L 201.943636 295.056243 
L 202.538529 292.75869 
L 202.736826 294.637769 
L 202.935124 293.998391 
L 203.133421 292.195166 
L 203.331719 294.745917 
L 203.530017 294.186127 
L 203.728314 294.805895 
L 203.926612 292.348084 
L 204.124909 294.509537 
L 204.323207 292.913678 
L 204.521504 294.675946 
L 204.719802 294.940371 
L 204.918099 294.649841 
L 205.314694 295.325887 
L 205.512992 293.792638 
L 205.711289 294.912291 
L 205.909587 293.775392 
L 206.107884 293.651414 
L 206.306182 293.378603 
L 206.504479 290.946789 
L 206.702777 294.16035 
L 206.901074 293.214636 
L 207.099372 294.220412 
L 207.297669 293.867101 
L 207.495967 294.185127 
L 207.694264 294.026749 
L 207.892562 295.031523 
L 208.09086 294.868261 
L 208.289157 293.345344 
L 208.487455 294.399248 
L 208.685752 294.276307 
L 208.88405 294.683466 
L 209.082347 293.944734 
L 209.280645 294.344888 
L 209.478942 294.224351 
L 209.67724 294.507402 
L 209.875537 294.373349 
L 210.073835 295.12707 
L 210.272132 292.10092 
L 210.47043 294.719594 
L 210.668727 295.080042 
L 210.867025 293.19349 
L 211.065322 293.13362 
L 211.26362 294.985885 
L 211.461917 294.407049 
L 211.660215 294.960907 
L 212.05681 294.044969 
L 212.255107 294.637427 
L 212.453405 293.946088 
L 212.651702 295.1808 
L 212.85 295.2617 
L 213.048298 294.728045 
L 213.246595 294.634634 
L 213.444893 293.590965 
L 213.64319 293.883075 
L 213.841488 295.102167 
L 214.039785 294.351241 
L 214.238083 295.061404 
L 214.43638 294.989505 
L 214.832975 294.106507 
L 215.031273 293.688798 
L 215.22957 292.515238 
L 215.427868 294.950849 
L 215.626165 292.839026 
L 215.824463 294.858747 
L 216.02276 294.579253 
L 216.419355 295.142988 
L 216.617653 292.241139 
L 216.81595 294.202134 
L 217.014248 292.322164 
L 217.212545 294.890468 
L 217.410843 294.513681 
L 217.60914 294.432689 
L 217.807438 293.757047 
L 218.005736 295.254093 
L 218.600628 292.685937 
L 218.798926 294.587196 
L 218.997223 294.811322 
L 219.195521 293.891845 
L 219.393818 291.423669 
L 219.592116 293.898143 
L 219.790413 293.704294 
L 219.988711 293.735208 
L 220.187008 294.200315 
L 220.385306 292.780687 
L 220.781901 294.347246 
L 220.980198 292.668047 
L 221.178496 294.884641 
L 221.376793 295.137443 
L 221.773388 294.43374 
L 222.169983 294.943609 
L 222.566579 293.452981 
L 222.764876 294.41077 
L 222.963174 293.994211 
L 223.161471 294.252667 
L 223.359769 295.111366 
L 223.558066 295.284807 
L 223.756364 294.753186 
L 223.954661 291.990742 
L 224.152959 292.556716 
L 224.351256 294.103708 
L 224.549554 294.166389 
L 224.747851 292.769704 
L 224.946149 293.927688 
L 225.144446 294.238679 
L 225.342744 293.274866 
L 225.541041 294.367615 
L 225.739339 290.812527 
L 226.334231 293.9153 
L 226.532529 293.619298 
L 226.730826 295.294152 
L 226.929124 294.838048 
L 227.127421 293.74807 
L 227.325719 294.290087 
L 227.524017 295.177863 
L 227.722314 294.353753 
L 227.920612 294.805433 
L 228.317207 294.472654 
L 228.515504 294.599718 
L 228.713802 294.974514 
L 228.912099 293.917714 
L 229.110397 294.187319 
L 229.308694 293.738674 
L 229.506992 294.59512 
L 229.705289 294.671082 
L 229.903587 292.007033 
L 230.101884 292.378463 
L 230.300182 293.036288 
L 230.498479 295.253504 
L 230.696777 292.445292 
L 230.895074 292.898124 
L 231.093372 294.964554 
L 231.291669 293.593662 
L 231.489967 294.719845 
L 231.688264 295.001602 
L 232.283157 294.536265 
L 232.481455 293.733939 
L 232.679752 293.835461 
L 232.87805 295.247197 
L 233.076347 293.654864 
L 233.274645 294.87589 
L 233.472942 293.961696 
L 233.67124 294.944782 
L 233.869537 293.468454 
L 234.067835 294.595623 
L 234.266132 292.81678 
L 234.662727 293.920816 
L 234.861025 288.313992 
L 235.059322 294.614642 
L 235.25762 292.383477 
L 235.455917 294.711812 
L 235.654215 294.725751 
L 235.852512 294.968165 
L 236.05081 294.838892 
L 236.249107 294.427018 
L 236.447405 293.155942 
L 236.645702 294.611504 
L 236.844 293.711835 
L 237.042298 294.171575 
L 237.240595 294.293275 
L 237.438893 294.818939 
L 237.63719 294.104738 
L 237.835488 291.436138 
L 238.033785 295.263511 
L 238.232083 294.662786 
L 238.43038 293.663147 
L 238.628678 293.429688 
L 238.826975 295.069476 
L 239.025273 295.047575 
L 239.22357 294.393718 
L 239.421868 294.85035 
L 239.620165 294.739191 
L 239.818463 293.790559 
L 240.01676 294.517981 
L 240.215058 292.094378 
L 240.611653 295.100089 
L 240.80995 295.077281 
L 241.008248 291.740901 
L 241.206545 294.203108 
L 241.404843 294.586167 
L 241.801438 293.957179 
L 241.999736 295.167026 
L 242.198033 294.487678 
L 242.396331 295.401893 
L 242.792926 293.579022 
L 242.991223 293.622421 
L 243.387818 294.774815 
L 243.784413 293.733593 
L 243.982711 293.752298 
L 244.181008 294.420615 
L 244.379306 291.764084 
L 244.577603 293.858075 
L 244.775901 294.094705 
L 244.974198 293.859544 
L 245.172496 295.037185 
L 245.569091 292.674117 
L 245.767388 294.382096 
L 245.965686 291.596762 
L 246.163983 294.778091 
L 246.362281 295.184841 
L 246.560579 294.425578 
L 246.758876 294.151083 
L 246.957174 293.586159 
L 247.155471 292.668231 
L 247.353769 294.846652 
L 247.552066 294.686397 
L 248.146959 294.981682 
L 248.345256 291.98971 
L 248.543554 295.154217 
L 248.741851 292.911847 
L 248.940149 294.812758 
L 249.138446 295.215275 
L 249.336744 294.403571 
L 249.535041 295.152014 
L 249.733339 294.946417 
L 249.931636 295.2018 
L 250.129934 293.787324 
L 250.328231 294.471583 
L 250.526529 294.34058 
L 250.724826 295.281554 
L 251.121421 293.251635 
L 251.319719 294.269057 
L 251.716314 294.805388 
L 251.914612 294.050102 
L 252.112909 294.405386 
L 252.311207 293.320338 
L 252.509504 294.969638 
L 252.707802 293.209907 
L 252.906099 292.986653 
L 253.104397 295.11821 
L 253.302694 294.712949 
L 253.500992 293.779851 
L 253.699289 294.817364 
L 253.897587 294.776558 
L 254.095884 294.543178 
L 254.294182 294.960129 
L 254.492479 293.724444 
L 254.690777 294.723741 
L 254.889074 292.459026 
L 255.087372 292.906304 
L 255.285669 293.99136 
L 255.483967 294.120756 
L 255.682264 293.969354 
L 255.880562 294.974217 
L 256.07886 293.371074 
L 256.277157 294.288874 
L 256.475455 294.643041 
L 256.673752 294.494461 
L 256.87205 293.597394 
L 257.268645 295.195813 
L 257.466942 294.875963 
L 257.66524 295.157623 
L 258.260132 293.215999 
L 258.45843 293.961481 
L 258.855025 293.68405 
L 259.053322 295.310812 
L 259.25162 294.29663 
L 259.648215 294.605367 
L 259.846512 290.610821 
L 260.04481 294.618764 
L 260.243107 294.328082 
L 260.441405 294.947129 
L 260.639702 293.089225 
L 260.838 292.886101 
L 261.036298 294.134217 
L 261.234595 291.765323 
L 261.432893 291.785239 
L 261.829488 294.938229 
L 262.027785 295.167325 
L 262.226083 292.939099 
L 262.622678 294.536487 
L 262.820975 294.870765 
L 263.21757 293.741594 
L 263.415868 294.168062 
L 263.614165 293.527737 
L 263.812463 293.825365 
L 264.01076 294.429801 
L 264.209058 292.776372 
L 264.407355 295.220134 
L 264.80395 291.971529 
L 265.002248 294.153117 
L 265.200545 294.600916 
L 265.398843 293.95614 
L 265.59714 295.299496 
L 265.993736 292.413219 
L 266.192033 293.188972 
L 266.390331 292.783203 
L 266.588628 294.465685 
L 266.786926 294.226072 
L 267.183521 292.769214 
L 267.381818 294.788169 
L 267.580116 295.263612 
L 267.778413 291.817244 
L 267.976711 294.530193 
L 268.175008 294.697289 
L 268.373306 294.238364 
L 268.571603 291.676594 
L 268.769901 293.898715 
L 268.968198 294.58756 
L 269.166496 293.613385 
L 269.364793 294.982364 
L 269.563091 294.625888 
L 269.761388 292.329915 
L 269.959686 295.067743 
L 270.157983 293.857769 
L 270.356281 289.5898 
L 270.554579 294.866139 
L 270.752876 291.81771 
L 270.951174 294.852929 
L 271.149471 294.202576 
L 271.347769 294.627798 
L 271.546066 294.44193 
L 271.744364 293.603395 
L 272.140959 294.632929 
L 272.339256 294.54378 
L 272.735851 292.768162 
L 272.934149 294.792094 
L 273.132446 292.509285 
L 273.330744 295.28543 
L 273.529041 295.092942 
L 273.727339 293.864683 
L 273.925636 294.775084 
L 274.123934 293.910839 
L 274.322231 293.715951 
L 274.520529 293.835751 
L 274.718826 294.361661 
L 274.917124 294.353232 
L 275.115421 294.22919 
L 275.313719 293.016841 
L 275.512017 294.292893 
L 275.710314 294.819516 
L 275.908612 293.515201 
L 276.106909 294.972318 
L 276.305207 294.809797 
L 276.503504 293.498065 
L 276.701802 293.625982 
L 276.900099 294.194347 
L 277.098397 295.239521 
L 277.494992 292.928727 
L 277.693289 294.757451 
L 277.891587 294.186318 
L 278.089884 292.875022 
L 278.486479 294.833054 
L 278.684777 294.887066 
L 278.883074 294.141165 
L 279.081372 294.03812 
L 279.279669 294.819837 
L 279.477967 294.692733 
L 279.676264 293.914919 
L 279.874562 291.752809 
L 280.07286 294.579018 
L 280.271157 293.257143 
L 280.469455 293.372251 
L 280.667752 294.697088 
L 280.86605 293.95296 
L 281.064347 294.112979 
L 281.262645 294.541606 
L 281.460942 294.112846 
L 281.857537 295.139975 
L 282.055835 295.080194 
L 282.254132 292.955398 
L 282.45243 295.161778 
L 282.650727 295.222703 
L 282.849025 294.346784 
L 283.047322 295.300466 
L 283.443917 291.605016 
L 283.642215 291.365795 
L 283.840512 292.515774 
L 284.03881 294.553747 
L 284.237107 295.247459 
L 284.435405 294.044809 
L 284.633702 294.861006 
L 284.832 292.804916 
L 285.030298 294.981305 
L 285.228595 294.027159 
L 285.426893 294.886142 
L 285.62519 293.981186 
L 285.823488 294.298997 
L 286.021785 295.045531 
L 286.220083 293.199605 
L 286.41838 294.128803 
L 286.616678 293.653934 
L 286.814975 293.973822 
L 287.013273 295.290645 
L 287.21157 294.142542 
L 287.409868 293.852357 
L 287.608165 294.317046 
L 287.806463 291.200074 
L 288.00476 294.168092 
L 288.203058 291.784678 
L 288.401355 292.522005 
L 288.599653 294.882546 
L 288.79795 294.271347 
L 288.996248 295.188354 
L 289.194545 293.051385 
L 289.392843 292.908794 
L 289.59114 294.836851 
L 289.789438 293.057681 
L 290.186033 294.94454 
L 290.384331 293.693839 
L 290.780926 294.805773 
L 290.979223 293.904089 
L 291.177521 295.313092 
L 291.375818 295.218693 
L 291.574116 294.978537 
L 291.772413 293.245556 
L 291.970711 295.12846 
L 292.169008 293.364636 
L 292.367306 293.529616 
L 292.565603 295.209883 
L 292.763901 292.897181 
L 292.962198 294.610983 
L 293.160496 293.81566 
L 293.358793 294.329754 
L 293.557091 294.386612 
L 293.755388 294.76999 
L 293.953686 293.167269 
L 294.151983 294.199609 
L 294.350281 294.496035 
L 294.548579 293.171065 
L 294.746876 294.743097 
L 294.945174 294.513763 
L 295.143471 293.769926 
L 295.341769 294.839606 
L 295.540066 294.586633 
L 295.738364 294.681867 
L 295.936661 294.627458 
L 296.134959 293.76838 
L 296.333256 295.130183 
L 296.531554 294.167791 
L 296.729851 295.109835 
L 296.928149 294.137202 
L 297.126446 295.007131 
L 297.324744 294.519489 
L 297.523041 294.385883 
L 297.721339 295.256828 
L 297.919636 294.1076 
L 298.117934 294.226984 
L 298.316231 293.716244 
L 298.514529 294.469119 
L 298.712826 293.63846 
L 298.911124 294.965128 
L 299.109421 294.65382 
L 299.307719 293.052526 
L 299.506017 292.996765 
L 299.704314 295.228295 
L 299.902612 294.008162 
L 300.100909 293.961114 
L 300.299207 295.288519 
L 300.497504 293.282918 
L 300.695802 294.743395 
L 300.894099 294.986782 
L 301.092397 292.832135 
L 301.290694 292.365103 
L 301.488992 295.372116 
L 301.687289 294.569059 
L 301.885587 292.318204 
L 302.083884 294.320915 
L 302.282182 295.118165 
L 302.480479 293.85898 
L 302.678777 294.00279 
L 302.877074 294.590006 
L 303.075372 293.888049 
L 303.273669 295.23919 
L 303.471967 292.106819 
L 303.670264 294.731197 
L 303.868562 292.04418 
L 304.06686 291.686694 
L 304.265157 293.45717 
L 304.463455 293.567727 
L 304.661752 294.921255 
L 304.86005 294.021513 
L 305.058347 294.159289 
L 305.256645 293.779493 
L 305.454942 294.984864 
L 305.65324 294.564804 
L 305.851537 293.484745 
L 306.049835 294.94612 
L 306.248132 293.865548 
L 306.44643 295.166098 
L 306.644727 294.730923 
L 306.843025 293.538982 
L 307.23962 294.915242 
L 307.437917 294.425286 
L 307.834512 294.911909 
L 308.03281 293.565663 
L 308.231107 294.493079 
L 308.429405 293.587608 
L 308.826 294.992749 
L 309.024298 294.520456 
L 309.222595 294.641858 
L 309.420893 294.338949 
L 309.61919 294.443575 
L 309.817488 295.240509 
L 310.015785 294.180178 
L 310.214083 294.620837 
L 310.41238 292.879736 
L 310.610678 295.148502 
L 310.808975 294.929545 
L 311.007273 293.5443 
L 311.20557 293.859154 
L 311.403868 295.16358 
L 311.602165 293.49788 
L 311.800463 294.68529 
L 311.99876 294.38703 
L 312.197058 293.484985 
L 312.395355 293.748363 
L 312.79195 295.266667 
L 312.990248 294.894479 
L 313.188545 295.101263 
L 313.386843 294.994009 
L 313.58514 294.068402 
L 313.783438 293.707178 
L 313.981736 294.136978 
L 314.180033 293.034534 
L 314.378331 289.387843 
L 314.576628 294.462949 
L 314.774926 293.54933 
L 314.973223 294.496757 
L 315.171521 294.466861 
L 315.369818 294.874882 
L 315.568116 293.599711 
L 315.766413 294.992134 
L 316.163008 292.261839 
L 316.361306 294.71763 
L 316.757901 294.56078 
L 316.956198 291.976166 
L 317.154496 293.882251 
L 317.352793 293.584156 
L 317.551091 294.232195 
L 317.749388 293.767685 
L 317.947686 294.95916 
L 318.145983 293.631239 
L 318.344281 290.980812 
L 318.740876 295.008484 
L 318.939174 292.216134 
L 319.137471 294.662019 
L 319.335769 292.771012 
L 319.534066 295.104571 
L 319.732364 293.285329 
L 319.930661 294.412242 
L 320.327256 294.910737 
L 320.525554 292.854259 
L 320.723851 294.744115 
L 320.922149 295.174082 
L 321.120446 292.329316 
L 321.517041 294.135831 
L 321.715339 294.655868 
L 321.913636 294.373027 
L 322.111934 292.493176 
L 322.310231 294.988075 
L 322.508529 294.911708 
L 322.706826 293.459832 
L 322.905124 295.032057 
L 323.103421 293.763504 
L 323.301719 295.213602 
L 323.896612 293.953629 
L 324.094909 295.241258 
L 324.293207 294.16942 
L 324.491504 294.676724 
L 324.689802 293.103238 
L 324.888099 293.885919 
L 325.086397 293.801689 
L 325.284694 294.871925 
L 325.482992 292.445518 
L 325.681289 294.702586 
L 325.879587 294.612127 
L 326.077884 294.86736 
L 326.276182 293.339969 
L 326.474479 295.112223 
L 326.871074 294.550069 
L 327.267669 291.346364 
L 327.465967 294.085886 
L 327.664264 294.06289 
L 327.862562 293.21248 
L 328.06086 294.156229 
L 328.259157 293.699422 
L 328.457455 295.263719 
L 328.85405 294.985396 
L 329.052347 294.393691 
L 329.250645 291.376344 
L 329.448942 294.756674 
L 329.64724 294.884439 
L 329.845537 293.061903 
L 330.043835 294.032622 
L 330.242132 293.075719 
L 330.44043 294.631422 
L 330.638727 293.816064 
L 330.837025 293.486631 
L 331.035322 294.691716 
L 331.23362 295.051407 
L 331.431917 293.894275 
L 331.630215 293.994471 
L 331.828512 294.847381 
L 332.225107 291.609827 
L 332.423405 293.582565 
L 332.621702 293.271262 
L 332.82 294.671192 
L 333.018298 293.057324 
L 333.216595 292.565678 
L 333.414893 294.309224 
L 333.61319 294.456276 
L 333.811488 293.231386 
L 334.009785 293.739343 
L 334.208083 295.244457 
L 334.40638 293.980487 
L 334.604678 293.529063 
L 334.802975 295.176997 
L 335.001273 292.239179 
L 335.19957 295.132053 
L 335.397868 294.441766 
L 335.596165 295.167146 
L 335.794463 293.503126 
L 335.99276 294.977419 
L 336.191058 293.243341 
L 336.389355 293.728477 
L 336.587653 294.822724 
L 336.78595 295.247782 
L 336.984248 292.438796 
L 337.182545 294.456462 
L 337.380843 293.361701 
L 337.57914 294.827946 
L 337.777438 293.469418 
L 337.975736 295.322336 
L 338.372331 294.011815 
L 338.570628 295.158828 
L 338.768926 291.161035 
L 338.967223 294.908641 
L 339.165521 295.408985 
L 339.562116 295.132928 
L 339.760413 294.411994 
L 339.958711 292.448011 
L 340.157008 294.221685 
L 340.355306 293.417368 
L 340.553603 295.295641 
L 340.751901 294.171849 
L 340.950198 294.849522 
L 341.148496 294.673148 
L 341.346793 295.151848 
L 341.743388 293.333644 
L 341.941686 294.875276 
L 342.139983 289.904611 
L 342.338281 294.376338 
L 342.734876 292.694078 
L 342.734876 292.694078 
" clip-path="url(#pfc098a726a)" style="fill: none; stroke: #ff7f0e; stroke-width: 1.5; stroke-linecap: square"/>
   </g>
   <g id="patch_3">
    <path d="M 92.88 307.584 
L 92.88 41.472 
" style="fill: none; stroke: #000000; stroke-width: 0.8; stroke-linejoin: miter; stroke-linecap: square"/>
   </g>
   <g id="patch_4">
    <path d="M 354.632727 307.584 
L 354.632727 41.472 
" style="fill: none; stroke: #000000; stroke-width: 0.8; stroke-linejoin: miter; stroke-linecap: square"/>
   </g>
   <g id="patch_5">
    <path d="M 92.88 307.584 
L 354.632727 307.584 
" style="fill: none; stroke: #000000; stroke-width: 0.8; stroke-linejoin: miter; stroke-linecap: square"/>
   </g>
   <g id="patch_6">
    <path d="M 92.88 41.472 
L 354.632727 41.472 
" style="fill: none; stroke: #000000; stroke-width: 0.8; stroke-linejoin: miter; stroke-linecap: square"/>
   </g>
   <g id="text_14">
    <!-- Training Loss -->
    <g transform="translate(185.017926 35.472) scale(0.12 -0.12)">
     <defs>
      <path id="DejaVuSans-54" d="M -19 4666 
L 3928 4666 
L 3928 4134 
L 2272 4134 
L 2272 0 
L 1638 0 
L 1638 4134 
L -19 4134 
L -19 4666 
z
" transform="scale(0.015625)"/>
      <path id="DejaVuSans-72" d="M 2631 2963 
Q 2534 3019 2420 3045 
Q 2306 3072 2169 3072 
Q 1681 3072 1420 2755 
Q 1159 2438 1159 1844 
L 1159 0 
L 581 0 
L 581 3500 
L 1159 3500 
L 1159 2956 
Q 1341 3275 1631 3429 
Q 1922 3584 2338 3584 
Q 2397 3584 2469 3576 
Q 2541 3569 2628 3553 
L 2631 2963 
z
" transform="scale(0.015625)"/>
      <path id="DejaVuSans-61" d="M 2194 1759 
Q 1497 1759 1228 1600 
Q 959 1441 959 1056 
Q 959 750 1161 570 
Q 1363 391 1709 391 
Q 2188 391 2477 730 
Q 2766 1069 2766 1631 
L 2766 1759 
L 2194 1759 
z
M 3341 1997 
L 3341 0 
L 2766 0 
L 2766 531 
Q 2569 213 2275 61 
Q 1981 -91 1556 -91 
Q 1019 -91 701 211 
Q 384 513 384 1019 
Q 384 1609 779 1909 
Q 1175 2209 1959 2209 
L 2766 2209 
L 2766 2266 
Q 2766 2663 2505 2880 
Q 2244 3097 1772 3097 
Q 1472 3097 1187 3025 
Q 903 2953 641 2809 
L 641 3341 
Q 956 3463 1253 3523 
Q 1550 3584 1831 3584 
Q 2591 3584 2966 3190 
Q 3341 2797 3341 1997 
z
" transform="scale(0.015625)"/>
      <path id="DejaVuSans-69" d="M 603 3500 
L 1178 3500 
L 1178 0 
L 603 0 
L 603 3500 
z
M 603 4863 
L 1178 4863 
L 1178 4134 
L 603 4134 
L 603 4863 
z
" transform="scale(0.015625)"/>
      <path id="DejaVuSans-6e" d="M 3513 2113 
L 3513 0 
L 2938 0 
L 2938 2094 
Q 2938 2591 2744 2837 
Q 2550 3084 2163 3084 
Q 1697 3084 1428 2787 
Q 1159 2491 1159 1978 
L 1159 0 
L 581 0 
L 581 3500 
L 1159 3500 
L 1159 2956 
Q 1366 3272 1645 3428 
Q 1925 3584 2291 3584 
Q 2894 3584 3203 3211 
Q 3513 2838 3513 2113 
z
" transform="scale(0.015625)"/>
      <path id="DejaVuSans-67" d="M 2906 1791 
Q 2906 2416 2648 2759 
Q 2391 3103 1925 3103 
Q 1463 3103 1205 2759 
Q 947 2416 947 1791 
Q 947 1169 1205 825 
Q 1463 481 1925 481 
Q 2391 481 2648 825 
Q 2906 1169 2906 1791 
z
M 3481 434 
Q 3481 -459 3084 -895 
Q 2688 -1331 1869 -1331 
Q 1566 -1331 1297 -1286 
Q 1028 -1241 775 -1147 
L 775 -588 
Q 1028 -725 1275 -790 
Q 1522 -856 1778 -856 
Q 2344 -856 2625 -561 
Q 2906 -266 2906 331 
L 2906 616 
Q 2728 306 2450 153 
Q 2172 0 1784 0 
Q 1141 0 747 490 
Q 353 981 353 1791 
Q 353 2603 747 3093 
Q 1141 3584 1784 3584 
Q 2172 3584 2450 3431 
Q 2728 3278 2906 2969 
L 2906 3500 
L 3481 3500 
L 3481 434 
z
" transform="scale(0.015625)"/>
      <path id="DejaVuSans-20" transform="scale(0.015625)"/>
      <path id="DejaVuSans-4c" d="M 628 4666 
L 1259 4666 
L 1259 531 
L 3531 531 
L 3531 0 
L 628 0 
L 628 4666 
z
" transform="scale(0.015625)"/>
      <path id="DejaVuSans-6f" d="M 1959 3097 
Q 1497 3097 1228 2736 
Q 959 2375 959 1747 
Q 959 1119 1226 758 
Q 1494 397 1959 397 
Q 2419 397 2687 759 
Q 2956 1122 2956 1747 
Q 2956 2369 2687 2733 
Q 2419 3097 1959 3097 
z
M 1959 3584 
Q 2709 3584 3137 3096 
Q 3566 2609 3566 1747 
Q 3566 888 3137 398 
Q 2709 -91 1959 -91 
Q 1206 -91 779 398 
Q 353 888 353 1747 
Q 353 2609 779 3096 
Q 1206 3584 1959 3584 
z
" transform="scale(0.015625)"/>
      <path id="DejaVuSans-73" d="M 2834 3397 
L 2834 2853 
Q 2591 2978 2328 3040 
Q 2066 3103 1784 3103 
Q 1356 3103 1142 2972 
Q 928 2841 928 2578 
Q 928 2378 1081 2264 
Q 1234 2150 1697 2047 
L 1894 2003 
Q 2506 1872 2764 1633 
Q 3022 1394 3022 966 
Q 3022 478 2636 193 
Q 2250 -91 1575 -91 
Q 1294 -91 989 -36 
Q 684 19 347 128 
L 347 722 
Q 666 556 975 473 
Q 1284 391 1588 391 
Q 1994 391 2212 530 
Q 2431 669 2431 922 
Q 2431 1156 2273 1281 
Q 2116 1406 1581 1522 
L 1381 1569 
Q 847 1681 609 1914 
Q 372 2147 372 2553 
Q 372 3047 722 3315 
Q 1072 3584 1716 3584 
Q 2034 3584 2315 3537 
Q 2597 3491 2834 3397 
z
" transform="scale(0.015625)"/>
     </defs>
     <use xlink:href="#DejaVuSans-54"/>
     <use xlink:href="#DejaVuSans-72" x="46.333984"/>
     <use xlink:href="#DejaVuSans-61" x="87.447266"/>
     <use xlink:href="#DejaVuSans-69" x="148.726562"/>
     <use xlink:href="#DejaVuSans-6e" x="176.509766"/>
     <use xlink:href="#DejaVuSans-69" x="239.888672"/>
     <use xlink:href="#DejaVuSans-6e" x="267.671875"/>
     <use xlink:href="#DejaVuSans-67" x="331.050781"/>
     <use xlink:href="#DejaVuSans-20" x="394.527344"/>
     <use xlink:href="#DejaVuSans-4c" x="426.314453"/>
     <use xlink:href="#DejaVuSans-6f" x="480.277344"/>
     <use xlink:href="#DejaVuSans-73" x="541.458984"/>
     <use xlink:href="#DejaVuSans-73" x="593.558594"/>
    </g>
   </g>
   <g id="legend_1">
    <g id="patch_7">
     <path d="M 293.687415 78.82825 
L 347.632727 78.82825 
Q 349.632727 78.82825 349.632727 76.82825 
L 349.632727 48.472 
Q 349.632727 46.472 347.632727 46.472 
L 293.687415 46.472 
Q 291.687415 46.472 291.687415 48.472 
L 291.687415 76.82825 
Q 291.687415 78.82825 293.687415 78.82825 
z
" style="fill: #ffffff; opacity: 0.8; stroke: #cccccc; stroke-linejoin: miter"/>
    </g>
    <g id="line2d_16">
     <path d="M 295.687415 54.570437 
L 305.687415 54.570437 
L 315.687415 54.570437 
" style="fill: none; stroke: #1f77b4; stroke-width: 1.5; stroke-linecap: square"/>
    </g>
    <g id="text_15">
     <!-- CNN -->
     <g transform="translate(323.687415 58.070437) scale(0.1 -0.1)">
      <defs>
       <path id="DejaVuSans-43" d="M 4122 4306 
L 4122 3641 
Q 3803 3938 3442 4084 
Q 3081 4231 2675 4231 
Q 1875 4231 1450 3742 
Q 1025 3253 1025 2328 
Q 1025 1406 1450 917 
Q 1875 428 2675 428 
Q 3081 428 3442 575 
Q 3803 722 4122 1019 
L 4122 359 
Q 3791 134 3420 21 
Q 3050 -91 2638 -91 
Q 1578 -91 968 557 
Q 359 1206 359 2328 
Q 359 3453 968 4101 
Q 1578 4750 2638 4750 
Q 3056 4750 3426 4639 
Q 3797 4528 4122 4306 
z
" transform="scale(0.015625)"/>
       <path id="DejaVuSans-4e" d="M 628 4666 
L 1478 4666 
L 3547 763 
L 3547 4666 
L 4159 4666 
L 4159 0 
L 3309 0 
L 1241 3903 
L 1241 0 
L 628 0 
L 628 4666 
z
" transform="scale(0.015625)"/>
      </defs>
      <use xlink:href="#DejaVuSans-43"/>
      <use xlink:href="#DejaVuSans-4e" x="69.824219"/>
      <use xlink:href="#DejaVuSans-4e" x="144.628906"/>
     </g>
    </g>
    <g id="line2d_17">
     <path d="M 295.687415 69.248562 
L 305.687415 69.248562 
L 315.687415 69.248562 
" style="fill: none; stroke: #ff7f0e; stroke-width: 1.5; stroke-linecap: square"/>
    </g>
    <g id="text_16">
     <!-- SNS -->
     <g transform="translate(323.687415 72.748562) scale(0.1 -0.1)">
      <defs>
       <path id="DejaVuSans-53" d="M 3425 4513 
L 3425 3897 
Q 3066 4069 2747 4153 
Q 2428 4238 2131 4238 
Q 1616 4238 1336 4038 
Q 1056 3838 1056 3469 
Q 1056 3159 1242 3001 
Q 1428 2844 1947 2747 
L 2328 2669 
Q 3034 2534 3370 2195 
Q 3706 1856 3706 1288 
Q 3706 609 3251 259 
Q 2797 -91 1919 -91 
Q 1588 -91 1214 -16 
Q 841 59 441 206 
L 441 856 
Q 825 641 1194 531 
Q 1563 422 1919 422 
Q 2459 422 2753 634 
Q 3047 847 3047 1241 
Q 3047 1584 2836 1778 
Q 2625 1972 2144 2069 
L 1759 2144 
Q 1053 2284 737 2584 
Q 422 2884 422 3419 
Q 422 4038 858 4394 
Q 1294 4750 2059 4750 
Q 2388 4750 2728 4690 
Q 3069 4631 3425 4513 
z
" transform="scale(0.015625)"/>
      </defs>
      <use xlink:href="#DejaVuSans-53"/>
      <use xlink:href="#DejaVuSans-4e" x="63.476562"/>
      <use xlink:href="#DejaVuSans-53" x="138.28125"/>
     </g>
    </g>
   </g>
  </g>
  <g id="axes_2">
   <g id="patch_8">
    <path d="M 406.983273 307.584 
L 668.736 307.584 
L 668.736 41.472 
L 406.983273 41.472 
z
" style="fill: #ffffff"/>
   </g>
   <g id="matplotlib.axis_3">
    <g id="xtick_8">
     <g id="line2d_18">
      <g>
       <use xlink:href="#m899123c81c" x="418.881124" y="307.584" style="stroke: #000000; stroke-width: 0.8"/>
      </g>
     </g>
     <g id="text_17">
      <!-- 0 -->
      <g transform="translate(415.699874 322.182437) scale(0.1 -0.1)">
       <use xlink:href="#DejaVuSans-30"/>
      </g>
     </g>
    </g>
    <g id="xtick_9">
     <g id="line2d_19">
      <g>
       <use xlink:href="#m899123c81c" x="458.540628" y="307.584" style="stroke: #000000; stroke-width: 0.8"/>
      </g>
     </g>
     <g id="text_18">
      <!-- 2 -->
      <g transform="translate(455.359378 322.182437) scale(0.1 -0.1)">
       <use xlink:href="#DejaVuSans-32"/>
      </g>
     </g>
    </g>
    <g id="xtick_10">
     <g id="line2d_20">
      <g>
       <use xlink:href="#m899123c81c" x="498.200132" y="307.584" style="stroke: #000000; stroke-width: 0.8"/>
      </g>
     </g>
     <g id="text_19">
      <!-- 4 -->
      <g transform="translate(495.018882 322.182437) scale(0.1 -0.1)">
       <use xlink:href="#DejaVuSans-34"/>
      </g>
     </g>
    </g>
    <g id="xtick_11">
     <g id="line2d_21">
      <g>
       <use xlink:href="#m899123c81c" x="537.859636" y="307.584" style="stroke: #000000; stroke-width: 0.8"/>
      </g>
     </g>
     <g id="text_20">
      <!-- 6 -->
      <g transform="translate(534.678386 322.182437) scale(0.1 -0.1)">
       <use xlink:href="#DejaVuSans-36"/>
      </g>
     </g>
    </g>
    <g id="xtick_12">
     <g id="line2d_22">
      <g>
       <use xlink:href="#m899123c81c" x="577.51914" y="307.584" style="stroke: #000000; stroke-width: 0.8"/>
      </g>
     </g>
     <g id="text_21">
      <!-- 8 -->
      <g transform="translate(574.33789 322.182437) scale(0.1 -0.1)">
       <use xlink:href="#DejaVuSans-38"/>
      </g>
     </g>
    </g>
    <g id="xtick_13">
     <g id="line2d_23">
      <g>
       <use xlink:href="#m899123c81c" x="617.178645" y="307.584" style="stroke: #000000; stroke-width: 0.8"/>
      </g>
     </g>
     <g id="text_22">
      <!-- 10 -->
      <g transform="translate(610.816145 322.182437) scale(0.1 -0.1)">
       <use xlink:href="#DejaVuSans-31"/>
       <use xlink:href="#DejaVuSans-30" x="63.623047"/>
      </g>
     </g>
    </g>
    <g id="xtick_14">
     <g id="line2d_24">
      <g>
       <use xlink:href="#m899123c81c" x="656.838149" y="307.584" style="stroke: #000000; stroke-width: 0.8"/>
      </g>
     </g>
     <g id="text_23">
      <!-- 12 -->
      <g transform="translate(650.475649 322.182437) scale(0.1 -0.1)">
       <use xlink:href="#DejaVuSans-31"/>
       <use xlink:href="#DejaVuSans-32" x="63.623047"/>
      </g>
     </g>
    </g>
   </g>
   <g id="matplotlib.axis_4">
    <g id="ytick_7">
     <g id="line2d_25">
      <g>
       <use xlink:href="#me7ab9e7f9c" x="406.983273" y="295.488" style="stroke: #000000; stroke-width: 0.8"/>
      </g>
     </g>
     <g id="text_24">
      <!-- 0.0 -->
      <g transform="translate(384.080148 299.287219) scale(0.1 -0.1)">
       <defs>
        <path id="DejaVuSans-2e" d="M 684 794 
L 1344 794 
L 1344 0 
L 684 0 
L 684 794 
z
" transform="scale(0.015625)"/>
       </defs>
       <use xlink:href="#DejaVuSans-30"/>
       <use xlink:href="#DejaVuSans-2e" x="63.623047"/>
       <use xlink:href="#DejaVuSans-30" x="95.410156"/>
      </g>
     </g>
    </g>
    <g id="ytick_8">
     <g id="line2d_26">
      <g>
       <use xlink:href="#me7ab9e7f9c" x="406.983273" y="246.615273" style="stroke: #000000; stroke-width: 0.8"/>
      </g>
     </g>
     <g id="text_25">
      <!-- 0.2 -->
      <g transform="translate(384.080148 250.414491) scale(0.1 -0.1)">
       <use xlink:href="#DejaVuSans-30"/>
       <use xlink:href="#DejaVuSans-2e" x="63.623047"/>
       <use xlink:href="#DejaVuSans-32" x="95.410156"/>
      </g>
     </g>
    </g>
    <g id="ytick_9">
     <g id="line2d_27">
      <g>
       <use xlink:href="#me7ab9e7f9c" x="406.983273" y="197.742545" style="stroke: #000000; stroke-width: 0.8"/>
      </g>
     </g>
     <g id="text_26">
      <!-- 0.4 -->
      <g transform="translate(384.080148 201.541764) scale(0.1 -0.1)">
       <use xlink:href="#DejaVuSans-30"/>
       <use xlink:href="#DejaVuSans-2e" x="63.623047"/>
       <use xlink:href="#DejaVuSans-34" x="95.410156"/>
      </g>
     </g>
    </g>
    <g id="ytick_10">
     <g id="line2d_28">
      <g>
       <use xlink:href="#me7ab9e7f9c" x="406.983273" y="148.869818" style="stroke: #000000; stroke-width: 0.8"/>
      </g>
     </g>
     <g id="text_27">
      <!-- 0.6 -->
      <g transform="translate(384.080148 152.669037) scale(0.1 -0.1)">
       <use xlink:href="#DejaVuSans-30"/>
       <use xlink:href="#DejaVuSans-2e" x="63.623047"/>
       <use xlink:href="#DejaVuSans-36" x="95.410156"/>
      </g>
     </g>
    </g>
    <g id="ytick_11">
     <g id="line2d_29">
      <g>
       <use xlink:href="#me7ab9e7f9c" x="406.983273" y="99.997091" style="stroke: #000000; stroke-width: 0.8"/>
      </g>
     </g>
     <g id="text_28">
      <!-- 0.8 -->
      <g transform="translate(384.080148 103.79631) scale(0.1 -0.1)">
       <use xlink:href="#DejaVuSans-30"/>
       <use xlink:href="#DejaVuSans-2e" x="63.623047"/>
       <use xlink:href="#DejaVuSans-38" x="95.410156"/>
      </g>
     </g>
    </g>
    <g id="ytick_12">
     <g id="line2d_30">
      <g>
       <use xlink:href="#me7ab9e7f9c" x="406.983273" y="51.124364" style="stroke: #000000; stroke-width: 0.8"/>
      </g>
     </g>
     <g id="text_29">
      <!-- 1.0 -->
      <g transform="translate(384.080148 54.923582) scale(0.1 -0.1)">
       <use xlink:href="#DejaVuSans-31"/>
       <use xlink:href="#DejaVuSans-2e" x="63.623047"/>
       <use xlink:href="#DejaVuSans-30" x="95.410156"/>
      </g>
     </g>
    </g>
   </g>
   <g id="line2d_31">
    <path d="M 418.881124 295.488 
L 438.710876 70.673455 
L 458.540628 56.011636 
L 478.37038 56.011636 
L 498.200132 65.786182 
L 518.029884 58.455273 
L 537.859636 63.342545 
L 557.689388 60.898909 
L 577.51914 53.568 
L 597.348893 56.011636 
L 617.178645 68.229818 
L 637.008397 53.568 
L 656.838149 56.011636 
" clip-path="url(#p8bede775f7)" style="fill: none; stroke: #1f77b4; stroke-width: 1.5; stroke-linecap: square"/>
   </g>
   <g id="line2d_32">
    <path d="M 418.881124 295.488 
L 438.710876 56.011636 
L 458.540628 53.568 
L 478.37038 58.455273 
L 498.200132 58.455273 
L 518.029884 58.455273 
L 537.859636 53.568 
L 557.689388 58.455273 
L 577.51914 58.455273 
L 597.348893 56.011636 
L 617.178645 65.786182 
L 637.008397 56.011636 
L 656.838149 60.898909 
" clip-path="url(#p8bede775f7)" style="fill: none; stroke: #ff7f0e; stroke-width: 1.5; stroke-linecap: square"/>
   </g>
   <g id="patch_9">
    <path d="M 406.983273 307.584 
L 406.983273 41.472 
" style="fill: none; stroke: #000000; stroke-width: 0.8; stroke-linejoin: miter; stroke-linecap: square"/>
   </g>
   <g id="patch_10">
    <path d="M 668.736 307.584 
L 668.736 41.472 
" style="fill: none; stroke: #000000; stroke-width: 0.8; stroke-linejoin: miter; stroke-linecap: square"/>
   </g>
   <g id="patch_11">
    <path d="M 406.983273 307.584 
L 668.736 307.584 
" style="fill: none; stroke: #000000; stroke-width: 0.8; stroke-linejoin: miter; stroke-linecap: square"/>
   </g>
   <g id="patch_12">
    <path d="M 406.983273 41.472 
L 668.736 41.472 
" style="fill: none; stroke: #000000; stroke-width: 0.8; stroke-linejoin: miter; stroke-linecap: square"/>
   </g>
   <g id="text_30">
    <!-- Test Accuracy -->
    <g transform="translate(496.744636 35.472) scale(0.12 -0.12)">
     <defs>
      <path id="DejaVuSans-65" d="M 3597 1894 
L 3597 1613 
L 953 1613 
Q 991 1019 1311 708 
Q 1631 397 2203 397 
Q 2534 397 2845 478 
Q 3156 559 3463 722 
L 3463 178 
Q 3153 47 2828 -22 
Q 2503 -91 2169 -91 
Q 1331 -91 842 396 
Q 353 884 353 1716 
Q 353 2575 817 3079 
Q 1281 3584 2069 3584 
Q 2775 3584 3186 3129 
Q 3597 2675 3597 1894 
z
M 3022 2063 
Q 3016 2534 2758 2815 
Q 2500 3097 2075 3097 
Q 1594 3097 1305 2825 
Q 1016 2553 972 2059 
L 3022 2063 
z
" transform="scale(0.015625)"/>
      <path id="DejaVuSans-74" d="M 1172 4494 
L 1172 3500 
L 2356 3500 
L 2356 3053 
L 1172 3053 
L 1172 1153 
Q 1172 725 1289 603 
Q 1406 481 1766 481 
L 2356 481 
L 2356 0 
L 1766 0 
Q 1100 0 847 248 
Q 594 497 594 1153 
L 594 3053 
L 172 3053 
L 172 3500 
L 594 3500 
L 594 4494 
L 1172 4494 
z
" transform="scale(0.015625)"/>
      <path id="DejaVuSans-41" d="M 2188 4044 
L 1331 1722 
L 3047 1722 
L 2188 4044 
z
M 1831 4666 
L 2547 4666 
L 4325 0 
L 3669 0 
L 3244 1197 
L 1141 1197 
L 716 0 
L 50 0 
L 1831 4666 
z
" transform="scale(0.015625)"/>
      <path id="DejaVuSans-63" d="M 3122 3366 
L 3122 2828 
Q 2878 2963 2633 3030 
Q 2388 3097 2138 3097 
Q 1578 3097 1268 2742 
Q 959 2388 959 1747 
Q 959 1106 1268 751 
Q 1578 397 2138 397 
Q 2388 397 2633 464 
Q 2878 531 3122 666 
L 3122 134 
Q 2881 22 2623 -34 
Q 2366 -91 2075 -91 
Q 1284 -91 818 406 
Q 353 903 353 1747 
Q 353 2603 823 3093 
Q 1294 3584 2113 3584 
Q 2378 3584 2631 3529 
Q 2884 3475 3122 3366 
z
" transform="scale(0.015625)"/>
      <path id="DejaVuSans-75" d="M 544 1381 
L 544 3500 
L 1119 3500 
L 1119 1403 
Q 1119 906 1312 657 
Q 1506 409 1894 409 
Q 2359 409 2629 706 
Q 2900 1003 2900 1516 
L 2900 3500 
L 3475 3500 
L 3475 0 
L 2900 0 
L 2900 538 
Q 2691 219 2414 64 
Q 2138 -91 1772 -91 
Q 1169 -91 856 284 
Q 544 659 544 1381 
z
M 1991 3584 
L 1991 3584 
z
" transform="scale(0.015625)"/>
      <path id="DejaVuSans-79" d="M 2059 -325 
Q 1816 -950 1584 -1140 
Q 1353 -1331 966 -1331 
L 506 -1331 
L 506 -850 
L 844 -850 
Q 1081 -850 1212 -737 
Q 1344 -625 1503 -206 
L 1606 56 
L 191 3500 
L 800 3500 
L 1894 763 
L 2988 3500 
L 3597 3500 
L 2059 -325 
z
" transform="scale(0.015625)"/>
     </defs>
     <use xlink:href="#DejaVuSans-54"/>
     <use xlink:href="#DejaVuSans-65" x="44.083984"/>
     <use xlink:href="#DejaVuSans-73" x="105.607422"/>
     <use xlink:href="#DejaVuSans-74" x="157.707031"/>
     <use xlink:href="#DejaVuSans-20" x="196.916016"/>
     <use xlink:href="#DejaVuSans-41" x="228.703125"/>
     <use xlink:href="#DejaVuSans-63" x="295.361328"/>
     <use xlink:href="#DejaVuSans-63" x="350.341797"/>
     <use xlink:href="#DejaVuSans-75" x="405.322266"/>
     <use xlink:href="#DejaVuSans-72" x="468.701172"/>
     <use xlink:href="#DejaVuSans-61" x="509.814453"/>
     <use xlink:href="#DejaVuSans-63" x="571.09375"/>
     <use xlink:href="#DejaVuSans-79" x="626.074219"/>
    </g>
   </g>
   <g id="legend_2">
    <g id="patch_13">
     <path d="M 607.790687 302.584 
L 661.736 302.584 
Q 663.736 302.584 663.736 300.584 
L 663.736 272.22775 
Q 663.736 270.22775 661.736 270.22775 
L 607.790687 270.22775 
Q 605.790687 270.22775 605.790687 272.22775 
L 605.790687 300.584 
Q 605.790687 302.584 607.790687 302.584 
z
" style="fill: #ffffff; opacity: 0.8; stroke: #cccccc; stroke-linejoin: miter"/>
    </g>
    <g id="line2d_33">
     <path d="M 609.790687 278.326187 
L 619.790687 278.326187 
L 629.790687 278.326187 
" style="fill: none; stroke: #1f77b4; stroke-width: 1.5; stroke-linecap: square"/>
    </g>
    <g id="text_31">
     <!-- CNN -->
     <g transform="translate(637.790687 281.826187) scale(0.1 -0.1)">
      <use xlink:href="#DejaVuSans-43"/>
      <use xlink:href="#DejaVuSans-4e" x="69.824219"/>
      <use xlink:href="#DejaVuSans-4e" x="144.628906"/>
     </g>
    </g>
    <g id="line2d_34">
     <path d="M 609.790687 293.004312 
L 619.790687 293.004312 
L 629.790687 293.004312 
" style="fill: none; stroke: #ff7f0e; stroke-width: 1.5; stroke-linecap: square"/>
    </g>
    <g id="text_32">
     <!-- SNS -->
     <g transform="translate(637.790687 296.504312) scale(0.1 -0.1)">
      <use xlink:href="#DejaVuSans-53"/>
      <use xlink:href="#DejaVuSans-4e" x="63.476562"/>
      <use xlink:href="#DejaVuSans-53" x="138.28125"/>
     </g>
    </g>
   </g>
  </g>
 </g>
 <defs>
  <clipPath id="pfc098a726a">
   <rect x="92.88" y="41.472" width="261.752727" height="266.112"/>
  </clipPath>
  <clipPath id="p8bede775f7">
   <rect x="406.983273" y="41.472" width="261.752727" height="266.112"/>
  </clipPath>
 </defs>
</svg>
