<?xml version="1.0" encoding="utf-8" standalone="no"?>
<!DOCTYPE svg PUBLIC "-//W3C//DTD SVG 1.1//EN"
  "http://www.w3.org/Graphics/SVG/1.1/DTD/svg11.dtd">
<svg xmlns:xlink="http://www.w3.org/1999/xlink" width="2764.8pt" height="1418.4pt" viewBox="0 0 2764.8 1418.4" xmlns="http://www.w3.org/2000/svg" version="1.1">
 <metadata>
  <rdf:RDF xmlns:dc="http://purl.org/dc/elements/1.1/" xmlns:cc="http://creativecommons.org/ns#" xmlns:rdf="http://www.w3.org/1999/02/22-rdf-syntax-ns#">
   <cc:Work>
    <dc:type rdf:resource="http://purl.org/dc/dcmitype/StillImage"/>
    <dc:date>2024-05-02T03:47:30.769813</dc:date>
    <dc:format>image/svg+xml</dc:format>
    <dc:creator>
     <cc:Agent>
      <dc:title>Matplotlib v3.7.4, https://matplotlib.org/</dc:title>
     </cc:Agent>
    </dc:creator>
   </cc:Work>
  </rdf:RDF>
 </metadata>
 <defs>
  <style type="text/css">*{stroke-linejoin: round; stroke-linecap: butt}</style>
 </defs>
 <g id="figure_1">
  <g id="patch_1">
   <path d="M 0 1418.4 
L 2764.8 1418.4 
L 2764.8 0 
L 0 0 
z
" style="fill: #ffffff"/>
  </g>
  <g id="axes_1">
   <g id="patch_2">
    <path d="M 345.6 491.433882 
L 2488.32 491.433882 
L 2488.32 170.208 
L 345.6 170.208 
z
" style="fill: #ffffff"/>
   </g>
   <g id="matplotlib.axis_1">
    <g id="xtick_1">
     <g id="line2d_1">
      <defs>
       <path id="m14f1a5e5ec" d="M 0 0 
L 0 3.5 
" style="stroke: #000000; stroke-width: 0.8"/>
      </defs>
      <g>
       <use xlink:href="#m14f1a5e5ec" x="442.996364" y="491.433882" style="stroke: #000000; stroke-width: 0.8"/>
      </g>
     </g>
     <g id="text_1">
      <!-- 0 -->
      <g transform="translate(439.815114 506.03232) scale(0.1 -0.1)">
       <defs>
        <path id="DejaVuSans-30" d="M 2034 4250 
Q 1547 4250 1301 3770 
Q 1056 3291 1056 2328 
Q 1056 1369 1301 889 
Q 1547 409 2034 409 
Q 2525 409 2770 889 
Q 3016 1369 3016 2328 
Q 3016 3291 2770 3770 
Q 2525 4250 2034 4250 
z
M 2034 4750 
Q 2819 4750 3233 4129 
Q 3647 3509 3647 2328 
Q 3647 1150 3233 529 
Q 2819 -91 2034 -91 
Q 1250 -91 836 529 
Q 422 1150 422 2328 
Q 422 3509 836 4129 
Q 1250 4750 2034 4750 
z
" transform="scale(0.015625)"/>
       </defs>
       <use xlink:href="#DejaVuSans-30"/>
      </g>
     </g>
    </g>
    <g id="xtick_2">
     <g id="line2d_2">
      <g>
       <use xlink:href="#m14f1a5e5ec" x="832.971794" y="491.433882" style="stroke: #000000; stroke-width: 0.8"/>
      </g>
     </g>
     <g id="text_2">
      <!-- 200 -->
      <g transform="translate(823.428044 506.03232) scale(0.1 -0.1)">
       <defs>
        <path id="DejaVuSans-32" d="M 1228 531 
L 3431 531 
L 3431 0 
L 469 0 
L 469 531 
Q 828 903 1448 1529 
Q 2069 2156 2228 2338 
Q 2531 2678 2651 2914 
Q 2772 3150 2772 3378 
Q 2772 3750 2511 3984 
Q 2250 4219 1831 4219 
Q 1534 4219 1204 4116 
Q 875 4013 500 3803 
L 500 4441 
Q 881 4594 1212 4672 
Q 1544 4750 1819 4750 
Q 2544 4750 2975 4387 
Q 3406 4025 3406 3419 
Q 3406 3131 3298 2873 
Q 3191 2616 2906 2266 
Q 2828 2175 2409 1742 
Q 1991 1309 1228 531 
z
" transform="scale(0.015625)"/>
       </defs>
       <use xlink:href="#DejaVuSans-32"/>
       <use xlink:href="#DejaVuSans-30" x="63.623047"/>
       <use xlink:href="#DejaVuSans-30" x="127.246094"/>
      </g>
     </g>
    </g>
    <g id="xtick_3">
     <g id="line2d_3">
      <g>
       <use xlink:href="#m14f1a5e5ec" x="1222.947224" y="491.433882" style="stroke: #000000; stroke-width: 0.8"/>
      </g>
     </g>
     <g id="text_3">
      <!-- 400 -->
      <g transform="translate(1213.403474 506.03232) scale(0.1 -0.1)">
       <defs>
        <path id="DejaVuSans-34" d="M 2419 4116 
L 825 1625 
L 2419 1625 
L 2419 4116 
z
M 2253 4666 
L 3047 4666 
L 3047 1625 
L 3713 1625 
L 3713 1100 
L 3047 1100 
L 3047 0 
L 2419 0 
L 2419 1100 
L 313 1100 
L 313 1709 
L 2253 4666 
z
" transform="scale(0.015625)"/>
       </defs>
       <use xlink:href="#DejaVuSans-34"/>
       <use xlink:href="#DejaVuSans-30" x="63.623047"/>
       <use xlink:href="#DejaVuSans-30" x="127.246094"/>
      </g>
     </g>
    </g>
    <g id="xtick_4">
     <g id="line2d_4">
      <g>
       <use xlink:href="#m14f1a5e5ec" x="1612.922654" y="491.433882" style="stroke: #000000; stroke-width: 0.8"/>
      </g>
     </g>
     <g id="text_4">
      <!-- 600 -->
      <g transform="translate(1603.378904 506.03232) scale(0.1 -0.1)">
       <defs>
        <path id="DejaVuSans-36" d="M 2113 2584 
Q 1688 2584 1439 2293 
Q 1191 2003 1191 1497 
Q 1191 994 1439 701 
Q 1688 409 2113 409 
Q 2538 409 2786 701 
Q 3034 994 3034 1497 
Q 3034 2003 2786 2293 
Q 2538 2584 2113 2584 
z
M 3366 4563 
L 3366 3988 
Q 3128 4100 2886 4159 
Q 2644 4219 2406 4219 
Q 1781 4219 1451 3797 
Q 1122 3375 1075 2522 
Q 1259 2794 1537 2939 
Q 1816 3084 2150 3084 
Q 2853 3084 3261 2657 
Q 3669 2231 3669 1497 
Q 3669 778 3244 343 
Q 2819 -91 2113 -91 
Q 1303 -91 875 529 
Q 447 1150 447 2328 
Q 447 3434 972 4092 
Q 1497 4750 2381 4750 
Q 2619 4750 2861 4703 
Q 3103 4656 3366 4563 
z
" transform="scale(0.015625)"/>
       </defs>
       <use xlink:href="#DejaVuSans-36"/>
       <use xlink:href="#DejaVuSans-30" x="63.623047"/>
       <use xlink:href="#DejaVuSans-30" x="127.246094"/>
      </g>
     </g>
    </g>
    <g id="xtick_5">
     <g id="line2d_5">
      <g>
       <use xlink:href="#m14f1a5e5ec" x="2002.898084" y="491.433882" style="stroke: #000000; stroke-width: 0.8"/>
      </g>
     </g>
     <g id="text_5">
      <!-- 800 -->
      <g transform="translate(1993.354334 506.03232) scale(0.1 -0.1)">
       <defs>
        <path id="DejaVuSans-38" d="M 2034 2216 
Q 1584 2216 1326 1975 
Q 1069 1734 1069 1313 
Q 1069 891 1326 650 
Q 1584 409 2034 409 
Q 2484 409 2743 651 
Q 3003 894 3003 1313 
Q 3003 1734 2745 1975 
Q 2488 2216 2034 2216 
z
M 1403 2484 
Q 997 2584 770 2862 
Q 544 3141 544 3541 
Q 544 4100 942 4425 
Q 1341 4750 2034 4750 
Q 2731 4750 3128 4425 
Q 3525 4100 3525 3541 
Q 3525 3141 3298 2862 
Q 3072 2584 2669 2484 
Q 3125 2378 3379 2068 
Q 3634 1759 3634 1313 
Q 3634 634 3220 271 
Q 2806 -91 2034 -91 
Q 1263 -91 848 271 
Q 434 634 434 1313 
Q 434 1759 690 2068 
Q 947 2378 1403 2484 
z
M 1172 3481 
Q 1172 3119 1398 2916 
Q 1625 2713 2034 2713 
Q 2441 2713 2670 2916 
Q 2900 3119 2900 3481 
Q 2900 3844 2670 4047 
Q 2441 4250 2034 4250 
Q 1625 4250 1398 4047 
Q 1172 3844 1172 3481 
z
" transform="scale(0.015625)"/>
       </defs>
       <use xlink:href="#DejaVuSans-38"/>
       <use xlink:href="#DejaVuSans-30" x="63.623047"/>
       <use xlink:href="#DejaVuSans-30" x="127.246094"/>
      </g>
     </g>
    </g>
    <g id="xtick_6">
     <g id="line2d_6">
      <g>
       <use xlink:href="#m14f1a5e5ec" x="2392.873514" y="491.433882" style="stroke: #000000; stroke-width: 0.8"/>
      </g>
     </g>
     <g id="text_6">
      <!-- 1000 -->
      <g transform="translate(2380.148514 506.03232) scale(0.1 -0.1)">
       <defs>
        <path id="DejaVuSans-31" d="M 794 531 
L 1825 531 
L 1825 4091 
L 703 3866 
L 703 4441 
L 1819 4666 
L 2450 4666 
L 2450 531 
L 3481 531 
L 3481 0 
L 794 0 
L 794 531 
z
" transform="scale(0.015625)"/>
       </defs>
       <use xlink:href="#DejaVuSans-31"/>
       <use xlink:href="#DejaVuSans-30" x="63.623047"/>
       <use xlink:href="#DejaVuSans-30" x="127.246094"/>
       <use xlink:href="#DejaVuSans-30" x="190.869141"/>
      </g>
     </g>
    </g>
   </g>
   <g id="matplotlib.axis_2">
    <g id="ytick_1">
     <g id="line2d_7">
      <defs>
       <path id="m1a3d6b96a4" d="M 0 0 
L -3.5 0 
" style="stroke: #000000; stroke-width: 0.8"/>
      </defs>
      <g>
       <use xlink:href="#m1a3d6b96a4" x="345.6" y="478.555905" style="stroke: #000000; stroke-width: 0.8"/>
      </g>
     </g>
     <g id="text_7">
      <!-- 0.000 -->
      <g transform="translate(309.971875 482.355124) scale(0.1 -0.1)">
       <defs>
        <path id="DejaVuSans-2e" d="M 684 794 
L 1344 794 
L 1344 0 
L 684 0 
L 684 794 
z
" transform="scale(0.015625)"/>
       </defs>
       <use xlink:href="#DejaVuSans-30"/>
       <use xlink:href="#DejaVuSans-2e" x="63.623047"/>
       <use xlink:href="#DejaVuSans-30" x="95.410156"/>
       <use xlink:href="#DejaVuSans-30" x="159.033203"/>
       <use xlink:href="#DejaVuSans-30" x="222.65625"/>
      </g>
     </g>
    </g>
    <g id="ytick_2">
     <g id="line2d_8">
      <g>
       <use xlink:href="#m1a3d6b96a4" x="345.6" y="413.352909" style="stroke: #000000; stroke-width: 0.8"/>
      </g>
     </g>
     <g id="text_8">
      <!-- 0.005 -->
      <g transform="translate(309.971875 417.152128) scale(0.1 -0.1)">
       <defs>
        <path id="DejaVuSans-35" d="M 691 4666 
L 3169 4666 
L 3169 4134 
L 1269 4134 
L 1269 2991 
Q 1406 3038 1543 3061 
Q 1681 3084 1819 3084 
Q 2600 3084 3056 2656 
Q 3513 2228 3513 1497 
Q 3513 744 3044 326 
Q 2575 -91 1722 -91 
Q 1428 -91 1123 -41 
Q 819 9 494 109 
L 494 744 
Q 775 591 1075 516 
Q 1375 441 1709 441 
Q 2250 441 2565 725 
Q 2881 1009 2881 1497 
Q 2881 1984 2565 2268 
Q 2250 2553 1709 2553 
Q 1456 2553 1204 2497 
Q 953 2441 691 2322 
L 691 4666 
z
" transform="scale(0.015625)"/>
       </defs>
       <use xlink:href="#DejaVuSans-30"/>
       <use xlink:href="#DejaVuSans-2e" x="63.623047"/>
       <use xlink:href="#DejaVuSans-30" x="95.410156"/>
       <use xlink:href="#DejaVuSans-30" x="159.033203"/>
       <use xlink:href="#DejaVuSans-35" x="222.65625"/>
      </g>
     </g>
    </g>
    <g id="ytick_3">
     <g id="line2d_9">
      <g>
       <use xlink:href="#m1a3d6b96a4" x="345.6" y="348.149913" style="stroke: #000000; stroke-width: 0.8"/>
      </g>
     </g>
     <g id="text_9">
      <!-- 0.010 -->
      <g transform="translate(309.971875 351.949132) scale(0.1 -0.1)">
       <use xlink:href="#DejaVuSans-30"/>
       <use xlink:href="#DejaVuSans-2e" x="63.623047"/>
       <use xlink:href="#DejaVuSans-30" x="95.410156"/>
       <use xlink:href="#DejaVuSans-31" x="159.033203"/>
       <use xlink:href="#DejaVuSans-30" x="222.65625"/>
      </g>
     </g>
    </g>
    <g id="ytick_4">
     <g id="line2d_10">
      <g>
       <use xlink:href="#m1a3d6b96a4" x="345.6" y="282.946917" style="stroke: #000000; stroke-width: 0.8"/>
      </g>
     </g>
     <g id="text_10">
      <!-- 0.015 -->
      <g transform="translate(309.971875 286.746136) scale(0.1 -0.1)">
       <use xlink:href="#DejaVuSans-30"/>
       <use xlink:href="#DejaVuSans-2e" x="63.623047"/>
       <use xlink:href="#DejaVuSans-30" x="95.410156"/>
       <use xlink:href="#DejaVuSans-31" x="159.033203"/>
       <use xlink:href="#DejaVuSans-35" x="222.65625"/>
      </g>
     </g>
    </g>
    <g id="ytick_5">
     <g id="line2d_11">
      <g>
       <use xlink:href="#m1a3d6b96a4" x="345.6" y="217.743921" style="stroke: #000000; stroke-width: 0.8"/>
      </g>
     </g>
     <g id="text_11">
      <!-- 0.020 -->
      <g transform="translate(309.971875 221.54314) scale(0.1 -0.1)">
       <use xlink:href="#DejaVuSans-30"/>
       <use xlink:href="#DejaVuSans-2e" x="63.623047"/>
       <use xlink:href="#DejaVuSans-30" x="95.410156"/>
       <use xlink:href="#DejaVuSans-32" x="159.033203"/>
       <use xlink:href="#DejaVuSans-30" x="222.65625"/>
      </g>
     </g>
    </g>
   </g>
   <g id="line2d_12">
    <path d="M 442.996364 184.809176 
L 444.946241 200.745463 
L 446.896118 235.531014 
L 448.845995 257.390856 
L 450.795872 250.111189 
L 452.745749 282.771365 
L 454.695627 306.7265 
L 456.645504 332.77043 
L 458.595381 352.360225 
L 460.545258 351.303706 
L 462.495135 362.239858 
L 464.445012 391.461206 
L 466.394889 401.649911 
L 468.344767 394.198836 
L 470.294644 428.443828 
L 472.244521 436.102298 
L 476.144275 449.026347 
L 478.094152 450.573903 
L 480.044029 457.944305 
L 481.993907 456.213947 
L 483.943784 464.446334 
L 485.893661 467.240055 
L 487.843538 469.432247 
L 489.793415 471.070017 
L 491.743292 467.107503 
L 493.69317 472.261975 
L 495.643047 473.738122 
L 497.592924 472.65973 
L 499.542801 475.79838 
L 501.492678 474.242565 
L 503.442555 473.198657 
L 505.392432 475.27407 
L 507.34231 471.777984 
L 509.292187 473.810675 
L 511.242064 471.517713 
L 513.191941 470.669679 
L 515.141818 473.171209 
L 517.091695 472.088852 
L 519.041572 470.815173 
L 520.99145 470.310142 
L 522.941327 474.393827 
L 524.891204 473.694168 
L 526.841081 470.646793 
L 528.790958 475.858695 
L 530.740835 469.903874 
L 532.690713 475.89608 
L 534.64059 472.266759 
L 536.590467 471.000719 
L 538.540344 475.948169 
L 540.490221 472.934355 
L 542.440098 470.45811 
L 544.389975 475.095284 
L 546.339853 476.108461 
L 548.28973 471.458323 
L 550.239607 474.026977 
L 552.189484 475.857351 
L 554.139361 475.384506 
L 556.089238 474.501731 
L 558.039115 474.191763 
L 559.988993 475.064034 
L 561.93887 476.258007 
L 563.888747 474.418784 
L 565.838624 473.856368 
L 567.788501 475.395279 
L 569.738378 473.426978 
L 571.688256 474.357912 
L 573.638133 475.852713 
L 575.58801 474.209203 
L 577.537887 475.938969 
L 579.487764 473.504798 
L 581.437641 472.945555 
L 583.387518 475.212129 
L 585.337396 474.68531 
L 587.287273 474.575868 
L 589.23715 473.45029 
L 591.187027 474.896871 
L 593.136904 475.287758 
L 595.086781 476.002866 
L 597.036658 473.711348 
L 598.986536 476.031194 
L 600.936413 474.501097 
L 602.88629 474.126971 
L 604.836167 473.511005 
L 606.786044 476.016405 
L 608.735921 473.426337 
L 610.685799 473.454448 
L 612.635676 474.621432 
L 614.585553 475.985152 
L 616.53543 473.679511 
L 618.485307 475.260596 
L 620.435184 475.048412 
L 622.385061 474.197572 
L 624.334939 474.038428 
L 626.284816 475.218803 
L 628.234693 473.850944 
L 630.18457 474.218259 
L 632.134447 476.015652 
L 634.084324 474.080524 
L 636.034201 474.095872 
L 637.984079 475.719883 
L 639.933956 474.804967 
L 641.883833 474.191453 
L 643.83371 475.781678 
L 645.783587 474.946354 
L 647.733464 474.635081 
L 649.683342 476.094014 
L 651.633219 474.334411 
L 653.583096 475.481343 
L 655.532973 474.739137 
L 657.48285 476.077741 
L 659.432727 474.051659 
L 661.382604 475.888303 
L 663.332482 473.15039 
L 665.282359 474.46918 
L 667.232236 474.036855 
L 669.182113 476.151654 
L 671.13199 474.51233 
L 673.081867 475.663485 
L 675.031744 475.860599 
L 676.981622 474.161365 
L 678.931499 475.909872 
L 680.881376 476.215819 
L 682.831253 474.804514 
L 684.78113 476.212295 
L 686.731007 476.241621 
L 688.680885 475.593066 
L 690.630762 472.756068 
L 692.580639 476.210089 
L 694.530516 474.812436 
L 696.480393 475.728104 
L 698.43027 474.182914 
L 700.380147 476.094629 
L 702.330025 475.791264 
L 704.279902 476.220387 
L 706.229779 474.073602 
L 708.179656 476.287392 
L 710.129533 475.978177 
L 714.029287 474.411828 
L 715.979165 475.99839 
L 717.929042 476.03801 
L 719.878919 475.680279 
L 721.828796 474.907027 
L 723.778673 476.253224 
L 725.72855 476.292899 
L 727.678428 474.378176 
L 729.628305 476.253826 
L 731.578182 474.219259 
L 733.528059 476.270609 
L 735.477936 476.028634 
L 737.427813 475.188613 
L 739.37769 475.831526 
L 741.327568 474.479425 
L 743.277445 475.881946 
L 745.227322 475.160957 
L 747.177199 476.302256 
L 754.976708 476.243384 
L 756.926585 476.008564 
L 758.876462 474.927509 
L 760.826339 476.269263 
L 762.776216 474.449563 
L 766.675971 476.130074 
L 768.625848 474.657041 
L 770.575725 475.721664 
L 772.525602 474.604547 
L 774.475479 476.171605 
L 776.425356 475.426763 
L 778.375233 474.56158 
L 780.325111 474.652369 
L 782.274988 476.263085 
L 784.224865 475.189959 
L 786.174742 474.758609 
L 788.124619 475.323447 
L 790.074496 476.201972 
L 792.024373 476.224169 
L 793.974251 474.759225 
L 795.924128 475.290742 
L 797.874005 475.198498 
L 799.823882 475.581188 
L 801.773759 475.109121 
L 803.723636 474.96487 
L 805.673514 475.346442 
L 807.623391 476.138006 
L 813.473022 476.105658 
L 815.422899 473.247666 
L 817.372776 476.28719 
L 819.322654 475.003957 
L 821.272531 475.640406 
L 823.222408 475.428398 
L 825.172285 476.081783 
L 827.122162 476.267712 
L 829.072039 475.759469 
L 831.021916 476.169611 
L 832.971794 475.192297 
L 834.921671 476.006424 
L 836.871548 475.610918 
L 840.771302 476.267225 
L 842.721179 472.542943 
L 844.671057 476.112103 
L 846.620934 475.73664 
L 848.570811 473.839282 
L 850.520688 476.349313 
L 852.470565 476.090679 
L 854.420442 474.945507 
L 856.370319 475.763511 
L 858.320197 476.285042 
L 860.270074 474.976679 
L 862.219951 475.9242 
L 864.169828 475.788152 
L 866.119705 476.110546 
L 868.069582 475.620381 
L 870.019459 476.402323 
L 871.969337 476.182198 
L 873.919214 476.091535 
L 875.869091 473.840542 
L 877.818968 475.397529 
L 879.768845 475.732064 
L 881.718722 475.412484 
L 883.6686 475.832645 
L 885.618477 474.3083 
L 887.568354 475.479698 
L 889.518231 475.223892 
L 891.468108 476.105947 
L 893.417985 476.395145 
L 895.367862 475.974906 
L 897.31774 476.33598 
L 899.267617 475.509599 
L 901.217494 475.51789 
L 903.167371 475.771058 
L 905.117248 476.419807 
L 907.067125 476.320364 
L 909.017002 476.42504 
L 910.96688 475.734514 
L 912.916757 476.395354 
L 914.866634 476.386237 
L 916.816511 476.210438 
L 918.766388 475.553242 
L 920.716265 475.97751 
L 922.666143 475.955956 
L 924.61602 476.394377 
L 926.565897 476.372838 
L 928.515774 475.928457 
L 930.465651 476.437795 
L 932.415528 476.424388 
L 934.365405 476.201518 
L 936.315283 476.409245 
L 938.26516 475.619244 
L 940.215037 476.312703 
L 942.164914 475.75145 
L 944.114791 476.19179 
L 946.064668 476.231073 
L 948.014545 475.715898 
L 949.964423 474.422201 
L 951.9143 476.117687 
L 953.864177 476.202545 
L 955.814054 476.427327 
L 957.763931 475.845437 
L 963.613563 475.917689 
L 965.56344 474.433736 
L 967.513317 475.69474 
L 969.463194 471.881781 
L 971.413071 476.507543 
L 973.362948 476.35309 
L 975.312826 475.869146 
L 977.262703 476.477484 
L 979.21258 475.954395 
L 981.162457 475.084551 
L 983.112334 476.144435 
L 985.062211 476.184771 
L 987.012088 476.082164 
L 988.961966 475.591815 
L 990.911843 474.019055 
L 992.86172 475.846094 
L 994.811597 473.707656 
L 996.761474 475.893819 
L 998.711351 476.388206 
L 1000.661229 476.489222 
L 1002.611106 475.889355 
L 1004.560983 473.142847 
L 1006.51086 476.290873 
L 1008.460737 476.068116 
L 1010.410614 476.446509 
L 1012.360491 476.161054 
L 1016.260246 476.427783 
L 1018.210123 475.653052 
L 1020.16 476.517209 
L 1022.109877 475.438901 
L 1024.059754 476.074594 
L 1026.009631 476.376415 
L 1027.959509 475.958206 
L 1029.909386 476.100422 
L 1031.859263 476.355065 
L 1033.80914 475.963323 
L 1035.759017 474.750756 
L 1037.708894 476.19787 
L 1041.608649 476.476901 
L 1043.558526 476.219541 
L 1045.508403 473.53716 
L 1047.45828 474.374926 
L 1049.408157 476.534532 
L 1053.307912 476.394704 
L 1055.257789 476.565648 
L 1057.207666 475.378279 
L 1059.157543 476.548703 
L 1061.10742 476.177582 
L 1063.057297 476.443669 
L 1065.007174 472.950969 
L 1066.957052 476.021233 
L 1068.906929 476.393919 
L 1070.856806 476.483771 
L 1072.806683 476.021303 
L 1074.75656 476.433159 
L 1076.706437 476.567601 
L 1078.656314 475.908719 
L 1082.556069 476.149588 
L 1084.505946 475.993748 
L 1086.455823 476.326382 
L 1088.4057 476.47162 
L 1090.355577 476.164338 
L 1094.255332 475.935773 
L 1096.205209 474.352245 
L 1098.155086 475.996015 
L 1100.104963 471.282955 
L 1102.05484 476.540286 
L 1104.004717 475.915614 
L 1105.954595 476.475725 
L 1107.904472 475.743034 
L 1109.854349 476.45704 
L 1111.804226 476.210241 
L 1113.754103 472.620298 
L 1115.70398 475.598063 
L 1117.653857 476.35482 
L 1119.603735 475.99628 
L 1121.553612 476.446934 
L 1123.503489 476.574348 
L 1125.453366 476.328691 
L 1127.403243 471.401382 
L 1129.35312 475.297543 
L 1131.302998 476.181665 
L 1133.252875 476.570759 
L 1135.202752 475.964178 
L 1139.102506 476.579331 
L 1143.00226 476.546894 
L 1144.952138 476.342404 
L 1146.902015 472.606804 
L 1148.851892 476.36372 
L 1150.801769 476.590834 
L 1152.751646 476.561594 
L 1154.701523 474.844727 
L 1156.6514 475.937494 
L 1158.601278 476.384009 
L 1160.551155 476.484564 
L 1162.501032 476.010441 
L 1164.450909 476.537598 
L 1166.400786 476.121543 
L 1168.350663 476.377505 
L 1170.300541 476.165943 
L 1172.250418 476.575031 
L 1174.200295 476.278955 
L 1176.150172 476.527766 
L 1178.100049 469.882386 
L 1180.049926 476.580944 
L 1181.999803 476.384998 
L 1183.949681 476.616918 
L 1185.899558 476.458284 
L 1187.849435 476.618522 
L 1189.799312 474.177716 
L 1191.749189 476.15693 
L 1193.699066 476.23032 
L 1195.648943 475.132482 
L 1197.598821 476.561984 
L 1199.548698 476.610117 
L 1201.498575 476.306542 
L 1203.448452 476.554018 
L 1205.398329 476.320363 
L 1207.348206 476.568538 
L 1209.298084 476.568951 
L 1211.247961 476.127148 
L 1213.197838 475.859868 
L 1215.147715 476.211969 
L 1217.097592 476.220816 
L 1219.047469 475.633388 
L 1222.947224 476.435408 
L 1224.897101 476.498618 
L 1226.846978 475.688948 
L 1228.796855 476.467007 
L 1234.646486 476.349168 
L 1236.596364 475.602966 
L 1238.546241 476.38029 
L 1240.496118 476.556558 
L 1242.445995 476.619856 
L 1244.395872 471.982923 
L 1246.345749 475.950275 
L 1248.295627 470.100171 
L 1250.245504 475.789694 
L 1252.195381 476.634114 
L 1254.145258 476.235115 
L 1256.095135 476.429267 
L 1258.045012 476.372704 
L 1259.994889 476.169016 
L 1261.944767 474.122708 
L 1263.894644 476.50529 
L 1265.844521 475.687728 
L 1267.794398 476.436307 
L 1269.744275 476.192724 
L 1271.694152 476.519234 
L 1275.593907 476.357306 
L 1277.543784 474.232504 
L 1279.493661 475.92379 
L 1281.443538 472.632613 
L 1283.393415 476.106378 
L 1285.343292 476.409737 
L 1287.29317 475.946433 
L 1289.243047 476.083176 
L 1291.192924 476.563291 
L 1293.142801 476.629839 
L 1297.042555 476.374787 
L 1298.992432 475.618421 
L 1300.94231 476.493699 
L 1302.892187 476.666869 
L 1308.741818 476.406073 
L 1310.691695 476.660318 
L 1312.641572 476.263766 
L 1314.59145 476.662912 
L 1316.541327 476.489085 
L 1318.491204 476.652509 
L 1320.441081 475.711565 
L 1322.390958 476.496388 
L 1324.340835 475.274566 
L 1326.290713 476.552457 
L 1328.24059 472.757792 
L 1330.190467 476.577533 
L 1332.140344 476.512472 
L 1334.090221 475.639302 
L 1336.040098 476.569485 
L 1337.989975 472.461783 
L 1339.939853 476.286123 
L 1341.88973 476.683177 
L 1343.839607 475.6181 
L 1345.789484 471.084822 
L 1347.739361 476.358976 
L 1349.689238 472.633519 
L 1351.639115 476.061842 
L 1353.588993 475.859855 
L 1355.53887 473.542688 
L 1357.488747 475.770841 
L 1359.438624 476.490838 
L 1367.238133 476.355372 
L 1369.18801 476.556914 
L 1371.137887 476.168041 
L 1373.087764 476.14996 
L 1376.987518 476.426733 
L 1378.937396 476.116498 
L 1384.787027 476.655847 
L 1388.686781 476.579751 
L 1390.636658 470.363018 
L 1392.586536 476.603509 
L 1394.536413 473.483778 
L 1396.48629 471.097055 
L 1398.436167 476.44947 
L 1400.386044 476.648555 
L 1402.335921 476.274419 
L 1404.285799 476.426954 
L 1406.235676 476.262447 
L 1408.185553 476.691381 
L 1410.13543 476.417862 
L 1412.085307 476.702267 
L 1417.934939 476.482979 
L 1419.884816 473.939259 
L 1421.834693 476.662779 
L 1423.78457 476.21313 
L 1427.684324 476.586939 
L 1429.634201 476.267941 
L 1431.584079 476.678349 
L 1435.483833 476.692401 
L 1437.43371 475.72268 
L 1439.383587 471.533289 
L 1441.333464 476.706533 
L 1445.233219 476.558727 
L 1447.183096 476.643854 
L 1449.132973 476.093569 
L 1451.08285 476.70023 
L 1453.032727 475.745233 
L 1456.932482 476.67628 
L 1458.882359 476.451109 
L 1464.73199 476.713679 
L 1466.681867 476.339093 
L 1468.631744 476.33377 
L 1470.581622 476.575952 
L 1472.531499 476.632515 
L 1474.481376 476.401351 
L 1476.431253 469.825235 
L 1478.38113 476.451804 
L 1480.331007 475.054437 
L 1482.280885 476.234003 
L 1484.230762 471.989784 
L 1486.180639 476.668281 
L 1492.03027 476.384916 
L 1493.980147 476.668295 
L 1495.930025 476.560172 
L 1497.879902 476.327923 
L 1499.829779 472.285256 
L 1501.779656 476.710041 
L 1503.729533 476.465311 
L 1505.67941 476.708601 
L 1507.629287 476.722044 
L 1509.579165 476.386062 
L 1511.529042 476.733175 
L 1513.478919 476.389801 
L 1515.428796 476.670794 
L 1523.228305 476.745646 
L 1525.178182 476.581284 
L 1527.128059 474.04498 
L 1529.077936 476.755554 
L 1531.027813 476.710661 
L 1532.97769 476.51509 
L 1534.927568 475.438793 
L 1536.877445 476.506167 
L 1538.827322 474.551277 
L 1540.777199 476.687942 
L 1546.62683 476.429537 
L 1548.576708 476.692767 
L 1550.526585 469.498424 
L 1552.476462 476.771427 
L 1554.426339 476.7669 
L 1556.376216 476.345359 
L 1558.326093 476.716313 
L 1560.275971 472.629074 
L 1562.225848 476.627487 
L 1564.175725 475.662629 
L 1566.125602 476.636522 
L 1568.075479 475.606416 
L 1570.025356 476.676411 
L 1571.975233 472.73614 
L 1573.925111 476.363611 
L 1575.874988 474.435412 
L 1577.824865 476.612755 
L 1579.774742 476.467823 
L 1581.724619 476.666442 
L 1583.674496 476.223415 
L 1585.624373 476.69733 
L 1587.574251 476.538806 
L 1591.474005 476.617041 
L 1593.423882 473.751294 
L 1595.373759 476.730612 
L 1599.273514 476.581814 
L 1601.223391 475.832659 
L 1603.173268 476.751315 
L 1605.123145 476.631873 
L 1610.972776 476.770628 
L 1612.922654 474.533224 
L 1614.872531 476.691106 
L 1616.822408 473.701573 
L 1618.772285 474.958537 
L 1620.722162 476.709895 
L 1622.672039 475.48963 
L 1624.621916 475.388021 
L 1626.571794 476.635875 
L 1628.521671 476.58863 
L 1630.471548 471.543182 
L 1632.421425 476.178595 
L 1634.371302 476.60229 
L 1636.321179 476.564297 
L 1638.271057 470.383081 
L 1640.220934 476.454621 
L 1642.170811 476.596733 
L 1644.120688 470.516475 
L 1646.070565 475.287914 
L 1648.020442 476.240552 
L 1649.970319 476.283996 
L 1651.920197 476.136793 
L 1653.870074 476.474343 
L 1655.819951 475.886593 
L 1657.769828 476.131477 
L 1659.719705 476.238104 
L 1661.669582 476.609396 
L 1663.619459 476.320336 
L 1665.569337 476.638933 
L 1667.519214 476.639958 
L 1669.469091 476.47787 
L 1673.368845 476.72851 
L 1675.318722 474.894371 
L 1677.2686 476.348959 
L 1679.218477 475.90868 
L 1681.168354 476.182935 
L 1683.118231 471.660652 
L 1685.068108 475.051241 
L 1687.017985 476.704514 
L 1688.967862 476.729242 
L 1690.91774 476.149292 
L 1692.867617 476.714399 
L 1696.767371 476.696707 
L 1698.717248 476.372228 
L 1700.667125 476.673894 
L 1702.617002 476.262615 
L 1704.56688 472.382748 
L 1706.516757 476.618896 
L 1708.466634 476.383263 
L 1710.416511 476.611241 
L 1712.366388 476.634281 
L 1714.316265 476.331602 
L 1716.266143 470.724901 
L 1718.21602 476.42862 
L 1720.165897 476.231911 
L 1722.115774 475.196819 
L 1724.065651 476.13932 
L 1726.015528 476.582314 
L 1727.965405 476.478478 
L 1729.915283 476.542092 
L 1731.86516 476.405941 
L 1733.815037 473.907684 
L 1735.764914 476.620046 
L 1737.714791 476.43936 
L 1739.664668 471.6913 
L 1741.614545 472.457577 
L 1743.564423 476.263048 
L 1745.5143 476.653891 
L 1747.464177 476.029508 
L 1749.414054 476.670105 
L 1751.363931 476.247892 
L 1753.313808 476.602176 
L 1755.263686 476.577141 
L 1757.213563 476.672551 
L 1759.16344 476.024736 
L 1761.113317 476.645483 
L 1763.063194 472.949543 
L 1765.013071 476.449782 
L 1766.962948 476.038524 
L 1768.912826 476.256822 
L 1770.862703 476.661219 
L 1772.81258 475.630649 
L 1774.762457 476.459347 
L 1776.712334 476.623728 
L 1778.662211 476.597981 
L 1780.612088 476.310382 
L 1782.561966 476.657468 
L 1784.511843 470.590779 
L 1786.46172 476.645462 
L 1788.411597 472.407667 
L 1790.361474 475.998251 
L 1792.311351 473.056296 
L 1794.261229 476.630493 
L 1796.211106 476.600318 
L 1798.160983 476.262308 
L 1800.11086 475.1045 
L 1802.060737 476.025718 
L 1804.010614 476.519209 
L 1805.960491 475.743779 
L 1807.910369 476.206661 
L 1809.860246 476.387885 
L 1811.810123 476.207792 
L 1813.76 473.825574 
L 1815.709877 474.820534 
L 1817.659754 476.138779 
L 1819.609631 476.395676 
L 1821.559509 475.835496 
L 1823.509386 476.618032 
L 1825.459263 476.234828 
L 1829.359017 476.6185 
L 1831.308894 476.241906 
L 1833.258771 476.41365 
L 1835.208649 476.708365 
L 1837.158526 476.596768 
L 1839.108403 476.682429 
L 1841.05828 475.636845 
L 1843.008157 476.680707 
L 1844.958034 476.538405 
L 1846.907912 475.240672 
L 1848.857789 475.316179 
L 1850.807666 476.662463 
L 1852.757543 476.363223 
L 1854.70742 474.955426 
L 1856.657297 476.683796 
L 1858.607174 476.729506 
L 1862.506929 476.275757 
L 1864.456806 475.166902 
L 1866.406683 476.666717 
L 1868.35656 476.715675 
L 1870.306437 476.550909 
L 1872.256314 476.67823 
L 1874.206192 476.253528 
L 1876.156069 476.722888 
L 1878.105946 476.472322 
L 1880.055823 476.089715 
L 1882.0057 476.729045 
L 1883.955577 476.480771 
L 1885.905455 476.704498 
L 1887.855332 476.71494 
L 1889.805209 470.92382 
L 1891.755086 476.395359 
L 1893.704963 476.546877 
L 1895.65484 476.427383 
L 1897.604717 476.419658 
L 1899.554595 476.715276 
L 1901.504472 475.36892 
L 1903.454349 476.507779 
L 1905.404226 476.433933 
L 1907.354103 476.685469 
L 1909.30398 472.612568 
L 1911.253857 476.749804 
L 1913.203735 476.501578 
L 1919.053366 476.380225 
L 1921.003243 476.69201 
L 1922.95312 475.312058 
L 1924.902998 472.920024 
L 1926.852875 476.764844 
L 1928.802752 476.761202 
L 1930.752629 472.105545 
L 1932.702506 476.568918 
L 1936.60226 476.576422 
L 1938.552138 472.729466 
L 1940.502015 476.484368 
L 1942.451892 476.687726 
L 1944.401769 476.683198 
L 1946.351646 474.853746 
L 1948.301523 476.674278 
L 1950.2514 476.258879 
L 1952.201278 476.657247 
L 1958.050909 476.716666 
L 1960.000786 476.189479 
L 1961.950663 476.677316 
L 1963.900541 471.02484 
L 1965.850418 474.123922 
L 1967.800295 476.464402 
L 1969.750172 476.59858 
L 1971.700049 475.725337 
L 1973.649926 473.383437 
L 1975.599803 476.690575 
L 1981.449435 476.679696 
L 1983.399312 476.222487 
L 1985.349189 476.676926 
L 1989.248943 476.636849 
L 1991.198821 476.491541 
L 1993.148698 476.683191 
L 1995.098575 476.487749 
L 1997.048452 476.023991 
L 1998.998329 474.831222 
L 2000.948206 472.618652 
L 2002.898084 476.537946 
L 2004.847961 476.716237 
L 2006.797838 476.379604 
L 2010.697592 476.384307 
L 2012.647469 476.736782 
L 2014.597346 476.410661 
L 2016.547224 476.553362 
L 2018.497101 476.555179 
L 2020.446978 476.274835 
L 2022.396855 476.526748 
L 2024.346732 474.078137 
L 2026.296609 476.761313 
L 2034.096118 476.713628 
L 2037.995872 476.761607 
L 2043.845504 476.758953 
L 2045.795381 473.556899 
L 2047.745258 476.738261 
L 2049.695135 474.071826 
L 2051.645012 476.785891 
L 2053.594889 476.466715 
L 2055.544767 476.790511 
L 2057.494644 476.59109 
L 2059.444521 475.312434 
L 2061.394398 476.770531 
L 2063.344275 476.696627 
L 2065.294152 476.776307 
L 2067.244029 476.531067 
L 2069.193907 476.759749 
L 2075.043538 476.530842 
L 2078.943292 476.794618 
L 2080.89317 470.449062 
L 2082.843047 476.716595 
L 2084.792924 476.149201 
L 2086.742801 476.832706 
L 2088.692678 469.564482 
L 2090.642555 476.550489 
L 2092.592432 476.795192 
L 2094.54231 472.277879 
L 2096.492187 476.707219 
L 2098.442064 476.59432 
L 2100.391941 476.710557 
L 2102.341818 476.44116 
L 2104.291695 476.671179 
L 2106.241572 476.64794 
L 2108.19145 476.036161 
L 2110.141327 476.619623 
L 2112.091204 476.76403 
L 2114.041081 476.693639 
L 2115.990958 476.811286 
L 2117.940835 476.583166 
L 2119.890713 472.21838 
L 2121.84059 473.259346 
L 2123.790467 476.66811 
L 2125.740344 474.85983 
L 2127.690221 475.87343 
L 2129.640098 476.720008 
L 2131.589975 474.408541 
L 2133.539853 476.68966 
L 2135.48973 476.63442 
L 2137.439607 471.887256 
L 2139.389484 475.293784 
L 2141.339361 476.401816 
L 2143.289238 476.506271 
L 2145.239115 476.21892 
L 2147.188993 476.6387 
L 2149.13887 476.696233 
L 2153.038624 476.439897 
L 2154.988501 476.725277 
L 2156.938378 476.293145 
L 2158.888256 476.591834 
L 2160.838133 476.730187 
L 2162.78801 474.715214 
L 2164.737887 476.789152 
L 2166.687764 476.548992 
L 2172.537396 476.776749 
L 2174.487273 475.38419 
L 2176.43715 472.301919 
L 2178.387027 475.6277 
L 2180.336904 472.325107 
L 2182.286781 469.934724 
L 2184.236658 476.512342 
L 2186.186536 470.480431 
L 2188.136413 476.476852 
L 2190.08629 475.843085 
L 2192.036167 476.235179 
L 2195.935921 475.700038 
L 2197.885799 476.175213 
L 2199.835676 476.250184 
L 2203.73543 475.937381 
L 2205.685307 476.628089 
L 2207.635184 476.260453 
L 2209.585061 476.470271 
L 2211.534939 476.153108 
L 2213.484816 476.744278 
L 2215.434693 476.682114 
L 2217.38457 476.74142 
L 2219.334447 469.85366 
L 2221.284324 475.618655 
L 2223.234201 476.677533 
L 2225.184079 476.629011 
L 2227.133956 474.210007 
L 2229.083833 476.422239 
L 2231.03371 476.697234 
L 2232.983587 476.579682 
L 2234.933464 476.74577 
L 2236.883342 476.565786 
L 2240.783096 476.656251 
L 2242.732973 475.86049 
L 2244.68285 476.2729 
L 2246.632727 475.97716 
L 2248.582604 476.545496 
L 2250.532482 476.396049 
L 2252.482359 475.430792 
L 2254.432236 476.572496 
L 2256.382113 476.594188 
L 2258.33199 476.728853 
L 2264.181622 476.708148 
L 2266.131499 471.63697 
L 2268.081376 470.906458 
L 2270.031253 476.639922 
L 2271.98113 476.703999 
L 2273.931007 476.469542 
L 2275.880885 476.660238 
L 2277.830762 476.702176 
L 2279.780639 476.42049 
L 2283.680393 476.417667 
L 2285.63027 476.723266 
L 2287.580147 475.173477 
L 2289.530025 475.334984 
L 2291.479902 476.402059 
L 2293.429779 476.743424 
L 2295.379656 476.485271 
L 2297.329533 475.308362 
L 2299.27941 469.533986 
L 2301.229287 476.60771 
L 2303.179165 469.871595 
L 2305.129042 476.428825 
L 2307.078919 476.628216 
L 2309.028796 476.476879 
L 2310.978673 476.023277 
L 2312.92855 476.514191 
L 2314.878428 476.281226 
L 2316.828305 476.20502 
L 2318.778182 476.617473 
L 2320.728059 476.557331 
L 2322.677936 476.681203 
L 2324.627813 470.080176 
L 2326.57769 476.62482 
L 2328.527568 476.336686 
L 2330.477445 476.637683 
L 2334.377199 476.74995 
L 2342.176708 476.745347 
L 2344.126585 475.973556 
L 2346.076462 473.65793 
L 2348.026339 472.193174 
L 2349.976216 476.702077 
L 2351.926093 476.60064 
L 2353.875971 475.403239 
L 2355.825848 476.705662 
L 2357.775725 476.315693 
L 2359.725602 476.392116 
L 2361.675479 476.25737 
L 2363.625356 475.05333 
L 2365.575233 475.379448 
L 2367.525111 476.160815 
L 2369.474988 476.335903 
L 2371.424865 476.710325 
L 2373.374742 469.979785 
L 2375.324619 476.488279 
L 2377.274496 476.393166 
L 2383.124128 476.716828 
L 2385.074005 471.533 
L 2387.023882 476.471479 
L 2388.973759 476.508905 
L 2390.923636 476.306602 
L 2390.923636 476.306602 
" clip-path="url(#peb403a36d4)" style="fill: none; stroke: #1f77b4; stroke-width: 1.5; stroke-linecap: square"/>
   </g>
   <g id="patch_3">
    <path d="M 345.6 491.433882 
L 345.6 170.208 
" style="fill: none; stroke: #000000; stroke-width: 0.8; stroke-linejoin: miter; stroke-linecap: square"/>
   </g>
   <g id="patch_4">
    <path d="M 2488.32 491.433882 
L 2488.32 170.208 
" style="fill: none; stroke: #000000; stroke-width: 0.8; stroke-linejoin: miter; stroke-linecap: square"/>
   </g>
   <g id="patch_5">
    <path d="M 345.6 491.433882 
L 2488.32 491.433882 
" style="fill: none; stroke: #000000; stroke-width: 0.8; stroke-linejoin: miter; stroke-linecap: square"/>
   </g>
   <g id="patch_6">
    <path d="M 345.6 170.208 
L 2488.32 170.208 
" style="fill: none; stroke: #000000; stroke-width: 0.8; stroke-linejoin: miter; stroke-linecap: square"/>
   </g>
  </g>
  <g id="axes_2">
   <g id="patch_7">
    <path d="M 345.6 876.904941 
L 2488.32 876.904941 
L 2488.32 555.679059 
L 345.6 555.679059 
z
" style="fill: #ffffff"/>
   </g>
   <g id="matplotlib.axis_3">
    <g id="xtick_7">
     <g id="line2d_13">
      <g>
       <use xlink:href="#m14f1a5e5ec" x="442.996364" y="876.904941" style="stroke: #000000; stroke-width: 0.8"/>
      </g>
     </g>
     <g id="text_12">
      <!-- 0 -->
      <g transform="translate(439.815114 891.503379) scale(0.1 -0.1)">
       <use xlink:href="#DejaVuSans-30"/>
      </g>
     </g>
    </g>
    <g id="xtick_8">
     <g id="line2d_14">
      <g>
       <use xlink:href="#m14f1a5e5ec" x="836.517025" y="876.904941" style="stroke: #000000; stroke-width: 0.8"/>
      </g>
     </g>
     <g id="text_13">
      <!-- 20 -->
      <g transform="translate(830.154525 891.503379) scale(0.1 -0.1)">
       <use xlink:href="#DejaVuSans-32"/>
       <use xlink:href="#DejaVuSans-30" x="63.623047"/>
      </g>
     </g>
    </g>
    <g id="xtick_9">
     <g id="line2d_15">
      <g>
       <use xlink:href="#m14f1a5e5ec" x="1230.037686" y="876.904941" style="stroke: #000000; stroke-width: 0.8"/>
      </g>
     </g>
     <g id="text_14">
      <!-- 40 -->
      <g transform="translate(1223.675186 891.503379) scale(0.1 -0.1)">
       <use xlink:href="#DejaVuSans-34"/>
       <use xlink:href="#DejaVuSans-30" x="63.623047"/>
      </g>
     </g>
    </g>
    <g id="xtick_10">
     <g id="line2d_16">
      <g>
       <use xlink:href="#m14f1a5e5ec" x="1623.558347" y="876.904941" style="stroke: #000000; stroke-width: 0.8"/>
      </g>
     </g>
     <g id="text_15">
      <!-- 60 -->
      <g transform="translate(1617.195847 891.503379) scale(0.1 -0.1)">
       <use xlink:href="#DejaVuSans-36"/>
       <use xlink:href="#DejaVuSans-30" x="63.623047"/>
      </g>
     </g>
    </g>
    <g id="xtick_11">
     <g id="line2d_17">
      <g>
       <use xlink:href="#m14f1a5e5ec" x="2017.079008" y="876.904941" style="stroke: #000000; stroke-width: 0.8"/>
      </g>
     </g>
     <g id="text_16">
      <!-- 80 -->
      <g transform="translate(2010.716508 891.503379) scale(0.1 -0.1)">
       <use xlink:href="#DejaVuSans-38"/>
       <use xlink:href="#DejaVuSans-30" x="63.623047"/>
      </g>
     </g>
    </g>
    <g id="xtick_12">
     <g id="line2d_18">
      <g>
       <use xlink:href="#m14f1a5e5ec" x="2410.599669" y="876.904941" style="stroke: #000000; stroke-width: 0.8"/>
      </g>
     </g>
     <g id="text_17">
      <!-- 100 -->
      <g transform="translate(2401.055919 891.503379) scale(0.1 -0.1)">
       <use xlink:href="#DejaVuSans-31"/>
       <use xlink:href="#DejaVuSans-30" x="63.623047"/>
       <use xlink:href="#DejaVuSans-30" x="127.246094"/>
      </g>
     </g>
    </g>
   </g>
   <g id="matplotlib.axis_4">
    <g id="ytick_6">
     <g id="line2d_19">
      <g>
       <use xlink:href="#m1a3d6b96a4" x="345.6" y="871.999642" style="stroke: #000000; stroke-width: 0.8"/>
      </g>
     </g>
     <g id="text_18">
      <!-- 0.0 -->
      <g transform="translate(322.696875 875.798861) scale(0.1 -0.1)">
       <use xlink:href="#DejaVuSans-30"/>
       <use xlink:href="#DejaVuSans-2e" x="63.623047"/>
       <use xlink:href="#DejaVuSans-30" x="95.410156"/>
      </g>
     </g>
    </g>
    <g id="ytick_7">
     <g id="line2d_20">
      <g>
       <use xlink:href="#m1a3d6b96a4" x="345.6" y="831.568916" style="stroke: #000000; stroke-width: 0.8"/>
      </g>
     </g>
     <g id="text_19">
      <!-- 0.5 -->
      <g transform="translate(322.696875 835.368135) scale(0.1 -0.1)">
       <use xlink:href="#DejaVuSans-30"/>
       <use xlink:href="#DejaVuSans-2e" x="63.623047"/>
       <use xlink:href="#DejaVuSans-35" x="95.410156"/>
      </g>
     </g>
    </g>
    <g id="ytick_8">
     <g id="line2d_21">
      <g>
       <use xlink:href="#m1a3d6b96a4" x="345.6" y="791.13819" style="stroke: #000000; stroke-width: 0.8"/>
      </g>
     </g>
     <g id="text_20">
      <!-- 1.0 -->
      <g transform="translate(322.696875 794.937409) scale(0.1 -0.1)">
       <use xlink:href="#DejaVuSans-31"/>
       <use xlink:href="#DejaVuSans-2e" x="63.623047"/>
       <use xlink:href="#DejaVuSans-30" x="95.410156"/>
      </g>
     </g>
    </g>
    <g id="ytick_9">
     <g id="line2d_22">
      <g>
       <use xlink:href="#m1a3d6b96a4" x="345.6" y="750.707464" style="stroke: #000000; stroke-width: 0.8"/>
      </g>
     </g>
     <g id="text_21">
      <!-- 1.5 -->
      <g transform="translate(322.696875 754.506682) scale(0.1 -0.1)">
       <use xlink:href="#DejaVuSans-31"/>
       <use xlink:href="#DejaVuSans-2e" x="63.623047"/>
       <use xlink:href="#DejaVuSans-35" x="95.410156"/>
      </g>
     </g>
    </g>
    <g id="ytick_10">
     <g id="line2d_23">
      <g>
       <use xlink:href="#m1a3d6b96a4" x="345.6" y="710.276738" style="stroke: #000000; stroke-width: 0.8"/>
      </g>
     </g>
     <g id="text_22">
      <!-- 2.0 -->
      <g transform="translate(322.696875 714.075956) scale(0.1 -0.1)">
       <use xlink:href="#DejaVuSans-32"/>
       <use xlink:href="#DejaVuSans-2e" x="63.623047"/>
       <use xlink:href="#DejaVuSans-30" x="95.410156"/>
      </g>
     </g>
    </g>
    <g id="ytick_11">
     <g id="line2d_24">
      <g>
       <use xlink:href="#m1a3d6b96a4" x="345.6" y="669.846011" style="stroke: #000000; stroke-width: 0.8"/>
      </g>
     </g>
     <g id="text_23">
      <!-- 2.5 -->
      <g transform="translate(322.696875 673.64523) scale(0.1 -0.1)">
       <use xlink:href="#DejaVuSans-32"/>
       <use xlink:href="#DejaVuSans-2e" x="63.623047"/>
       <use xlink:href="#DejaVuSans-35" x="95.410156"/>
      </g>
     </g>
    </g>
    <g id="ytick_12">
     <g id="line2d_25">
      <g>
       <use xlink:href="#m1a3d6b96a4" x="345.6" y="629.415285" style="stroke: #000000; stroke-width: 0.8"/>
      </g>
     </g>
     <g id="text_24">
      <!-- 3.0 -->
      <g transform="translate(322.696875 633.214504) scale(0.1 -0.1)">
       <defs>
        <path id="DejaVuSans-33" d="M 2597 2516 
Q 3050 2419 3304 2112 
Q 3559 1806 3559 1356 
Q 3559 666 3084 287 
Q 2609 -91 1734 -91 
Q 1441 -91 1130 -33 
Q 819 25 488 141 
L 488 750 
Q 750 597 1062 519 
Q 1375 441 1716 441 
Q 2309 441 2620 675 
Q 2931 909 2931 1356 
Q 2931 1769 2642 2001 
Q 2353 2234 1838 2234 
L 1294 2234 
L 1294 2753 
L 1863 2753 
Q 2328 2753 2575 2939 
Q 2822 3125 2822 3475 
Q 2822 3834 2567 4026 
Q 2313 4219 1838 4219 
Q 1578 4219 1281 4162 
Q 984 4106 628 3988 
L 628 4550 
Q 988 4650 1302 4700 
Q 1616 4750 1894 4750 
Q 2613 4750 3031 4423 
Q 3450 4097 3450 3541 
Q 3450 3153 3228 2886 
Q 3006 2619 2597 2516 
z
" transform="scale(0.015625)"/>
       </defs>
       <use xlink:href="#DejaVuSans-33"/>
       <use xlink:href="#DejaVuSans-2e" x="63.623047"/>
       <use xlink:href="#DejaVuSans-30" x="95.410156"/>
      </g>
     </g>
    </g>
    <g id="ytick_13">
     <g id="line2d_26">
      <g>
       <use xlink:href="#m1a3d6b96a4" x="345.6" y="588.984559" style="stroke: #000000; stroke-width: 0.8"/>
      </g>
     </g>
     <g id="text_25">
      <!-- 3.5 -->
      <g transform="translate(322.696875 592.783778) scale(0.1 -0.1)">
       <use xlink:href="#DejaVuSans-33"/>
       <use xlink:href="#DejaVuSans-2e" x="63.623047"/>
       <use xlink:href="#DejaVuSans-35" x="95.410156"/>
      </g>
     </g>
    </g>
   </g>
   <g id="line2d_27">
    <path d="M 442.996364 862.303765 
L 462.672397 852.905707 
L 482.34843 843.796322 
L 502.024463 834.96674 
L 521.700496 826.408367 
L 541.376529 818.112875 
L 561.052562 810.072188 
L 580.728595 802.278477 
L 600.404628 794.724161 
L 620.080661 787.401887 
L 639.756694 780.304524 
L 659.432727 773.425157 
L 679.10876 766.757106 
L 698.784793 760.293864 
L 718.460826 754.029146 
L 738.13686 747.95686 
L 757.812893 742.071088 
L 777.488926 736.366103 
L 797.164959 730.836354 
L 816.840992 725.476461 
L 836.517025 720.2812 
L 856.193058 715.24552 
L 875.869091 710.364514 
L 895.545124 705.63344 
L 915.221157 701.047671 
L 934.89719 696.602773 
L 954.573223 692.294408 
L 974.249256 688.118373 
L 993.925289 684.0706 
L 1013.601322 680.147156 
L 1033.277355 676.344225 
L 1052.953388 672.658105 
L 1072.629421 669.085209 
L 1092.305455 665.622068 
L 1111.981488 662.265308 
L 1131.657521 659.011651 
L 1151.333554 655.857936 
L 1171.009587 652.801078 
L 1190.68562 649.838127 
L 1210.361653 646.966173 
L 1230.037686 644.182439 
L 1249.713719 641.484206 
L 1269.389752 638.868854 
L 1289.065785 636.333836 
L 1308.741818 633.876686 
L 1328.417851 631.495013 
L 1348.093884 629.186503 
L 1367.769917 626.9489 
L 1387.44595 624.780027 
L 1407.121983 622.677763 
L 1426.798017 620.640082 
L 1446.47405 618.664981 
L 1466.150083 616.75055 
L 1485.826116 614.89492 
L 1505.502149 613.096298 
L 1525.178182 611.352909 
L 1544.854215 609.663078 
L 1564.530248 608.025145 
L 1584.206281 606.437529 
L 1603.882314 604.898671 
L 1623.558347 603.407083 
L 1643.23438 601.961322 
L 1662.910413 600.55996 
L 1682.586446 599.201648 
L 1702.262479 597.885055 
L 1721.938512 596.60891 
L 1741.614545 595.371958 
L 1761.290579 594.173005 
L 1780.966612 593.010874 
L 1800.642645 591.884429 
L 1820.318678 590.792589 
L 1839.994711 589.734295 
L 1859.670744 588.708505 
L 1879.346777 587.714216 
L 1899.02281 586.750465 
L 1918.698843 585.816327 
L 1938.374876 584.910875 
L 1958.050909 584.033243 
L 1977.726942 583.182563 
L 1997.402975 582.358006 
L 2017.079008 581.558781 
L 2036.755041 580.784098 
L 2056.431074 580.033224 
L 2076.107107 579.305408 
L 2095.78314 578.599956 
L 2115.459174 577.916173 
L 2135.135207 577.253384 
L 2154.81124 576.610954 
L 2174.487273 575.988266 
L 2194.163306 575.384702 
L 2213.839339 574.799666 
L 2233.515372 574.232597 
L 2253.191405 573.682956 
L 2272.867438 573.150204 
L 2292.543471 572.6338 
L 2312.219504 572.133263 
L 2331.895537 571.64811 
L 2351.57157 571.17786 
L 2371.247603 570.722049 
L 2390.923636 570.280235 
" clip-path="url(#p72eb04b1db)" style="fill: none; stroke: #1f77b4; stroke-width: 1.5; stroke-linecap: square"/>
   </g>
   <g id="line2d_28">
    <path d="M 442.996364 856.804601 
L 462.672397 843.86287 
L 482.34843 832.840298 
L 502.024463 823.452289 
L 521.700496 815.456449 
L 541.376529 808.646332 
L 561.052562 802.846105 
L 580.728595 797.906004 
L 600.404628 793.698487 
L 620.080661 790.114906 
L 639.756694 787.062742 
L 659.432727 784.463198 
L 679.10876 782.249145 
L 698.784793 780.363421 
L 718.460826 778.757336 
L 738.13686 777.389414 
L 757.812893 776.224353 
L 777.488926 775.23206 
L 797.164959 774.386912 
L 816.840992 773.667097 
L 836.517025 773.054019 
L 856.193058 772.531861 
L 875.869091 772.087136 
L 895.545124 771.708354 
L 915.221157 771.385751 
L 934.89719 771.110979 
L 954.573223 770.876962 
L 974.249256 770.677648 
L 993.925289 770.507888 
L 1013.601322 770.363296 
L 1033.277355 770.240152 
L 1052.953388 770.135266 
L 1072.629421 770.045937 
L 1092.305455 769.969853 
L 1111.981488 769.905047 
L 1131.657521 769.849852 
L 1151.333554 769.80285 
L 1171.009587 769.762817 
L 1190.68562 769.728713 
L 1210.361653 769.699669 
L 1230.037686 769.674934 
L 1249.713719 769.653872 
L 1269.389752 769.635924 
L 1289.065785 769.620645 
L 1308.741818 769.607632 
L 1328.417851 769.596546 
L 1348.093884 769.5871 
L 1367.769917 769.57906 
L 1387.44595 769.572207 
L 1407.121983 769.566375 
L 1426.798017 769.561411 
L 1446.47405 769.557179 
L 1466.150083 769.553574 
L 1485.826116 769.550508 
L 1505.502149 769.547896 
L 1525.178182 769.545669 
L 1544.854215 769.54377 
L 1564.530248 769.542151 
L 1584.206281 769.540773 
L 1603.882314 769.539606 
L 1623.558347 769.538604 
L 1643.23438 769.537755 
L 1662.910413 769.537033 
L 1682.586446 769.536416 
L 1702.262479 769.535895 
L 1721.938512 769.535452 
L 1741.614545 769.535066 
L 1761.290579 769.534738 
L 1780.966612 769.534459 
L 1800.642645 769.534227 
L 1820.318678 769.534025 
L 1839.994711 769.533852 
L 1859.670744 769.533707 
L 1879.346777 769.533582 
L 1899.02281 769.533476 
L 1918.698843 769.533389 
L 1938.374876 769.533312 
L 1958.050909 769.533244 
L 1977.726942 769.533186 
L 1997.402975 769.533138 
L 2017.079008 769.5331 
L 2036.755041 769.533071 
L 2056.431074 769.533042 
L 2076.107107 769.533013 
L 2095.78314 769.532994 
L 2115.459174 769.532974 
L 2135.135207 769.532955 
L 2154.81124 769.532945 
L 2174.487273 769.532936 
L 2194.163306 769.532926 
L 2213.839339 769.532916 
L 2233.515372 769.532907 
L 2253.191405 769.532897 
L 2272.867438 769.532888 
L 2292.543471 769.532888 
L 2312.219504 769.532888 
L 2331.895537 769.532888 
L 2351.57157 769.532888 
L 2371.247603 769.532888 
L 2390.923636 769.532888 
" clip-path="url(#p72eb04b1db)" style="fill: none; stroke: #ff7f0e; stroke-width: 1.5; stroke-linecap: square"/>
   </g>
   <g id="patch_8">
    <path d="M 345.6 876.904941 
L 345.6 555.679059 
" style="fill: none; stroke: #000000; stroke-width: 0.8; stroke-linejoin: miter; stroke-linecap: square"/>
   </g>
   <g id="patch_9">
    <path d="M 2488.32 876.904941 
L 2488.32 555.679059 
" style="fill: none; stroke: #000000; stroke-width: 0.8; stroke-linejoin: miter; stroke-linecap: square"/>
   </g>
   <g id="patch_10">
    <path d="M 345.6 876.904941 
L 2488.32 876.904941 
" style="fill: none; stroke: #000000; stroke-width: 0.8; stroke-linejoin: miter; stroke-linecap: square"/>
   </g>
   <g id="patch_11">
    <path d="M 345.6 555.679059 
L 2488.32 555.679059 
" style="fill: none; stroke: #000000; stroke-width: 0.8; stroke-linejoin: miter; stroke-linecap: square"/>
   </g>
   <g id="text_26">
    <!-- Source -->
    <g transform="translate(1396.354687 549.679059) scale(0.12 -0.12)">
     <defs>
      <path id="DejaVuSans-53" d="M 3425 4513 
L 3425 3897 
Q 3066 4069 2747 4153 
Q 2428 4238 2131 4238 
Q 1616 4238 1336 4038 
Q 1056 3838 1056 3469 
Q 1056 3159 1242 3001 
Q 1428 2844 1947 2747 
L 2328 2669 
Q 3034 2534 3370 2195 
Q 3706 1856 3706 1288 
Q 3706 609 3251 259 
Q 2797 -91 1919 -91 
Q 1588 -91 1214 -16 
Q 841 59 441 206 
L 441 856 
Q 825 641 1194 531 
Q 1563 422 1919 422 
Q 2459 422 2753 634 
Q 3047 847 3047 1241 
Q 3047 1584 2836 1778 
Q 2625 1972 2144 2069 
L 1759 2144 
Q 1053 2284 737 2584 
Q 422 2884 422 3419 
Q 422 4038 858 4394 
Q 1294 4750 2059 4750 
Q 2388 4750 2728 4690 
Q 3069 4631 3425 4513 
z
" transform="scale(0.015625)"/>
      <path id="DejaVuSans-6f" d="M 1959 3097 
Q 1497 3097 1228 2736 
Q 959 2375 959 1747 
Q 959 1119 1226 758 
Q 1494 397 1959 397 
Q 2419 397 2687 759 
Q 2956 1122 2956 1747 
Q 2956 2369 2687 2733 
Q 2419 3097 1959 3097 
z
M 1959 3584 
Q 2709 3584 3137 3096 
Q 3566 2609 3566 1747 
Q 3566 888 3137 398 
Q 2709 -91 1959 -91 
Q 1206 -91 779 398 
Q 353 888 353 1747 
Q 353 2609 779 3096 
Q 1206 3584 1959 3584 
z
" transform="scale(0.015625)"/>
      <path id="DejaVuSans-75" d="M 544 1381 
L 544 3500 
L 1119 3500 
L 1119 1403 
Q 1119 906 1312 657 
Q 1506 409 1894 409 
Q 2359 409 2629 706 
Q 2900 1003 2900 1516 
L 2900 3500 
L 3475 3500 
L 3475 0 
L 2900 0 
L 2900 538 
Q 2691 219 2414 64 
Q 2138 -91 1772 -91 
Q 1169 -91 856 284 
Q 544 659 544 1381 
z
M 1991 3584 
L 1991 3584 
z
" transform="scale(0.015625)"/>
      <path id="DejaVuSans-72" d="M 2631 2963 
Q 2534 3019 2420 3045 
Q 2306 3072 2169 3072 
Q 1681 3072 1420 2755 
Q 1159 2438 1159 1844 
L 1159 0 
L 581 0 
L 581 3500 
L 1159 3500 
L 1159 2956 
Q 1341 3275 1631 3429 
Q 1922 3584 2338 3584 
Q 2397 3584 2469 3576 
Q 2541 3569 2628 3553 
L 2631 2963 
z
" transform="scale(0.015625)"/>
      <path id="DejaVuSans-63" d="M 3122 3366 
L 3122 2828 
Q 2878 2963 2633 3030 
Q 2388 3097 2138 3097 
Q 1578 3097 1268 2742 
Q 959 2388 959 1747 
Q 959 1106 1268 751 
Q 1578 397 2138 397 
Q 2388 397 2633 464 
Q 2878 531 3122 666 
L 3122 134 
Q 2881 22 2623 -34 
Q 2366 -91 2075 -91 
Q 1284 -91 818 406 
Q 353 903 353 1747 
Q 353 2603 823 3093 
Q 1294 3584 2113 3584 
Q 2378 3584 2631 3529 
Q 2884 3475 3122 3366 
z
" transform="scale(0.015625)"/>
      <path id="DejaVuSans-65" d="M 3597 1894 
L 3597 1613 
L 953 1613 
Q 991 1019 1311 708 
Q 1631 397 2203 397 
Q 2534 397 2845 478 
Q 3156 559 3463 722 
L 3463 178 
Q 3153 47 2828 -22 
Q 2503 -91 2169 -91 
Q 1331 -91 842 396 
Q 353 884 353 1716 
Q 353 2575 817 3079 
Q 1281 3584 2069 3584 
Q 2775 3584 3186 3129 
Q 3597 2675 3597 1894 
z
M 3022 2063 
Q 3016 2534 2758 2815 
Q 2500 3097 2075 3097 
Q 1594 3097 1305 2825 
Q 1016 2553 972 2059 
L 3022 2063 
z
" transform="scale(0.015625)"/>
     </defs>
     <use xlink:href="#DejaVuSans-53"/>
     <use xlink:href="#DejaVuSans-6f" x="63.476562"/>
     <use xlink:href="#DejaVuSans-75" x="124.658203"/>
     <use xlink:href="#DejaVuSans-72" x="188.037109"/>
     <use xlink:href="#DejaVuSans-63" x="226.900391"/>
     <use xlink:href="#DejaVuSans-65" x="281.880859"/>
    </g>
   </g>
  </g>
  <g id="axes_3">
   <g id="patch_12">
    <path d="M 345.6 1262.376 
L 2488.32 1262.376 
L 2488.32 941.150118 
L 345.6 941.150118 
z
" style="fill: #ffffff"/>
   </g>
   <g id="matplotlib.axis_5">
    <g id="xtick_13">
     <g id="line2d_29">
      <g>
       <use xlink:href="#m14f1a5e5ec" x="442.996364" y="1262.376" style="stroke: #000000; stroke-width: 0.8"/>
      </g>
     </g>
     <g id="text_27">
      <!-- 0 -->
      <g transform="translate(439.815114 1276.974437) scale(0.1 -0.1)">
       <use xlink:href="#DejaVuSans-30"/>
      </g>
     </g>
    </g>
    <g id="xtick_14">
     <g id="line2d_30">
      <g>
       <use xlink:href="#m14f1a5e5ec" x="836.517025" y="1262.376" style="stroke: #000000; stroke-width: 0.8"/>
      </g>
     </g>
     <g id="text_28">
      <!-- 20 -->
      <g transform="translate(830.154525 1276.974437) scale(0.1 -0.1)">
       <use xlink:href="#DejaVuSans-32"/>
       <use xlink:href="#DejaVuSans-30" x="63.623047"/>
      </g>
     </g>
    </g>
    <g id="xtick_15">
     <g id="line2d_31">
      <g>
       <use xlink:href="#m14f1a5e5ec" x="1230.037686" y="1262.376" style="stroke: #000000; stroke-width: 0.8"/>
      </g>
     </g>
     <g id="text_29">
      <!-- 40 -->
      <g transform="translate(1223.675186 1276.974437) scale(0.1 -0.1)">
       <use xlink:href="#DejaVuSans-34"/>
       <use xlink:href="#DejaVuSans-30" x="63.623047"/>
      </g>
     </g>
    </g>
    <g id="xtick_16">
     <g id="line2d_32">
      <g>
       <use xlink:href="#m14f1a5e5ec" x="1623.558347" y="1262.376" style="stroke: #000000; stroke-width: 0.8"/>
      </g>
     </g>
     <g id="text_30">
      <!-- 60 -->
      <g transform="translate(1617.195847 1276.974437) scale(0.1 -0.1)">
       <use xlink:href="#DejaVuSans-36"/>
       <use xlink:href="#DejaVuSans-30" x="63.623047"/>
      </g>
     </g>
    </g>
    <g id="xtick_17">
     <g id="line2d_33">
      <g>
       <use xlink:href="#m14f1a5e5ec" x="2017.079008" y="1262.376" style="stroke: #000000; stroke-width: 0.8"/>
      </g>
     </g>
     <g id="text_31">
      <!-- 80 -->
      <g transform="translate(2010.716508 1276.974437) scale(0.1 -0.1)">
       <use xlink:href="#DejaVuSans-38"/>
       <use xlink:href="#DejaVuSans-30" x="63.623047"/>
      </g>
     </g>
    </g>
    <g id="xtick_18">
     <g id="line2d_34">
      <g>
       <use xlink:href="#m14f1a5e5ec" x="2410.599669" y="1262.376" style="stroke: #000000; stroke-width: 0.8"/>
      </g>
     </g>
     <g id="text_32">
      <!-- 100 -->
      <g transform="translate(2401.055919 1276.974437) scale(0.1 -0.1)">
       <use xlink:href="#DejaVuSans-31"/>
       <use xlink:href="#DejaVuSans-30" x="63.623047"/>
       <use xlink:href="#DejaVuSans-30" x="127.246094"/>
      </g>
     </g>
    </g>
   </g>
   <g id="matplotlib.axis_6">
    <g id="ytick_14">
     <g id="line2d_35">
      <g>
       <use xlink:href="#m1a3d6b96a4" x="345.6" y="1253.19776" style="stroke: #000000; stroke-width: 0.8"/>
      </g>
     </g>
     <g id="text_33">
      <!-- 0.00 -->
      <g transform="translate(316.334375 1256.996979) scale(0.1 -0.1)">
       <use xlink:href="#DejaVuSans-30"/>
       <use xlink:href="#DejaVuSans-2e" x="63.623047"/>
       <use xlink:href="#DejaVuSans-30" x="95.410156"/>
       <use xlink:href="#DejaVuSans-30" x="159.033203"/>
      </g>
     </g>
    </g>
    <g id="ytick_15">
     <g id="line2d_36">
      <g>
       <use xlink:href="#m1a3d6b96a4" x="345.6" y="1204.690297" style="stroke: #000000; stroke-width: 0.8"/>
      </g>
     </g>
     <g id="text_34">
      <!-- 0.05 -->
      <g transform="translate(316.334375 1208.489516) scale(0.1 -0.1)">
       <use xlink:href="#DejaVuSans-30"/>
       <use xlink:href="#DejaVuSans-2e" x="63.623047"/>
       <use xlink:href="#DejaVuSans-30" x="95.410156"/>
       <use xlink:href="#DejaVuSans-35" x="159.033203"/>
      </g>
     </g>
    </g>
    <g id="ytick_16">
     <g id="line2d_37">
      <g>
       <use xlink:href="#m1a3d6b96a4" x="345.6" y="1156.182834" style="stroke: #000000; stroke-width: 0.8"/>
      </g>
     </g>
     <g id="text_35">
      <!-- 0.10 -->
      <g transform="translate(316.334375 1159.982053) scale(0.1 -0.1)">
       <use xlink:href="#DejaVuSans-30"/>
       <use xlink:href="#DejaVuSans-2e" x="63.623047"/>
       <use xlink:href="#DejaVuSans-31" x="95.410156"/>
       <use xlink:href="#DejaVuSans-30" x="159.033203"/>
      </g>
     </g>
    </g>
    <g id="ytick_17">
     <g id="line2d_38">
      <g>
       <use xlink:href="#m1a3d6b96a4" x="345.6" y="1107.675371" style="stroke: #000000; stroke-width: 0.8"/>
      </g>
     </g>
     <g id="text_36">
      <!-- 0.15 -->
      <g transform="translate(316.334375 1111.47459) scale(0.1 -0.1)">
       <use xlink:href="#DejaVuSans-30"/>
       <use xlink:href="#DejaVuSans-2e" x="63.623047"/>
       <use xlink:href="#DejaVuSans-31" x="95.410156"/>
       <use xlink:href="#DejaVuSans-35" x="159.033203"/>
      </g>
     </g>
    </g>
    <g id="ytick_18">
     <g id="line2d_39">
      <g>
       <use xlink:href="#m1a3d6b96a4" x="345.6" y="1059.167908" style="stroke: #000000; stroke-width: 0.8"/>
      </g>
     </g>
     <g id="text_37">
      <!-- 0.20 -->
      <g transform="translate(316.334375 1062.967127) scale(0.1 -0.1)">
       <use xlink:href="#DejaVuSans-30"/>
       <use xlink:href="#DejaVuSans-2e" x="63.623047"/>
       <use xlink:href="#DejaVuSans-32" x="95.410156"/>
       <use xlink:href="#DejaVuSans-30" x="159.033203"/>
      </g>
     </g>
    </g>
    <g id="ytick_19">
     <g id="line2d_40">
      <g>
       <use xlink:href="#m1a3d6b96a4" x="345.6" y="1010.660445" style="stroke: #000000; stroke-width: 0.8"/>
      </g>
     </g>
     <g id="text_38">
      <!-- 0.25 -->
      <g transform="translate(316.334375 1014.459664) scale(0.1 -0.1)">
       <use xlink:href="#DejaVuSans-30"/>
       <use xlink:href="#DejaVuSans-2e" x="63.623047"/>
       <use xlink:href="#DejaVuSans-32" x="95.410156"/>
       <use xlink:href="#DejaVuSans-35" x="159.033203"/>
      </g>
     </g>
    </g>
    <g id="ytick_20">
     <g id="line2d_41">
      <g>
       <use xlink:href="#m1a3d6b96a4" x="345.6" y="962.152982" style="stroke: #000000; stroke-width: 0.8"/>
      </g>
     </g>
     <g id="text_39">
      <!-- 0.30 -->
      <g transform="translate(316.334375 965.952201) scale(0.1 -0.1)">
       <use xlink:href="#DejaVuSans-30"/>
       <use xlink:href="#DejaVuSans-2e" x="63.623047"/>
       <use xlink:href="#DejaVuSans-33" x="95.410156"/>
       <use xlink:href="#DejaVuSans-30" x="159.033203"/>
      </g>
     </g>
    </g>
   </g>
   <g id="line2d_42">
    <path d="M 442.996364 1247.774824 
L 462.672397 1240.467474 
L 482.34843 1231.488514 
L 502.024463 1221.055782 
L 521.700496 1209.387508 
L 541.376529 1196.698208 
L 561.052562 1183.195102 
L 580.728595 1169.07518 
L 600.404628 1154.522853 
L 620.080661 1139.708166 
L 639.756694 1125.44089 
L 659.432727 1112.327968 
L 679.10876 1100.275984 
L 698.784793 1089.199109 
L 718.460826 1079.018455 
L 738.13686 1069.661496 
L 757.812893 1061.061601 
L 777.488926 1053.157504 
L 797.164959 1045.892913 
L 816.840992 1039.216089 
L 836.517025 1033.079484 
L 856.193058 1027.439382 
L 875.869091 1022.255609 
L 895.545124 1017.491244 
L 915.221157 1013.112358 
L 934.89719 1009.087768 
L 954.573223 1005.388793 
L 974.249256 1001.989093 
L 993.925289 998.864468 
L 1013.601322 995.992656 
L 1033.277355 993.353187 
L 1052.953388 990.927267 
L 1072.629421 988.697635 
L 1092.305455 986.648389 
L 1111.981488 984.764958 
L 1131.657521 983.033897 
L 1151.333554 981.442918 
L 1171.009587 979.980658 
L 1190.68562 978.636709 
L 1210.361653 977.4015 
L 1230.037686 976.266214 
L 1249.713719 975.222784 
L 1269.389752 974.263779 
L 1289.065785 973.382375 
L 1308.741818 972.57227 
L 1328.417851 971.82771 
L 1348.093884 971.143404 
L 1367.769917 970.514466 
L 1387.44595 969.936415 
L 1407.121983 969.405115 
L 1426.798017 968.916808 
L 1446.47405 968.467996 
L 1466.150083 968.055499 
L 1485.826116 967.676395 
L 1505.502149 967.327969 
L 1525.178182 967.007731 
L 1544.854215 966.7134 
L 1564.530248 966.442864 
L 1584.206281 966.194215 
L 1603.882314 965.965689 
L 1623.558347 965.755667 
L 1643.23438 965.562617 
L 1662.910413 965.385208 
L 1682.586446 965.222141 
L 1702.262479 965.072257 
L 1721.938512 964.934517 
L 1741.614545 964.807909 
L 1761.290579 964.691564 
L 1780.966612 964.584616 
L 1800.642645 964.486342 
L 1820.318678 964.396018 
L 1839.994711 964.312981 
L 1859.670744 964.23668 
L 1879.346777 964.166538 
L 1899.02281 964.102063 
L 1918.698843 964.042821 
L 1938.374876 963.988378 
L 1958.050909 963.93833 
L 1977.726942 963.89233 
L 1997.402975 963.85006 
L 2017.079008 963.811201 
L 2036.755041 963.775494 
L 2056.431074 963.742678 
L 2076.107107 963.712522 
L 2095.78314 963.684795 
L 2115.459174 963.659323 
L 2135.135207 963.635903 
L 2154.81124 963.614363 
L 2174.487273 963.594587 
L 2194.163306 963.576401 
L 2213.839339 963.559689 
L 2233.515372 963.544337 
L 2253.191405 963.530227 
L 2272.867438 963.517246 
L 2292.543471 963.505305 
L 2312.219504 963.494347 
L 2331.895537 963.484256 
L 2351.57157 963.475004 
L 2371.247603 963.466504 
L 2390.923636 963.458668 
" clip-path="url(#p049c11a768)" style="fill: none; stroke: #1f77b4; stroke-width: 1.5; stroke-linecap: square"/>
   </g>
   <g id="line2d_43">
    <path d="M 442.996364 1238.53808 
L 462.672397 1224.481879 
L 482.34843 1211.023526 
L 502.024463 1198.153438 
L 521.700496 1185.858981 
L 541.376529 1174.125217 
L 561.052562 1162.935531 
L 580.728595 1152.272108 
L 600.404628 1142.116356 
L 620.080661 1132.449206 
L 639.756694 1123.259644 
L 659.432727 1114.543939 
L 679.10876 1106.277639 
L 698.784793 1098.437584 
L 718.460826 1091.001787 
L 738.13686 1083.949415 
L 757.812893 1077.260693 
L 777.488926 1070.916856 
L 797.164959 1064.900138 
L 816.840992 1059.193667 
L 836.517025 1053.78144 
L 856.193058 1048.648294 
L 875.869091 1043.779829 
L 895.545124 1039.162398 
L 915.221157 1034.783064 
L 934.89719 1030.629537 
L 954.573223 1026.690182 
L 974.249256 1022.953952 
L 993.925289 1019.410383 
L 1013.601322 1016.049527 
L 1033.277355 1012.861974 
L 1052.953388 1009.838775 
L 1072.629421 1006.971474 
L 1092.305455 1004.252032 
L 1111.981488 1001.672817 
L 1131.657521 999.226571 
L 1151.333554 996.906471 
L 1171.009587 994.706012 
L 1190.68562 992.619007 
L 1210.361653 990.639614 
L 1230.037686 988.762284 
L 1249.713719 986.981753 
L 1269.389752 985.293049 
L 1289.065785 983.69143 
L 1308.741818 982.172385 
L 1328.417851 980.731665 
L 1348.093884 979.365222 
L 1367.769917 978.069239 
L 1387.44595 976.840103 
L 1407.121983 975.674342 
L 1426.798017 974.568692 
L 1446.47405 973.520057 
L 1466.150083 972.525489 
L 1485.826116 971.582212 
L 1505.502149 970.687567 
L 1525.178182 969.839037 
L 1544.854215 969.03428 
L 1564.530248 968.271014 
L 1584.206281 967.547098 
L 1603.882314 966.860508 
L 1623.558347 966.209336 
L 1643.23438 965.591732 
L 1662.910413 965.005961 
L 1682.586446 964.450403 
L 1702.262479 963.923498 
L 1721.938512 963.423771 
L 1741.614545 962.949805 
L 1761.290579 962.50027 
L 1780.966612 962.073924 
L 1800.642645 961.669551 
L 1820.318678 961.286024 
L 1839.994711 960.922273 
L 1859.670744 960.577287 
L 1879.346777 960.250081 
L 1899.02281 959.939761 
L 1918.698843 959.64543 
L 1938.374876 959.366278 
L 1958.050909 959.101524 
L 1977.726942 958.850418 
L 1997.402975 958.612264 
L 2017.079008 958.386398 
L 2036.755041 958.172183 
L 2056.431074 957.969014 
L 2076.107107 957.776311 
L 2095.78314 957.593554 
L 2115.459174 957.420222 
L 2135.135207 957.255824 
L 2154.81124 957.099898 
L 2174.487273 956.95201 
L 2194.163306 956.811754 
L 2213.839339 956.678727 
L 2233.515372 956.552552 
L 2253.191405 956.432882 
L 2272.867438 956.3194 
L 2292.543471 956.211758 
L 2312.219504 956.109667 
L 2331.895537 956.012838 
L 2351.57157 955.921012 
L 2371.247603 955.833898 
L 2390.923636 955.751294 
" clip-path="url(#p049c11a768)" style="fill: none; stroke: #ff7f0e; stroke-width: 1.5; stroke-linecap: square"/>
   </g>
   <g id="patch_13">
    <path d="M 345.6 1262.376 
L 345.6 941.150118 
" style="fill: none; stroke: #000000; stroke-width: 0.8; stroke-linejoin: miter; stroke-linecap: square"/>
   </g>
   <g id="patch_14">
    <path d="M 2488.32 1262.376 
L 2488.32 941.150118 
" style="fill: none; stroke: #000000; stroke-width: 0.8; stroke-linejoin: miter; stroke-linecap: square"/>
   </g>
   <g id="patch_15">
    <path d="M 345.6 1262.376 
L 2488.32 1262.376 
" style="fill: none; stroke: #000000; stroke-width: 0.8; stroke-linejoin: miter; stroke-linecap: square"/>
   </g>
   <g id="patch_16">
    <path d="M 345.6 941.150118 
L 2488.32 941.150118 
" style="fill: none; stroke: #000000; stroke-width: 0.8; stroke-linejoin: miter; stroke-linecap: square"/>
   </g>
   <g id="text_40">
    <!-- Destination -->
    <g transform="translate(1382.53125 935.150118) scale(0.12 -0.12)">
     <defs>
      <path id="DejaVuSans-44" d="M 1259 4147 
L 1259 519 
L 2022 519 
Q 2988 519 3436 956 
Q 3884 1394 3884 2338 
Q 3884 3275 3436 3711 
Q 2988 4147 2022 4147 
L 1259 4147 
z
M 628 4666 
L 1925 4666 
Q 3281 4666 3915 4102 
Q 4550 3538 4550 2338 
Q 4550 1131 3912 565 
Q 3275 0 1925 0 
L 628 0 
L 628 4666 
z
" transform="scale(0.015625)"/>
      <path id="DejaVuSans-73" d="M 2834 3397 
L 2834 2853 
Q 2591 2978 2328 3040 
Q 2066 3103 1784 3103 
Q 1356 3103 1142 2972 
Q 928 2841 928 2578 
Q 928 2378 1081 2264 
Q 1234 2150 1697 2047 
L 1894 2003 
Q 2506 1872 2764 1633 
Q 3022 1394 3022 966 
Q 3022 478 2636 193 
Q 2250 -91 1575 -91 
Q 1294 -91 989 -36 
Q 684 19 347 128 
L 347 722 
Q 666 556 975 473 
Q 1284 391 1588 391 
Q 1994 391 2212 530 
Q 2431 669 2431 922 
Q 2431 1156 2273 1281 
Q 2116 1406 1581 1522 
L 1381 1569 
Q 847 1681 609 1914 
Q 372 2147 372 2553 
Q 372 3047 722 3315 
Q 1072 3584 1716 3584 
Q 2034 3584 2315 3537 
Q 2597 3491 2834 3397 
z
" transform="scale(0.015625)"/>
      <path id="DejaVuSans-74" d="M 1172 4494 
L 1172 3500 
L 2356 3500 
L 2356 3053 
L 1172 3053 
L 1172 1153 
Q 1172 725 1289 603 
Q 1406 481 1766 481 
L 2356 481 
L 2356 0 
L 1766 0 
Q 1100 0 847 248 
Q 594 497 594 1153 
L 594 3053 
L 172 3053 
L 172 3500 
L 594 3500 
L 594 4494 
L 1172 4494 
z
" transform="scale(0.015625)"/>
      <path id="DejaVuSans-69" d="M 603 3500 
L 1178 3500 
L 1178 0 
L 603 0 
L 603 3500 
z
M 603 4863 
L 1178 4863 
L 1178 4134 
L 603 4134 
L 603 4863 
z
" transform="scale(0.015625)"/>
      <path id="DejaVuSans-6e" d="M 3513 2113 
L 3513 0 
L 2938 0 
L 2938 2094 
Q 2938 2591 2744 2837 
Q 2550 3084 2163 3084 
Q 1697 3084 1428 2787 
Q 1159 2491 1159 1978 
L 1159 0 
L 581 0 
L 581 3500 
L 1159 3500 
L 1159 2956 
Q 1366 3272 1645 3428 
Q 1925 3584 2291 3584 
Q 2894 3584 3203 3211 
Q 3513 2838 3513 2113 
z
" transform="scale(0.015625)"/>
      <path id="DejaVuSans-61" d="M 2194 1759 
Q 1497 1759 1228 1600 
Q 959 1441 959 1056 
Q 959 750 1161 570 
Q 1363 391 1709 391 
Q 2188 391 2477 730 
Q 2766 1069 2766 1631 
L 2766 1759 
L 2194 1759 
z
M 3341 1997 
L 3341 0 
L 2766 0 
L 2766 531 
Q 2569 213 2275 61 
Q 1981 -91 1556 -91 
Q 1019 -91 701 211 
Q 384 513 384 1019 
Q 384 1609 779 1909 
Q 1175 2209 1959 2209 
L 2766 2209 
L 2766 2266 
Q 2766 2663 2505 2880 
Q 2244 3097 1772 3097 
Q 1472 3097 1187 3025 
Q 903 2953 641 2809 
L 641 3341 
Q 956 3463 1253 3523 
Q 1550 3584 1831 3584 
Q 2591 3584 2966 3190 
Q 3341 2797 3341 1997 
z
" transform="scale(0.015625)"/>
     </defs>
     <use xlink:href="#DejaVuSans-44"/>
     <use xlink:href="#DejaVuSans-65" x="77.001953"/>
     <use xlink:href="#DejaVuSans-73" x="138.525391"/>
     <use xlink:href="#DejaVuSans-74" x="190.625"/>
     <use xlink:href="#DejaVuSans-69" x="229.833984"/>
     <use xlink:href="#DejaVuSans-6e" x="257.617188"/>
     <use xlink:href="#DejaVuSans-61" x="320.996094"/>
     <use xlink:href="#DejaVuSans-74" x="382.275391"/>
     <use xlink:href="#DejaVuSans-69" x="421.484375"/>
     <use xlink:href="#DejaVuSans-6f" x="449.267578"/>
     <use xlink:href="#DejaVuSans-6e" x="510.449219"/>
    </g>
   </g>
  </g>
 </g>
 <defs>
  <clipPath id="peb403a36d4">
   <rect x="345.6" y="170.208" width="2142.72" height="321.225882"/>
  </clipPath>
  <clipPath id="p72eb04b1db">
   <rect x="345.6" y="555.679059" width="2142.72" height="321.225882"/>
  </clipPath>
  <clipPath id="p049c11a768">
   <rect x="345.6" y="941.150118" width="2142.72" height="321.225882"/>
  </clipPath>
 </defs>
</svg>
